<svg width="990" height="681" viewBox="0 0 990 681" fill="none" xmlns="http://www.w3.org/2000/svg">
<path d="M55.3592 250.172H57.1772V237.806H55.3592V250.172ZM64.5739 240.65C63.3139 240.65 62.1799 241.298 61.6219 242.216V240.866H59.8399V250.172H61.6219V244.142C61.7659 243.044 62.8819 242.198 64.1779 242.198C65.4379 242.198 66.3199 243.17 66.3199 244.556V250.172H68.0659V244.25C68.0659 242.144 66.6259 240.65 64.5739 240.65ZM77.7793 237.59V242.468C77.0593 241.334 75.9073 240.65 74.4673 240.65C72.0193 240.65 70.1833 242.666 70.1833 245.51C70.1833 248.372 72.0193 250.388 74.4673 250.388C75.9073 250.388 77.0593 249.704 77.7793 248.552V250.172H79.5433V237.59H77.7793ZM74.8993 248.84C73.1893 248.84 71.9833 247.454 71.9833 245.51C71.9833 243.566 73.1893 242.198 74.8993 242.198C76.5733 242.198 77.7793 243.566 77.7793 245.51C77.7793 247.454 76.5733 248.84 74.8993 248.84ZM86.4829 248.804C84.8809 248.804 83.7469 247.688 83.5129 246.14H90.8389C90.8389 242.81 89.2009 240.65 86.3569 240.65C83.7829 240.65 81.7129 242.702 81.7129 245.492C81.7129 248.354 83.9089 250.388 86.5009 250.388C87.8149 250.388 89.4349 249.83 90.2629 248.948L89.1469 247.796C88.5889 248.372 87.4549 248.804 86.4829 248.804ZM86.4289 242.234C88.0309 242.234 88.9129 243.278 89.1109 244.718H83.5309C83.8189 243.206 84.9889 242.234 86.4289 242.234ZM101.148 250.172L97.6024 245.402L100.986 240.866H99.0064L96.6124 244.07L94.2364 240.866H92.2204L95.6224 245.42L92.0764 250.172H94.0564L96.6124 246.752L99.1504 250.172H101.148ZM110.055 250.172H111.891V237.806H110.415L107.157 240.02L107.913 241.334L110.055 239.966V250.172ZM119.757 250.388C122.835 250.388 125.031 247.742 125.031 243.98C125.031 240.236 122.835 237.59 119.757 237.59C116.643 237.59 114.465 240.236 114.465 243.98C114.465 247.742 116.643 250.388 119.757 250.388ZM119.757 248.714C117.741 248.714 116.319 246.752 116.319 243.98C116.319 241.208 117.741 239.264 119.757 239.264C121.755 239.264 123.159 241.208 123.159 243.98C123.159 246.752 121.755 248.714 119.757 248.714Z" fill="#131F37"/>
<path d="M898.251 333.387H900.069V321.021H898.251V333.387ZM907.466 323.865C906.206 323.865 905.072 324.513 904.514 325.431V324.081H902.732V333.387H904.514V327.357C904.658 326.259 905.774 325.413 907.07 325.413C908.33 325.413 909.212 326.385 909.212 327.771V333.387H910.958V327.465C910.958 325.359 909.518 323.865 907.466 323.865ZM920.671 320.805V325.683C919.951 324.549 918.799 323.865 917.359 323.865C914.911 323.865 913.075 325.881 913.075 328.725C913.075 331.587 914.911 333.603 917.359 333.603C918.799 333.603 919.951 332.919 920.671 331.767V333.387H922.435V320.805H920.671ZM917.791 332.055C916.081 332.055 914.875 330.669 914.875 328.725C914.875 326.781 916.081 325.413 917.791 325.413C919.465 325.413 920.671 326.781 920.671 328.725C920.671 330.669 919.465 332.055 917.791 332.055ZM929.375 332.019C927.773 332.019 926.639 330.903 926.405 329.355H933.73C933.73 326.025 932.093 323.865 929.249 323.865C926.675 323.865 924.605 325.917 924.605 328.707C924.605 331.569 926.801 333.603 929.393 333.603C930.707 333.603 932.327 333.045 933.155 332.163L932.039 331.011C931.481 331.587 930.347 332.019 929.375 332.019ZM929.321 325.449C930.923 325.449 931.805 326.493 932.003 327.933H926.423C926.711 326.421 927.881 325.449 929.321 325.449ZM944.04 333.387L940.494 328.617L943.878 324.081H941.898L939.504 327.285L937.128 324.081H935.112L938.514 328.635L934.968 333.387H936.948L939.504 329.967L942.042 333.387H944.04ZM952.946 333.387H954.782V321.021H953.306L950.048 323.235L950.804 324.549L952.946 323.181V333.387ZM959.679 333.387H961.515V321.021H960.039L956.781 323.235L957.537 324.549L959.679 323.181V333.387Z" fill="#131F37"/>
<circle cx="190" cy="330.002" r="20" fill="#42979F"/>
<path d="M697.414 173.528C697.155 173.624 697.024 173.913 697.12 174.171L698.695 178.387C698.792 178.645 699.08 178.777 699.338 178.68C699.597 178.584 699.728 178.296 699.632 178.037L698.232 174.29L701.979 172.89C702.238 172.793 702.369 172.505 702.273 172.247C702.176 171.988 701.888 171.857 701.629 171.953L697.414 173.528ZM930.207 279.547L927.973 278.528L927.558 279.438L929.793 280.457L930.207 279.547ZM920.822 275.266L916.352 273.227L915.937 274.137L920.407 276.176L920.822 275.266ZM909.201 269.966L904.732 267.927L904.317 268.837L908.786 270.876L909.201 269.966ZM897.581 264.665L893.111 262.627L892.696 263.537L897.166 265.575L897.581 264.665ZM885.96 259.365L881.491 257.327L881.076 258.236L885.545 260.275L885.96 259.365ZM874.339 254.065L869.87 252.026L869.455 252.936L873.924 254.975L874.339 254.065ZM862.719 248.765L858.249 246.726L857.834 247.636L862.304 249.674L862.719 248.765ZM851.098 243.464L846.629 241.426L846.214 242.336L850.683 244.374L851.098 243.464ZM839.478 238.164L835.008 236.125L834.593 237.035L839.063 239.074L839.478 238.164ZM827.857 232.864L823.388 230.825L822.973 231.735L827.442 233.774L827.857 232.864ZM816.237 227.563L811.767 225.525L811.352 226.435L815.822 228.473L816.237 227.563ZM804.616 222.263L800.147 220.225L799.732 221.134L804.201 223.173L804.616 222.263ZM792.995 216.963L788.526 214.924L788.111 215.834L792.58 217.873L792.995 216.963ZM781.375 211.663L776.905 209.624L776.49 210.534L780.96 212.572L781.375 211.663ZM769.754 206.362L765.285 204.324L764.87 205.234L769.339 207.272L769.754 206.362ZM758.134 201.062L753.664 199.023L753.249 199.933L757.719 201.972L758.134 201.062ZM746.513 195.762L742.044 193.723L741.629 194.633L746.098 196.672L746.513 195.762ZM734.893 190.462L730.423 188.423L730.008 189.333L734.478 191.371L734.893 190.462ZM723.272 185.161L718.803 183.123L718.388 184.032L722.857 186.071L723.272 185.161ZM711.652 179.861L707.182 177.822L706.767 178.732L711.237 180.771L711.652 179.861ZM700.031 174.561L697.796 173.541L697.381 174.451L699.616 175.47L700.031 174.561ZM697.239 173.059C696.721 173.253 696.459 173.829 696.652 174.346L699.801 182.777C699.994 183.295 700.57 183.557 701.088 183.364C701.605 183.171 701.868 182.595 701.675 182.077L698.875 174.583L706.37 171.784C706.887 171.591 707.15 171.015 706.957 170.497C706.763 169.98 706.187 169.717 705.67 169.91L697.239 173.059ZM930.415 279.092L928.18 278.073L927.35 279.892L929.585 280.912L930.415 279.092ZM921.029 274.811L916.56 272.773L915.73 274.592L920.199 276.631L921.029 274.811ZM909.409 269.511L904.939 267.472L904.109 269.292L908.579 271.33L909.409 269.511ZM897.788 264.211L893.319 262.172L892.489 263.992L896.958 266.03L897.788 264.211ZM886.167 258.91L881.698 256.872L880.868 258.691L885.337 260.73L886.167 258.91ZM874.547 253.61L870.077 251.571L869.247 253.391L873.717 255.43L874.547 253.61ZM862.926 248.31L858.457 246.271L857.627 248.091L862.096 250.129L862.926 248.31ZM851.306 243.009L846.836 240.971L846.006 242.79L850.476 244.829L851.306 243.009ZM839.685 237.709L835.216 235.671L834.386 237.49L838.855 239.529L839.685 237.709ZM828.065 232.409L823.595 230.37L822.765 232.19L827.235 234.229L828.065 232.409ZM816.444 227.109L811.975 225.07L811.145 226.89L815.614 228.928L816.444 227.109ZM804.824 221.808L800.354 219.77L799.524 221.589L803.994 223.628L804.824 221.808ZM793.203 216.508L788.734 214.469L787.904 216.289L792.373 218.328L793.203 216.508ZM781.582 211.208L777.113 209.169L776.283 210.989L780.752 213.027L781.582 211.208ZM769.962 205.907L765.492 203.869L764.662 205.689L769.132 207.727L769.962 205.907ZM758.341 200.607L753.872 198.569L753.042 200.388L757.511 202.427L758.341 200.607ZM746.721 195.307L742.251 193.268L741.421 195.088L745.891 197.127L746.721 195.307ZM735.1 190.007L730.631 187.968L729.801 189.788L734.27 191.826L735.1 190.007ZM723.48 184.706L719.01 182.668L718.18 184.487L722.65 186.526L723.48 184.706ZM711.859 179.406L707.39 177.367L706.56 179.187L711.029 181.226L711.859 179.406ZM700.239 174.106L698.004 173.086L697.174 174.906L699.409 175.925L700.239 174.106Z" fill="#C3D0E4"/>
<path d="M299.754 87.3961C299.525 87.5503 299.464 87.861 299.619 88.0901L302.132 91.8226C302.287 92.0516 302.597 92.1122 302.826 91.958C303.055 91.8037 303.116 91.493 302.962 91.264L300.727 87.9462L304.045 85.7118C304.274 85.5576 304.335 85.2468 304.181 85.0178C304.026 84.7888 303.716 84.7281 303.487 84.8824L299.754 87.3961ZM670.096 159.511L667.642 159.032L667.451 160.014L669.904 160.493L670.096 159.511ZM659.792 157.501L654.885 156.543L654.693 157.525L659.6 158.482L659.792 157.501ZM647.034 155.011L642.127 154.054L641.936 155.035L646.843 155.993L647.034 155.011ZM634.277 152.522L629.37 151.564L629.178 152.546L634.085 153.503L634.277 152.522ZM621.519 150.033L616.613 149.075L616.421 150.057L621.328 151.014L621.519 150.033ZM608.762 147.543L603.855 146.586L603.664 147.567L608.57 148.525L608.762 147.543ZM596.004 145.054L591.098 144.096L590.906 145.078L595.813 146.035L596.004 145.054ZM583.247 142.564L578.34 141.607L578.149 142.589L583.055 143.546L583.247 142.564ZM570.489 140.075L565.583 139.118L565.391 140.099L570.298 141.057L570.489 140.075ZM557.732 137.586L552.825 136.628L552.634 137.61L557.54 138.567L557.732 137.586ZM544.974 135.096L540.068 134.139L539.876 135.12L544.783 136.078L544.974 135.096ZM532.217 132.607L527.31 131.65L527.119 132.631L532.025 133.589L532.217 132.607ZM519.459 130.118L514.553 129.16L514.361 130.142L519.268 131.099L519.459 130.118ZM506.702 127.628L501.795 126.671L501.604 127.652L506.511 128.61L506.702 127.628ZM493.945 125.139L489.038 124.182L488.846 125.163L493.753 126.121L493.945 125.139ZM481.187 122.65L476.28 121.692L476.089 122.674L480.996 123.631L481.187 122.65ZM468.43 120.16L463.523 119.203L463.331 120.184L468.238 121.142L468.43 120.16ZM455.672 117.671L450.765 116.714L450.574 117.695L455.481 118.652L455.672 117.671ZM442.915 115.182L438.008 114.224L437.817 115.206L442.723 116.163L442.915 115.182ZM430.157 112.692L425.251 111.735L425.059 112.716L429.966 113.674L430.157 112.692ZM417.4 110.203L412.493 109.245L412.302 110.227L417.208 111.184L417.4 110.203ZM404.642 107.714L399.736 106.756L399.544 107.738L404.451 108.695L404.642 107.714ZM391.885 105.224L386.978 104.267L386.787 105.248L391.693 106.206L391.885 105.224ZM379.127 102.735L374.221 101.777L374.029 102.759L378.936 103.716L379.127 102.735ZM366.37 100.246L361.463 99.2881L361.272 100.27L366.178 101.227L366.37 100.246ZM353.612 97.7562L348.706 96.7987L348.514 97.7802L353.421 98.7377L353.612 97.7562ZM340.855 95.2668L335.948 94.3094L335.757 95.2909L340.663 96.2483L340.855 95.2668ZM328.097 92.7775L323.191 91.82L322.999 92.8015L327.906 93.7589L328.097 92.7775ZM315.34 90.2881L310.433 89.3307L310.242 90.3122L315.149 91.2696L315.34 90.2881ZM302.583 87.7988L300.129 87.32L299.938 88.3015L302.391 88.7802L302.583 87.7988ZM299.475 86.9813C299.017 87.2898 298.895 87.9113 299.204 88.3694L304.231 95.8343C304.54 96.2924 305.161 96.4137 305.619 96.1052C306.077 95.7967 306.199 95.1752 305.89 94.7171L301.421 88.0816L308.057 83.6129C308.515 83.3044 308.636 82.6829 308.328 82.2248C308.019 81.7667 307.398 81.6455 306.94 81.954L299.475 86.9813ZM670.192 159.02L667.738 158.542L667.355 160.505L669.808 160.983L670.192 159.02ZM659.887 157.01L654.981 156.052L654.598 158.015L659.504 158.973L659.887 157.01ZM647.13 154.52L642.223 153.563L641.84 155.526L646.747 156.483L647.13 154.52ZM634.372 152.031L629.466 151.074L629.083 153.037L633.989 153.994L634.372 152.031ZM621.615 149.542L616.708 148.584L616.325 150.547L621.232 151.505L621.615 149.542ZM608.858 147.052L603.951 146.095L603.568 148.058L608.474 149.015L608.858 147.052ZM596.1 144.563L591.193 143.606L590.81 145.569L595.717 146.526L596.1 144.563ZM583.343 142.074L578.436 141.116L578.053 143.079L582.96 144.037L583.343 142.074ZM570.585 139.584L565.678 138.627L565.295 140.59L570.202 141.547L570.585 139.584ZM557.828 137.095L552.921 136.138L552.538 138.101L557.445 139.058L557.828 137.095ZM545.07 134.606L540.163 133.648L539.78 135.611L544.687 136.569L545.07 134.606ZM532.313 132.116L527.406 131.159L527.023 133.122L531.93 134.079L532.313 132.116ZM519.555 129.627L514.649 128.67L514.266 130.633L519.172 131.59L519.555 129.627ZM506.798 127.138L501.891 126.18L501.508 128.143L506.415 129.101L506.798 127.138ZM494.04 124.648L489.134 123.691L488.751 125.654L493.657 126.611L494.04 124.648ZM481.283 122.159L476.376 121.201L475.993 123.164L480.9 124.122L481.283 122.159ZM468.525 119.67L463.619 118.712L463.236 120.675L468.142 121.633L468.525 119.67ZM455.768 117.18L450.861 116.223L450.478 118.186L455.385 119.143L455.768 117.18ZM443.01 114.691L438.104 113.733L437.721 115.696L442.627 116.654L443.01 114.691ZM430.253 112.202L425.346 111.244L424.963 113.207L429.87 114.165L430.253 112.202ZM417.496 109.712L412.589 108.755L412.206 110.718L417.113 111.675L417.496 109.712ZM404.738 107.223L399.831 106.265L399.448 108.228L404.355 109.186L404.738 107.223ZM391.981 104.733L387.074 103.776L386.691 105.739L391.598 106.696L391.981 104.733ZM379.223 102.244L374.316 101.287L373.933 103.25L378.84 104.207L379.223 102.244ZM366.466 99.7548L361.559 98.7973L361.176 100.76L366.083 101.718L366.466 99.7548ZM353.708 97.2654L348.801 96.308L348.418 98.271L353.325 99.2284L353.708 97.2654ZM340.951 94.7761L336.044 93.8186L335.661 95.7816L340.568 96.739L340.951 94.7761ZM328.193 92.2867L323.287 91.3293L322.903 93.2922L327.81 94.2497L328.193 92.2867ZM315.436 89.7974L310.529 88.8399L310.146 90.8029L315.053 91.7603L315.436 89.7974ZM302.678 87.308L300.225 86.8293L299.842 88.7923L302.295 89.271L302.678 87.308Z" fill="#C3D0E4"/>
<path d="M473.82 293.39C473.718 293.932 474.076 294.455 474.619 294.557L483.465 296.215C484.008 296.317 484.53 295.959 484.632 295.416C484.734 294.873 484.376 294.351 483.833 294.249L475.97 292.775L477.444 284.912C477.546 284.369 477.188 283.847 476.645 283.745C476.103 283.643 475.58 284.001 475.478 284.544L473.82 293.39ZM669.435 159.177L474.238 292.748L475.368 294.399L670.565 160.827L669.435 159.177Z" fill="#C3D0E4"/>
<path d="M479.698 314.967C479.478 315.134 479.435 315.448 479.601 315.668L482.316 319.256C482.483 319.477 482.797 319.52 483.017 319.353C483.237 319.187 483.281 318.873 483.114 318.653L480.7 315.463L483.89 313.05C484.11 312.883 484.154 312.569 483.987 312.349C483.821 312.129 483.507 312.086 483.287 312.252L479.698 314.967ZM730.069 349.507L727.538 349.156L727.401 350.147L729.931 350.497L730.069 349.507ZM719.441 348.034L714.38 347.333L714.243 348.324L719.304 349.025L719.441 348.034ZM706.283 346.211L701.222 345.51L701.085 346.501L706.146 347.202L706.283 346.211ZM693.125 344.388L688.065 343.687L687.927 344.678L692.988 345.379L693.125 344.388ZM679.967 342.565L674.907 341.864L674.769 342.855L679.83 343.556L679.967 342.565ZM666.81 340.743L661.749 340.041L661.612 341.032L666.672 341.733L666.81 340.743ZM653.652 338.92L648.591 338.218L648.454 339.209L653.514 339.91L653.652 338.92ZM640.494 337.097L635.433 336.396L635.296 337.386L640.356 338.087L640.494 337.097ZM627.336 335.274L622.275 334.573L622.138 335.563L627.199 336.264L627.336 335.274ZM614.178 333.451L609.117 332.75L608.98 333.74L614.041 334.441L614.178 333.451ZM601.02 331.628L595.959 330.927L595.822 331.917L600.883 332.618L601.02 331.628ZM587.862 329.805L582.801 329.104L582.664 330.094L587.725 330.795L587.862 329.805ZM574.704 327.982L569.644 327.281L569.506 328.271L574.567 328.973L574.704 327.982ZM561.546 326.159L556.486 325.458L556.348 326.448L561.409 327.15L561.546 326.159ZM548.388 324.336L543.328 323.635L543.19 324.626L548.251 325.327L548.388 324.336ZM535.231 322.513L530.17 321.812L530.033 322.803L535.093 323.504L535.231 322.513ZM522.073 320.69L517.012 319.989L516.875 320.98L521.935 321.681L522.073 320.69ZM508.915 318.867L503.854 318.166L503.717 319.157L508.778 319.858L508.915 318.867ZM495.757 317.044L490.696 316.343L490.559 317.334L495.62 318.035L495.757 317.044ZM482.599 315.221L480.069 314.871L479.931 315.861L482.462 316.212L482.599 315.221ZM479.397 314.569C478.956 314.902 478.869 315.529 479.203 315.97L484.633 323.147C484.966 323.587 485.593 323.674 486.034 323.341C486.474 323.007 486.561 322.38 486.228 321.94L481.401 315.56L487.78 310.733C488.221 310.4 488.308 309.773 487.975 309.332C487.641 308.892 487.014 308.805 486.574 309.138L479.397 314.569ZM730.137 349.011L727.607 348.661L727.332 350.642L729.863 350.992L730.137 349.011ZM719.51 347.539L714.449 346.838L714.175 348.819L719.235 349.52L719.51 347.539ZM706.352 345.716L701.291 345.015L701.017 346.996L706.077 347.697L706.352 345.716ZM693.194 343.893L688.133 343.192L687.859 345.173L692.919 345.874L693.194 343.893ZM680.036 342.07L674.975 341.369L674.701 343.35L679.762 344.051L680.036 342.07ZM666.878 340.247L661.817 339.546L661.543 341.527L666.604 342.228L666.878 340.247ZM653.72 338.424L648.659 337.723L648.385 339.704L653.446 340.405L653.72 338.424ZM640.562 336.601L635.502 335.9L635.227 337.881L640.288 338.582L640.562 336.601ZM627.404 334.778L622.344 334.077L622.069 336.058L627.13 336.76L627.404 334.778ZM614.247 332.956L609.186 332.254L608.911 334.235L613.972 334.937L614.247 332.956ZM601.089 331.133L596.028 330.431L595.753 332.413L600.814 333.114L601.089 331.133ZM587.931 329.31L582.87 328.609L582.596 330.59L587.656 331.291L587.931 329.31ZM574.773 327.487L569.712 326.786L569.438 328.767L574.498 329.468L574.773 327.487ZM561.615 325.664L556.554 324.963L556.28 326.944L561.34 327.645L561.615 325.664ZM548.457 323.841L543.396 323.14L543.122 325.121L548.183 325.822L548.457 323.841ZM535.299 322.018L530.238 321.317L529.964 323.298L535.025 323.999L535.299 322.018ZM522.141 320.195L517.081 319.494L516.806 321.475L521.867 322.176L522.141 320.195ZM508.983 318.372L503.923 317.671L503.648 319.652L508.709 320.353L508.983 318.372ZM495.826 316.549L490.765 315.848L490.49 317.829L495.551 318.53L495.826 316.549ZM482.668 314.726L480.137 314.376L479.863 316.357L482.393 316.707L482.668 314.726Z" fill="#C3D0E4"/>
<path d="M297.338 480.068C297.077 480.555 297.26 481.161 297.747 481.422L305.68 485.672C306.167 485.933 306.773 485.749 307.034 485.263C307.295 484.776 307.111 484.17 306.625 483.909L299.573 480.131L303.35 473.079C303.611 472.592 303.428 471.986 302.941 471.726C302.454 471.465 301.848 471.648 301.588 472.135L297.338 480.068ZM729.711 349.045L297.93 479.583L298.508 481.498L730.289 350.959L729.711 349.045Z" fill="#C3D0E4"/>
<path d="M117.877 208.91C117.633 209.04 117.542 209.343 117.672 209.587L119.793 213.555C119.924 213.799 120.227 213.891 120.47 213.76C120.714 213.63 120.805 213.327 120.675 213.084L118.789 209.556L122.317 207.67C122.561 207.54 122.652 207.237 122.522 206.994C122.392 206.75 122.089 206.658 121.846 206.788L117.877 208.91ZM450.145 309.523L447.781 308.807L447.491 309.764L449.855 310.48L450.145 309.523ZM440.217 306.513L435.489 305.079L435.199 306.036L439.927 307.47L440.217 306.513ZM427.925 302.785L423.197 301.351L422.907 302.308L427.635 303.742L427.925 302.785ZM415.633 299.057L410.905 297.623L410.615 298.58L415.342 300.014L415.633 299.057ZM403.34 295.329L398.613 293.895L398.323 294.852L403.05 296.286L403.34 295.329ZM391.048 291.601L386.321 290.168L386.03 291.124L390.758 292.558L391.048 291.601ZM378.756 287.873L374.029 286.44L373.738 287.397L378.466 288.83L378.756 287.873ZM366.464 284.146L361.736 282.712L361.446 283.669L366.174 285.103L366.464 284.146ZM354.172 280.418L349.444 278.984L349.154 279.941L353.882 281.375L354.172 280.418ZM341.88 276.69L337.152 275.256L336.862 276.213L341.59 277.647L341.88 276.69ZM329.588 272.962L324.86 271.528L324.57 272.485L329.298 273.919L329.588 272.962ZM317.296 269.234L312.568 267.801L312.278 268.758L317.005 270.191L317.296 269.234ZM305.004 265.507L300.276 264.073L299.986 265.03L304.713 266.464L305.004 265.507ZM292.711 261.779L287.984 260.345L287.693 261.302L292.421 262.736L292.711 261.779ZM280.419 258.051L275.692 256.617L275.401 257.574L280.129 259.008L280.419 258.051ZM268.127 254.323L263.399 252.889L263.109 253.846L267.837 255.28L268.127 254.323ZM255.835 250.595L251.107 249.162L250.817 250.118L255.545 251.552L255.835 250.595ZM243.543 246.867L238.815 245.434L238.525 246.391L243.253 247.824L243.543 246.867ZM231.251 243.14L226.523 241.706L226.233 242.663L230.961 244.097L231.251 243.14ZM218.959 239.412L214.231 237.978L213.941 238.935L218.668 240.369L218.959 239.412ZM206.667 235.684L201.939 234.25L201.649 235.207L206.376 236.641L206.667 235.684ZM194.374 231.956L189.647 230.522L189.356 231.479L194.084 232.913L194.374 231.956ZM182.082 228.228L177.355 226.795L177.064 227.752L181.792 229.185L182.082 228.228ZM169.79 224.501L165.062 223.067L164.772 224.024L169.5 225.458L169.79 224.501ZM157.498 220.773L152.77 219.339L152.48 220.296L157.208 221.73L157.498 220.773ZM145.206 217.045L140.478 215.611L140.188 216.568L144.916 218.002L145.206 217.045ZM132.914 213.317L128.186 211.883L127.896 212.84L132.624 214.274L132.914 213.317ZM120.622 209.589L118.258 208.872L117.968 209.829L120.331 210.546L120.622 209.589ZM117.641 208.469C117.154 208.729 116.971 209.335 117.231 209.822L121.474 217.759C121.734 218.246 122.34 218.43 122.827 218.17C123.314 217.909 123.498 217.304 123.238 216.816L119.466 209.761L126.521 205.99C127.008 205.729 127.192 205.123 126.932 204.636C126.671 204.149 126.065 203.966 125.578 204.226L117.641 208.469ZM450.29 309.045L447.926 308.328L447.346 310.242L449.71 310.959L450.29 309.045ZM440.362 306.034L435.634 304.6L435.054 306.514L439.782 307.948L440.362 306.034ZM428.07 302.306L423.342 300.872L422.762 302.786L427.489 304.22L428.07 302.306ZM415.778 298.578L411.05 297.145L410.47 299.059L415.197 300.492L415.778 298.578ZM403.486 294.851L398.758 293.417L398.177 295.331L402.905 296.765L403.486 294.851ZM391.193 291.123L386.466 289.689L385.885 291.603L390.613 293.037L391.193 291.123ZM378.901 287.395L374.174 285.961L373.593 287.875L378.321 289.309L378.901 287.395ZM366.609 283.667L361.882 282.233L361.301 284.147L366.029 285.581L366.609 283.667ZM354.317 279.939L349.589 278.506L349.009 280.42L353.737 281.853L354.317 279.939ZM342.025 276.212L337.297 274.778L336.717 276.692L341.445 278.125L342.025 276.212ZM329.733 272.484L325.005 271.05L324.425 272.964L329.152 274.398L329.733 272.484ZM317.441 268.756L312.713 267.322L312.133 269.236L316.86 270.67L317.441 268.756ZM305.149 265.028L300.421 263.594L299.84 265.508L304.568 266.942L305.149 265.028ZM292.857 261.3L288.129 259.867L287.548 261.78L292.276 263.214L292.857 261.3ZM280.564 257.572L275.837 256.139L275.256 258.053L279.984 259.486L280.564 257.572ZM268.272 253.845L263.545 252.411L262.964 254.325L267.692 255.759L268.272 253.845ZM255.98 250.117L251.252 248.683L250.672 250.597L255.4 252.031L255.98 250.117ZM243.688 246.389L238.96 244.955L238.38 246.869L243.108 248.303L243.688 246.389ZM231.396 242.661L226.668 241.227L226.088 243.141L230.815 244.575L231.396 242.661ZM219.104 238.933L214.376 237.5L213.796 239.414L218.523 240.847L219.104 238.933ZM206.812 235.206L202.084 233.772L201.504 235.686L206.231 237.119L206.812 235.206ZM194.52 231.478L189.792 230.044L189.211 231.958L193.939 233.392L194.52 231.478ZM182.227 227.75L177.5 226.316L176.919 228.23L181.647 229.664L182.227 227.75ZM169.935 224.022L165.208 222.588L164.627 224.502L169.355 225.936L169.935 224.022ZM157.643 220.294L152.915 218.861L152.335 220.774L157.063 222.208L157.643 220.294ZM145.351 216.566L140.623 215.133L140.043 217.047L144.771 218.48L145.351 216.566ZM133.059 212.839L128.331 211.405L127.751 213.319L132.478 214.753L133.059 212.839ZM120.767 209.111L118.403 208.394L117.823 210.308L120.186 211.025L120.767 209.111Z" fill="#C3D0E4"/>
<path d="M218.866 326.915C218.507 327.334 218.555 327.965 218.974 328.325L225.803 334.187C226.222 334.546 226.853 334.498 227.213 334.079C227.573 333.66 227.525 333.029 227.106 332.669L221.035 327.458L226.246 321.388C226.605 320.969 226.557 320.338 226.138 319.978C225.719 319.618 225.088 319.666 224.728 320.085L218.866 326.915ZM449.924 309.005L219.549 326.569L219.701 328.563L450.076 310.999L449.924 309.005Z" fill="#C3D0E4"/>
<path d="M757.764 341.273C757.528 341.773 757.743 342.368 758.243 342.604L766.386 346.435C766.886 346.67 767.482 346.456 767.717 345.956C767.952 345.456 767.738 344.86 767.238 344.625L759.999 341.22L763.405 333.981C763.64 333.481 763.425 332.885 762.926 332.65C762.426 332.415 761.83 332.629 761.595 333.129L757.764 341.273ZM929.661 279.061L758.33 340.758L759.007 342.64L930.339 280.943L929.661 279.061Z" fill="#C3D0E4"/>
<circle cx="930" cy="280.002" r="20" fill="#FFBF9F"/>
<circle cx="670" cy="160.002" r="20" fill="#42979F"/>
<circle cx="730" cy="350.002" r="20" fill="#42979F"/>
<circle cx="450.187" cy="310.002" r="20" fill="#42979F"/>
<circle cx="270" cy="80.002" r="20" fill="#42979F"/>
<circle cx="90" cy="200.002" r="20" fill="#70DDD5"/>
<circle cx="270" cy="490.002" r="20" fill="#42979F"/>
<path d="M104.956 618.186H111.058C113.272 618.186 114.856 616.8 114.856 614.82C114.856 613.452 114.028 612.336 112.588 611.634C113.704 611.004 114.352 610.194 114.352 608.898C114.352 607.098 112.894 605.82 110.824 605.82H104.956V618.186ZM106.774 610.968V607.422H110.374C111.616 607.422 112.498 608.178 112.498 609.204C112.498 610.23 111.616 610.968 110.374 610.968H106.774ZM106.774 616.584V612.516H110.644C112.03 612.516 113.002 613.362 113.002 614.55C113.002 615.738 112.03 616.584 110.644 616.584H106.774ZM118.95 610.662V608.88H117.168V618.186H118.95V612.894C119.112 611.274 120.48 610.212 122.406 610.212V608.664C120.804 608.664 119.544 609.438 118.95 610.662ZM128.051 608.664C127.025 608.664 125.855 608.934 124.523 609.6L125.171 610.914C125.981 610.5 126.881 610.14 127.799 610.14C129.653 610.14 130.193 611.382 130.193 612.552V612.84C129.293 612.534 128.303 612.336 127.385 612.336C125.333 612.336 123.659 613.578 123.659 615.432C123.659 617.25 125.117 618.402 127.097 618.402C128.231 618.402 129.509 617.88 130.193 616.908V618.186H131.939V612.552C131.939 610.248 130.553 608.664 128.051 608.664ZM127.439 616.998C126.269 616.998 125.369 616.386 125.369 615.378C125.369 614.37 126.413 613.668 127.655 613.668C128.573 613.668 129.437 613.794 130.193 614.028V615.27C129.887 616.422 128.591 616.998 127.439 616.998ZM139.25 608.664C137.99 608.664 136.856 609.312 136.298 610.23V608.88H134.516V618.186H136.298V612.156C136.442 611.058 137.558 610.212 138.854 610.212C140.114 610.212 140.996 611.184 140.996 612.57V618.186H142.742V612.264C142.742 610.158 141.302 608.664 139.25 608.664ZM149.683 618.402C151.069 618.402 152.275 617.826 153.175 616.908L151.969 615.81C151.393 616.458 150.565 616.854 149.701 616.854C147.991 616.854 146.587 615.342 146.587 613.524C146.587 611.724 147.991 610.212 149.683 610.212C150.547 610.212 151.357 610.59 151.915 611.22L153.121 610.104C152.239 609.222 151.033 608.664 149.701 608.664C147.037 608.664 144.787 610.878 144.787 613.524C144.787 616.17 147.037 618.402 149.683 618.402ZM159.816 608.664C158.538 608.664 157.404 609.33 156.846 610.266V605.604H155.082V618.186H156.846V612.408C156.846 611.202 158.016 610.212 159.42 610.212C160.68 610.212 161.562 611.184 161.562 612.57V618.186H163.308V612.264C163.308 610.158 161.868 608.664 159.816 608.664Z" fill="#131F37"/>
<path d="M363.347 618.186H365.165V607.512H369.233V605.82H359.297V607.512H363.347V618.186ZM373.118 610.662V608.88H371.336V618.186H373.118V612.894C373.28 611.274 374.648 610.212 376.574 610.212V608.664C374.972 608.664 373.712 609.438 373.118 610.662ZM384.72 608.88V614.91C384.576 616.008 383.46 616.854 382.164 616.854C380.904 616.854 380.022 615.882 380.022 614.496V608.88H378.276V614.802C378.276 616.908 379.716 618.402 381.768 618.402C383.028 618.402 384.162 617.754 384.72 616.836V618.186H386.502V608.88H384.72ZM393.822 608.664C392.562 608.664 391.428 609.312 390.87 610.23V608.88H389.088V618.186H390.87V612.156C391.014 611.058 392.13 610.212 393.426 610.212C394.686 610.212 395.568 611.184 395.568 612.57V618.186H397.314V612.264C397.314 610.158 395.874 608.664 393.822 608.664ZM408.323 608.88H406.163L401.609 613.632V605.604H399.845V618.186H401.609V615.792L403.103 614.28L406.019 618.186H408.143L404.309 613.092L408.323 608.88Z" fill="#131F37"/>
<path d="M604.523 609.31V598.636H602.687V611.002H611.075V609.31H604.523ZM616.844 601.48C615.818 601.48 614.648 601.75 613.316 602.416L613.964 603.73C614.774 603.316 615.674 602.956 616.592 602.956C618.446 602.956 618.986 604.198 618.986 605.368V605.656C618.086 605.35 617.096 605.152 616.178 605.152C614.126 605.152 612.452 606.394 612.452 608.248C612.452 610.066 613.91 611.218 615.89 611.218C617.024 611.218 618.302 610.696 618.986 609.724V611.002H620.732V605.368C620.732 603.064 619.346 601.48 616.844 601.48ZM616.232 609.814C615.062 609.814 614.162 609.202 614.162 608.194C614.162 607.186 615.206 606.484 616.448 606.484C617.366 606.484 618.23 606.61 618.986 606.844V608.086C618.68 609.238 617.384 609.814 616.232 609.814ZM627.665 609.328C627.467 609.526 627.107 609.67 626.711 609.67C626.189 609.67 625.757 609.202 625.757 608.554V603.208H627.953V601.696H625.757V599.14H624.011V601.696H622.607V603.208H624.011V608.68C624.011 610.174 625.019 611.218 626.459 611.218C627.125 611.218 627.809 610.966 628.313 610.552L627.665 609.328ZM634.395 609.634C632.793 609.634 631.659 608.518 631.425 606.97H638.751C638.751 603.64 637.113 601.48 634.269 601.48C631.695 601.48 629.625 603.532 629.625 606.322C629.625 609.184 631.821 611.218 634.413 611.218C635.727 611.218 637.347 610.66 638.175 609.778L637.059 608.626C636.501 609.202 635.367 609.634 634.395 609.634ZM634.341 603.064C635.943 603.064 636.825 604.108 637.023 605.548H631.443C631.731 604.036 632.901 603.064 634.341 603.064ZM644.183 611.218C646.217 611.218 647.711 610.102 647.711 608.338C647.711 606.484 646.073 605.98 644.543 605.53C642.977 605.044 642.401 604.828 642.401 604.108C642.401 603.406 643.121 603.01 644.039 603.01C644.849 603.01 645.785 603.316 646.685 603.874L647.477 602.56C646.469 601.894 645.245 601.48 644.039 601.48C642.059 601.48 640.637 602.596 640.655 604.306C640.655 605.818 641.717 606.43 643.859 607.024C645.011 607.348 645.965 607.618 645.965 608.482C645.965 609.202 645.245 609.688 644.201 609.688C643.103 609.688 642.041 609.274 641.051 608.554L640.205 609.832C641.321 610.732 642.815 611.218 644.183 611.218ZM654.138 609.328C653.94 609.526 653.58 609.67 653.184 609.67C652.662 609.67 652.23 609.202 652.23 608.554V603.208H654.426V601.696H652.23V599.14H650.484V601.696H649.08V603.208H650.484V608.68C650.484 610.174 651.492 611.218 652.932 611.218C653.598 611.218 654.282 610.966 654.786 610.552L654.138 609.328ZM590.813 630.002H592.631V621.2L596.969 629.282L601.307 621.2V630.002H603.125V617.636H601.307L596.969 625.718L592.631 617.636H590.813V630.002ZM606.876 619.148C607.452 619.148 607.938 618.644 607.938 618.068C607.938 617.51 607.452 617.006 606.876 617.006C606.264 617.006 605.796 617.51 605.796 618.068C605.796 618.644 606.264 619.148 606.876 619.148ZM605.976 630.002H607.758V620.696H605.976V630.002ZM610.336 630.002H612.1V617.42H610.336V630.002ZM618.962 628.634C617.36 628.634 616.226 627.518 615.992 625.97H623.318C623.318 622.64 621.68 620.48 618.836 620.48C616.262 620.48 614.192 622.532 614.192 625.322C614.192 628.184 616.388 630.218 618.98 630.218C620.294 630.218 621.914 629.66 622.742 628.778L621.626 627.626C621.068 628.202 619.934 628.634 618.962 628.634ZM618.908 622.064C620.51 622.064 621.392 623.108 621.59 624.548H616.01C616.298 623.036 617.468 622.064 618.908 622.064ZM628.749 630.218C630.783 630.218 632.277 629.102 632.277 627.338C632.277 625.484 630.639 624.98 629.109 624.53C627.543 624.044 626.967 623.828 626.967 623.108C626.967 622.406 627.687 622.01 628.605 622.01C629.415 622.01 630.351 622.316 631.251 622.874L632.043 621.56C631.035 620.894 629.811 620.48 628.605 620.48C626.625 620.48 625.203 621.596 625.221 623.306C625.221 624.818 626.283 625.43 628.425 626.024C629.577 626.348 630.531 626.618 630.531 627.482C630.531 628.202 629.811 628.688 628.767 628.688C627.669 628.688 626.607 628.274 625.617 627.554L624.771 628.832C625.887 629.732 627.381 630.218 628.749 630.218ZM638.704 628.328C638.506 628.526 638.146 628.67 637.75 628.67C637.228 628.67 636.796 628.202 636.796 627.554V622.208H638.992V620.696H636.796V618.14H635.05V620.696H633.646V622.208H635.05V627.68C635.05 629.174 636.058 630.218 637.498 630.218C638.164 630.218 638.848 629.966 639.352 629.552L638.704 628.328ZM645.578 630.218C648.224 630.218 650.456 627.986 650.456 625.34C650.456 622.694 648.224 620.48 645.578 620.48C642.914 620.48 640.664 622.694 640.664 625.34C640.664 627.986 642.914 630.218 645.578 630.218ZM645.578 628.67C643.868 628.67 642.446 627.158 642.446 625.34C642.446 623.54 643.868 622.028 645.578 622.028C647.252 622.028 648.674 623.54 648.674 625.34C648.674 627.158 647.252 628.67 645.578 628.67ZM657.275 620.48C656.015 620.48 654.881 621.128 654.323 622.046V620.696H652.541V630.002H654.323V623.972C654.467 622.874 655.583 622.028 656.879 622.028C658.139 622.028 659.021 623 659.021 624.386V630.002H660.767V624.08C660.767 621.974 659.327 620.48 657.275 620.48ZM667.583 628.634C665.981 628.634 664.847 627.518 664.613 625.97H671.939C671.939 622.64 670.301 620.48 667.457 620.48C664.883 620.48 662.813 622.532 662.813 625.322C662.813 628.184 665.009 630.218 667.601 630.218C668.915 630.218 670.535 629.66 671.363 628.778L670.247 627.626C669.689 628.202 668.555 628.634 667.583 628.634ZM667.529 622.064C669.131 622.064 670.013 623.108 670.211 624.548H664.631C664.919 623.036 666.089 622.064 667.529 622.064Z" fill="#131F37"/>
<path d="M854.341 611.002H856.159V600.328H860.227V598.636H850.291V600.328H854.341V611.002ZM866.146 601.48C865.12 601.48 863.95 601.75 862.618 602.416L863.266 603.73C864.076 603.316 864.976 602.956 865.894 602.956C867.748 602.956 868.288 604.198 868.288 605.368V605.656C867.388 605.35 866.398 605.152 865.48 605.152C863.428 605.152 861.754 606.394 861.754 608.248C861.754 610.066 863.212 611.218 865.192 611.218C866.326 611.218 867.604 610.696 868.288 609.724V611.002H870.034V605.368C870.034 603.064 868.648 601.48 866.146 601.48ZM865.534 609.814C864.364 609.814 863.464 609.202 863.464 608.194C863.464 607.186 864.508 606.484 865.75 606.484C866.668 606.484 867.532 606.61 868.288 606.844V608.086C867.982 609.238 866.686 609.814 865.534 609.814ZM874.483 603.478V601.696H872.701V611.002H874.483V605.71C874.645 604.09 876.013 603.028 877.939 603.028V601.48C876.337 601.48 875.077 602.254 874.483 603.478ZM886.751 601.696V603.19C886.049 602.146 884.861 601.48 883.457 601.48C881.009 601.48 879.227 603.298 879.227 605.89C879.227 608.482 881.009 610.318 883.457 610.318C884.861 610.318 886.013 609.688 886.751 608.626V609.976C886.751 611.596 885.545 612.55 883.547 612.55C882.431 612.55 881.315 612.172 880.631 611.524L879.929 612.856C880.811 613.576 882.251 614.098 883.817 614.098C886.571 614.098 888.533 612.406 888.533 610.012V601.696H886.751ZM883.907 608.77C882.251 608.77 881.081 607.582 881.081 605.89C881.081 604.216 882.251 603.028 883.907 603.028C885.563 603.028 886.751 604.216 886.751 605.89C886.751 607.582 885.563 608.77 883.907 608.77ZM895.457 609.634C893.855 609.634 892.721 608.518 892.487 606.97H899.813C899.813 603.64 898.175 601.48 895.331 601.48C892.757 601.48 890.687 603.532 890.687 606.322C890.687 609.184 892.883 611.218 895.475 611.218C896.789 611.218 898.409 610.66 899.237 609.778L898.121 608.626C897.563 609.202 896.429 609.634 895.457 609.634ZM895.403 603.064C897.005 603.064 897.887 604.108 898.085 605.548H892.505C892.793 604.036 893.963 603.064 895.403 603.064ZM906.234 609.328C906.036 609.526 905.676 609.67 905.28 609.67C904.758 609.67 904.326 609.202 904.326 608.554V603.208H906.522V601.696H904.326V599.14H902.58V601.696H901.176V603.208H902.58V608.68C902.58 610.174 903.588 611.218 905.028 611.218C905.694 611.218 906.378 610.966 906.882 610.552L906.234 609.328ZM838.313 630.002H840.131V621.2L844.469 629.282L848.807 621.2V630.002H850.625V617.636H848.807L844.469 625.718L840.131 617.636H838.313V630.002ZM854.377 619.148C854.953 619.148 855.439 618.644 855.439 618.068C855.439 617.51 854.953 617.006 854.377 617.006C853.765 617.006 853.297 617.51 853.297 618.068C853.297 618.644 853.765 619.148 854.377 619.148ZM853.477 630.002H855.259V620.696H853.477V630.002ZM857.836 630.002H859.6V617.42H857.836V630.002ZM866.462 628.634C864.86 628.634 863.726 627.518 863.492 625.97H870.818C870.818 622.64 869.18 620.48 866.336 620.48C863.762 620.48 861.692 622.532 861.692 625.322C861.692 628.184 863.888 630.218 866.48 630.218C867.794 630.218 869.414 629.66 870.242 628.778L869.126 627.626C868.568 628.202 867.434 628.634 866.462 628.634ZM866.408 622.064C868.01 622.064 868.892 623.108 869.09 624.548H863.51C863.798 623.036 864.968 622.064 866.408 622.064ZM876.249 630.218C878.283 630.218 879.777 629.102 879.777 627.338C879.777 625.484 878.139 624.98 876.609 624.53C875.043 624.044 874.467 623.828 874.467 623.108C874.467 622.406 875.187 622.01 876.105 622.01C876.915 622.01 877.851 622.316 878.751 622.874L879.543 621.56C878.535 620.894 877.311 620.48 876.105 620.48C874.125 620.48 872.703 621.596 872.721 623.306C872.721 624.818 873.783 625.43 875.925 626.024C877.077 626.348 878.031 626.618 878.031 627.482C878.031 628.202 877.311 628.688 876.267 628.688C875.169 628.688 874.107 628.274 873.117 627.554L872.271 628.832C873.387 629.732 874.881 630.218 876.249 630.218ZM886.204 628.328C886.006 628.526 885.646 628.67 885.25 628.67C884.728 628.67 884.296 628.202 884.296 627.554V622.208H886.492V620.696H884.296V618.14H882.55V620.696H881.146V622.208H882.55V627.68C882.55 629.174 883.558 630.218 884.998 630.218C885.664 630.218 886.348 629.966 886.852 629.552L886.204 628.328ZM893.078 630.218C895.724 630.218 897.956 627.986 897.956 625.34C897.956 622.694 895.724 620.48 893.078 620.48C890.414 620.48 888.164 622.694 888.164 625.34C888.164 627.986 890.414 630.218 893.078 630.218ZM893.078 628.67C891.368 628.67 889.946 627.158 889.946 625.34C889.946 623.54 891.368 622.028 893.078 622.028C894.752 622.028 896.174 623.54 896.174 625.34C896.174 627.158 894.752 628.67 893.078 628.67ZM904.775 620.48C903.515 620.48 902.381 621.128 901.823 622.046V620.696H900.041V630.002H901.823V623.972C901.967 622.874 903.083 622.028 904.379 622.028C905.639 622.028 906.521 623 906.521 624.386V630.002H908.267V624.08C908.267 621.974 906.827 620.48 904.775 620.48ZM915.083 628.634C913.481 628.634 912.347 627.518 912.113 625.97H919.439C919.439 622.64 917.801 620.48 914.957 620.48C912.383 620.48 910.313 622.532 910.313 625.322C910.313 628.184 912.509 630.218 915.101 630.218C916.415 630.218 918.035 629.66 918.863 628.778L917.747 627.626C917.189 628.202 916.055 628.634 915.083 628.634ZM915.029 622.064C916.631 622.064 917.513 623.108 917.711 624.548H912.131C912.419 623.036 913.589 622.064 915.029 622.064Z" fill="#131F37"/>
<path d="M83.622 571.977C83.4268 572.172 83.4268 572.488 83.622 572.684L86.804 575.866C86.9993 576.061 87.3159 576.061 87.5111 575.866C87.7064 575.67 87.7064 575.354 87.5111 575.159L84.6827 572.33L87.5111 569.502C87.7064 569.306 87.7064 568.99 87.5111 568.795C87.3159 568.599 86.9993 568.599 86.804 568.795L83.622 571.977ZM183.976 571.83H181.572V572.83H183.976V571.83ZM173.879 571.83H169.072V572.83H173.879V571.83ZM161.379 571.83H156.572V572.83H161.379V571.83ZM148.879 571.83H144.072V572.83H148.879V571.83ZM136.379 571.83H131.572V572.83H136.379V571.83ZM123.879 571.83H119.072V572.83H123.879V571.83ZM111.379 571.83H106.572V572.83H111.379V571.83ZM98.8794 571.83H94.0717V572.83H98.8794V571.83ZM86.3794 571.83H83.9756V572.83H86.3794V571.83ZM83.2685 571.623C82.878 572.013 82.878 572.647 83.2685 573.037L89.6324 579.401C90.023 579.792 90.6561 579.792 91.0467 579.401C91.4372 579.011 91.4372 578.377 91.0467 577.987L85.3898 572.33L91.0467 566.673C91.4372 566.283 91.4372 565.65 91.0467 565.259C90.6561 564.868 90.023 564.868 89.6324 565.259L83.2685 571.623ZM183.976 571.33H181.572V573.33H183.976V571.33ZM173.879 571.33H169.072V573.33H173.879V571.33ZM161.379 571.33H156.572V573.33H161.379V571.33ZM148.879 571.33H144.072V573.33H148.879V571.33ZM136.379 571.33H131.572V573.33H136.379V571.33ZM123.879 571.33H119.072V573.33H123.879V571.33ZM111.379 571.33H106.572V573.33H111.379V571.33ZM98.8794 571.33H94.0717V573.33H98.8794V571.33ZM86.3794 571.33H83.9756V573.33H86.3794V571.33Z" fill="#C3D0E4"/>
<path d="M332.822 569.478C332.431 569.869 332.431 570.502 332.822 570.893L339.186 577.257C339.576 577.647 340.21 577.647 340.6 577.257C340.991 576.866 340.991 576.233 340.6 575.842L334.943 570.186L340.6 564.529C340.991 564.138 340.991 563.505 340.6 563.114C340.21 562.724 339.576 562.724 339.186 563.114L332.822 569.478ZM433.529 569.186H333.529V571.186H433.529V569.186Z" fill="#C3D0E4"/>
<circle cx="878.478" cy="570.186" r="20" fill="#70DDD5"/>
<circle cx="629.478" cy="570.186" r="20" fill="#FFBF9F"/>
<path d="M393.077 39.002H398.981C404.525 39.002 408.461 35.57 408.461 30.746C408.461 25.922 404.525 22.514 398.981 22.514H393.077V39.002ZM396.605 35.786V25.73H399.437C402.581 25.73 404.813 27.818 404.813 30.746C404.813 33.698 402.581 35.786 399.437 35.786H396.605ZM416.951 36.194C415.487 36.194 414.407 35.282 413.999 33.938H422.951C422.951 29.258 420.671 26.306 416.783 26.306C413.159 26.306 410.399 29.018 410.399 32.762C410.399 36.578 413.279 39.29 416.975 39.29C418.799 39.29 420.935 38.522 422.039 37.37L419.807 35.09C419.135 35.738 417.935 36.194 416.951 36.194ZM416.927 29.402C418.343 29.402 419.255 30.194 419.591 31.418H414.047C414.503 30.17 415.607 29.402 416.927 29.402ZM432.977 26.306C431.249 26.306 429.809 27.05 428.825 28.322V26.594H425.321V43.13H428.825V37.25C429.809 38.546 431.249 39.29 432.977 39.29C436.289 39.29 438.689 36.602 438.689 32.786C438.689 28.994 436.289 26.306 432.977 26.306ZM431.969 36.338C430.265 36.338 429.017 35.09 428.825 33.266V32.306C429.017 30.506 430.265 29.258 431.969 29.258C433.913 29.258 435.281 30.722 435.281 32.786C435.281 34.874 433.913 36.338 431.969 36.338ZM447.693 35.93C447.453 36.17 446.973 36.338 446.493 36.338C445.845 36.338 445.317 35.762 445.317 34.946V29.426H448.005V26.594H445.317V23.186H441.957V26.594H440.253V29.426H441.957V35.498C441.957 37.73 443.493 39.29 445.677 39.29C446.685 39.29 447.813 38.858 448.533 38.21L447.693 35.93ZM457.903 26.306C456.319 26.306 454.951 27.026 454.183 28.106V22.226H450.679V39.002H454.183V31.658C454.183 30.314 455.311 29.258 456.775 29.258C458.167 29.258 459.127 30.314 459.127 31.85V39.002H462.511V31.106C462.511 28.298 460.591 26.306 457.903 26.306ZM472.077 29.594H483.669V26.738H472.077V29.594ZM472.077 35.066H483.669V32.21H472.077V35.066ZM496.361 39.002H499.913V22.514H497.081L492.137 25.826L493.553 28.322L496.361 26.57V39.002ZM506.322 39.002H509.874V22.514H507.042L502.098 25.826L503.514 28.322L506.322 26.57V39.002ZM519.506 33.89H526.082V30.914H519.506V33.89ZM538.431 39.002H541.983V22.514H539.151L534.207 25.826L535.623 28.322L538.431 26.57V39.002ZM552.304 39.29C556.648 39.29 559.72 35.762 559.72 30.746C559.72 25.754 556.648 22.226 552.304 22.226C547.96 22.226 544.912 25.754 544.912 30.746C544.912 35.762 547.96 39.29 552.304 39.29ZM552.304 36.074C550.096 36.074 548.536 33.842 548.536 30.746C548.536 27.65 550.096 25.442 552.304 25.442C554.536 25.442 556.072 27.65 556.072 30.746C556.072 33.842 554.536 36.074 552.304 36.074ZM568.92 29.594H580.512V26.738H568.92V29.594ZM568.92 35.066H580.512V32.21H568.92V35.066ZM593.205 39.002H596.757V22.514H593.925L588.981 25.826L590.397 28.322L593.205 26.57V39.002Z" fill="#131F37"/>
</svg>
