<svg width="990" height="681" viewBox="0 0 990 681" fill="none" xmlns="http://www.w3.org/2000/svg">
<circle cx="170" cy="320.4" r="20" fill="#42979F"/>
<path d="M677.414 163.926C677.155 164.023 677.024 164.311 677.12 164.57L678.695 168.785C678.792 169.044 679.08 169.175 679.338 169.079C679.597 168.982 679.728 168.694 679.632 168.435L678.232 164.688L681.979 163.288C682.238 163.192 682.369 162.904 682.273 162.645C682.176 162.386 681.888 162.255 681.629 162.352L677.414 163.926ZM910.207 269.945L907.973 268.926L907.558 269.836L909.793 270.855L910.207 269.945ZM900.822 265.664L896.352 263.626L895.937 264.536L900.407 266.574L900.822 265.664ZM889.201 260.364L884.732 258.326L884.317 259.235L888.786 261.274L889.201 260.364ZM877.581 255.064L873.111 253.025L872.696 253.935L877.166 255.974L877.581 255.064ZM865.96 249.764L861.491 247.725L861.076 248.635L865.545 250.673L865.96 249.764ZM854.339 244.463L849.87 242.425L849.455 243.335L853.924 245.373L854.339 244.463ZM842.719 239.163L838.249 237.124L837.834 238.034L842.304 240.073L842.719 239.163ZM831.098 233.863L826.629 231.824L826.214 232.734L830.683 234.773L831.098 233.863ZM819.478 228.562L815.008 226.524L814.593 227.434L819.063 229.472L819.478 228.562ZM807.857 223.262L803.388 221.224L802.973 222.133L807.442 224.172L807.857 223.262ZM796.237 217.962L791.767 215.923L791.352 216.833L795.822 218.872L796.237 217.962ZM784.616 212.662L780.147 210.623L779.732 211.533L784.201 213.571L784.616 212.662ZM772.995 207.361L768.526 205.323L768.111 206.233L772.58 208.271L772.995 207.361ZM761.375 202.061L756.905 200.022L756.49 200.932L760.96 202.971L761.375 202.061ZM749.754 196.761L745.285 194.722L744.87 195.632L749.339 197.671L749.754 196.761ZM738.134 191.461L733.664 189.422L733.249 190.332L737.719 192.37L738.134 191.461ZM726.513 186.16L722.044 184.122L721.629 185.031L726.098 187.07L726.513 186.16ZM714.893 180.86L710.423 178.821L710.008 179.731L714.478 181.77L714.893 180.86ZM703.272 175.56L698.803 173.521L698.388 174.431L702.857 176.469L703.272 175.56ZM691.652 170.259L687.182 168.221L686.767 169.131L691.237 171.169L691.652 170.259ZM680.031 164.959L677.796 163.94L677.381 164.85L679.616 165.869L680.031 164.959ZM677.239 163.458C676.721 163.651 676.459 164.227 676.652 164.745L679.801 173.176C679.994 173.693 680.57 173.956 681.088 173.763C681.605 173.569 681.868 172.993 681.675 172.476L678.875 164.982L686.37 162.182C686.887 161.989 687.15 161.413 686.957 160.896C686.763 160.378 686.187 160.115 685.67 160.309L677.239 163.458ZM910.415 269.491L908.18 268.471L907.35 270.291L909.585 271.31L910.415 269.491ZM901.029 265.21L896.56 263.171L895.73 264.991L900.199 267.029L901.029 265.21ZM889.409 259.909L884.939 257.871L884.109 259.69L888.579 261.729L889.409 259.909ZM877.788 254.609L873.319 252.57L872.489 254.39L876.958 256.429L877.788 254.609ZM866.167 249.309L861.698 247.27L860.868 249.09L865.337 251.128L866.167 249.309ZM854.547 244.008L850.077 241.97L849.247 243.79L853.717 245.828L854.547 244.008ZM842.926 238.708L838.457 236.67L837.627 238.489L842.096 240.528L842.926 238.708ZM831.306 233.408L826.836 231.369L826.006 233.189L830.476 235.228L831.306 233.408ZM819.685 228.108L815.216 226.069L814.386 227.889L818.855 229.927L819.685 228.108ZM808.065 222.807L803.595 220.769L802.765 222.588L807.235 224.627L808.065 222.807ZM796.444 217.507L791.975 215.468L791.145 217.288L795.614 219.327L796.444 217.507ZM784.824 212.207L780.354 210.168L779.524 211.988L783.994 214.026L784.824 212.207ZM773.203 206.906L768.734 204.868L767.904 206.688L772.373 208.726L773.203 206.906ZM761.582 201.606L757.113 199.568L756.283 201.387L760.752 203.426L761.582 201.606ZM749.962 196.306L745.492 194.267L744.662 196.087L749.132 198.126L749.962 196.306ZM738.341 191.006L733.872 188.967L733.042 190.787L737.511 192.825L738.341 191.006ZM726.721 185.705L722.251 183.667L721.421 185.486L725.891 187.525L726.721 185.705ZM715.1 180.405L710.631 178.366L709.801 180.186L714.27 182.225L715.1 180.405ZM703.48 175.105L699.01 173.066L698.18 174.886L702.65 176.924L703.48 175.105ZM691.859 169.804L687.39 167.766L686.56 169.586L691.029 171.624L691.859 169.804ZM680.239 164.504L678.004 163.485L677.174 165.305L679.409 166.324L680.239 164.504Z" fill="#C3D0E4"/>
<path d="M279.754 77.7945C279.525 77.9487 279.464 78.2595 279.619 78.4885L282.132 82.221C282.287 82.45 282.597 82.5107 282.826 82.3564C283.055 82.2022 283.116 81.8914 282.962 81.6624L280.727 78.3446L284.045 76.1102C284.274 75.956 284.335 75.6453 284.181 75.4162C284.026 75.1872 283.716 75.1266 283.487 75.2808L279.754 77.7945ZM650.096 149.91L647.642 149.431L647.451 150.412L649.904 150.891L650.096 149.91ZM639.792 147.899L634.885 146.942L634.693 147.923L639.6 148.881L639.792 147.899ZM627.034 145.41L622.127 144.452L621.936 145.434L626.843 146.391L627.034 145.41ZM614.277 142.92L609.37 141.963L609.178 142.944L614.085 143.902L614.277 142.92ZM601.519 140.431L596.613 139.474L596.421 140.455L601.328 141.412L601.519 140.431ZM588.762 137.942L583.855 136.984L583.664 137.966L588.57 138.923L588.762 137.942ZM576.004 135.452L571.098 134.495L570.906 135.476L575.813 136.434L576.004 135.452ZM563.247 132.963L558.34 132.005L558.149 132.987L563.055 133.944L563.247 132.963ZM550.489 130.474L545.583 129.516L545.391 130.498L550.298 131.455L550.489 130.474ZM537.732 127.984L532.825 127.027L532.634 128.008L537.54 128.966L537.732 127.984ZM524.974 125.495L520.068 124.537L519.876 125.519L524.783 126.476L524.974 125.495ZM512.217 123.006L507.31 122.048L507.119 123.03L512.025 123.987L512.217 123.006ZM499.459 120.516L494.553 119.559L494.361 120.54L499.268 121.498L499.459 120.516ZM486.702 118.027L481.795 117.069L481.604 118.051L486.511 119.008L486.702 118.027ZM473.945 115.537L469.038 114.58L468.846 115.562L473.753 116.519L473.945 115.537ZM461.187 113.048L456.28 112.091L456.089 113.072L460.996 114.03L461.187 113.048ZM448.43 110.559L443.523 109.601L443.331 110.583L448.238 111.54L448.43 110.559ZM435.672 108.069L430.765 107.112L430.574 108.093L435.481 109.051L435.672 108.069ZM422.915 105.58L418.008 104.623L417.817 105.604L422.723 106.562L422.915 105.58ZM410.157 103.091L405.251 102.133L405.059 103.115L409.966 104.072L410.157 103.091ZM397.4 100.601L392.493 99.6439L392.302 100.625L397.208 101.583L397.4 100.601ZM384.642 98.112L379.736 97.1546L379.544 98.1361L384.451 99.0935L384.642 98.112ZM371.885 95.6227L366.978 94.6652L366.787 95.6467L371.693 96.6041L371.885 95.6227ZM359.127 93.1333L354.221 92.1759L354.029 93.1573L358.936 94.1148L359.127 93.1333ZM346.37 90.644L341.463 89.6865L341.272 90.668L346.178 91.6254L346.37 90.644ZM333.612 88.1546L328.706 87.1972L328.514 88.1786L333.421 89.1361L333.612 88.1546ZM320.855 85.6652L315.948 84.7078L315.757 85.6893L320.663 86.6467L320.855 85.6652ZM308.097 83.1759L303.191 82.2185L302.999 83.1999L307.906 84.1574L308.097 83.1759ZM295.34 80.6865L290.433 79.7291L290.242 80.7106L295.149 81.668L295.34 80.6865ZM282.583 78.1972L280.129 77.7185L279.938 78.7L282.391 79.1787L282.583 78.1972ZM279.475 77.3798C279.017 77.6883 278.895 78.3097 279.204 78.7678L284.231 86.2328C284.54 86.6909 285.161 86.8121 285.619 86.5036C286.077 86.1951 286.199 85.5737 285.89 85.1156L281.421 78.4801L288.057 74.0113C288.515 73.7028 288.636 73.0813 288.328 72.6233C288.019 72.1652 287.398 72.0439 286.94 72.3524L279.475 77.3798ZM650.192 149.419L647.738 148.94L647.355 150.903L649.808 151.382L650.192 149.419ZM639.887 147.408L634.981 146.451L634.598 148.414L639.504 149.371L639.887 147.408ZM627.13 144.919L622.223 143.961L621.84 145.924L626.747 146.882L627.13 144.919ZM614.372 142.43L609.466 141.472L609.083 143.435L613.989 144.393L614.372 142.43ZM601.615 139.94L596.708 138.983L596.325 140.946L601.232 141.903L601.615 139.94ZM588.858 137.451L583.951 136.493L583.568 138.456L588.474 139.414L588.858 137.451ZM576.1 134.962L571.193 134.004L570.81 135.967L575.717 136.924L576.1 134.962ZM563.343 132.472L558.436 131.515L558.053 133.478L562.96 134.435L563.343 132.472ZM550.585 129.983L545.678 129.025L545.295 130.988L550.202 131.946L550.585 129.983ZM537.828 127.493L532.921 126.536L532.538 128.499L537.445 129.456L537.828 127.493ZM525.07 125.004L520.163 124.047L519.78 126.01L524.687 126.967L525.07 125.004ZM512.313 122.515L507.406 121.557L507.023 123.52L511.93 124.478L512.313 122.515ZM499.555 120.025L494.649 119.068L494.266 121.031L499.172 121.988L499.555 120.025ZM486.798 117.536L481.891 116.579L481.508 118.542L486.415 119.499L486.798 117.536ZM474.04 115.047L469.134 114.089L468.751 116.052L473.657 117.01L474.04 115.047ZM461.283 112.557L456.376 111.6L455.993 113.563L460.9 114.52L461.283 112.557ZM448.525 110.068L443.619 109.111L443.236 111.074L448.142 112.031L448.525 110.068ZM435.768 107.579L430.861 106.621L430.478 108.584L435.385 109.542L435.768 107.579ZM423.01 105.089L418.104 104.132L417.721 106.095L422.627 107.052L423.01 105.089ZM410.253 102.6L405.346 101.643L404.963 103.606L409.87 104.563L410.253 102.6ZM397.496 100.111L392.589 99.1532L392.206 101.116L397.113 102.074L397.496 100.111ZM384.738 97.6213L379.831 96.6638L379.448 98.6268L384.355 99.5842L384.738 97.6213ZM371.981 95.1319L367.074 94.1745L366.691 96.1374L371.598 97.0949L371.981 95.1319ZM359.223 92.6426L354.316 91.6851L353.933 93.6481L358.84 94.6055L359.223 92.6426ZM346.466 90.1532L341.559 89.1958L341.176 91.1587L346.083 92.1162L346.466 90.1532ZM333.708 87.6639L328.801 86.7064L328.418 88.6694L333.325 89.6268L333.708 87.6639ZM320.951 85.1745L316.044 84.2171L315.661 86.18L320.568 87.1375L320.951 85.1745ZM308.193 82.6852L303.287 81.7277L302.903 83.6907L307.81 84.6481L308.193 82.6852ZM295.436 80.1958L290.529 79.2384L290.146 81.2013L295.053 82.1588L295.436 80.1958ZM282.678 77.7064L280.225 77.2277L279.842 79.1907L282.295 79.6694L282.678 77.7064Z" fill="#C3D0E4"/>
<path d="M453.82 283.788C453.718 284.331 454.076 284.853 454.619 284.955L463.465 286.613C464.008 286.715 464.53 286.357 464.632 285.815C464.734 285.272 464.376 284.749 463.833 284.647L455.97 283.174L457.444 275.31C457.546 274.768 457.188 274.245 456.645 274.143C456.103 274.042 455.58 274.399 455.478 274.942L453.82 283.788ZM649.435 149.575L454.238 283.147L455.368 284.797L650.565 151.226L649.435 149.575Z" fill="#C3D0E4"/>
<path d="M459.698 305.366C459.478 305.532 459.435 305.846 459.601 306.066L462.316 309.655C462.483 309.875 462.797 309.918 463.017 309.752C463.237 309.585 463.281 309.272 463.114 309.051L460.7 305.862L463.89 303.448C464.11 303.281 464.154 302.968 463.987 302.748C463.821 302.527 463.507 302.484 463.287 302.651L459.698 305.366ZM710.069 339.905L707.538 339.555L707.401 340.545L709.931 340.896L710.069 339.905ZM699.441 338.433L694.38 337.732L694.243 338.722L699.304 339.423L699.441 338.433ZM686.283 336.61L681.222 335.909L681.085 336.899L686.146 337.6L686.283 336.61ZM673.125 334.787L668.065 334.086L667.927 335.076L672.988 335.777L673.125 334.787ZM659.967 332.964L654.907 332.263L654.769 333.253L659.83 333.954L659.967 332.964ZM646.81 331.141L641.749 330.44L641.612 331.43L646.672 332.132L646.81 331.141ZM633.652 329.318L628.591 328.617L628.454 329.607L633.514 330.309L633.652 329.318ZM620.494 327.495L615.433 326.794L615.296 327.785L620.356 328.486L620.494 327.495ZM607.336 325.672L602.275 324.971L602.138 325.962L607.199 326.663L607.336 325.672ZM594.178 323.849L589.117 323.148L588.98 324.139L594.041 324.84L594.178 323.849ZM581.02 322.026L575.959 321.325L575.822 322.316L580.883 323.017L581.02 322.026ZM567.862 320.203L562.801 319.502L562.664 320.493L567.725 321.194L567.862 320.203ZM554.704 318.38L549.644 317.679L549.506 318.67L554.567 319.371L554.704 318.38ZM541.546 316.557L536.486 315.856L536.348 316.847L541.409 317.548L541.546 316.557ZM528.388 314.735L523.328 314.033L523.19 315.024L528.251 315.725L528.388 314.735ZM515.231 312.912L510.17 312.21L510.033 313.201L515.093 313.902L515.231 312.912ZM502.073 311.089L497.012 310.388L496.875 311.378L501.935 312.079L502.073 311.089ZM488.915 309.266L483.854 308.565L483.717 309.555L488.778 310.256L488.915 309.266ZM475.757 307.443L470.696 306.742L470.559 307.732L475.62 308.433L475.757 307.443ZM462.599 305.62L460.069 305.269L459.931 306.26L462.462 306.61L462.599 305.62ZM459.397 304.967C458.956 305.3 458.869 305.928 459.203 306.368L464.633 313.545C464.966 313.985 465.593 314.072 466.034 313.739C466.474 313.406 466.561 312.779 466.228 312.338L461.401 305.959L467.78 301.132C468.221 300.798 468.308 300.171 467.975 299.731C467.641 299.29 467.014 299.203 466.574 299.537L459.397 304.967ZM710.137 339.41L707.607 339.059L707.332 341.04L709.863 341.391L710.137 339.41ZM699.51 337.937L694.449 337.236L694.175 339.217L699.235 339.919L699.51 337.937ZM686.352 336.115L681.291 335.413L681.017 337.394L686.077 338.096L686.352 336.115ZM673.194 334.292L668.133 333.59L667.859 335.572L672.919 336.273L673.194 334.292ZM660.036 332.469L654.975 331.768L654.701 333.749L659.762 334.45L660.036 332.469ZM646.878 330.646L641.817 329.945L641.543 331.926L646.604 332.627L646.878 330.646ZM633.72 328.823L628.659 328.122L628.385 330.103L633.446 330.804L633.72 328.823ZM620.562 327L615.502 326.299L615.227 328.28L620.288 328.981L620.562 327ZM607.404 325.177L602.344 324.476L602.069 326.457L607.13 327.158L607.404 325.177ZM594.247 323.354L589.186 322.653L588.911 324.634L593.972 325.335L594.247 323.354ZM581.089 321.531L576.028 320.83L575.753 322.811L580.814 323.512L581.089 321.531ZM567.931 319.708L562.87 319.007L562.596 320.988L567.656 321.689L567.931 319.708ZM554.773 317.885L549.712 317.184L549.438 319.165L554.498 319.866L554.773 317.885ZM541.615 316.062L536.554 315.361L536.28 317.342L541.34 318.043L541.615 316.062ZM528.457 314.239L523.396 313.538L523.122 315.519L528.183 316.22L528.457 314.239ZM515.299 312.416L510.238 311.715L509.964 313.696L515.025 314.397L515.299 312.416ZM502.141 310.593L497.081 309.892L496.806 311.873L501.867 312.574L502.141 310.593ZM488.983 308.77L483.923 308.069L483.648 310.05L488.709 310.752L488.983 308.77ZM475.826 306.948L470.765 306.246L470.49 308.227L475.551 308.929L475.826 306.948ZM462.668 305.125L460.137 304.774L459.863 306.755L462.393 307.106L462.668 305.125Z" fill="#C3D0E4"/>
<path d="M277.338 470.467C277.077 470.953 277.26 471.56 277.747 471.82L285.68 476.07C286.167 476.331 286.773 476.148 287.034 475.661C287.295 475.174 287.111 474.568 286.625 474.307L279.573 470.53L283.35 463.478C283.611 462.991 283.428 462.385 282.941 462.124C282.454 461.863 281.848 462.046 281.588 462.533L277.338 470.467ZM709.711 339.443L277.93 469.982L278.508 471.896L710.289 341.358L709.711 339.443Z" fill="#C3D0E4"/>
<path d="M97.877 199.308C97.6335 199.439 97.5416 199.742 97.6718 199.985L99.7934 203.954C99.9236 204.197 100.227 204.289 100.47 204.159C100.714 204.029 100.805 203.726 100.675 203.482L98.7894 199.955L102.317 198.069C102.561 197.939 102.652 197.636 102.522 197.392C102.392 197.149 102.089 197.057 101.846 197.187L97.877 199.308ZM430.145 299.922L427.781 299.205L427.491 300.162L429.855 300.879L430.145 299.922ZM420.217 296.911L415.489 295.477L415.199 296.434L419.927 297.868L420.217 296.911ZM407.925 293.183L403.197 291.749L402.907 292.706L407.635 294.14L407.925 293.183ZM395.633 289.455L390.905 288.022L390.615 288.979L395.342 290.412L395.633 289.455ZM383.34 285.728L378.613 284.294L378.323 285.251L383.05 286.684L383.34 285.728ZM371.048 282L366.321 280.566L366.03 281.523L370.758 282.957L371.048 282ZM358.756 278.272L354.029 276.838L353.738 277.795L358.466 279.229L358.756 278.272ZM346.464 274.544L341.736 273.11L341.446 274.067L346.174 275.501L346.464 274.544ZM334.172 270.816L329.444 269.382L329.154 270.339L333.882 271.773L334.172 270.816ZM321.88 267.088L317.152 265.655L316.862 266.612L321.59 268.045L321.88 267.088ZM309.588 263.361L304.86 261.927L304.57 262.884L309.298 264.318L309.588 263.361ZM297.296 259.633L292.568 258.199L292.278 259.156L297.005 260.59L297.296 259.633ZM285.004 255.905L280.276 254.471L279.986 255.428L284.713 256.862L285.004 255.905ZM272.711 252.177L267.984 250.743L267.693 251.7L272.421 253.134L272.711 252.177ZM260.419 248.449L255.692 247.016L255.401 247.973L260.129 249.406L260.419 248.449ZM248.127 244.722L243.399 243.288L243.109 244.245L247.837 245.679L248.127 244.722ZM235.835 240.994L231.107 239.56L230.817 240.517L235.545 241.951L235.835 240.994ZM223.543 237.266L218.815 235.832L218.525 236.789L223.253 238.223L223.543 237.266ZM211.251 233.538L206.523 232.104L206.233 233.061L210.961 234.495L211.251 233.538ZM198.959 229.81L194.231 228.377L193.941 229.333L198.668 230.767L198.959 229.81ZM186.667 226.082L181.939 224.649L181.649 225.606L186.376 227.039L186.667 226.082ZM174.374 222.355L169.647 220.921L169.356 221.878L174.084 223.312L174.374 222.355ZM162.082 218.627L157.355 217.193L157.064 218.15L161.792 219.584L162.082 218.627ZM149.79 214.899L145.062 213.465L144.772 214.422L149.5 215.856L149.79 214.899ZM137.498 211.171L132.77 209.737L132.48 210.694L137.208 212.128L137.498 211.171ZM125.206 207.443L120.478 206.01L120.188 206.967L124.916 208.4L125.206 207.443ZM112.914 203.716L108.186 202.282L107.896 203.239L112.624 204.673L112.914 203.716ZM100.622 199.988L98.2579 199.271L97.9677 200.228L100.331 200.945L100.622 199.988ZM97.6413 198.867C97.1543 199.128 96.9705 199.734 97.2309 200.221L101.474 208.158C101.734 208.645 102.34 208.829 102.827 208.568C103.314 208.308 103.498 207.702 103.238 207.215L99.4661 200.16L106.521 196.388C107.008 196.128 107.192 195.522 106.932 195.035C106.671 194.548 106.065 194.364 105.578 194.624L97.6413 198.867ZM430.29 299.443L427.926 298.727L427.346 300.64L429.71 301.357L430.29 299.443ZM420.362 296.433L415.634 294.999L415.054 296.913L419.782 298.346L420.362 296.433ZM408.07 292.705L403.342 291.271L402.762 293.185L407.489 294.619L408.07 292.705ZM395.778 288.977L391.05 287.543L390.47 289.457L395.197 290.891L395.778 288.977ZM383.486 285.249L378.758 283.815L378.177 285.729L382.905 287.163L383.486 285.249ZM371.193 281.521L366.466 280.087L365.885 282.001L370.613 283.435L371.193 281.521ZM358.901 277.793L354.174 276.36L353.593 278.274L358.321 279.707L358.901 277.793ZM346.609 274.066L341.882 272.632L341.301 274.546L346.029 275.98L346.609 274.066ZM334.317 270.338L329.589 268.904L329.009 270.818L333.737 272.252L334.317 270.338ZM322.025 266.61L317.297 265.176L316.717 267.09L321.445 268.524L322.025 266.61ZM309.733 262.882L305.005 261.448L304.425 263.362L309.152 264.796L309.733 262.882ZM297.441 259.154L292.713 257.721L292.133 259.634L296.86 261.068L297.441 259.154ZM285.149 255.427L280.421 253.993L279.84 255.907L284.568 257.34L285.149 255.427ZM272.857 251.699L268.129 250.265L267.548 252.179L272.276 253.613L272.857 251.699ZM260.564 247.971L255.837 246.537L255.256 248.451L259.984 249.885L260.564 247.971ZM248.272 244.243L243.545 242.809L242.964 244.723L247.692 246.157L248.272 244.243ZM235.98 240.515L231.252 239.081L230.672 240.995L235.4 242.429L235.98 240.515ZM223.688 236.787L218.96 235.354L218.38 237.268L223.108 238.701L223.688 236.787ZM211.396 233.06L206.668 231.626L206.088 233.54L210.815 234.974L211.396 233.06ZM199.104 229.332L194.376 227.898L193.796 229.812L198.523 231.246L199.104 229.332ZM186.812 225.604L182.084 224.17L181.504 226.084L186.231 227.518L186.812 225.604ZM174.52 221.876L169.792 220.442L169.211 222.356L173.939 223.79L174.52 221.876ZM162.227 218.148L157.5 216.715L156.919 218.629L161.647 220.062L162.227 218.148ZM149.935 214.421L145.208 212.987L144.627 214.901L149.355 216.334L149.935 214.421ZM137.643 210.693L132.915 209.259L132.335 211.173L137.063 212.607L137.643 210.693ZM125.351 206.965L120.623 205.531L120.043 207.445L124.771 208.879L125.351 206.965ZM113.059 203.237L108.331 201.803L107.751 203.717L112.478 205.151L113.059 203.237ZM100.767 199.509L98.403 198.792L97.8225 200.706L100.186 201.423L100.767 199.509Z" fill="#C3D0E4"/>
<path d="M198.866 317.313C198.507 317.732 198.555 318.364 198.974 318.723L205.803 324.585C206.222 324.945 206.853 324.897 207.213 324.477C207.573 324.058 207.525 323.427 207.106 323.067L201.035 317.857L206.246 311.786C206.605 311.367 206.557 310.736 206.138 310.376C205.719 310.017 205.088 310.065 204.728 310.484L198.866 317.313ZM429.924 299.403L199.549 316.967L199.701 318.962L430.076 301.397L429.924 299.403Z" fill="#C3D0E4"/>
<path d="M737.764 331.671C737.528 332.171 737.743 332.767 738.243 333.002L746.386 336.833C746.886 337.069 747.482 336.854 747.717 336.354C747.952 335.855 747.738 335.259 747.238 335.024L739.999 331.618L743.405 324.379C743.64 323.879 743.425 323.284 742.926 323.049C742.426 322.813 741.83 323.028 741.595 323.528L737.764 331.671ZM909.661 269.46L738.33 331.156L739.007 333.038L910.339 271.341L909.661 269.46Z" fill="#C3D0E4"/>
<circle cx="910" cy="270.4" r="20" fill="#70DDD5"/>
<circle cx="650" cy="150.4" r="20" fill="#42979F"/>
<circle cx="710" cy="340.4" r="20" fill="#42979F"/>
<path d="M92.9779 630.384H99.0799C101.294 630.384 102.878 628.998 102.878 627.018C102.878 625.65 102.05 624.534 100.61 623.832C101.726 623.202 102.374 622.392 102.374 621.096C102.374 619.296 100.916 618.018 98.8459 618.018H92.9779V630.384ZM94.7959 623.166V619.62H98.3959C99.6379 619.62 100.52 620.376 100.52 621.402C100.52 622.428 99.6379 623.166 98.3959 623.166H94.7959ZM94.7959 628.782V624.714H98.6659C100.052 624.714 101.024 625.56 101.024 626.748C101.024 627.936 100.052 628.782 98.6659 628.782H94.7959ZM106.972 622.86V621.078H105.19V630.384H106.972V625.092C107.134 623.472 108.502 622.41 110.428 622.41V620.862C108.826 620.862 107.566 621.636 106.972 622.86ZM116.073 620.862C115.047 620.862 113.877 621.132 112.545 621.798L113.193 623.112C114.003 622.698 114.903 622.338 115.821 622.338C117.675 622.338 118.215 623.58 118.215 624.75V625.038C117.315 624.732 116.325 624.534 115.407 624.534C113.355 624.534 111.681 625.776 111.681 627.63C111.681 629.448 113.139 630.6 115.119 630.6C116.253 630.6 117.531 630.078 118.215 629.106V630.384H119.961V624.75C119.961 622.446 118.575 620.862 116.073 620.862ZM115.461 629.196C114.291 629.196 113.391 628.584 113.391 627.576C113.391 626.568 114.435 625.866 115.677 625.866C116.595 625.866 117.459 625.992 118.215 626.226V627.468C117.909 628.62 116.613 629.196 115.461 629.196ZM127.272 620.862C126.012 620.862 124.878 621.51 124.32 622.428V621.078H122.538V630.384H124.32V624.354C124.464 623.256 125.58 622.41 126.876 622.41C128.136 622.41 129.018 623.382 129.018 624.768V630.384H130.764V624.462C130.764 622.356 129.324 620.862 127.272 620.862ZM137.705 630.6C139.091 630.6 140.297 630.024 141.197 629.106L139.991 628.008C139.415 628.656 138.587 629.052 137.723 629.052C136.013 629.052 134.609 627.54 134.609 625.722C134.609 623.922 136.013 622.41 137.705 622.41C138.569 622.41 139.379 622.788 139.937 623.418L141.143 622.302C140.261 621.42 139.055 620.862 137.723 620.862C135.059 620.862 132.809 623.076 132.809 625.722C132.809 628.368 135.059 630.6 137.705 630.6ZM147.838 620.862C146.56 620.862 145.426 621.528 144.868 622.464V617.802H143.104V630.384H144.868V624.606C144.868 623.4 146.038 622.41 147.442 622.41C148.702 622.41 149.584 623.382 149.584 624.768V630.384H151.33V624.462C151.33 622.356 149.89 620.862 147.838 620.862Z" fill="#131F37"/>
<path d="M351.369 630.384H353.187V619.71H357.255V618.018H347.319V619.71H351.369V630.384ZM361.14 622.86V621.078H359.358V630.384H361.14V625.092C361.302 623.472 362.67 622.41 364.596 622.41V620.862C362.994 620.862 361.734 621.636 361.14 622.86ZM372.742 621.078V627.108C372.598 628.206 371.482 629.052 370.186 629.052C368.926 629.052 368.044 628.08 368.044 626.694V621.078H366.298V627C366.298 629.106 367.738 630.6 369.79 630.6C371.05 630.6 372.184 629.952 372.742 629.034V630.384H374.524V621.078H372.742ZM381.844 620.862C380.584 620.862 379.45 621.51 378.892 622.428V621.078H377.11V630.384H378.892V624.354C379.036 623.256 380.152 622.41 381.448 622.41C382.708 622.41 383.59 623.382 383.59 624.768V630.384H385.336V624.462C385.336 622.356 383.896 620.862 381.844 620.862ZM396.345 621.078H394.185L389.631 625.83V617.802H387.867V630.384H389.631V627.99L391.125 626.478L394.041 630.384H396.165L392.331 625.29L396.345 621.078Z" fill="#131F37"/>
<path d="M604.59 630.6C606.354 630.6 607.974 629.844 609.144 628.656L607.866 627.432C607.038 628.332 605.868 628.926 604.59 628.926C602.124 628.926 600.036 626.766 600.036 624.192C600.036 621.636 602.124 619.476 604.59 619.476C605.868 619.476 607.038 620.07 607.866 620.97L609.144 619.746C607.974 618.54 606.354 617.802 604.59 617.802C601.116 617.802 598.164 620.718 598.164 624.192C598.164 627.666 601.116 630.6 604.59 630.6ZM615.652 620.862C614.374 620.862 613.24 621.528 612.682 622.464V617.802H610.918V630.384H612.682V624.606C612.682 623.4 613.852 622.41 615.256 622.41C616.516 622.41 617.398 623.382 617.398 624.768V630.384H619.144V624.462C619.144 622.356 617.704 620.862 615.652 620.862ZM622.575 619.53C623.151 619.53 623.637 619.026 623.637 618.45C623.637 617.892 623.151 617.388 622.575 617.388C621.963 617.388 621.495 617.892 621.495 618.45C621.495 619.026 621.963 619.53 622.575 619.53ZM621.675 630.384H623.457V621.078H621.675V630.384ZM626.035 630.384H627.799V617.802H626.035V630.384ZM637.559 617.802V622.68C636.839 621.546 635.687 620.862 634.247 620.862C631.799 620.862 629.963 622.878 629.963 625.722C629.963 628.584 631.799 630.6 634.247 630.6C635.687 630.6 636.839 629.916 637.559 628.764V630.384H639.323V617.802H637.559ZM634.679 629.052C632.969 629.052 631.763 627.666 631.763 625.722C631.763 623.778 632.969 622.41 634.679 622.41C636.353 622.41 637.559 623.778 637.559 625.722C637.559 627.666 636.353 629.052 634.679 629.052Z" fill="#131F37"/>
<path d="M825.135 630.384H826.953V626.082H830.337C832.947 626.082 834.927 624.408 834.927 622.05C834.927 619.692 832.947 618.018 830.337 618.018H825.135V630.384ZM826.953 624.39V619.71H830.085C831.867 619.71 833.073 620.592 833.073 622.05C833.073 623.508 831.867 624.39 830.085 624.39H826.953ZM840.677 620.862C839.651 620.862 838.481 621.132 837.149 621.798L837.797 623.112C838.607 622.698 839.507 622.338 840.425 622.338C842.279 622.338 842.819 623.58 842.819 624.75V625.038C841.919 624.732 840.929 624.534 840.011 624.534C837.959 624.534 836.285 625.776 836.285 627.63C836.285 629.448 837.743 630.6 839.723 630.6C840.857 630.6 842.135 630.078 842.819 629.106V630.384H844.565V624.75C844.565 622.446 843.179 620.862 840.677 620.862ZM840.065 629.196C838.895 629.196 837.995 628.584 837.995 627.576C837.995 626.568 839.039 625.866 840.281 625.866C841.199 625.866 842.063 625.992 842.819 626.226V627.468C842.513 628.62 841.217 629.196 840.065 629.196ZM850.508 630.6C852.542 630.6 854.036 629.484 854.036 627.72C854.036 625.866 852.398 625.362 850.868 624.912C849.302 624.426 848.726 624.21 848.726 623.49C848.726 622.788 849.446 622.392 850.364 622.392C851.174 622.392 852.11 622.698 853.01 623.256L853.802 621.942C852.794 621.276 851.57 620.862 850.364 620.862C848.384 620.862 846.962 621.978 846.98 623.688C846.98 625.2 848.042 625.812 850.184 626.406C851.336 626.73 852.29 627 852.29 627.864C852.29 628.584 851.57 629.07 850.526 629.07C849.428 629.07 848.366 628.656 847.376 627.936L846.53 629.214C847.646 630.114 849.14 630.6 850.508 630.6ZM860.463 628.71C860.265 628.908 859.905 629.052 859.509 629.052C858.987 629.052 858.555 628.584 858.555 627.936V622.59H860.751V621.078H858.555V618.522H856.809V621.078H855.405V622.59H856.809V628.062C856.809 629.556 857.817 630.6 859.257 630.6C859.923 630.6 860.607 630.348 861.111 629.934L860.463 628.71ZM872.469 630.6C873.855 630.6 875.061 630.024 875.961 629.106L874.755 628.008C874.179 628.656 873.351 629.052 872.487 629.052C870.777 629.052 869.373 627.54 869.373 625.722C869.373 623.922 870.777 622.41 872.469 622.41C873.333 622.41 874.143 622.788 874.701 623.418L875.907 622.302C875.025 621.42 873.819 620.862 872.487 620.862C869.823 620.862 867.573 623.076 867.573 625.722C867.573 628.368 869.823 630.6 872.469 630.6ZM882.085 630.6C884.731 630.6 886.963 628.368 886.963 625.722C886.963 623.076 884.731 620.862 882.085 620.862C879.421 620.862 877.171 623.076 877.171 625.722C877.171 628.368 879.421 630.6 882.085 630.6ZM882.085 629.052C880.375 629.052 878.953 627.54 878.953 625.722C878.953 623.922 880.375 622.41 882.085 622.41C883.759 622.41 885.181 623.922 885.181 625.722C885.181 627.54 883.759 629.052 882.085 629.052ZM893.782 620.862C892.522 620.862 891.388 621.51 890.83 622.428V621.078H889.048V630.384H890.83V624.354C890.974 623.256 892.09 622.41 893.386 622.41C894.646 622.41 895.528 623.382 895.528 624.768V630.384H897.274V624.462C897.274 622.356 895.834 620.862 893.782 620.862ZM904.089 629.016C902.487 629.016 901.353 627.9 901.119 626.352H908.445C908.445 623.022 906.807 620.862 903.963 620.862C901.389 620.862 899.319 622.914 899.319 625.704C899.319 628.566 901.515 630.6 904.107 630.6C905.421 630.6 907.041 630.042 907.869 629.16L906.753 628.008C906.195 628.584 905.061 629.016 904.089 629.016ZM904.035 622.446C905.637 622.446 906.519 623.49 906.717 624.93H901.137C901.425 623.418 902.595 622.446 904.035 622.446Z" fill="#131F37"/>
<path d="M71.6443 584.175C71.449 584.37 71.449 584.687 71.6443 584.882L74.8262 588.064C75.0215 588.259 75.3381 588.259 75.5333 588.064C75.7286 587.869 75.7286 587.552 75.5333 587.357L72.7049 584.528L75.5333 581.7C75.7286 581.505 75.7286 581.188 75.5333 580.993C75.3381 580.798 75.0215 580.798 74.8262 580.993L71.6443 584.175ZM171.998 584.028H169.594V585.028H171.998V584.028ZM161.902 584.028H157.094V585.028H161.902V584.028ZM149.402 584.028H144.594V585.028H149.402V584.028ZM136.902 584.028H132.094V585.028H136.902V584.028ZM124.402 584.028H119.594V585.028H124.402V584.028ZM111.902 584.028H107.094V585.028H111.902V584.028ZM99.4017 584.028H94.594V585.028H99.4017V584.028ZM86.9017 584.028H82.094V585.028H86.9017V584.028ZM74.4017 584.028H71.9978V585.028H74.4017V584.028ZM71.2907 583.821C70.9002 584.212 70.9002 584.845 71.2907 585.235L77.6547 591.599C78.0452 591.99 78.6784 591.99 79.0689 591.599C79.4594 591.209 79.4594 590.576 79.0689 590.185L73.412 584.528L79.0689 578.871C79.4594 578.481 79.4594 577.848 79.0689 577.457C78.6784 577.067 78.0452 577.067 77.6547 577.457L71.2907 583.821ZM171.998 583.528H169.594V585.528H171.998V583.528ZM161.902 583.528H157.094V585.528H161.902V583.528ZM149.402 583.528H144.594V585.528H149.402V583.528ZM136.902 583.528H132.094V585.528H136.902V583.528ZM124.402 583.528H119.594V585.528H124.402V583.528ZM111.902 583.528H107.094V585.528H111.902V583.528ZM99.4017 583.528H94.594V585.528H99.4017V583.528ZM86.9017 583.528H82.094V585.528H86.9017V583.528ZM74.4017 583.528H71.9978V585.528H74.4017V583.528Z" fill="#C3D0E4"/>
<path d="M320.844 581.677C320.454 582.067 320.454 582.7 320.844 583.091L327.208 589.455C327.599 589.845 328.232 589.845 328.622 589.455C329.013 589.064 329.013 588.431 328.622 588.041L322.965 582.384L328.622 576.727C329.013 576.336 329.013 575.703 328.622 575.313C328.232 574.922 327.599 574.922 327.208 575.313L320.844 581.677ZM421.551 581.384H321.551V583.384H421.551V581.384Z" fill="#C3D0E4"/>
<circle cx="866.5" cy="582.384" r="20" fill="#42979F"/>
<circle cx="617.5" cy="582.384" r="20" fill="#70DDD5"/>
<circle cx="430.187" cy="300.4" r="20" fill="#42979F"/>
<circle cx="250" cy="70.4004" r="20" fill="#42979F"/>
<circle cx="70" cy="190.4" r="20" fill="#42979F"/>
<circle cx="250" cy="480.4" r="20" fill="#42979F"/>
</svg>
