<svg width="990" height="1350" viewBox="0 0 990 1350" fill="none" xmlns="http://www.w3.org/2000/svg">
<path d="M495.171 51.3577L490.443 62.9737L485.715 51.3577H481.731L488.451 67.8457H492.411L499.131 51.3577H495.171ZM505.632 55.1497C503.904 55.1497 502.2 55.6297 500.448 56.5177L501.624 58.8457C502.608 58.3417 503.688 57.9577 504.84 57.9577C506.88 57.9577 507.696 59.1097 507.696 60.4297V60.6697C506.64 60.2617 505.536 60.0457 504.528 60.0457C501.648 60.0457 499.368 61.7257 499.368 64.1737C499.368 66.5497 501.408 68.1337 504.048 68.1337C505.392 68.1337 506.808 67.6057 507.696 66.5977V67.8457H511.08V60.4297C511.08 57.1897 508.872 55.1497 505.632 55.1497ZM504.84 65.7097C503.64 65.7097 502.752 65.0857 502.752 64.0777C502.752 63.0697 503.76 62.3257 505.032 62.3257C505.992 62.3257 506.904 62.4937 507.696 62.7817V63.9337C507.456 65.0857 506.184 65.7097 504.84 65.7097ZM514.033 67.8457H517.537V51.0697H514.033V67.8457ZM522.348 53.7337C523.38 53.7337 524.22 52.8697 524.22 51.8137C524.22 50.8297 523.38 49.9417 522.348 49.9417C521.268 49.9417 520.428 50.8297 520.428 51.8137C520.428 52.8697 521.268 53.7337 522.348 53.7337ZM520.572 67.8457H524.076V55.4377H520.572V67.8457ZM536.399 51.0697V57.2137C535.415 55.9177 533.975 55.1497 532.223 55.1497C528.911 55.1497 526.511 57.8377 526.511 61.6297C526.511 65.4457 528.911 68.1337 532.223 68.1337C533.975 68.1337 535.415 67.3657 536.399 66.0697V67.8457H539.903V51.0697H536.399ZM533.231 65.1817C531.287 65.1817 529.919 63.7177 529.919 61.6297C529.919 59.5657 531.287 58.1017 533.231 58.1017C535.079 58.1017 536.399 59.5657 536.399 61.6297C536.399 63.7177 535.079 65.1817 533.231 65.1817Z" fill="#131F37"/>
<path d="M427.758 403.172V401.48H418.668V413.846H420.504V408.464H427.056V406.772H420.504V403.172H427.758ZM435.483 408.77H438.795V411.362C437.949 412.01 436.779 412.388 435.735 412.388C433.251 412.388 431.163 410.228 431.163 407.654C431.163 405.098 433.251 402.938 435.735 402.938C437.013 402.938 438.471 403.514 439.317 404.432L440.595 403.208C439.425 402.002 437.481 401.264 435.735 401.264C432.261 401.264 429.291 404.18 429.291 407.654C429.291 411.128 432.261 414.062 435.735 414.062C437.481 414.062 439.425 413.306 440.595 412.118V407.186H435.483V408.77ZM443.172 413.846H444.99V409.544H448.374C450.984 409.544 452.964 407.87 452.964 405.512C452.964 403.154 450.984 401.48 448.374 401.48H443.172V413.846ZM444.99 407.852V403.172H448.122C449.904 403.172 451.11 404.054 451.11 405.512C451.11 406.97 449.904 407.852 448.122 407.852H444.99ZM459.289 414.044C462.205 414.044 463.789 412.46 463.789 410.372C463.789 408.158 462.079 407.33 459.613 406.754C457.579 406.268 456.517 405.872 456.517 404.72C456.517 403.73 457.489 402.848 458.875 402.848C460.135 402.848 461.377 403.406 462.421 404.36L463.465 402.992C462.277 401.948 460.855 401.246 458.947 401.246C456.463 401.246 454.663 402.812 454.663 404.882C454.663 407.114 456.337 407.87 458.857 408.464C460.927 408.932 461.953 409.382 461.953 410.552C461.953 411.542 461.071 412.442 459.361 412.442C457.687 412.442 456.391 411.758 455.293 410.714L454.195 412.064C455.509 413.324 457.219 414.044 459.289 414.044ZM470.145 401.264C467.535 401.264 465.663 403.046 465.663 405.422C465.663 407.87 467.553 409.292 469.821 409.292C471.189 409.292 472.431 408.68 473.187 407.654C473.133 410.39 471.711 412.424 469.821 412.424C468.687 412.424 467.913 411.938 467.139 411.236L466.203 412.64C467.157 413.486 468.291 414.062 469.803 414.062C472.827 414.062 475.041 411.218 475.041 407.474C475.041 403.946 473.583 401.264 470.145 401.264ZM470.253 407.762C468.741 407.762 467.535 406.844 467.535 405.332C467.535 404.09 468.543 402.812 470.217 402.812C471.837 402.812 472.719 404 473.043 405.764C472.719 406.97 471.621 407.762 470.253 407.762Z" fill="#131F37"/>
<circle cx="186.478" cy="383.846" r="20" fill="#42979F"/>
<path d="M693.892 227.372C693.633 227.468 693.501 227.756 693.598 228.015L695.173 232.23C695.269 232.489 695.557 232.621 695.816 232.524C696.075 232.427 696.206 232.139 696.109 231.881L694.71 228.133L698.457 226.734C698.716 226.637 698.847 226.349 698.75 226.09C698.654 225.832 698.366 225.7 698.107 225.797L693.892 227.372ZM926.685 333.391L924.451 332.372L924.036 333.281L926.27 334.301L926.685 333.391ZM917.299 329.11L912.83 327.071L912.415 327.981L916.884 330.02L917.299 329.11ZM905.679 323.81L901.209 321.771L900.794 322.681L905.264 324.719L905.679 323.81ZM894.058 318.509L889.589 316.471L889.174 317.38L893.643 319.419L894.058 318.509ZM882.438 313.209L877.968 311.17L877.553 312.08L882.023 314.119L882.438 313.209ZM870.817 307.909L866.348 305.87L865.933 306.78L870.402 308.818L870.817 307.909ZM859.197 302.608L854.727 300.57L854.312 301.48L858.782 303.518L859.197 302.608ZM847.576 297.308L843.107 295.27L842.692 296.179L847.161 298.218L847.576 297.308ZM835.955 292.008L831.486 289.969L831.071 290.879L835.541 292.918L835.955 292.008ZM824.335 286.708L819.865 284.669L819.45 285.579L823.92 287.617L824.335 286.708ZM812.714 281.407L808.245 279.369L807.83 280.278L812.299 282.317L812.714 281.407ZM801.094 276.107L796.624 274.068L796.209 274.978L800.679 277.017L801.094 276.107ZM789.473 270.807L785.004 268.768L784.589 269.678L789.058 271.716L789.473 270.807ZM777.853 265.506L773.383 263.468L772.968 264.378L777.438 266.416L777.853 265.506ZM766.232 260.206L761.763 258.168L761.348 259.077L765.817 261.116L766.232 260.206ZM754.612 254.906L750.142 252.867L749.727 253.777L754.197 255.816L754.612 254.906ZM742.991 249.606L738.522 247.567L738.107 248.477L742.576 250.515L742.991 249.606ZM731.37 244.305L726.901 242.267L726.486 243.177L730.955 245.215L731.37 244.305ZM719.75 239.005L715.28 236.966L714.866 237.876L719.335 239.915L719.75 239.005ZM708.129 233.705L703.66 231.666L703.245 232.576L707.714 234.615L708.129 233.705ZM696.509 228.404L694.274 227.385L693.859 228.295L696.094 229.314L696.509 228.404ZM693.717 226.903C693.199 227.096 692.936 227.673 693.13 228.19L696.279 236.621C696.472 237.138 697.048 237.401 697.566 237.208C698.083 237.015 698.346 236.439 698.152 235.921L695.353 228.427L702.847 225.628C703.365 225.434 703.628 224.858 703.434 224.341C703.241 223.824 702.665 223.561 702.148 223.754L693.717 226.903ZM926.893 332.936L924.658 331.917L923.828 333.736L926.063 334.756L926.893 332.936ZM917.507 328.655L913.037 326.616L912.208 328.436L916.677 330.475L917.507 328.655ZM905.886 323.355L901.417 321.316L900.587 323.136L905.056 325.174L905.886 323.355ZM894.266 318.054L889.796 316.016L888.966 317.835L893.436 319.874L894.266 318.054ZM882.645 312.754L878.176 310.715L877.346 312.535L881.815 314.574L882.645 312.754ZM871.025 307.454L866.555 305.415L865.725 307.235L870.195 309.273L871.025 307.454ZM859.404 302.153L854.935 300.115L854.105 301.935L858.574 303.973L859.404 302.153ZM847.784 296.853L843.314 294.815L842.484 296.634L846.954 298.673L847.784 296.853ZM836.163 291.553L831.694 289.514L830.864 291.334L835.333 293.373L836.163 291.553ZM824.542 286.253L820.073 284.214L819.243 286.034L823.712 288.072L824.542 286.253ZM812.922 280.952L808.452 278.914L807.622 280.733L812.092 282.772L812.922 280.952ZM801.301 275.652L796.832 273.613L796.002 275.433L800.471 277.472L801.301 275.652ZM789.681 270.352L785.211 268.313L784.381 270.133L788.851 272.171L789.681 270.352ZM778.06 265.051L773.591 263.013L772.761 264.833L777.23 266.871L778.06 265.051ZM766.44 259.751L761.97 257.713L761.14 259.532L765.61 261.571L766.44 259.751ZM754.819 254.451L750.35 252.412L749.52 254.232L753.989 256.271L754.819 254.451ZM743.199 249.151L738.729 247.112L737.899 248.932L742.369 250.97L743.199 249.151ZM731.578 243.85L727.109 241.812L726.279 243.631L730.748 245.67L731.578 243.85ZM719.957 238.55L715.488 236.511L714.658 238.331L719.127 240.37L719.957 238.55ZM708.337 233.25L703.867 231.211L703.037 233.031L707.507 235.069L708.337 233.25ZM696.716 227.949L694.481 226.93L693.652 228.75L695.886 229.769L696.716 227.949Z" fill="#C3D0E4"/>
<path d="M296.232 141.24C296.003 141.394 295.942 141.705 296.096 141.934L298.61 145.666C298.764 145.895 299.075 145.956 299.304 145.802C299.533 145.647 299.594 145.337 299.44 145.108L297.205 141.79L300.523 139.556C300.752 139.401 300.813 139.091 300.658 138.862C300.504 138.633 300.193 138.572 299.964 138.726L296.232 141.24ZM666.574 213.355L664.12 212.876L663.929 213.858L666.382 214.336L666.574 213.355ZM656.269 211.344L651.363 210.387L651.171 211.368L656.078 212.326L656.269 211.344ZM643.512 208.855L638.605 207.898L638.414 208.879L643.32 209.836L643.512 208.855ZM630.754 206.366L625.848 205.408L625.656 206.39L630.563 207.347L630.754 206.366ZM617.997 203.876L613.09 202.919L612.899 203.9L617.806 204.858L617.997 203.876ZM605.24 201.387L600.333 200.429L600.141 201.411L605.048 202.368L605.24 201.387ZM592.482 198.898L587.575 197.94L587.384 198.922L592.291 199.879L592.482 198.898ZM579.725 196.408L574.818 195.451L574.626 196.432L579.533 197.39L579.725 196.408ZM566.967 193.919L562.06 192.961L561.869 193.943L566.776 194.9L566.967 193.919ZM554.21 191.43L549.303 190.472L549.111 191.454L554.018 192.411L554.21 191.43ZM541.452 188.94L536.545 187.983L536.354 188.964L541.261 189.922L541.452 188.94ZM528.695 186.451L523.788 185.493L523.597 186.475L528.503 187.432L528.695 186.451ZM515.937 183.961L511.031 183.004L510.839 183.986L515.746 184.943L515.937 183.961ZM503.18 181.472L498.273 180.515L498.082 181.496L502.988 182.454L503.18 181.472ZM490.422 178.983L485.516 178.025L485.324 179.007L490.231 179.964L490.422 178.983ZM477.665 176.493L472.758 175.536L472.567 176.517L477.473 177.475L477.665 176.493ZM464.907 174.004L460.001 173.047L459.809 174.028L464.716 174.986L464.907 174.004ZM452.15 171.515L447.243 170.557L447.052 171.539L451.958 172.496L452.15 171.515ZM439.393 169.025L434.486 168.068L434.294 169.049L439.201 170.007L439.393 169.025ZM426.635 166.536L421.728 165.579L421.537 166.56L426.444 167.518L426.635 166.536ZM413.878 164.047L408.971 163.089L408.779 164.071L413.686 165.028L413.878 164.047ZM401.12 161.557L396.213 160.6L396.022 161.581L400.929 162.539L401.12 161.557ZM388.363 159.068L383.456 158.111L383.264 159.092L388.171 160.049L388.363 159.068ZM375.605 156.579L370.698 155.621L370.507 156.603L375.414 157.56L375.605 156.579ZM362.848 154.089L357.941 153.132L357.749 154.113L362.656 155.071L362.848 154.089ZM350.09 151.6L345.183 150.642L344.992 151.624L349.899 152.581L350.09 151.6ZM337.333 149.111L332.426 148.153L332.235 149.135L337.141 150.092L337.333 149.111ZM324.575 146.621L319.669 145.664L319.477 146.645L324.384 147.603L324.575 146.621ZM311.818 144.132L306.911 143.174L306.72 144.156L311.626 145.113L311.818 144.132ZM299.06 141.643L296.607 141.164L296.415 142.145L298.869 142.624L299.06 141.643ZM295.953 140.825C295.495 141.134 295.373 141.755 295.682 142.213L300.709 149.678C301.018 150.136 301.639 150.257 302.097 149.949C302.555 149.64 302.676 149.019 302.368 148.561L297.899 141.925L304.535 137.457C304.993 137.148 305.114 136.527 304.806 136.069C304.497 135.61 303.876 135.489 303.418 135.798L295.953 140.825ZM666.669 212.864L664.216 212.385L663.833 214.348L666.286 214.827L666.669 212.864ZM656.365 210.854L651.458 209.896L651.075 211.859L655.982 212.817L656.365 210.854ZM643.608 208.364L638.701 207.407L638.318 209.37L643.225 210.327L643.608 208.364ZM630.85 205.875L625.944 204.917L625.56 206.88L630.467 207.838L630.85 205.875ZM618.093 203.386L613.186 202.428L612.803 204.391L617.71 205.349L618.093 203.386ZM605.335 200.896L600.429 199.939L600.046 201.902L604.952 202.859L605.335 200.896ZM592.578 198.407L587.671 197.449L587.288 199.412L592.195 200.37L592.578 198.407ZM579.82 195.917L574.914 194.96L574.531 196.923L579.437 197.88L579.82 195.917ZM567.063 193.428L562.156 192.471L561.773 194.434L566.68 195.391L567.063 193.428ZM554.305 190.939L549.399 189.981L549.016 191.944L553.922 192.902L554.305 190.939ZM541.548 188.449L536.641 187.492L536.258 189.455L541.165 190.412L541.548 188.449ZM528.79 185.96L523.884 185.003L523.501 186.966L528.407 187.923L528.79 185.96ZM516.033 183.471L511.126 182.513L510.743 184.476L515.65 185.434L516.033 183.471ZM503.276 180.981L498.369 180.024L497.986 181.987L502.893 182.944L503.276 180.981ZM490.518 178.492L485.611 177.535L485.228 179.498L490.135 180.455L490.518 178.492ZM477.761 176.003L472.854 175.045L472.471 177.008L477.378 177.966L477.761 176.003ZM465.003 173.513L460.096 172.556L459.713 174.519L464.62 175.476L465.003 173.513ZM452.246 171.024L447.339 170.067L446.956 172.03L451.863 172.987L452.246 171.024ZM439.488 168.535L434.582 167.577L434.199 169.54L439.105 170.498L439.488 168.535ZM426.731 166.045L421.824 165.088L421.441 167.051L426.348 168.008L426.731 166.045ZM413.973 163.556L409.067 162.598L408.684 164.561L413.59 165.519L413.973 163.556ZM401.216 161.067L396.309 160.109L395.926 162.072L400.833 163.03L401.216 161.067ZM388.458 158.577L383.552 157.62L383.169 159.583L388.075 160.54L388.458 158.577ZM375.701 156.088L370.794 155.13L370.411 157.093L375.318 158.051L375.701 156.088ZM362.943 153.599L358.037 152.641L357.654 154.604L362.56 155.561L362.943 153.599ZM350.186 151.109L345.279 150.152L344.896 152.115L349.803 153.072L350.186 151.109ZM337.429 148.62L332.522 147.662L332.139 149.625L337.045 150.583L337.429 148.62ZM324.671 146.13L319.764 145.173L319.381 147.136L324.288 148.093L324.671 146.13ZM311.914 143.641L307.007 142.684L306.624 144.647L311.531 145.604L311.914 143.641ZM299.156 141.152L296.703 140.673L296.32 142.636L298.773 143.115L299.156 141.152Z" fill="#C3D0E4"/>
<path d="M470.298 347.233C470.196 347.776 470.554 348.299 471.097 348.4L479.943 350.059C480.485 350.16 481.008 349.803 481.11 349.26C481.211 348.717 480.854 348.194 480.311 348.093L472.448 346.619L473.922 338.756C474.024 338.213 473.666 337.69 473.123 337.589C472.58 337.487 472.058 337.845 471.956 338.387L470.298 347.233ZM665.913 213.02L470.716 346.592L471.846 348.243L667.043 214.671L665.913 213.02Z" fill="#C3D0E4"/>
<path d="M476.176 368.811C475.956 368.978 475.912 369.291 476.079 369.512L478.794 373.1C478.961 373.32 479.274 373.364 479.495 373.197C479.715 373.031 479.758 372.717 479.592 372.497L477.178 369.307L480.368 366.893C480.588 366.727 480.632 366.413 480.465 366.193C480.298 365.973 479.985 365.929 479.765 366.096L476.176 368.811ZM726.546 403.35L724.016 403L723.879 403.99L726.409 404.341L726.546 403.35ZM715.919 401.878L710.858 401.177L710.721 402.167L715.782 402.869L715.919 401.878ZM702.761 400.055L697.7 399.354L697.563 400.345L702.624 401.046L702.761 400.055ZM689.603 398.232L684.542 397.531L684.405 398.522L689.466 399.223L689.603 398.232ZM676.445 396.409L671.384 395.708L671.247 396.699L676.308 397.4L676.445 396.409ZM663.287 394.586L658.227 393.885L658.089 394.876L663.15 395.577L663.287 394.586ZM650.129 392.763L645.069 392.062L644.931 393.053L649.992 393.754L650.129 392.763ZM636.971 390.94L631.911 390.239L631.774 391.23L636.834 391.931L636.971 390.94ZM623.814 389.117L618.753 388.416L618.616 389.407L623.676 390.108L623.814 389.117ZM610.656 387.295L605.595 386.593L605.458 387.584L610.518 388.285L610.656 387.295ZM597.498 385.472L592.437 384.77L592.3 385.761L597.361 386.462L597.498 385.472ZM584.34 383.649L579.279 382.948L579.142 383.938L584.203 384.639L584.34 383.649ZM571.182 381.826L566.121 381.125L565.984 382.115L571.045 382.816L571.182 381.826ZM558.024 380.003L552.963 379.302L552.826 380.292L557.887 380.993L558.024 380.003ZM544.866 378.18L539.806 377.479L539.668 378.469L544.729 379.17L544.866 378.18ZM531.708 376.357L526.648 375.656L526.51 376.646L531.571 377.347L531.708 376.357ZM518.55 374.534L513.49 373.833L513.352 374.823L518.413 375.525L518.55 374.534ZM505.393 372.711L500.332 372.01L500.195 373L505.255 373.702L505.393 372.711ZM492.235 370.888L487.174 370.187L487.037 371.178L492.097 371.879L492.235 370.888ZM479.077 369.065L476.546 368.715L476.409 369.705L478.94 370.056L479.077 369.065ZM475.874 368.412C475.434 368.746 475.347 369.373 475.68 369.813L481.111 376.99C481.444 377.431 482.071 377.518 482.512 377.184C482.952 376.851 483.039 376.224 482.706 375.784L477.879 369.404L484.258 364.577C484.699 364.244 484.786 363.617 484.452 363.176C484.119 362.736 483.492 362.649 483.052 362.982L475.874 368.412ZM726.615 402.855L724.085 402.505L723.81 404.486L726.341 404.836L726.615 402.855ZM715.987 401.383L710.927 400.682L710.652 402.663L715.713 403.364L715.987 401.383ZM702.83 399.56L697.769 398.859L697.494 400.84L702.555 401.541L702.83 399.56ZM689.672 397.737L684.611 397.036L684.337 399.017L689.397 399.718L689.672 397.737ZM676.514 395.914L671.453 395.213L671.179 397.194L676.239 397.895L676.514 395.914ZM663.356 394.091L658.295 393.39L658.021 395.371L663.081 396.072L663.356 394.091ZM650.198 392.268L645.137 391.567L644.863 393.548L649.924 394.249L650.198 392.268ZM637.04 390.445L631.979 389.744L631.705 391.725L636.766 392.426L637.04 390.445ZM623.882 388.622L618.821 387.921L618.547 389.902L623.608 390.603L623.882 388.622ZM610.724 386.799L605.664 386.098L605.389 388.079L610.45 388.78L610.724 386.799ZM597.566 384.976L592.506 384.275L592.231 386.256L597.292 386.957L597.566 384.976ZM584.409 383.153L579.348 382.452L579.073 384.433L584.134 385.134L584.409 383.153ZM571.251 381.33L566.19 380.629L565.915 382.61L570.976 383.312L571.251 381.33ZM558.093 379.508L553.032 378.806L552.758 380.787L557.818 381.489L558.093 379.508ZM544.935 377.685L539.874 376.983L539.6 378.965L544.66 379.666L544.935 377.685ZM531.777 375.862L526.716 375.161L526.442 377.142L531.502 377.843L531.777 375.862ZM518.619 374.039L513.558 373.338L513.284 375.319L518.345 376.02L518.619 374.039ZM505.461 372.216L500.4 371.515L500.126 373.496L505.187 374.197L505.461 372.216ZM492.303 370.393L487.243 369.692L486.968 371.673L492.029 372.374L492.303 370.393ZM479.145 368.57L476.615 368.219L476.341 370.2L478.871 370.551L479.145 368.57Z" fill="#C3D0E4"/>
<path d="M293.815 533.912C293.555 534.399 293.738 535.005 294.225 535.266L302.158 539.516C302.645 539.776 303.251 539.593 303.512 539.106C303.772 538.62 303.589 538.013 303.102 537.753L296.05 533.975L299.828 526.923C300.089 526.436 299.906 525.83 299.419 525.569C298.932 525.309 298.326 525.492 298.065 525.979L293.815 533.912ZM726.188 402.888L294.407 533.427L294.986 535.341L726.767 404.803L726.188 402.888Z" fill="#C3D0E4"/>
<path d="M114.355 262.754C114.111 262.884 114.019 263.187 114.15 263.43L116.271 267.399C116.401 267.642 116.704 267.734 116.948 267.604C117.191 267.474 117.283 267.171 117.153 266.927L115.267 263.4L118.795 261.514C119.038 261.384 119.13 261.081 119 260.837C118.87 260.594 118.567 260.502 118.323 260.632L114.355 262.754ZM446.623 363.367L444.259 362.65L443.969 363.607L446.333 364.324L446.623 363.367ZM436.695 360.356L431.967 358.923L431.677 359.879L436.404 361.313L436.695 360.356ZM424.403 356.628L419.675 355.195L419.385 356.152L424.112 357.585L424.403 356.628ZM412.11 352.901L407.383 351.467L407.092 352.424L411.82 353.858L412.11 352.901ZM399.818 349.173L395.091 347.739L394.8 348.696L399.528 350.13L399.818 349.173ZM387.526 345.445L382.798 344.011L382.508 344.968L387.236 346.402L387.526 345.445ZM375.234 341.717L370.506 340.283L370.216 341.24L374.944 342.674L375.234 341.717ZM362.942 337.989L358.214 336.556L357.924 337.513L362.652 338.946L362.942 337.989ZM350.65 334.262L345.922 332.828L345.632 333.785L350.36 335.219L350.65 334.262ZM338.358 330.534L333.63 329.1L333.34 330.057L338.067 331.491L338.358 330.534ZM326.066 326.806L321.338 325.372L321.048 326.329L325.775 327.763L326.066 326.806ZM313.773 323.078L309.046 321.644L308.755 322.601L313.483 324.035L313.773 323.078ZM301.481 319.35L296.754 317.917L296.463 318.874L301.191 320.307L301.481 319.35ZM289.189 315.623L284.461 314.189L284.171 315.146L288.899 316.579L289.189 315.623ZM276.897 311.895L272.169 310.461L271.879 311.418L276.607 312.852L276.897 311.895ZM264.605 308.167L259.877 306.733L259.587 307.69L264.315 309.124L264.605 308.167ZM252.313 304.439L247.585 303.005L247.295 303.962L252.023 305.396L252.313 304.439ZM240.021 300.711L235.293 299.277L235.003 300.234L239.73 301.668L240.021 300.711ZM227.729 296.983L223.001 295.55L222.711 296.507L227.438 297.94L227.729 296.983ZM215.436 293.256L210.709 291.822L210.419 292.779L215.146 294.213L215.436 293.256ZM203.144 289.528L198.417 288.094L198.126 289.051L202.854 290.485L203.144 289.528ZM190.852 285.8L186.124 284.366L185.834 285.323L190.562 286.757L190.852 285.8ZM178.56 282.072L173.832 280.638L173.542 281.595L178.27 283.029L178.56 282.072ZM166.268 278.344L161.54 276.911L161.25 277.868L165.978 279.301L166.268 278.344ZM153.976 274.617L149.248 273.183L148.958 274.14L153.686 275.573L153.976 274.617ZM141.684 270.889L136.956 269.455L136.666 270.412L141.393 271.846L141.684 270.889ZM129.392 267.161L124.664 265.727L124.374 266.684L129.101 268.118L129.392 267.161ZM117.099 263.433L114.736 262.716L114.445 263.673L116.809 264.39L117.099 263.433ZM114.119 262.313C113.632 262.573 113.448 263.179 113.709 263.666L117.952 271.603C118.212 272.09 118.818 272.274 119.305 272.014C119.792 271.753 119.976 271.147 119.716 270.66L115.944 263.605L122.999 259.833C123.486 259.573 123.67 258.967 123.409 258.48C123.149 257.993 122.543 257.809 122.056 258.07L114.119 262.313ZM446.768 362.889L444.404 362.172L443.824 364.086L446.188 364.803L446.768 362.889ZM436.84 359.878L432.112 358.444L431.532 360.358L436.259 361.792L436.84 359.878ZM424.548 356.15L419.82 354.716L419.239 356.63L423.967 358.064L424.548 356.15ZM412.256 352.422L407.528 350.988L406.947 352.902L411.675 354.336L412.256 352.422ZM399.963 348.694L395.236 347.261L394.655 349.175L399.383 350.608L399.963 348.694ZM387.671 344.967L382.944 343.533L382.363 345.447L387.091 346.88L387.671 344.967ZM375.379 341.239L370.651 339.805L370.071 341.719L374.799 343.153L375.379 341.239ZM363.087 337.511L358.359 336.077L357.779 337.991L362.507 339.425L363.087 337.511ZM350.795 333.783L346.067 332.349L345.487 334.263L350.214 335.697L350.795 333.783ZM338.503 330.055L333.775 328.622L333.195 330.535L337.922 331.969L338.503 330.055ZM326.211 326.327L321.483 324.894L320.902 326.808L325.63 328.241L326.211 326.327ZM313.919 322.6L309.191 321.166L308.61 323.08L313.338 324.514L313.919 322.6ZM301.626 318.872L296.899 317.438L296.318 319.352L301.046 320.786L301.626 318.872ZM289.334 315.144L284.607 313.71L284.026 315.624L288.754 317.058L289.334 315.144ZM277.042 311.416L272.314 309.982L271.734 311.896L276.462 313.33L277.042 311.416ZM264.75 307.688L260.022 306.255L259.442 308.169L264.17 309.602L264.75 307.688ZM252.458 303.961L247.73 302.527L247.15 304.441L251.878 305.875L252.458 303.961ZM240.166 300.233L235.438 298.799L234.858 300.713L239.585 302.147L240.166 300.233ZM227.874 296.505L223.146 295.071L222.566 296.985L227.293 298.419L227.874 296.505ZM215.582 292.777L210.854 291.343L210.273 293.257L215.001 294.691L215.582 292.777ZM203.289 289.049L198.562 287.616L197.981 289.529L202.709 290.963L203.289 289.049ZM190.997 285.322L186.27 283.888L185.689 285.802L190.417 287.235L190.997 285.322ZM178.705 281.594L173.977 280.16L173.397 282.074L178.125 283.508L178.705 281.594ZM166.413 277.866L161.685 276.432L161.105 278.346L165.833 279.78L166.413 277.866ZM154.121 274.138L149.393 272.704L148.813 274.618L153.54 276.052L154.121 274.138ZM141.829 270.41L137.101 268.976L136.521 270.89L141.248 272.324L141.829 270.41ZM129.537 266.682L124.809 265.249L124.228 267.163L128.956 268.596L129.537 266.682ZM117.245 262.955L114.881 262.238L114.3 264.152L116.664 264.869L117.245 262.955Z" fill="#C3D0E4"/>
<path d="M215.344 380.758C214.984 381.178 215.032 381.809 215.452 382.169L222.281 388.03C222.7 388.39 223.331 388.342 223.691 387.923C224.051 387.504 224.003 386.872 223.583 386.513L217.513 381.302L222.723 375.232C223.083 374.813 223.035 374.181 222.616 373.822C222.197 373.462 221.565 373.51 221.206 373.929L215.344 380.758ZM446.402 362.849L216.027 380.413L216.179 382.407L446.554 364.843L446.402 362.849Z" fill="#C3D0E4"/>
<path d="M754.241 395.117C754.006 395.616 754.221 396.212 754.72 396.447L762.864 400.279C763.364 400.514 763.96 400.299 764.195 399.8C764.43 399.3 764.215 398.704 763.716 398.469L756.477 395.063L759.883 387.824C760.118 387.325 759.903 386.729 759.403 386.494C758.904 386.259 758.308 386.473 758.073 386.973L754.241 395.117ZM926.139 332.905L754.807 394.602L755.485 396.483L926.817 334.787L926.139 332.905Z" fill="#C3D0E4"/>
<circle cx="926.478" cy="333.846" r="20" fill="#70DDD5"/>
<circle cx="666.478" cy="213.846" r="20" fill="#70DDD5"/>
<circle cx="726.478" cy="403.846" r="20" fill="#70DDD5"/>
<circle cx="446.664" cy="363.846" r="20" fill="#70DDD5"/>
<circle cx="266.478" cy="133.846" r="20" fill="#42979F"/>
<circle cx="86.4778" cy="253.846" r="20" fill="#42979F"/>
<circle cx="266.478" cy="543.846" r="20" fill="#42979F"/>
<path d="M473.982 668.875H477.534V652.387H473.982V668.875ZM487.905 656.179C486.297 656.179 484.905 656.899 484.161 658.027V656.467H480.657V668.875H484.161V661.459L484.185 661.531C484.185 660.187 485.313 659.131 486.777 659.131C488.169 659.131 489.129 660.187 489.129 661.723V668.875H492.513V660.979C492.513 658.171 490.593 656.179 487.905 656.179ZM499.623 668.875H502.863L508.167 656.467H504.519L501.255 664.843L497.919 656.467H494.247L499.623 668.875ZM514.749 656.179C513.021 656.179 511.317 656.659 509.565 657.547L510.741 659.875C511.725 659.371 512.805 658.987 513.957 658.987C515.997 658.987 516.813 660.139 516.813 661.459V661.699C515.757 661.291 514.653 661.075 513.645 661.075C510.765 661.075 508.485 662.755 508.485 665.203C508.485 667.579 510.525 669.163 513.165 669.163C514.509 669.163 515.925 668.635 516.813 667.627V668.875H520.197V661.459C520.197 658.219 517.989 656.179 514.749 656.179ZM513.957 666.739C512.757 666.739 511.869 666.115 511.869 665.107C511.869 664.099 512.877 663.355 514.149 663.355C515.109 663.355 516.021 663.523 516.813 663.811V664.963C516.573 666.115 515.301 666.739 513.957 666.739ZM523.151 668.875H526.655V652.099H523.151V668.875ZM531.465 654.763C532.497 654.763 533.337 653.899 533.337 652.843C533.337 651.859 532.497 650.971 531.465 650.971C530.385 650.971 529.545 651.859 529.545 652.843C529.545 653.899 530.385 654.763 531.465 654.763ZM529.689 668.875H533.193V656.467H529.689V668.875ZM545.516 652.099V658.243C544.532 656.947 543.092 656.179 541.34 656.179C538.028 656.179 535.628 658.867 535.628 662.659C535.628 666.475 538.028 669.163 541.34 669.163C543.092 669.163 544.532 668.395 545.516 667.099V668.875H549.02V652.099H545.516ZM542.348 666.211C540.404 666.211 539.036 664.747 539.036 662.659C539.036 660.595 540.404 659.131 542.348 659.131C544.196 659.131 545.516 660.595 545.516 662.659C545.516 664.747 544.196 666.211 542.348 666.211Z" fill="#131F37"/>
<path d="M426.095 1014.49H427.913V1002.12H426.095V1014.49ZM439.72 1003.82V1002.12H430.63V1014.49H432.466V1009.11H439.018V1007.42H432.466V1003.82H439.72ZM447.679 1014.71C449.443 1014.71 451.063 1013.95 452.233 1012.76L450.955 1011.54C450.127 1012.44 448.957 1013.03 447.679 1013.03C445.213 1013.03 443.125 1010.87 443.125 1008.3C443.125 1005.74 445.213 1003.58 447.679 1003.58C448.957 1003.58 450.127 1004.18 450.955 1005.08L452.233 1003.85C451.063 1002.65 449.443 1001.91 447.679 1001.91C444.205 1001.91 441.253 1004.82 441.253 1008.3C441.253 1011.77 444.205 1014.71 447.679 1014.71ZM458.183 1001.91C455.573 1001.91 453.701 1003.69 453.701 1006.07C453.701 1008.51 455.591 1009.94 457.859 1009.94C459.227 1009.94 460.469 1009.32 461.225 1008.3C461.171 1011.03 459.749 1013.07 457.859 1013.07C456.725 1013.07 455.951 1012.58 455.177 1011.88L454.241 1013.28C455.195 1014.13 456.329 1014.71 457.841 1014.71C460.865 1014.71 463.079 1011.86 463.079 1008.12C463.079 1004.59 461.621 1001.91 458.183 1001.91ZM458.291 1008.41C456.779 1008.41 455.573 1007.49 455.573 1005.98C455.573 1004.73 456.581 1003.46 458.255 1003.46C459.875 1003.46 460.757 1004.64 461.081 1006.41C460.757 1007.61 459.659 1008.41 458.291 1008.41ZM465.417 1014.49H467.235V1002.12H465.417V1014.49Z" fill="#131F37"/>
<circle cx="186.478" cy="984.49" r="20" fill="#42979F"/>
<path d="M926.685 934.035L924.512 933.044L924.097 933.954L926.27 934.945L926.685 934.035ZM917.557 929.872L913.21 927.889L912.795 928.799L917.142 930.781L917.557 929.872ZM906.254 924.716L901.907 922.734L901.492 923.643L905.839 925.626L906.254 924.716ZM894.952 919.561L890.605 917.578L890.19 918.488L894.537 920.471L894.952 919.561ZM883.65 914.406L879.303 912.423L878.888 913.333L883.235 915.316L883.65 914.406ZM872.348 909.251L868.001 907.268L867.586 908.178L871.933 910.161L872.348 909.251ZM861.045 904.096L856.698 902.113L856.283 903.023L860.63 905.006L861.045 904.096ZM849.743 898.941L845.396 896.958L844.981 897.868L849.328 899.85L849.743 898.941ZM838.441 893.785L834.094 891.803L833.679 892.712L838.026 894.695L838.441 893.785ZM827.139 888.63L824.965 887.639L824.55 888.549L826.724 889.54L827.139 888.63ZM926.893 933.58L924.719 932.589L923.889 934.409L926.063 935.4L926.893 933.58ZM917.764 929.417L913.417 927.434L912.587 929.254L916.934 931.236L917.764 929.417ZM906.462 924.261L902.115 922.279L901.285 924.098L905.632 926.081L906.462 924.261ZM895.16 919.106L890.813 917.124L889.983 918.943L894.33 920.926L895.16 919.106ZM883.857 913.951L879.51 911.968L878.68 913.788L883.027 915.771L883.857 913.951ZM872.555 908.796L868.208 906.813L867.378 908.633L871.725 910.616L872.555 908.796ZM861.253 903.641L856.906 901.658L856.076 903.478L860.423 905.46L861.253 903.641ZM849.951 898.486L845.604 896.503L844.774 898.323L849.121 900.305L849.951 898.486ZM838.649 893.33L834.302 891.348L833.472 893.167L837.819 895.15L838.649 893.33ZM827.346 888.175L825.173 887.184L824.343 889.004L826.516 889.995L827.346 888.175Z" fill="#C3D0E4"/>
<path d="M693.891 828.015C693.633 828.112 693.501 828.4 693.598 828.659L695.173 832.874C695.269 833.133 695.557 833.264 695.816 833.168C696.075 833.071 696.206 832.783 696.109 832.524L694.71 828.777L698.457 827.378C698.716 827.281 698.847 826.993 698.75 826.734C698.654 826.476 698.366 826.344 698.107 826.441L693.891 828.015ZM788.566 871.038L786.299 870.004L785.885 870.914L788.151 871.948L788.566 871.038ZM779.046 866.696L774.513 864.628L774.098 865.538L778.631 867.606L779.046 866.696ZM767.26 861.32L762.726 859.252L762.311 860.162L766.845 862.23L767.26 861.32ZM755.473 855.944L750.94 853.876L750.525 854.786L755.058 856.853L755.473 855.944ZM743.687 850.567L739.153 848.5L738.738 849.41L743.272 851.477L743.687 850.567ZM731.9 845.191L727.367 843.124L726.952 844.033L731.485 846.101L731.9 845.191ZM720.114 839.815L715.58 837.747L715.165 838.657L719.699 840.725L720.114 839.815ZM708.327 834.439L703.794 832.371L703.379 833.281L707.912 835.349L708.327 834.439ZM696.541 829.063L694.274 828.029L693.859 828.939L696.126 829.973L696.541 829.063ZM693.716 827.547C693.199 827.74 692.936 828.316 693.13 828.834L696.279 837.265C696.472 837.782 697.048 838.045 697.565 837.852C698.083 837.658 698.345 837.082 698.152 836.565L695.353 829.071L702.847 826.272C703.365 826.078 703.628 825.502 703.434 824.985C703.241 824.467 702.665 824.205 702.148 824.398L693.716 827.547ZM788.774 870.583L786.507 869.549L785.677 871.369L787.944 872.403L788.774 870.583ZM779.254 866.241L774.72 864.173L773.89 865.993L778.424 868.061L779.254 866.241ZM767.467 860.865L762.934 858.797L762.104 860.617L766.637 862.685L767.467 860.865ZM755.681 855.489L751.147 853.421L750.317 855.241L754.851 857.308L755.681 855.489ZM743.894 850.113L739.361 848.045L738.531 849.864L743.064 851.932L743.894 850.113ZM732.108 844.736L727.574 842.669L726.744 844.488L731.278 846.556L732.108 844.736ZM720.321 839.36L715.788 837.292L714.958 839.112L719.491 841.18L720.321 839.36ZM708.535 833.984L704.001 831.916L703.171 833.736L707.705 835.804L708.535 833.984ZM696.748 828.608L694.481 827.574L693.651 829.394L695.918 830.427L696.748 828.608Z" fill="#C3D0E4"/>
<path d="M295.239 741.714C295.01 741.868 294.949 742.179 295.104 742.408L297.619 746.139C297.773 746.368 298.084 746.429 298.313 746.274C298.542 746.12 298.603 745.809 298.448 745.58L296.212 742.263L299.529 740.028C299.758 739.873 299.819 739.563 299.664 739.334C299.51 739.105 299.199 739.044 298.97 739.198L295.239 741.714ZM666.451 813.835L663.992 813.357L663.801 814.338L666.26 814.817L666.451 813.835ZM656.123 811.825L651.205 810.867L651.014 811.849L655.932 812.806L656.123 811.825ZM643.336 809.335L638.417 808.378L638.226 809.359L643.144 810.317L643.336 809.335ZM630.548 806.845L625.63 805.888L625.439 806.87L630.357 807.827L630.548 806.845ZM617.761 804.356L612.842 803.398L612.651 804.38L617.569 805.337L617.761 804.356ZM604.973 801.866L600.055 800.909L599.864 801.89L604.782 802.848L604.973 801.866ZM592.186 799.377L587.267 798.419L587.076 799.401L591.994 800.358L592.186 799.377ZM579.398 796.887L574.48 795.93L574.289 796.911L579.207 797.869L579.398 796.887ZM566.611 794.398L561.692 793.44L561.501 794.422L566.419 795.379L566.611 794.398ZM553.823 791.908L548.905 790.95L548.714 791.932L553.632 792.89L553.823 791.908ZM541.036 789.418L536.117 788.461L535.926 789.442L540.844 790.4L541.036 789.418ZM528.248 786.929L523.33 785.971L523.139 786.953L528.057 787.91L528.248 786.929ZM515.461 784.439L510.542 783.482L510.351 784.463L515.269 785.421L515.461 784.439ZM502.673 781.95L497.755 780.992L497.564 781.974L502.482 782.931L502.673 781.95ZM489.886 779.46L484.967 778.502L484.776 779.484L489.694 780.442L489.886 779.46ZM477.098 776.97L472.18 776.013L471.989 776.994L476.907 777.952L477.098 776.97ZM464.31 774.481L459.392 773.523L459.201 774.505L464.119 775.462L464.31 774.481ZM451.523 771.991L446.605 771.034L446.414 772.015L451.332 772.973L451.523 771.991ZM438.735 769.502L433.817 768.544L433.626 769.526L438.544 770.483L438.735 769.502ZM425.948 767.012L421.03 766.055L420.839 767.036L425.757 767.994L425.948 767.012ZM413.16 764.523L408.242 763.565L408.051 764.547L412.969 765.504L413.16 764.523ZM400.373 762.033L395.455 761.075L395.264 762.057L400.182 763.014L400.373 762.033ZM387.585 759.543L382.667 758.586L382.476 759.567L387.394 760.525L387.585 759.543ZM374.798 757.054L369.88 756.096L369.689 757.078L374.607 758.035L374.798 757.054ZM362.01 754.564L357.092 753.607L356.901 754.588L361.819 755.546L362.01 754.564ZM349.223 752.075L344.305 751.117L344.114 752.099L349.032 753.056L349.223 752.075ZM336.436 749.585L331.517 748.627L331.326 749.609L336.244 750.567L336.436 749.585ZM323.648 747.095L318.73 746.138L318.539 747.119L323.457 748.077L323.648 747.095ZM310.861 744.606L305.942 743.648L305.751 744.63L310.669 745.587L310.861 744.606ZM298.073 742.116L295.614 741.637L295.423 742.619L297.882 743.098L298.073 742.116ZM294.959 741.299C294.501 741.608 294.38 742.229 294.689 742.687L299.72 750.15C300.028 750.608 300.65 750.729 301.108 750.42C301.566 750.112 301.687 749.49 301.378 749.032L296.907 742.399L303.54 737.927C303.998 737.618 304.119 736.997 303.81 736.539C303.502 736.081 302.88 735.96 302.422 736.269L294.959 741.299ZM666.547 813.345L664.088 812.866L663.706 814.829L666.165 815.308L666.547 813.345ZM656.219 811.334L651.3 810.376L650.918 812.339L655.836 813.297L656.219 811.334ZM643.431 808.844L638.513 807.887L638.131 809.85L643.049 810.807L643.431 808.844ZM630.644 806.355L625.725 805.397L625.343 807.36L630.261 808.318L630.644 806.355ZM617.856 803.865L612.938 802.908L612.556 804.871L617.474 805.828L617.856 803.865ZM605.069 801.376L600.15 800.418L599.768 802.381L604.686 803.339L605.069 801.376ZM592.281 798.886L587.363 797.928L586.981 799.892L591.899 800.849L592.281 798.886ZM579.494 796.396L574.575 795.439L574.193 797.402L579.111 798.359L579.494 796.396ZM566.706 793.907L561.788 792.949L561.406 794.912L566.324 795.87L566.706 793.907ZM553.919 791.417L549 790.46L548.618 792.423L553.536 793.38L553.919 791.417ZM541.131 788.928L536.213 787.97L535.831 789.933L540.749 790.891L541.131 788.928ZM528.344 786.438L523.425 785.48L523.043 787.444L527.961 788.401L528.344 786.438ZM515.556 783.948L510.638 782.991L510.256 784.954L515.174 785.912L515.556 783.948ZM502.769 781.459L497.85 780.501L497.468 782.464L502.386 783.422L502.769 781.459ZM489.981 778.969L485.063 778.012L484.681 779.975L489.599 780.932L489.981 778.969ZM477.194 776.48L472.275 775.522L471.893 777.485L476.811 778.443L477.194 776.48ZM464.406 773.99L459.488 773.033L459.106 774.996L464.024 775.953L464.406 773.99ZM451.619 771.5L446.7 770.543L446.318 772.506L451.236 773.464L451.619 771.5ZM438.831 769.011L433.913 768.053L433.531 770.016L438.449 770.974L438.831 769.011ZM426.044 766.521L421.125 765.564L420.743 767.527L425.661 768.484L426.044 766.521ZM413.256 764.032L408.338 763.074L407.956 765.037L412.874 765.995L413.256 764.032ZM400.469 761.542L395.55 760.585L395.168 762.548L400.086 763.505L400.469 761.542ZM387.681 759.053L382.763 758.095L382.381 760.058L387.299 761.016L387.681 759.053ZM374.894 756.563L369.975 755.605L369.593 757.569L374.511 758.526L374.894 756.563ZM362.106 754.073L357.188 753.116L356.806 755.079L361.724 756.037L362.106 754.073ZM349.319 751.584L344.4 750.626L344.018 752.589L348.936 753.547L349.319 751.584ZM336.531 749.094L331.613 748.137L331.231 750.1L336.149 751.057L336.531 749.094ZM323.744 746.605L318.825 745.647L318.443 747.61L323.361 748.568L323.744 746.605ZM310.956 744.115L306.038 743.158L305.656 745.121L310.574 746.078L310.956 744.115ZM298.169 741.625L295.709 741.147L295.327 743.11L297.786 743.589L298.169 741.625Z" fill="#C3D0E4"/>
<path d="M665.913 813.665L585.851 868.468L586.981 870.118L667.043 815.316L665.913 813.665Z" fill="#C3D0E4"/>
<path d="M470.298 947.877C470.196 948.42 470.554 948.943 471.096 949.045L479.942 950.704C480.485 950.806 481.007 950.448 481.109 949.905C481.211 949.363 480.854 948.84 480.311 948.738L472.448 947.263L473.923 939.4C474.025 938.858 473.667 938.335 473.124 938.233C472.581 938.131 472.059 938.489 471.957 939.032L470.298 947.877ZM552.643 891.189L470.716 947.237L471.845 948.887L553.772 892.84L552.643 891.189Z" fill="#C3D0E4"/>
<path d="M476.176 969.456C475.956 969.622 475.912 969.936 476.079 970.156L478.795 973.744C478.962 973.964 479.275 974.008 479.495 973.841C479.715 973.675 479.759 973.361 479.592 973.141L477.178 969.951L480.368 967.537C480.588 967.371 480.631 967.057 480.465 966.837C480.298 966.617 479.984 966.573 479.764 966.74L476.176 969.456ZM580.302 983.718L577.808 983.372L577.671 984.363L580.165 984.708L580.302 983.718ZM569.827 982.268L564.839 981.578L564.701 982.568L569.69 983.258L569.827 982.268ZM556.857 980.473L551.869 979.783L551.732 980.773L556.72 981.464L556.857 980.473ZM543.888 978.678L538.9 977.988L538.763 978.979L543.751 979.669L543.888 978.678ZM530.918 976.884L525.93 976.193L525.793 977.184L530.781 977.874L530.918 976.884ZM517.949 975.089L512.961 974.398L512.824 975.389L517.812 976.079L517.949 975.089ZM504.979 973.294L499.991 972.604L499.854 973.594L504.842 974.284L504.979 973.294ZM492.01 971.499L487.022 970.809L486.885 971.799L491.873 972.49L492.01 971.499ZM479.04 969.704L476.546 969.359L476.409 970.35L478.903 970.695L479.04 969.704ZM726.546 1003.99L723.983 1003.64L723.846 1004.63L726.409 1004.99L726.546 1003.99ZM715.781 1002.5L710.655 1001.79L710.518 1002.78L715.644 1003.49L715.781 1002.5ZM702.453 1000.66L697.326 999.946L697.189 1000.94L702.315 1001.65L702.453 1000.66ZM689.124 998.81L683.998 998.1L683.861 999.09L688.987 999.801L689.124 998.81ZM675.796 996.963L670.67 996.253L670.532 997.244L675.659 997.954L675.796 996.963ZM662.467 995.117L657.341 994.406L657.204 995.397L662.33 996.107L662.467 995.117ZM649.139 993.27L644.013 992.56L643.875 993.55L649.002 994.26L649.139 993.27ZM635.811 991.423L630.684 990.713L630.547 991.704L635.673 992.414L635.811 991.423ZM622.482 989.577L619.919 989.221L619.782 990.212L622.345 990.567L622.482 989.577ZM475.874 969.057C475.434 969.39 475.347 970.018 475.68 970.458L481.112 977.634C481.445 978.075 482.072 978.161 482.513 977.828C482.953 977.495 483.04 976.868 482.707 976.427L477.879 970.048L484.258 965.22C484.698 964.887 484.785 964.26 484.451 963.819C484.118 963.379 483.491 963.292 483.051 963.626L475.874 969.057ZM580.371 983.222L577.877 982.877L577.602 984.858L580.097 985.203L580.371 983.222ZM569.895 981.773L564.907 981.082L564.633 983.063L569.621 983.754L569.895 981.773ZM556.926 979.978L551.938 979.288L551.663 981.269L556.652 981.959L556.926 979.978ZM543.956 978.183L538.968 977.493L538.694 979.474L543.682 980.164L543.956 978.183ZM530.987 976.388L525.999 975.698L525.724 977.679L530.713 978.369L530.987 976.388ZM518.017 974.593L513.029 973.903L512.755 975.884L517.743 976.575L518.017 974.593ZM505.048 972.799L500.06 972.108L499.786 974.089L504.774 974.78L505.048 972.799ZM492.078 971.004L487.09 970.313L486.816 972.295L491.804 972.985L492.078 971.004ZM479.109 969.209L476.615 968.864L476.341 970.845L478.835 971.19L479.109 969.209ZM726.615 1003.5L724.052 1003.14L723.777 1005.13L726.341 1005.48L726.615 1003.5ZM715.85 1002.01L710.723 1001.3L710.449 1003.28L715.575 1003.99L715.85 1002.01ZM702.521 1000.16L697.395 999.451L697.121 1001.43L702.247 1002.14L702.521 1000.16ZM689.193 998.315L684.067 997.604L683.792 999.586L688.918 1000.3L689.193 998.315ZM675.864 996.468L670.738 995.758L670.464 997.739L675.59 998.449L675.864 996.468ZM662.536 994.621L657.41 993.911L657.135 995.892L662.262 996.602L662.536 994.621ZM649.208 992.775L644.081 992.064L643.807 994.045L648.933 994.756L649.208 992.775ZM635.879 990.928L630.753 990.218L630.478 992.199L635.605 992.909L635.879 990.928ZM622.551 989.081L619.988 988.726L619.713 990.707L622.276 991.062L622.551 989.081Z" fill="#C3D0E4"/>
<path d="M293.815 1134.56C293.555 1135.04 293.738 1135.65 294.225 1135.91L302.159 1140.16C302.646 1140.42 303.252 1140.24 303.512 1139.75C303.773 1139.26 303.59 1138.66 303.103 1138.39L296.05 1134.62L299.827 1127.57C300.088 1127.08 299.904 1126.47 299.418 1126.21C298.931 1125.95 298.325 1126.13 298.064 1126.62L293.815 1134.56ZM725.821 1003.56L294.407 1134.07L294.986 1135.98L726.4 1005.48L725.821 1003.56Z" fill="#C3D0E4"/>
<path d="M114.355 863.398C114.111 863.528 114.019 863.831 114.15 864.075L116.271 868.043C116.401 868.287 116.704 868.379 116.948 868.249C117.191 868.118 117.283 867.816 117.153 867.572L115.267 864.044L118.795 862.159C119.038 862.028 119.13 861.725 119 861.482C118.87 861.238 118.567 861.147 118.323 861.277L114.355 863.398ZM446.623 964.012L444.259 963.295L443.969 964.252L446.333 964.969L446.623 964.012ZM436.695 961.001L431.967 959.567L431.677 960.524L436.404 961.958L436.695 961.001ZM424.403 957.273L419.675 955.839L419.385 956.796L424.112 958.23L424.403 957.273ZM412.11 953.545L407.383 952.111L407.092 953.068L411.82 954.502L412.11 953.545ZM399.818 949.817L395.091 948.384L394.8 949.341L399.528 950.774L399.818 949.817ZM387.526 946.09L382.798 944.656L382.508 945.613L387.236 947.047L387.526 946.09ZM375.234 942.362L370.506 940.928L370.216 941.885L374.944 943.319L375.234 942.362ZM362.942 938.634L358.214 937.2L357.924 938.157L362.652 939.591L362.942 938.634ZM350.65 934.906L345.922 933.472L345.632 934.429L350.36 935.863L350.65 934.906ZM338.358 931.178L333.63 929.745L333.34 930.701L338.067 932.135L338.358 931.178ZM326.066 927.45L321.338 926.017L321.048 926.974L325.775 928.407L326.066 927.45ZM313.773 923.723L309.046 922.289L308.755 923.246L313.483 924.68L313.773 923.723ZM301.481 919.995L296.754 918.561L296.463 919.518L301.191 920.952L301.481 919.995ZM289.189 916.267L284.461 914.833L284.171 915.79L288.899 917.224L289.189 916.267ZM276.897 912.539L272.169 911.105L271.879 912.062L276.607 913.496L276.897 912.539ZM264.605 908.811L259.877 907.378L259.587 908.335L264.315 909.768L264.605 908.811ZM252.313 905.084L247.585 903.65L247.295 904.607L252.023 906.041L252.313 905.084ZM240.021 901.356L235.293 899.922L235.003 900.879L239.73 902.313L240.021 901.356ZM227.729 897.628L223.001 896.194L222.711 897.151L227.438 898.585L227.729 897.628ZM215.436 893.9L210.709 892.466L210.419 893.423L215.146 894.857L215.436 893.9ZM203.144 890.172L198.417 888.739L198.126 889.696L202.854 891.129L203.144 890.172ZM190.852 886.445L186.124 885.011L185.834 885.968L190.562 887.401L190.852 886.445ZM178.56 882.717L173.832 881.283L173.542 882.24L178.27 883.674L178.56 882.717ZM166.268 878.989L161.54 877.555L161.25 878.512L165.978 879.946L166.268 878.989ZM153.976 875.261L149.248 873.827L148.958 874.784L153.686 876.218L153.976 875.261ZM141.684 871.533L136.956 870.099L136.666 871.056L141.393 872.49L141.684 871.533ZM129.392 867.805L124.664 866.372L124.374 867.329L129.101 868.762L129.392 867.805ZM117.099 864.078L114.736 863.361L114.445 864.318L116.809 865.035L117.099 864.078ZM114.119 862.957C113.632 863.218 113.448 863.824 113.709 864.311L117.952 872.248C118.212 872.735 118.818 872.918 119.305 872.658C119.792 872.398 119.976 871.792 119.716 871.305L115.944 864.25L122.999 860.478C123.486 860.218 123.67 859.612 123.409 859.125C123.149 858.638 122.543 858.454 122.056 858.714L114.119 862.957ZM446.768 963.533L444.404 962.816L443.824 964.73L446.188 965.447L446.768 963.533ZM436.84 960.522L432.112 959.089L431.532 961.002L436.259 962.436L436.84 960.522ZM424.548 956.795L419.82 955.361L419.239 957.275L423.967 958.708L424.548 956.795ZM412.256 953.067L407.528 951.633L406.947 953.547L411.675 954.981L412.256 953.067ZM399.963 949.339L395.236 947.905L394.655 949.819L399.383 951.253L399.963 949.339ZM387.671 945.611L382.944 944.177L382.363 946.091L387.091 947.525L387.671 945.611ZM375.379 941.883L370.651 940.449L370.071 942.363L374.799 943.797L375.379 941.883ZM363.087 938.155L358.359 936.722L357.779 938.636L362.507 940.069L363.087 938.155ZM350.795 934.428L346.067 932.994L345.487 934.908L350.214 936.342L350.795 934.428ZM338.503 930.7L333.775 929.266L333.195 931.18L337.922 932.614L338.503 930.7ZM326.211 926.972L321.483 925.538L320.902 927.452L325.63 928.886L326.211 926.972ZM313.919 923.244L309.191 921.81L308.61 923.724L313.338 925.158L313.919 923.244ZM301.626 919.516L296.899 918.083L296.318 919.997L301.046 921.43L301.626 919.516ZM289.334 915.789L284.607 914.355L284.026 916.269L288.754 917.702L289.334 915.789ZM277.042 912.061L272.314 910.627L271.734 912.541L276.462 913.975L277.042 912.061ZM264.75 908.333L260.022 906.899L259.442 908.813L264.17 910.247L264.75 908.333ZM252.458 904.605L247.73 903.171L247.15 905.085L251.878 906.519L252.458 904.605ZM240.166 900.877L235.438 899.444L234.858 901.357L239.585 902.791L240.166 900.877ZM227.874 897.149L223.146 895.716L222.566 897.63L227.293 899.063L227.874 897.149ZM215.582 893.422L210.854 891.988L210.273 893.902L215.001 895.336L215.582 893.422ZM203.289 889.694L198.562 888.26L197.981 890.174L202.709 891.608L203.289 889.694ZM190.997 885.966L186.27 884.532L185.689 886.446L190.417 887.88L190.997 885.966ZM178.705 882.238L173.977 880.804L173.397 882.718L178.125 884.152L178.705 882.238ZM166.413 878.51L161.685 877.077L161.105 878.991L165.833 880.424L166.413 878.51ZM154.121 874.783L149.393 873.349L148.813 875.263L153.54 876.696L154.121 874.783ZM141.829 871.055L137.101 869.621L136.521 871.535L141.248 872.969L141.829 871.055ZM129.537 867.327L124.809 865.893L124.228 867.807L128.956 869.241L129.537 867.327ZM117.245 863.599L114.881 862.882L114.3 864.796L116.664 865.513L117.245 863.599Z" fill="#C3D0E4"/>
<path d="M215.344 981.403C214.984 981.822 215.032 982.453 215.452 982.813L222.281 988.675C222.7 989.035 223.331 988.986 223.691 988.567C224.051 988.148 224.003 987.517 223.583 987.157L217.513 981.947L222.723 975.876C223.083 975.457 223.035 974.826 222.616 974.466C222.197 974.106 221.565 974.155 221.206 974.574L215.344 981.403ZM446.402 963.493L216.027 981.057L216.179 983.051L446.554 965.487L446.402 963.493Z" fill="#C3D0E4"/>
<path d="M926.139 933.549L859.278 957.622L859.956 959.503L926.817 935.431L926.139 933.549Z" fill="#C3D0E4"/>
<path d="M754.241 995.762C754.006 996.261 754.221 996.857 754.72 997.092L762.865 1000.92C763.365 1001.16 763.96 1000.94 764.195 1000.44C764.43 999.943 764.216 999.347 763.716 999.112L756.476 995.708L759.881 988.468C760.116 987.968 759.901 987.373 759.401 987.138C758.901 986.903 758.306 987.117 758.071 987.617L754.241 995.762ZM821.663 971.156L754.807 995.246L755.485 997.128L822.341 973.038L821.663 971.156Z" fill="#C3D0E4"/>
<circle cx="926.478" cy="934.49" r="20" fill="#F67367"/>
<circle cx="666.478" cy="814.49" r="20" fill="#F67367"/>
<circle cx="726.478" cy="1004.49" r="20" fill="#F67367"/>
<circle cx="446.664" cy="964.49" r="20" fill="#F67367"/>
<circle cx="266.478" cy="734.49" r="20" fill="#42979F"/>
<circle cx="86.4778" cy="854.49" r="20" fill="#42979F"/>
<circle cx="266.478" cy="1144.49" r="20" fill="#42979F"/>
<path d="M109.456 1294.54H115.558C117.772 1294.54 119.356 1293.15 119.356 1291.17C119.356 1289.8 118.528 1288.69 117.088 1287.99C118.204 1287.36 118.852 1286.55 118.852 1285.25C118.852 1283.45 117.394 1282.17 115.324 1282.17H109.456V1294.54ZM111.274 1287.32V1283.77H114.874C116.116 1283.77 116.998 1284.53 116.998 1285.56C116.998 1286.58 116.116 1287.32 114.874 1287.32H111.274ZM111.274 1292.94V1288.87H115.144C116.53 1288.87 117.502 1289.71 117.502 1290.9C117.502 1292.09 116.53 1292.94 115.144 1292.94H111.274ZM123.45 1287.01V1285.23H121.668V1294.54H123.45V1289.25C123.612 1287.63 124.98 1286.56 126.906 1286.56V1285.02C125.304 1285.02 124.044 1285.79 123.45 1287.01ZM132.551 1285.02C131.525 1285.02 130.355 1285.29 129.023 1285.95L129.671 1287.27C130.481 1286.85 131.381 1286.49 132.299 1286.49C134.153 1286.49 134.693 1287.73 134.693 1288.9V1289.19C133.793 1288.89 132.803 1288.69 131.885 1288.69C129.833 1288.69 128.159 1289.93 128.159 1291.78C128.159 1293.6 129.617 1294.75 131.597 1294.75C132.731 1294.75 134.009 1294.23 134.693 1293.26V1294.54H136.439V1288.9C136.439 1286.6 135.053 1285.02 132.551 1285.02ZM131.939 1293.35C130.769 1293.35 129.869 1292.74 129.869 1291.73C129.869 1290.72 130.913 1290.02 132.155 1290.02C133.073 1290.02 133.937 1290.15 134.693 1290.38V1291.62C134.387 1292.77 133.091 1293.35 131.939 1293.35ZM143.75 1285.02C142.49 1285.02 141.356 1285.66 140.798 1286.58V1285.23H139.016V1294.54H140.798V1288.51C140.942 1287.41 142.058 1286.56 143.354 1286.56C144.614 1286.56 145.496 1287.54 145.496 1288.92V1294.54H147.242V1288.62C147.242 1286.51 145.802 1285.02 143.75 1285.02ZM154.183 1294.75C155.569 1294.75 156.775 1294.18 157.675 1293.26L156.469 1292.16C155.893 1292.81 155.065 1293.21 154.201 1293.21C152.491 1293.21 151.087 1291.69 151.087 1289.88C151.087 1288.08 152.491 1286.56 154.183 1286.56C155.047 1286.56 155.857 1286.94 156.415 1287.57L157.621 1286.46C156.739 1285.57 155.533 1285.02 154.201 1285.02C151.537 1285.02 149.287 1287.23 149.287 1289.88C149.287 1292.52 151.537 1294.75 154.183 1294.75ZM164.316 1285.02C163.038 1285.02 161.904 1285.68 161.346 1286.62V1281.96H159.582V1294.54H161.346V1288.76C161.346 1287.55 162.516 1286.56 163.92 1286.56C165.18 1286.56 166.062 1287.54 166.062 1288.92V1294.54H167.808V1288.62C167.808 1286.51 166.368 1285.02 164.316 1285.02Z" fill="#131F37"/>
<path d="M367.847 1294.54H369.665V1283.86H373.733V1282.17H363.797V1283.86H367.847V1294.54ZM377.618 1287.01V1285.23H375.836V1294.54H377.618V1289.25C377.78 1287.63 379.148 1286.56 381.074 1286.56V1285.02C379.472 1285.02 378.212 1285.79 377.618 1287.01ZM389.22 1285.23V1291.26C389.076 1292.36 387.96 1293.21 386.664 1293.21C385.404 1293.21 384.522 1292.23 384.522 1290.85V1285.23H382.776V1291.15C382.776 1293.26 384.216 1294.75 386.268 1294.75C387.528 1294.75 388.662 1294.11 389.22 1293.19V1294.54H391.002V1285.23H389.22ZM398.322 1285.02C397.062 1285.02 395.928 1285.66 395.37 1286.58V1285.23H393.588V1294.54H395.37V1288.51C395.514 1287.41 396.63 1286.56 397.926 1286.56C399.186 1286.56 400.068 1287.54 400.068 1288.92V1294.54H401.814V1288.62C401.814 1286.51 400.374 1285.02 398.322 1285.02ZM412.823 1285.23H410.663L406.109 1289.98V1281.96H404.345V1294.54H406.109V1292.14L407.603 1290.63L410.519 1294.54H412.643L408.809 1289.44L412.823 1285.23Z" fill="#131F37"/>
<path d="M88.122 1248.33C87.9268 1248.52 87.9268 1248.84 88.122 1249.04L91.304 1252.22C91.4993 1252.41 91.8159 1252.41 92.0111 1252.22C92.2064 1252.02 92.2064 1251.71 92.0111 1251.51L89.1827 1248.68L92.0111 1245.85C92.2064 1245.66 92.2064 1245.34 92.0111 1245.15C91.8159 1244.95 91.4993 1244.95 91.304 1245.15L88.122 1248.33ZM188.476 1248.18H186.072V1249.18H188.476V1248.18ZM178.379 1248.18H173.572V1249.18H178.379V1248.18ZM165.879 1248.18H161.072V1249.18H165.879V1248.18ZM153.379 1248.18H148.572V1249.18H153.379V1248.18ZM140.879 1248.18H136.072V1249.18H140.879V1248.18ZM128.379 1248.18H123.572V1249.18H128.379V1248.18ZM115.879 1248.18H111.072V1249.18H115.879V1248.18ZM103.379 1248.18H98.5717V1249.18H103.379V1248.18ZM90.8794 1248.18H88.4756V1249.18H90.8794V1248.18ZM87.7685 1247.98C87.378 1248.37 87.378 1249 87.7685 1249.39L94.1324 1255.75C94.523 1256.14 95.1561 1256.14 95.5467 1255.75C95.9372 1255.36 95.9372 1254.73 95.5467 1254.34L89.8898 1248.68L95.5467 1243.03C95.9372 1242.64 95.9372 1242 95.5467 1241.61C95.1561 1241.22 94.523 1241.22 94.1324 1241.61L87.7685 1247.98ZM188.476 1247.68H186.072V1249.68H188.476V1247.68ZM178.379 1247.68H173.572V1249.68H178.379V1247.68ZM165.879 1247.68H161.072V1249.68H165.879V1247.68ZM153.379 1247.68H148.572V1249.68H153.379V1247.68ZM140.879 1247.68H136.072V1249.68H140.879V1247.68ZM128.379 1247.68H123.572V1249.68H128.379V1247.68ZM115.879 1247.68H111.072V1249.68H115.879V1247.68ZM103.379 1247.68H98.5717V1249.68H103.379V1247.68ZM90.8794 1247.68H88.4756V1249.68H90.8794V1247.68Z" fill="#C3D0E4"/>
<path d="M337.322 1245.83C336.931 1246.22 336.931 1246.85 337.322 1247.25L343.686 1253.61C344.076 1254 344.71 1254 345.1 1253.61C345.491 1253.22 345.491 1252.59 345.1 1252.19L339.443 1246.54L345.1 1240.88C345.491 1240.49 345.491 1239.86 345.1 1239.47C344.71 1239.08 344.076 1239.08 343.686 1239.47L337.322 1245.83ZM438.029 1245.54H338.029V1247.54H438.029V1245.54Z" fill="#C3D0E4"/>
<circle cx="569.698" cy="880" r="20" stroke="#C3D0E4" stroke-width="2"/>
<rect x="576.139" y="871.868" width="3" height="20" transform="rotate(45 576.139 871.868)" fill="#C3D0E4"/>
<rect x="578.261" y="886.011" width="3" height="20" transform="rotate(135 578.261 886.011)" fill="#C3D0E4"/>
<circle cx="806.467" cy="880" r="20" stroke="#C3D0E4" stroke-width="2"/>
<rect x="812.908" y="871.868" width="3" height="20" transform="rotate(45 812.908 871.868)" fill="#C3D0E4"/>
<rect x="815.029" y="886.011" width="3" height="20" transform="rotate(135 815.029 886.011)" fill="#C3D0E4"/>
<circle cx="600" cy="987.258" r="20" stroke="#C3D0E4" stroke-width="2"/>
<rect x="606.441" y="979.126" width="3" height="20" transform="rotate(45 606.441 979.126)" fill="#C3D0E4"/>
<rect x="608.562" y="993.269" width="3" height="20" transform="rotate(135 608.562 993.269)" fill="#C3D0E4"/>
<circle cx="840.781" cy="965.303" r="20" stroke="#C3D0E4" stroke-width="2"/>
<rect x="847.222" y="957.171" width="3" height="20" transform="rotate(45 847.222 957.171)" fill="#C3D0E4"/>
<rect x="849.343" y="971.313" width="3" height="20" transform="rotate(135 849.343 971.313)" fill="#C3D0E4"/>
</svg>
