<svg width="990" height="680" viewBox="0 0 990 680" fill="none" xmlns="http://www.w3.org/2000/svg">
<path d="M354.272 138.194C354.164 138.736 354.516 139.262 355.058 139.37L363.886 141.121C364.428 141.228 364.954 140.876 365.062 140.334C365.169 139.793 364.817 139.266 364.275 139.159L356.428 137.603L357.984 129.755C358.092 129.214 357.74 128.687 357.198 128.58C356.656 128.473 356.13 128.825 356.023 129.366L354.272 138.194ZM494.925 43.747L354.697 137.558L355.809 139.22L496.037 45.4093L494.925 43.747Z" fill="#C3D0E4"/>
<path d="M267.385 244.13C267.465 244.677 267.974 245.054 268.52 244.974L277.423 243.658C277.97 243.577 278.347 243.069 278.267 242.523C278.186 241.976 277.677 241.599 277.131 241.679L269.217 242.849L268.048 234.935C267.967 234.388 267.459 234.011 266.912 234.092C266.366 234.172 265.988 234.681 266.069 235.227L267.385 244.13ZM334.213 153.638L267.571 243.388L269.177 244.58L335.819 154.831L334.213 153.638Z" fill="#C3D0E4"/>
<path d="M722.454 244.057C722.414 244.331 722.16 244.519 721.886 244.479L717.435 243.821C717.162 243.781 716.973 243.527 717.013 243.253C717.054 242.98 717.308 242.792 717.581 242.832L721.538 243.417L722.123 239.459C722.163 239.186 722.417 238.998 722.69 239.038C722.964 239.078 723.152 239.332 723.112 239.606L722.454 244.057ZM655.719 153.936L657.143 155.854L656.34 156.45L654.916 154.532L655.719 153.936ZM661.7 161.991L664.547 165.826L663.745 166.422L660.897 162.587L661.7 161.991ZM669.104 171.963L671.952 175.798L671.149 176.395L668.301 172.559L669.104 171.963ZM676.509 181.935L679.357 185.771L678.554 186.367L675.706 182.531L676.509 181.935ZM683.914 191.907L686.762 195.743L685.959 196.339L683.111 192.504L683.914 191.907ZM691.318 201.88L694.166 205.715L693.363 206.311L690.515 202.476L691.318 201.88ZM698.723 211.852L701.571 215.687L700.768 216.283L697.92 212.448L698.723 211.852ZM706.128 221.824L708.976 225.659L708.173 226.256L705.325 222.42L706.128 221.824ZM713.532 231.796L716.38 235.632L715.577 236.228L712.729 232.392L713.532 231.796ZM720.937 241.768L722.361 243.686L721.558 244.282L720.134 242.365L720.937 241.768ZM722.949 244.13C722.868 244.677 722.36 245.054 721.813 244.974L712.91 243.658C712.364 243.577 711.986 243.069 712.067 242.523C712.148 241.976 712.656 241.599 713.202 241.679L721.116 242.849L722.286 234.935C722.367 234.388 722.875 234.011 723.421 234.092C723.968 234.172 724.345 234.681 724.264 235.227L722.949 244.13ZM656.12 153.638L657.544 155.556L655.938 156.748L654.515 154.831L656.12 153.638ZM662.101 161.693L664.949 165.528L663.343 166.72L660.495 162.885L662.101 161.693ZM669.506 171.665L672.354 175.5L670.748 176.693L667.9 172.857L669.506 171.665ZM676.91 181.637L679.758 185.473L678.153 186.665L675.305 182.829L676.91 181.637ZM684.315 191.609L687.163 195.445L685.557 196.637L682.709 192.802L684.315 191.609ZM691.72 201.582L694.568 205.417L692.962 206.609L690.114 202.774L691.72 201.582ZM699.124 211.554L701.972 215.389L700.367 216.582L697.519 212.746L699.124 211.554ZM706.529 221.526L709.377 225.361L707.771 226.554L704.923 222.718L706.529 221.526ZM713.934 231.498L716.782 235.334L715.176 236.526L712.328 232.69L713.934 231.498ZM721.338 241.47L722.762 243.388L721.157 244.58L719.733 242.663L721.338 241.47Z" fill="#C3D0E4"/>
<path d="M187.399 354.476C187.48 355.022 187.988 355.4 188.535 355.319L197.438 354.004C197.984 353.923 198.362 353.415 198.281 352.868C198.2 352.322 197.692 351.944 197.146 352.025L189.232 353.195L188.062 345.28C187.982 344.734 187.473 344.357 186.927 344.437C186.381 344.518 186.003 345.026 186.084 345.573L187.399 354.476ZM254.228 263.984L187.586 353.734L189.191 354.926L255.834 265.176L254.228 263.984Z" fill="#C3D0E4"/>
<path d="M197.681 374.239C197.291 374.63 197.291 375.263 197.681 375.653L204.045 382.017C204.436 382.408 205.069 382.408 205.459 382.017C205.85 381.627 205.85 380.994 205.459 380.603L199.803 374.946L205.459 369.289C205.85 368.899 205.85 368.266 205.459 367.875C205.069 367.485 204.436 367.485 204.045 367.875L197.681 374.239ZM334.797 373.946H198.388V375.946H334.797V373.946Z" fill="#C3D0E4"/>
<path d="M791.291 375.3C791.486 375.105 791.486 374.788 791.291 374.593L788.109 371.411C787.914 371.216 787.597 371.216 787.402 371.411C787.206 371.606 787.206 371.923 787.402 372.118L790.23 374.946L787.402 377.775C787.206 377.97 787.206 378.287 787.402 378.482C787.597 378.677 787.914 378.677 788.109 378.482L791.291 375.3ZM654.528 375.446L657.152 375.446L657.152 374.446L654.528 374.446L654.528 375.446ZM665.546 375.446L670.792 375.446L670.792 374.446L665.546 374.446L665.546 375.446ZM679.187 375.446L684.433 375.446L684.433 374.446L679.187 374.446L679.187 375.446ZM692.828 375.446L698.074 375.446L698.074 374.446L692.828 374.446L692.828 375.446ZM706.469 375.446L711.715 375.446L711.715 374.446L706.469 374.446L706.469 375.446ZM720.11 375.446L725.356 375.446L725.356 374.446L720.11 374.446L720.11 375.446ZM733.75 375.446L738.997 375.446L738.997 374.446L733.75 374.446L733.75 375.446ZM747.391 375.446L752.638 375.446L752.638 374.446L747.391 374.446L747.391 375.446ZM761.032 375.446L766.279 375.446L766.279 374.446L761.032 374.446L761.032 375.446ZM774.673 375.446L779.92 375.446L779.92 374.446L774.673 374.446L774.673 375.446ZM788.314 375.446L790.937 375.446L790.937 374.446L788.314 374.446L788.314 375.446ZM791.644 375.653C792.035 375.263 792.035 374.63 791.644 374.239L785.28 367.875C784.89 367.485 784.257 367.485 783.866 367.875C783.476 368.266 783.476 368.899 783.866 369.289L789.523 374.946L783.866 380.603C783.476 380.994 783.476 381.627 783.866 382.017C784.257 382.408 784.89 382.408 785.28 382.017L791.644 375.653ZM654.528 375.946L657.152 375.946L657.152 373.946L654.528 373.946L654.528 375.946ZM665.546 375.946L670.792 375.946L670.792 373.946L665.546 373.946L665.546 375.946ZM679.187 375.946L684.433 375.946L684.433 373.946L679.187 373.946L679.187 375.946ZM692.828 375.946L698.074 375.946L698.074 373.946L692.828 373.946L692.828 375.946ZM706.469 375.946L711.715 375.946L711.715 373.946L706.469 373.946L706.469 375.946ZM720.11 375.946L725.356 375.946L725.356 373.946L720.11 373.946L720.11 375.946ZM733.75 375.946L738.997 375.946L738.997 373.946L733.75 373.946L733.75 375.946ZM747.391 375.946L752.638 375.946L752.638 373.946L747.391 373.946L747.391 375.946ZM761.032 375.946L766.279 375.946L766.279 373.946L761.032 373.946L761.032 375.946ZM774.673 375.946L779.92 375.946L779.92 373.946L774.673 373.946L774.673 375.946ZM788.314 375.946L790.937 375.946L790.937 373.946L788.314 373.946L788.314 375.946Z" fill="#C3D0E4"/>
<path d="M643.482 354.403C643.442 354.676 643.187 354.865 642.914 354.825L638.463 354.167C638.189 354.126 638.001 353.872 638.041 353.599C638.081 353.326 638.336 353.137 638.609 353.178L642.566 353.762L643.151 349.805C643.191 349.532 643.445 349.343 643.718 349.384C643.991 349.424 644.18 349.678 644.14 349.951L643.482 354.403ZM576.747 264.282L578.171 266.2L577.368 266.796L575.944 264.878L576.747 264.282ZM582.727 272.336L585.575 276.172L584.772 276.768L581.924 272.933L582.727 272.336ZM590.132 282.309L592.98 286.144L592.177 286.74L589.329 282.905L590.132 282.309ZM597.537 292.281L600.385 296.116L599.582 296.713L596.734 292.877L597.537 292.281ZM604.941 302.253L607.789 306.089L606.987 306.685L604.139 302.849L604.941 302.253ZM612.346 312.225L615.194 316.061L614.391 316.657L611.543 312.821L612.346 312.225ZM619.751 322.198L622.599 326.033L621.796 326.629L618.948 322.794L619.751 322.198ZM627.155 332.17L630.003 336.005L629.201 336.601L626.353 332.766L627.155 332.17ZM634.56 342.142L637.408 345.977L636.605 346.574L633.757 342.738L634.56 342.142ZM641.965 352.114L643.389 354.032L642.586 354.628L641.162 352.71L641.965 352.114ZM643.977 354.476C643.896 355.022 643.388 355.4 642.841 355.319L633.938 354.004C633.392 353.923 633.014 353.415 633.095 352.868C633.176 352.322 633.684 351.944 634.23 352.025L642.144 353.195L643.314 345.28C643.394 344.734 643.903 344.357 644.449 344.437C644.995 344.518 645.373 345.026 645.292 345.573L643.977 354.476ZM577.148 263.984L578.572 265.902L576.966 267.094L575.542 265.176L577.148 263.984ZM583.129 272.038L585.977 275.874L584.371 277.066L581.523 273.231L583.129 272.038ZM590.533 282.011L593.381 285.846L591.776 287.038L588.928 283.203L590.533 282.011ZM597.938 291.983L600.786 295.818L599.18 297.011L596.332 293.175L597.938 291.983ZM605.343 301.955L608.191 305.79L606.585 306.983L603.737 303.147L605.343 301.955ZM612.748 311.927L615.595 315.763L613.99 316.955L611.142 313.12L612.748 311.927ZM620.152 321.899L623 325.735L621.394 326.927L618.546 323.092L620.152 321.899ZM627.557 331.872L630.405 335.707L628.799 336.899L625.951 333.064L627.557 331.872ZM634.962 341.844L637.81 345.679L636.204 346.872L633.356 343.036L634.962 341.844ZM642.366 351.816L643.79 353.734L642.185 354.926L640.761 353.008L642.366 351.816Z" fill="#C3D0E4"/>
<path d="M107.253 465.209C107.334 465.755 107.842 466.132 108.388 466.052L117.292 464.736C117.838 464.655 118.215 464.147 118.135 463.601C118.054 463.054 117.546 462.677 116.999 462.758L109.085 463.927L107.916 456.013C107.835 455.467 107.327 455.089 106.78 455.17C106.234 455.251 105.857 455.759 105.937 456.305L107.253 465.209ZM174.081 374.716L107.439 464.466L109.045 465.659L175.687 375.909L174.081 374.716Z" fill="#C3D0E4"/>
<path d="M345.788 354.476C345.869 355.022 346.377 355.4 346.923 355.319L355.827 354.004C356.373 353.923 356.751 353.415 356.67 352.868C356.589 352.322 356.081 351.944 355.534 352.025L347.62 353.195L346.451 345.28C346.37 344.734 345.862 344.357 345.316 344.437C344.769 344.518 344.392 345.026 344.472 345.573L345.788 354.476ZM412.617 263.984L345.974 353.734L347.58 354.926L414.222 265.176L412.617 263.984Z" fill="#C3D0E4"/>
<path d="M402.341 244.057C402.301 244.331 402.046 244.519 401.773 244.479L397.322 243.821C397.048 243.781 396.86 243.527 396.9 243.253C396.94 242.98 397.195 242.792 397.468 242.832L401.425 243.417L402.009 239.459C402.05 239.186 402.304 238.998 402.577 239.038C402.85 239.078 403.039 239.332 402.999 239.606L402.341 244.057ZM335.606 153.936L337.03 155.854L336.227 156.45L334.803 154.532L335.606 153.936ZM341.586 161.991L344.434 165.826L343.631 166.422L340.783 162.587L341.586 161.991ZM348.991 171.963L351.839 175.798L351.036 176.395L348.188 172.559L348.991 171.963ZM356.396 181.935L359.244 185.771L358.441 186.367L355.593 182.531L356.396 181.935ZM363.8 191.907L366.648 195.743L365.845 196.339L362.997 192.504L363.8 191.907ZM371.205 201.88L374.053 205.715L373.25 206.311L370.402 202.476L371.205 201.88ZM378.61 211.852L381.458 215.687L380.655 216.283L377.807 212.448L378.61 211.852ZM386.014 221.824L388.862 225.659L388.059 226.256L385.212 222.42L386.014 221.824ZM393.419 231.796L396.267 235.632L395.464 236.228L392.616 232.392L393.419 231.796ZM400.824 241.768L402.248 243.686L401.445 244.282L400.021 242.365L400.824 241.768ZM402.836 244.13C402.755 244.677 402.246 245.054 401.7 244.974L392.797 243.658C392.25 243.577 391.873 243.069 391.954 242.523C392.034 241.976 392.543 241.599 393.089 241.679L401.003 242.849L402.173 234.935C402.253 234.388 402.762 234.011 403.308 234.092C403.854 234.172 404.232 234.681 404.151 235.227L402.836 244.13ZM336.007 153.638L337.431 155.556L335.825 156.748L334.401 154.831L336.007 153.638ZM341.988 161.693L344.836 165.528L343.23 166.72L340.382 162.885L341.988 161.693ZM349.392 171.665L352.24 175.5L350.635 176.693L347.787 172.857L349.392 171.665ZM356.797 181.637L359.645 185.473L358.039 186.665L355.191 182.829L356.797 181.637ZM364.202 191.609L367.05 195.445L365.444 196.637L362.596 192.802L364.202 191.609ZM371.606 201.582L374.454 205.417L372.849 206.609L370.001 202.774L371.606 201.582ZM379.011 211.554L381.859 215.389L380.253 216.582L377.405 212.746L379.011 211.554ZM386.416 221.526L389.264 225.361L387.658 226.554L384.81 222.718L386.416 221.526ZM393.82 231.498L396.668 235.334L395.063 236.526L392.215 232.69L393.82 231.498ZM401.225 241.47L402.649 243.388L401.043 244.58L399.619 242.663L401.225 241.47Z" fill="#C3D0E4"/>
<path d="M587.498 244.13C587.579 244.677 588.087 245.054 588.633 244.974L597.537 243.658C598.083 243.577 598.461 243.069 598.38 242.523C598.299 241.976 597.791 241.599 597.244 241.679L589.33 242.849L588.161 234.935C588.08 234.388 587.572 234.011 587.026 234.092C586.479 234.172 586.102 234.681 586.182 235.227L587.498 244.13ZM654.327 153.638L587.684 243.388L589.29 244.58L655.932 154.831L654.327 153.638Z" fill="#C3D0E4"/>
<path d="M322.356 354.403C322.315 354.676 322.061 354.865 321.788 354.825L317.336 354.167C317.063 354.126 316.874 353.872 316.915 353.599C316.955 353.326 317.209 353.137 317.482 353.178L321.439 353.762L322.024 349.805C322.064 349.532 322.319 349.343 322.592 349.384C322.865 349.424 323.054 349.678 323.013 349.951L322.356 354.403ZM255.62 264.282L257.044 266.2L256.241 266.796L254.817 264.878L255.62 264.282ZM261.601 272.336L264.449 276.172L263.646 276.768L260.798 272.933L261.601 272.336ZM269.006 282.309L271.854 286.144L271.051 286.74L268.203 282.905L269.006 282.309ZM276.41 292.281L279.258 296.116L278.455 296.713L275.607 292.877L276.41 292.281ZM283.815 302.253L286.663 306.089L285.86 306.685L283.012 302.849L283.815 302.253ZM291.22 312.225L294.068 316.061L293.265 316.657L290.417 312.821L291.22 312.225ZM298.624 322.198L301.472 326.033L300.669 326.629L297.821 322.794L298.624 322.198ZM306.029 332.17L308.877 336.005L308.074 336.601L305.226 332.766L306.029 332.17ZM313.434 342.142L316.282 345.977L315.479 346.574L312.631 342.738L313.434 342.142ZM320.838 352.114L322.262 354.032L321.459 354.628L320.036 352.71L320.838 352.114ZM322.85 354.476C322.769 355.022 322.261 355.4 321.715 355.319L312.811 354.004C312.265 353.923 311.888 353.415 311.968 352.868C312.049 352.322 312.557 351.944 313.104 352.025L321.018 353.195L322.187 345.28C322.268 344.734 322.776 344.357 323.323 344.437C323.869 344.518 324.246 345.026 324.166 345.573L322.85 354.476ZM256.022 263.984L257.446 265.902L255.84 267.094L254.416 265.176L256.022 263.984ZM262.002 272.038L264.85 275.874L263.245 277.066L260.397 273.231L262.002 272.038ZM269.407 282.011L272.255 285.846L270.649 287.038L267.801 283.203L269.407 282.011ZM276.812 291.983L279.66 295.818L278.054 297.011L275.206 293.175L276.812 291.983ZM284.216 301.955L287.064 305.79L285.459 306.983L282.611 303.147L284.216 301.955ZM291.621 311.927L294.469 315.763L292.863 316.955L290.015 313.12L291.621 311.927ZM299.026 321.899L301.874 325.735L300.268 326.927L297.42 323.092L299.026 321.899ZM306.43 331.872L309.278 335.707L307.673 336.899L304.825 333.064L306.43 331.872ZM313.835 341.844L316.683 345.679L315.077 346.872L312.229 343.036L313.835 341.844ZM321.24 351.816L322.664 353.734L321.058 354.926L319.634 353.008L321.24 351.816Z" fill="#C3D0E4"/>
<path d="M801.924 354.403C801.884 354.676 801.629 354.865 801.356 354.825L796.905 354.167C796.631 354.126 796.443 353.872 796.483 353.599C796.523 353.326 796.778 353.137 797.051 353.178L801.008 353.762L801.592 349.805C801.633 349.532 801.887 349.343 802.16 349.384C802.433 349.424 802.622 349.678 802.582 349.951L801.924 354.403ZM735.189 264.282L736.613 266.2L735.81 266.796L734.386 264.878L735.189 264.282ZM741.169 272.336L744.017 276.172L743.214 276.768L740.366 272.933L741.169 272.336ZM748.574 282.309L751.422 286.144L750.619 286.74L747.771 282.905L748.574 282.309ZM755.979 292.281L758.827 296.116L758.024 296.713L755.176 292.877L755.979 292.281ZM763.383 302.253L766.231 306.089L765.428 306.685L762.58 302.849L763.383 302.253ZM770.788 312.225L773.636 316.061L772.833 316.657L769.985 312.821L770.788 312.225ZM778.193 322.198L781.041 326.033L780.238 326.629L777.39 322.794L778.193 322.198ZM785.597 332.17L788.445 336.005L787.642 336.601L784.795 332.766L785.597 332.17ZM793.002 342.142L795.85 345.977L795.047 346.574L792.199 342.738L793.002 342.142ZM800.407 352.114L801.831 354.032L801.028 354.628L799.604 352.71L800.407 352.114ZM802.419 354.476C802.338 355.022 801.829 355.4 801.283 355.319L792.38 354.004C791.833 353.923 791.456 353.415 791.537 352.868C791.617 352.322 792.126 351.944 792.672 352.025L800.586 353.195L801.756 345.28C801.836 344.734 802.345 344.357 802.891 344.437C803.437 344.518 803.815 345.026 803.734 345.573L802.419 354.476ZM735.59 263.984L737.014 265.902L735.408 267.094L733.984 265.176L735.59 263.984ZM741.571 272.038L744.419 275.874L742.813 277.066L739.965 273.231L741.571 272.038ZM748.975 282.011L751.823 285.846L750.218 287.038L747.37 283.203L748.975 282.011ZM756.38 291.983L759.228 295.818L757.622 297.011L754.774 293.175L756.38 291.983ZM763.785 301.955L766.633 305.79L765.027 306.983L762.179 303.147L763.785 301.955ZM771.189 311.927L774.037 315.763L772.432 316.955L769.584 313.12L771.189 311.927ZM778.594 321.899L781.442 325.735L779.836 326.927L776.988 323.092L778.594 321.899ZM785.999 331.872L788.847 335.707L787.241 336.899L784.393 333.064L785.999 331.872ZM793.403 341.844L796.251 345.679L794.646 346.872L791.798 343.036L793.403 341.844ZM800.808 351.816L802.232 353.734L800.626 354.926L799.202 353.008L800.808 351.816Z" fill="#C3D0E4"/>
<path d="M666.968 354.476C667.049 355.022 667.557 355.4 668.104 355.319L677.007 354.004C677.553 353.923 677.931 353.415 677.85 352.868C677.769 352.322 677.261 351.944 676.715 352.025L668.801 353.195L667.631 345.28C667.55 344.734 667.042 344.357 666.496 344.437C665.949 344.518 665.572 345.026 665.653 345.573L666.968 354.476ZM733.797 263.984L667.155 353.734L668.76 354.926L735.402 265.176L733.797 263.984Z" fill="#C3D0E4"/>
<path d="M636.206 138.292C636.26 138.563 636.084 138.826 635.813 138.879L631.399 139.755C631.128 139.809 630.865 139.633 630.811 139.362C630.757 139.091 630.933 138.828 631.204 138.774L635.128 137.996L634.35 134.072C634.296 133.801 634.472 133.538 634.743 133.484C635.014 133.431 635.277 133.607 635.331 133.878L636.206 138.292ZM495.765 44.1625L497.84 45.5503L497.284 46.3814L495.209 44.9937L495.765 44.1625ZM504.478 49.991L508.627 52.7665L508.07 53.5977L503.922 50.8222L504.478 49.991ZM515.265 57.2072L519.413 59.9827L518.857 60.8139L514.708 58.0384L515.265 57.2072ZM526.051 64.4235L530.2 67.1989L529.644 68.0301L525.495 65.2546L526.051 64.4235ZM536.838 71.6397L540.987 74.4151L540.431 75.2463L536.282 72.4708L536.838 71.6397ZM547.625 78.8559L551.774 81.6314L551.218 82.4625L547.069 79.687L547.625 78.8559ZM558.412 86.0721L562.56 88.8476L562.004 89.6787L557.856 86.9033L558.412 86.0721ZM569.198 93.2883L573.347 96.0638L572.791 96.8949L568.642 94.1195L569.198 93.2883ZM579.985 100.505L584.134 103.28L583.578 104.111L579.429 101.336L579.985 100.505ZM590.772 107.721L594.921 110.496L594.365 111.327L590.216 108.552L590.772 107.721ZM601.559 114.937L605.708 117.712L605.152 118.544L601.003 115.768L601.559 114.937ZM612.346 122.153L616.494 124.929L615.938 125.76L611.79 122.984L612.346 122.153ZM623.132 129.369L627.281 132.145L626.725 132.976L622.576 130.201L623.132 129.369ZM633.919 136.586L635.994 137.973L635.438 138.805L633.363 137.417L633.919 136.586ZM636.697 138.194C636.804 138.736 636.452 139.262 635.91 139.37L627.082 141.121C626.54 141.228 626.014 140.876 625.907 140.334C625.799 139.793 626.151 139.266 626.693 139.159L634.54 137.603L632.984 129.755C632.876 129.214 633.228 128.687 633.77 128.58C634.312 128.473 634.838 128.825 634.946 129.366L636.697 138.194ZM496.043 43.747L498.118 45.1347L497.006 46.797L494.931 45.4093L496.043 43.747ZM504.756 49.5754L508.905 52.3509L507.792 54.0132L503.644 51.2378L504.756 49.5754ZM515.543 56.7917L519.691 59.5671L518.579 61.2294L514.43 58.454L515.543 56.7917ZM526.329 64.0079L530.478 66.7833L529.366 68.4457L525.217 65.6702L526.329 64.0079ZM537.116 71.2241L541.265 73.9996L540.153 75.6619L536.004 72.8864L537.116 71.2241ZM547.903 78.4403L552.052 81.2158L550.94 82.8781L546.791 80.1026L547.903 78.4403ZM558.69 85.6565L562.838 88.432L561.726 90.0943L557.578 87.3188L558.69 85.6565ZM569.477 92.8727L573.625 95.6482L572.513 97.3105L568.364 94.5351L569.477 92.8727ZM580.263 100.089L584.412 102.864L583.3 104.527L579.151 101.751L580.263 100.089ZM591.05 107.305L595.199 110.081L594.087 111.743L589.938 108.967L591.05 107.305ZM601.837 114.521L605.986 117.297L604.874 118.959L600.725 116.184L601.837 114.521ZM612.624 121.738L616.772 124.513L615.66 126.175L611.512 123.4L612.624 121.738ZM623.41 128.954L627.559 131.729L626.447 133.392L622.298 130.616L623.41 128.954ZM634.197 136.17L636.272 137.558L635.16 139.22L633.085 137.832L634.197 136.17Z" fill="#C3D0E4"/>
<path d="M747.193 620.032C748.957 620.032 750.577 619.276 751.747 618.088L750.469 616.864C749.641 617.764 748.471 618.358 747.193 618.358C744.727 618.358 742.639 616.198 742.639 613.624C742.639 611.068 744.727 608.908 747.193 608.908C748.471 608.908 749.641 609.502 750.469 610.402L751.747 609.178C750.577 607.972 748.957 607.234 747.193 607.234C743.719 607.234 740.767 610.15 740.767 613.624C740.767 617.098 743.719 620.032 747.193 620.032ZM757.931 620.032C760.577 620.032 762.809 617.8 762.809 615.154C762.809 612.508 760.577 610.294 757.931 610.294C755.267 610.294 753.017 612.508 753.017 615.154C753.017 617.8 755.267 620.032 757.931 620.032ZM757.931 618.484C756.221 618.484 754.799 616.972 754.799 615.154C754.799 613.354 756.221 611.842 757.931 611.842C759.605 611.842 761.027 613.354 761.027 615.154C761.027 616.972 759.605 618.484 757.931 618.484ZM769.628 610.294C768.368 610.294 767.234 610.942 766.676 611.86V610.51H764.894V619.816H766.676V613.786C766.82 612.688 767.936 611.842 769.232 611.842C770.492 611.842 771.374 612.814 771.374 614.2V619.816H773.12V613.894C773.12 611.788 771.68 610.294 769.628 610.294ZM778.118 609.484C778.118 608.836 778.55 608.368 779.072 608.368C779.468 608.368 779.828 608.512 780.026 608.71L780.674 607.522C780.17 607.108 779.486 606.856 778.82 606.856C777.38 606.856 776.372 607.9 776.372 609.394V610.51H774.968V612.022H776.372V619.816H778.118V612.022H780.314V610.51H778.118V609.484ZM782.156 619.816H783.92V607.234H782.156V619.816ZM787.397 608.962C787.973 608.962 788.459 608.458 788.459 607.882C788.459 607.324 787.973 606.82 787.397 606.82C786.785 606.82 786.317 607.324 786.317 607.882C786.317 608.458 786.785 608.962 787.397 608.962ZM786.497 619.816H788.279V610.51H786.497V619.816ZM795.249 620.032C796.635 620.032 797.841 619.456 798.741 618.538L797.535 617.44C796.959 618.088 796.131 618.484 795.267 618.484C793.557 618.484 792.153 616.972 792.153 615.154C792.153 613.354 793.557 611.842 795.249 611.842C796.113 611.842 796.923 612.22 797.481 612.85L798.687 611.734C797.805 610.852 796.599 610.294 795.267 610.294C792.603 610.294 790.353 612.508 790.353 615.154C790.353 617.8 792.603 620.032 795.249 620.032ZM805.004 618.142C804.806 618.34 804.446 618.484 804.05 618.484C803.528 618.484 803.096 618.016 803.096 617.368V612.022H805.292V610.51H803.096V607.954H801.35V610.51H799.946V612.022H801.35V617.494C801.35 618.988 802.358 620.032 803.798 620.032C804.464 620.032 805.148 619.78 805.652 619.366L805.004 618.142ZM749.599 629.294C748.159 629.294 747.007 629.978 746.287 631.112V626.234H744.523V638.816H746.287V637.196C747.007 638.348 748.159 639.032 749.599 639.032C752.047 639.032 753.883 637.016 753.883 634.154C753.883 631.31 752.047 629.294 749.599 629.294ZM749.167 637.484C747.493 637.484 746.287 636.098 746.287 634.154C746.287 632.21 747.493 630.842 749.167 630.842C750.877 630.842 752.083 632.21 752.083 634.154C752.083 636.098 750.877 637.484 749.167 637.484ZM762.443 629.51V635.54C762.299 636.638 761.183 637.484 759.887 637.484C758.627 637.484 757.745 636.512 757.745 635.126V629.51H755.999V635.432C755.999 637.538 757.439 639.032 759.491 639.032C760.751 639.032 761.885 638.384 762.443 637.466V638.816H764.225V629.51H762.443ZM771.544 629.294C770.284 629.294 769.15 629.942 768.592 630.86V629.51H766.81V638.816H768.592V632.786C768.736 631.688 769.852 630.842 771.148 630.842C772.408 630.842 773.29 631.814 773.29 633.2V638.816H775.036V632.894C775.036 630.788 773.596 629.294 771.544 629.294ZM784.75 626.234V631.112C784.03 629.978 782.878 629.294 781.438 629.294C778.99 629.294 777.154 631.31 777.154 634.154C777.154 637.016 778.99 639.032 781.438 639.032C782.878 639.032 784.03 638.348 784.75 637.196V638.816H786.514V626.234H784.75ZM781.87 637.484C780.16 637.484 778.954 636.098 778.954 634.154C778.954 632.21 780.16 630.842 781.87 630.842C783.544 630.842 784.75 632.21 784.75 634.154C784.75 636.098 783.544 637.484 781.87 637.484ZM789.187 638.816H790.951V626.234H789.187V638.816ZM797.813 637.448C796.211 637.448 795.077 636.332 794.843 634.784H802.169C802.169 631.454 800.531 629.294 797.687 629.294C795.113 629.294 793.043 631.346 793.043 634.136C793.043 636.998 795.239 639.032 797.831 639.032C799.145 639.032 800.765 638.474 801.593 637.592L800.477 636.44C799.919 637.016 798.785 637.448 797.813 637.448ZM797.759 630.878C799.361 630.878 800.243 631.922 800.441 633.362H794.861C795.149 631.85 796.319 630.878 797.759 630.878Z" fill="#131F37"/>
<circle cx="773.038" cy="579" r="20" fill="#F67367"/>
<path d="M541.44 629.816H543.258V621.014L547.596 629.096L551.934 621.014V629.816H553.752V617.45H551.934L547.596 625.532L543.258 617.45H541.44V629.816ZM557.503 618.962C558.079 618.962 558.565 618.458 558.565 617.882C558.565 617.324 558.079 616.82 557.503 616.82C556.891 616.82 556.423 617.324 556.423 617.882C556.423 618.458 556.891 618.962 557.503 618.962ZM556.603 629.816H558.385V620.51H556.603V629.816ZM560.963 629.816H562.727V617.234H560.963V629.816ZM569.588 628.448C567.986 628.448 566.852 627.332 566.618 625.784H573.944C573.944 622.454 572.306 620.294 569.462 620.294C566.888 620.294 564.818 622.346 564.818 625.136C564.818 627.998 567.014 630.032 569.606 630.032C570.92 630.032 572.54 629.474 573.368 628.592L572.252 627.44C571.694 628.016 570.56 628.448 569.588 628.448ZM569.534 621.878C571.136 621.878 572.018 622.922 572.216 624.362H566.636C566.924 622.85 568.094 621.878 569.534 621.878ZM579.376 630.032C581.41 630.032 582.904 628.916 582.904 627.152C582.904 625.298 581.266 624.794 579.736 624.344C578.17 623.858 577.594 623.642 577.594 622.922C577.594 622.22 578.314 621.824 579.232 621.824C580.042 621.824 580.978 622.13 581.878 622.688L582.67 621.374C581.662 620.708 580.438 620.294 579.232 620.294C577.252 620.294 575.83 621.41 575.848 623.12C575.848 624.632 576.91 625.244 579.052 625.838C580.204 626.162 581.158 626.432 581.158 627.296C581.158 628.016 580.438 628.502 579.394 628.502C578.296 628.502 577.234 628.088 576.244 627.368L575.398 628.646C576.514 629.546 578.008 630.032 579.376 630.032ZM589.33 628.142C589.132 628.34 588.772 628.484 588.376 628.484C587.854 628.484 587.422 628.016 587.422 627.368V622.022H589.618V620.51H587.422V617.954H585.676V620.51H584.272V622.022H585.676V627.494C585.676 628.988 586.684 630.032 588.124 630.032C588.79 630.032 589.474 629.78 589.978 629.366L589.33 628.142ZM596.205 630.032C598.851 630.032 601.083 627.8 601.083 625.154C601.083 622.508 598.851 620.294 596.205 620.294C593.541 620.294 591.291 622.508 591.291 625.154C591.291 627.8 593.541 630.032 596.205 630.032ZM596.205 628.484C594.495 628.484 593.073 626.972 593.073 625.154C593.073 623.354 594.495 621.842 596.205 621.842C597.879 621.842 599.301 623.354 599.301 625.154C599.301 626.972 597.879 628.484 596.205 628.484ZM607.902 620.294C606.642 620.294 605.508 620.942 604.95 621.86V620.51H603.168V629.816H604.95V623.786C605.094 622.688 606.21 621.842 607.506 621.842C608.766 621.842 609.648 622.814 609.648 624.2V629.816H611.394V623.894C611.394 621.788 609.954 620.294 607.902 620.294ZM618.209 628.448C616.607 628.448 615.473 627.332 615.239 625.784H622.565C622.565 622.454 620.927 620.294 618.083 620.294C615.509 620.294 613.439 622.346 613.439 625.136C613.439 627.998 615.635 630.032 618.227 630.032C619.541 630.032 621.161 629.474 621.989 628.592L620.873 627.44C620.315 628.016 619.181 628.448 618.209 628.448ZM618.155 621.878C619.757 621.878 620.639 622.922 620.837 624.362H615.257C615.545 622.85 616.715 621.878 618.155 621.878Z" fill="#131F37"/>
<circle cx="580.104" cy="579" r="20" fill="#FFBF9F"/>
<path d="M377.783 629.184H379.601V618.51H383.669V616.818H373.733V618.51H377.783V629.184ZM387.554 621.66V619.878H385.772V629.184H387.554V623.892C387.716 622.272 389.084 621.21 391.01 621.21V619.662C389.408 619.662 388.148 620.436 387.554 621.66ZM399.156 619.878V625.908C399.012 627.006 397.896 627.852 396.6 627.852C395.34 627.852 394.458 626.88 394.458 625.494V619.878H392.712V625.8C392.712 627.906 394.152 629.4 396.204 629.4C397.464 629.4 398.598 628.752 399.156 627.834V629.184H400.938V619.878H399.156ZM408.257 619.662C406.997 619.662 405.863 620.31 405.305 621.228V619.878H403.523V629.184H405.305V623.154C405.449 622.056 406.565 621.21 407.861 621.21C409.121 621.21 410.003 622.182 410.003 623.568V629.184H411.749V623.262C411.749 621.156 410.309 619.662 408.257 619.662ZM422.759 619.878H420.599L416.045 624.63V616.602H414.281V629.184H416.045V626.79L417.539 625.278L420.455 629.184H422.579L418.745 624.09L422.759 619.878Z" fill="#131F37"/>
<path d="M347.258 580.476C346.868 580.867 346.868 581.5 347.258 581.891L353.622 588.255C354.013 588.645 354.646 588.645 355.036 588.255C355.427 587.864 355.427 587.231 355.036 586.84L349.38 581.184L355.036 575.527C355.427 575.136 355.427 574.503 355.036 574.113C354.646 573.722 354.013 573.722 353.622 574.113L347.258 580.476ZM447.965 580.184H347.965V582.184H447.965V580.184Z" fill="#C3D0E4"/>
<path d="M182.538 629.184H188.64C190.854 629.184 192.438 627.798 192.438 625.818C192.438 624.45 191.61 623.334 190.17 622.632C191.286 622.002 191.934 621.192 191.934 619.896C191.934 618.096 190.476 616.818 188.406 616.818H182.538V629.184ZM184.356 621.966V618.42H187.956C189.198 618.42 190.08 619.176 190.08 620.202C190.08 621.228 189.198 621.966 187.956 621.966H184.356ZM184.356 627.582V623.514H188.226C189.612 623.514 190.584 624.36 190.584 625.548C190.584 626.736 189.612 627.582 188.226 627.582H184.356ZM196.532 621.66V619.878H194.75V629.184H196.532V623.892C196.694 622.272 198.062 621.21 199.988 621.21V619.662C198.386 619.662 197.126 620.436 196.532 621.66ZM205.633 619.662C204.607 619.662 203.437 619.932 202.105 620.598L202.753 621.912C203.563 621.498 204.463 621.138 205.381 621.138C207.235 621.138 207.775 622.38 207.775 623.55V623.838C206.875 623.532 205.885 623.334 204.967 623.334C202.915 623.334 201.241 624.576 201.241 626.43C201.241 628.248 202.699 629.4 204.679 629.4C205.813 629.4 207.091 628.878 207.775 627.906V629.184H209.521V623.55C209.521 621.246 208.135 619.662 205.633 619.662ZM205.021 627.996C203.851 627.996 202.951 627.384 202.951 626.376C202.951 625.368 203.995 624.666 205.237 624.666C206.155 624.666 207.019 624.792 207.775 625.026V626.268C207.469 627.42 206.173 627.996 205.021 627.996ZM216.832 619.662C215.572 619.662 214.438 620.31 213.88 621.228V619.878H212.098V629.184H213.88V623.154C214.024 622.056 215.14 621.21 216.436 621.21C217.696 621.21 218.578 622.182 218.578 623.568V629.184H220.324V623.262C220.324 621.156 218.884 619.662 216.832 619.662ZM227.265 629.4C228.651 629.4 229.857 628.824 230.757 627.906L229.551 626.808C228.975 627.456 228.147 627.852 227.283 627.852C225.573 627.852 224.169 626.34 224.169 624.522C224.169 622.722 225.573 621.21 227.265 621.21C228.129 621.21 228.939 621.588 229.497 622.218L230.703 621.102C229.821 620.22 228.615 619.662 227.283 619.662C224.619 619.662 222.369 621.876 222.369 624.522C222.369 627.168 224.619 629.4 227.265 629.4ZM237.398 619.662C236.12 619.662 234.986 620.328 234.428 621.264V616.602H232.664V629.184H234.428V623.406C234.428 622.2 235.598 621.21 237.002 621.21C238.262 621.21 239.144 622.182 239.144 623.568V629.184H240.89V623.262C240.89 621.156 239.45 619.662 237.398 619.662Z" fill="#131F37"/>
<path d="M161.204 582.975C161.008 583.17 161.008 583.486 161.204 583.682L164.386 586.864C164.581 587.059 164.897 587.059 165.093 586.864C165.288 586.668 165.288 586.352 165.093 586.157L162.264 583.328L165.093 580.5C165.288 580.304 165.288 579.988 165.093 579.793C164.897 579.597 164.581 579.597 164.386 579.793L161.204 582.975ZM261.557 582.828H259.153V583.828H261.557V582.828ZM251.461 582.828H246.653V583.828H251.461V582.828ZM238.961 582.828H234.153V583.828H238.961V582.828ZM226.461 582.828H221.653V583.828H226.461V582.828ZM213.961 582.828H209.153V583.828H213.961V582.828ZM201.461 582.828H196.653V583.828H201.461V582.828ZM188.961 582.828H184.153V583.828H188.961V582.828ZM176.461 582.828H171.653V583.828H176.461V582.828ZM163.961 582.828H161.557V583.828H163.961V582.828ZM160.85 582.621C160.46 583.012 160.46 583.645 160.85 584.035L167.214 590.399C167.605 590.79 168.238 590.79 168.628 590.399C169.019 590.009 169.019 589.376 168.628 588.985L162.971 583.328L168.628 577.671C169.019 577.281 169.019 576.648 168.628 576.257C168.238 575.867 167.605 575.867 167.214 576.257L160.85 582.621ZM261.557 582.328H259.153V584.328H261.557V582.328ZM251.461 582.328H246.653V584.328H251.461V582.328ZM238.961 582.328H234.153V584.328H238.961V582.328ZM226.461 582.328H221.653V584.328H226.461V582.328ZM213.961 582.328H209.153V584.328H213.961V582.328ZM201.461 582.328H196.653V584.328H201.461V582.328ZM188.961 582.328H184.153V584.328H188.961V582.328ZM176.461 582.328H171.653V584.328H176.461V582.328ZM163.961 582.328H161.557V584.328H163.961V582.328Z" fill="#C3D0E4"/>
<circle cx="494.937" cy="45" r="15" fill="#FFBF9F"/>
<path d="M499.239 38.3264L494.937 48.3524L490.635 38.3264H488.619L493.929 50.6924H495.945L501.255 38.3264H499.239Z" fill="#131F37"/>
<circle cx="335.159" cy="155" r="15" fill="#4EC2BF"/>
<path d="M340.368 152.358C340.368 150 338.388 148.326 335.778 148.326H330.576V160.692H332.394V156.39H335.238L338.262 160.692H340.35L337.2 156.21C339.072 155.724 340.368 154.266 340.368 152.358ZM332.394 150.018H335.526C337.308 150.018 338.514 150.9 338.514 152.358C338.514 153.816 337.308 154.698 335.526 154.698H332.394V150.018Z" fill="#131F37"/>
<circle cx="655.032" cy="155" r="15" fill="#4EC2BF"/>
<path d="M655.229 160.89C658.145 160.89 659.729 159.306 659.729 157.218C659.729 155.004 658.019 154.176 655.553 153.6C653.519 153.114 652.457 152.718 652.457 151.566C652.457 150.576 653.429 149.694 654.815 149.694C656.075 149.694 657.317 150.252 658.361 151.206L659.405 149.838C658.217 148.794 656.795 148.092 654.887 148.092C652.403 148.092 650.603 149.658 650.603 151.728C650.603 153.96 652.277 154.716 654.797 155.31C656.867 155.778 657.893 156.228 657.893 157.398C657.893 158.388 657.011 159.288 655.301 159.288C653.627 159.288 652.331 158.604 651.233 157.56L650.135 158.91C651.449 160.17 653.159 160.89 655.229 160.89Z" fill="#131F37"/>
<circle cx="255.191" cy="265" r="15" fill="#70DDD5"/>
<path d="M253.144 269V258.326H251.308V270.692H259.696V269H253.144Z" fill="#131F37"/>
<circle cx="575.064" cy="265" r="15" fill="#70DDD5"/>
<path d="M569.686 270.692H571.504V261.314L578.614 270.692H580.432V258.326H578.614V267.704L571.504 258.326H569.686V270.692Z" fill="#131F37"/>
<circle cx="415.191" cy="265" r="15" fill="#70DDD5"/>
<path d="M409.032 270.692H410.85V261.89L415.188 269.972L419.526 261.89V270.692H421.344V258.326H419.526L415.188 266.408L410.85 258.326H409.032V270.692Z" fill="#131F37"/>
<circle cx="735.064" cy="265" r="15" fill="#F67367"/>
<path d="M735.076 270.908C738.55 270.908 741.466 267.974 741.466 264.5C741.466 261.026 738.55 258.11 735.076 258.11C731.602 258.11 728.65 261.026 728.65 264.5C728.65 267.974 731.602 270.908 735.076 270.908ZM735.076 269.234C732.61 269.234 730.522 267.074 730.522 264.5C730.522 261.944 732.61 259.784 735.076 259.784C737.542 259.784 739.612 261.944 739.612 264.5C739.612 267.074 737.542 269.234 735.076 269.234Z" fill="#131F37"/>
<circle cx="175.064" cy="375" r="15" fill="#F67367"/>
<path d="M175.423 375.616H178.735V378.208C177.889 378.856 176.719 379.234 175.675 379.234C173.191 379.234 171.103 377.074 171.103 374.5C171.103 371.944 173.191 369.784 175.675 369.784C176.953 369.784 178.411 370.36 179.257 371.278L180.535 370.054C179.365 368.848 177.421 368.11 175.675 368.11C172.201 368.11 169.231 371.026 169.231 374.5C169.231 377.974 172.201 380.908 175.675 380.908C177.421 380.908 179.365 380.152 180.535 378.964V374.032H175.423V375.616Z" fill="#131F37"/>
<circle cx="655.191" cy="375" r="15" fill="#70DDD5"/>
<path d="M650.684 380.692H652.502V377.074L654.302 375.148L658.712 380.692H660.998L655.58 373.888L660.656 368.326H658.334L652.502 374.77V368.326H650.684V380.692Z" fill="#131F37"/>
<circle cx="335.159" cy="375" r="15" fill="#70DDD5"/>
<path d="M334.583 380.908C336.941 380.908 338.597 379.144 338.597 376.66V368.326H336.779V376.588C336.779 378.154 335.825 379.252 334.493 379.252C333.449 379.252 332.387 378.568 331.937 377.614L330.659 378.856C331.451 380.062 333.071 380.908 334.583 380.908Z" fill="#131F37"/>
<circle cx="815.287" cy="375" r="15" fill="#70DDD5"/>
<path d="M814.378 380.692H816.196V368.326H814.378V380.692Z" fill="#131F37"/>
<circle cx="95.064" cy="485" r="15" fill="#8CE1DA"/>
<path d="M89.7743 490.692H94.0403C98.0363 490.692 100.88 488.118 100.88 484.5C100.88 480.882 98.0363 478.326 94.0403 478.326H89.7743V490.692ZM91.5923 489.036V479.982H94.1483C97.0103 479.982 99.0083 481.854 99.0083 484.5C99.0083 487.164 97.0103 489.036 94.1483 489.036H91.5923Z" fill="#131F37"/>
</svg>
