<svg width="990" height="680" viewBox="0 0 990 680" fill="none" xmlns="http://www.w3.org/2000/svg">
<path d="M143.724 291.002C143.18 291.095 142.813 291.611 142.906 292.156L144.412 301.029C144.505 301.573 145.021 301.94 145.565 301.847C146.11 301.755 146.476 301.238 146.384 300.694L145.045 292.807L152.932 291.468C153.477 291.375 153.843 290.859 153.751 290.314C153.658 289.77 153.142 289.403 152.597 289.496L143.724 291.002ZM237.232 357.008L144.47 291.173L143.313 292.804L236.074 358.639L237.232 357.008Z" fill="#C3D0E4"/>
<path d="M247.056 126.9C246.563 127.149 246.366 127.751 246.616 128.244L250.684 136.272C250.934 136.764 251.536 136.961 252.028 136.712C252.521 136.462 252.718 135.86 252.468 135.368L248.852 128.232L255.988 124.615C256.481 124.366 256.678 123.764 256.428 123.271C256.178 122.779 255.576 122.582 255.084 122.831L247.056 126.9ZM366.069 165.55L247.819 126.841L247.197 128.742L365.447 167.45L366.069 165.55Z" fill="#C3D0E4"/>
<path d="M385.264 158.785C384.95 159.24 385.065 159.862 385.52 160.175L392.933 165.279C393.388 165.592 394.011 165.477 394.324 165.022C394.637 164.567 394.522 163.945 394.067 163.631L387.478 159.095L392.014 152.506C392.328 152.051 392.213 151.428 391.758 151.115C391.303 150.802 390.68 150.917 390.367 151.372L385.264 158.785ZM615.766 115.951L385.906 158.368L386.269 160.335L616.129 117.918L615.766 115.951Z" fill="#C3D0E4"/>
<path d="M635.918 127.912C635.372 128 635.002 128.513 635.09 129.058L636.525 137.943C636.613 138.489 637.126 138.859 637.671 138.771C638.217 138.683 638.587 138.17 638.499 137.624L637.224 129.727L645.121 128.451C645.667 128.363 646.037 127.85 645.949 127.305C645.861 126.759 645.348 126.389 644.803 126.477L635.918 127.912ZM746.974 207.724L636.662 128.088L635.492 129.71L745.804 209.346L746.974 207.724Z" fill="#C3D0E4"/>
<path d="M597.441 298.413C597 298.746 596.913 299.373 597.246 299.814L602.672 306.994C603.005 307.435 603.632 307.522 604.073 307.189C604.514 306.856 604.601 306.229 604.268 305.788L599.444 299.406L605.826 294.582C606.267 294.249 606.354 293.622 606.021 293.181C605.688 292.741 605.061 292.654 604.621 292.987L597.441 298.413ZM736.504 317.46L598.181 298.221L597.906 300.201L736.229 319.441L736.504 317.46Z" fill="#C3D0E4"/>
<path d="M766.521 217.429C766.053 217.722 765.912 218.339 766.205 218.807L770.987 226.432C771.28 226.9 771.897 227.041 772.365 226.748C772.833 226.455 772.974 225.837 772.681 225.369L768.431 218.592L775.208 214.342C775.676 214.048 775.818 213.431 775.524 212.963C775.231 212.495 774.614 212.354 774.146 212.647L766.521 217.429ZM886.12 244.538L767.276 217.301L766.829 219.251L885.674 246.487L886.12 244.538Z" fill="#C3D0E4"/>
<path d="M387.183 174.735C386.756 175.086 386.694 175.716 387.044 176.143L392.754 183.1C393.104 183.527 393.734 183.589 394.161 183.239C394.588 182.888 394.65 182.258 394.3 181.831L389.225 175.647L395.409 170.572C395.836 170.222 395.898 169.592 395.547 169.165C395.197 168.738 394.567 168.676 394.14 169.026L387.183 174.735ZM506.319 186.178L387.915 174.513L387.719 176.504L506.123 188.168L506.319 186.178Z" fill="#C3D0E4"/>
<path d="M525.556 193.4C525.069 193.659 524.885 194.265 525.145 194.753L529.38 202.694C529.64 203.181 530.245 203.365 530.733 203.106C531.22 202.846 531.404 202.24 531.145 201.753L527.38 194.694L534.439 190.929C534.926 190.669 535.111 190.064 534.851 189.576C534.591 189.089 533.985 188.905 533.498 189.164L525.556 193.4ZM636.953 226.999L526.318 193.325L525.736 195.239L636.371 228.913L636.953 226.999Z" fill="#C3D0E4"/>
<path d="M415.655 281.237C415.233 281.593 415.179 282.224 415.535 282.646L421.335 289.528C421.691 289.951 422.322 290.004 422.744 289.648C423.166 289.292 423.22 288.662 422.864 288.239L417.709 282.122L423.826 276.967C424.248 276.611 424.302 275.98 423.946 275.557C423.59 275.135 422.959 275.081 422.537 275.437L415.655 281.237ZM576.543 294.666L416.385 281.006L416.215 282.998L576.373 296.658L576.543 294.666Z" fill="#C3D0E4"/>
<path d="M506.793 359.117C506.303 359.371 506.112 359.975 506.367 360.465L510.517 368.451C510.772 368.941 511.376 369.132 511.866 368.877C512.356 368.622 512.547 368.019 512.292 367.528L508.602 360.43L515.701 356.74C516.191 356.486 516.381 355.882 516.127 355.392C515.872 354.902 515.268 354.711 514.778 354.966L506.793 359.117ZM626.605 396.667L507.555 359.051L506.953 360.958L626.003 398.574L626.605 396.667Z" fill="#C3D0E4"/>
<path d="M409.389 295.246C408.84 295.31 408.447 295.806 408.51 296.354L409.541 305.295C409.604 305.844 410.1 306.237 410.649 306.174C411.198 306.111 411.591 305.615 411.528 305.066L410.611 297.119L418.559 296.202C419.107 296.139 419.501 295.643 419.438 295.094C419.374 294.546 418.878 294.152 418.33 294.216L409.389 295.246ZM486.836 356.307L410.125 295.456L408.882 297.023L485.593 357.874L486.836 356.307Z" fill="#C3D0E4"/>
<path d="M258.054 241.151C257.592 241.453 257.462 242.073 257.764 242.535L262.686 250.07C262.988 250.532 263.608 250.662 264.07 250.36C264.533 250.058 264.663 249.438 264.361 248.976L259.985 242.279L266.683 237.903C267.145 237.601 267.275 236.981 266.973 236.519C266.671 236.057 266.051 235.927 265.589 236.229L258.054 241.151ZM395.702 269.718L258.806 241.01L258.396 242.967L395.292 271.675L395.702 269.718Z" fill="#C3D0E4"/>
<path d="M255.193 366.065C254.673 366.253 254.405 366.826 254.592 367.346L257.653 375.81C257.841 376.329 258.414 376.598 258.933 376.41C259.453 376.222 259.721 375.649 259.534 375.129L256.813 367.606L264.337 364.886C264.856 364.698 265.125 364.125 264.937 363.605C264.749 363.086 264.176 362.817 263.656 363.005L255.193 366.065ZM386.009 427.078L255.957 366.1L255.108 367.911L385.159 428.889L386.009 427.078Z" fill="#C3D0E4"/>
<path d="M157.578 397.89C157.493 398.153 157.637 398.434 157.9 398.519L162.182 399.902C162.445 399.987 162.726 399.843 162.811 399.58C162.896 399.318 162.752 399.036 162.489 398.951L158.683 397.721L159.912 393.915C159.997 393.652 159.853 393.37 159.59 393.285C159.327 393.201 159.046 393.345 158.961 393.608L157.578 397.89ZM236.425 357.378L234.266 358.483L234.721 359.373L236.881 358.268L236.425 357.378ZM227.356 362.019L223.037 364.229L223.493 365.119L227.811 362.909L227.356 362.019ZM216.127 367.765L211.809 369.975L212.264 370.865L216.583 368.655L216.127 367.765ZM204.899 373.51L200.58 375.72L201.036 376.611L205.354 374.401L204.899 373.51ZM193.67 379.256L189.352 381.466L189.807 382.356L194.126 380.146L193.67 379.256ZM182.442 385.002L178.123 387.212L178.579 388.102L182.897 385.892L182.442 385.002ZM171.213 390.748L166.895 392.958L167.35 393.848L171.669 391.638L171.213 390.748ZM159.985 396.493L157.826 397.598L158.281 398.489L160.44 397.384L159.985 396.493ZM157.102 397.736C156.932 398.262 157.22 398.825 157.746 398.995L166.31 401.761C166.836 401.931 167.399 401.643 167.569 401.117C167.739 400.592 167.451 400.028 166.925 399.858L159.312 397.399L161.771 389.786C161.941 389.261 161.653 388.697 161.127 388.528C160.601 388.358 160.038 388.646 159.868 389.172L157.102 397.736ZM236.197 356.933L234.038 358.038L234.949 359.818L237.108 358.713L236.197 356.933ZM227.128 361.574L222.809 363.784L223.721 365.564L228.039 363.354L227.128 361.574ZM215.9 367.32L211.581 369.529L212.492 371.31L216.811 369.1L215.9 367.32ZM204.671 373.065L200.352 375.275L201.264 377.056L205.582 374.846L204.671 373.065ZM193.443 378.811L189.124 381.021L190.035 382.801L194.354 380.591L193.443 378.811ZM182.214 384.557L177.895 386.767L178.807 388.547L183.125 386.337L182.214 384.557ZM170.986 390.303L166.667 392.512L167.578 394.293L171.897 392.083L170.986 390.303ZM159.757 396.048L157.598 397.153L158.509 398.934L160.668 397.829L159.757 396.048Z" fill="#C3D0E4"/>
<path d="M255.761 226.784C255.684 227.049 255.836 227.326 256.101 227.403L260.422 228.659C260.688 228.737 260.965 228.584 261.042 228.319C261.119 228.054 260.967 227.776 260.702 227.699L256.861 226.583L257.977 222.742C258.054 222.477 257.902 222.199 257.637 222.122C257.371 222.045 257.094 222.197 257.017 222.463L255.761 226.784ZM365.517 166.298L363.411 167.456L363.893 168.332L365.999 167.175L365.517 166.298ZM356.671 171.159L352.459 173.474L352.941 174.351L357.153 172.036L356.671 171.159ZM345.72 177.178L341.508 179.493L341.989 180.369L346.201 178.054L345.72 177.178ZM334.768 183.197L330.556 185.512L331.037 186.388L335.25 184.073L334.768 183.197ZM323.816 189.215L319.604 191.53L320.086 192.407L324.298 190.092L323.816 189.215ZM312.865 195.234L308.652 197.549L309.134 198.425L313.346 196.111L312.865 195.234ZM301.913 201.253L297.701 203.568L298.182 204.444L302.395 202.129L301.913 201.253ZM290.961 207.272L286.749 209.586L287.231 210.463L291.443 208.148L290.961 207.272ZM280.01 213.29L275.797 215.605L276.279 216.482L280.491 214.167L280.01 213.29ZM269.058 219.309L264.846 221.624L265.327 222.5L269.54 220.185L269.058 219.309ZM258.106 225.328L256 226.485L256.482 227.361L258.588 226.204L258.106 225.328ZM255.281 226.644C255.126 227.174 255.431 227.729 255.962 227.884L264.604 230.396C265.134 230.55 265.689 230.245 265.843 229.715C265.998 229.184 265.693 228.629 265.162 228.475L257.48 226.242L259.713 218.56C259.867 218.03 259.563 217.475 259.032 217.321C258.502 217.167 257.947 217.472 257.793 218.002L255.281 226.644ZM365.276 165.86L363.17 167.017L364.133 168.77L366.239 167.613L365.276 165.86ZM356.431 170.721L352.218 173.036L353.182 174.789L357.394 172.474L356.431 170.721ZM345.479 176.74L341.267 179.055L342.23 180.808L346.442 178.493L345.479 176.74ZM334.527 182.759L330.315 185.073L331.278 186.826L335.49 184.511L334.527 182.759ZM323.576 188.777L319.363 191.092L320.327 192.845L324.539 190.53L323.576 188.777ZM312.624 194.796L308.412 197.111L309.375 198.864L313.587 196.549L312.624 194.796ZM301.672 200.815L297.46 203.13L298.423 204.882L302.635 202.567L301.672 200.815ZM290.72 206.833L286.508 209.148L287.472 210.901L291.684 208.586L290.72 206.833ZM279.769 212.852L275.557 215.167L276.52 216.92L280.732 214.605L279.769 212.852ZM268.817 218.871L264.605 221.186L265.568 222.938L269.78 220.623L268.817 218.871ZM257.865 224.889L255.759 226.047L256.723 227.8L258.829 226.642L257.865 224.889Z" fill="#C3D0E4"/>
<path d="M526.829 179.306C526.782 179.578 526.964 179.837 527.236 179.885L531.668 180.661C531.94 180.709 532.199 180.527 532.247 180.255C532.295 179.983 532.113 179.723 531.841 179.676L527.9 178.986L528.59 175.046C528.638 174.774 528.456 174.515 528.184 174.467C527.912 174.42 527.653 174.602 527.605 174.874L526.829 179.306ZM615.66 116.762L613.53 118.257L614.104 119.076L616.235 117.58L615.66 116.762ZM606.712 123.044L602.451 126.035L603.026 126.854L607.287 123.862L606.712 123.044ZM595.634 130.821L591.373 133.813L591.948 134.631L596.209 131.64L595.634 130.821ZM584.556 138.599L580.295 141.591L580.87 142.409L585.13 139.418L584.556 138.599ZM573.478 146.377L569.217 149.368L569.791 150.187L574.052 147.195L573.478 146.377ZM562.399 154.154L558.139 157.146L558.713 157.964L562.974 154.973L562.399 154.154ZM551.321 161.932L547.06 164.924L547.635 165.742L551.896 162.751L551.321 161.932ZM540.243 169.71L535.982 172.701L536.557 173.52L540.818 170.528L540.243 169.71ZM529.165 177.488L527.034 178.983L527.609 179.802L529.739 178.306L529.165 177.488ZM526.337 179.22C526.242 179.764 526.605 180.282 527.149 180.378L536.015 181.929C536.559 182.025 537.077 181.661 537.172 181.117C537.267 180.573 536.903 180.054 536.359 179.959L528.479 178.58L529.859 170.7C529.954 170.156 529.59 169.638 529.046 169.542C528.502 169.447 527.984 169.811 527.888 170.355L526.337 179.22ZM615.373 116.352L613.242 117.848L614.391 119.485L616.522 117.989L615.373 116.352ZM606.425 122.634L602.164 125.626L603.313 127.263L607.574 124.271L606.425 122.634ZM595.347 130.412L591.086 133.404L592.235 135.04L596.496 132.049L595.347 130.412ZM584.269 138.19L580.008 141.181L581.157 142.818L585.418 139.827L584.269 138.19ZM573.19 145.968L568.929 148.959L570.079 150.596L574.34 147.604L573.19 145.968ZM562.112 153.745L557.851 156.737L559.001 158.374L563.261 155.382L562.112 153.745ZM551.034 161.523L546.773 164.514L547.922 166.151L552.183 163.16L551.034 161.523ZM539.956 169.301L535.695 172.292L536.844 173.929L541.105 170.938L539.956 169.301ZM528.878 177.078L526.747 178.574L527.896 180.211L530.027 178.715L528.878 177.078Z" fill="#C3D0E4"/>
<path d="M656.065 226.434C655.912 226.664 655.974 226.974 656.204 227.127L659.947 229.625C660.176 229.778 660.487 229.716 660.64 229.487C660.793 229.257 660.731 228.947 660.502 228.793L657.175 226.573L659.395 223.246C659.548 223.016 659.486 222.706 659.256 222.552C659.027 222.399 658.716 222.461 658.563 222.691L656.065 226.434ZM746.291 208.281L743.821 208.774L744.017 209.755L746.487 209.262L746.291 208.281ZM735.917 210.351L730.977 211.337L731.173 212.318L736.113 211.332L735.917 210.351ZM723.073 212.914L718.133 213.9L718.329 214.88L723.269 213.895L723.073 212.914ZM710.229 215.477L705.289 216.463L705.485 217.443L710.425 216.458L710.229 215.477ZM697.385 218.04L692.445 219.025L692.641 220.006L697.581 219.02L697.385 218.04ZM684.541 220.603L679.601 221.588L679.797 222.569L684.737 221.583L684.541 220.603ZM671.697 223.165L666.757 224.151L666.953 225.132L671.893 224.146L671.697 223.165ZM658.853 225.728L656.383 226.221L656.579 227.202L659.049 226.709L658.853 225.728ZM655.649 226.156C655.343 226.616 655.467 227.237 655.926 227.543L663.412 232.539C663.872 232.845 664.493 232.722 664.799 232.262C665.106 231.803 664.982 231.182 664.522 230.875L657.868 226.435L662.309 219.78C662.615 219.321 662.491 218.7 662.032 218.393C661.572 218.087 660.951 218.211 660.645 218.67L655.649 226.156ZM746.193 207.791L743.723 208.284L744.115 210.245L746.585 209.752L746.193 207.791ZM735.819 209.861L730.879 210.847L731.271 212.808L736.211 211.822L735.819 209.861ZM722.975 212.424L718.035 213.409L718.427 215.371L723.367 214.385L722.975 212.424ZM710.131 214.987L705.191 215.972L705.583 217.934L710.523 216.948L710.131 214.987ZM697.287 217.549L692.347 218.535L692.739 220.496L697.679 219.511L697.287 217.549ZM684.443 220.112L679.503 221.098L679.895 223.059L684.835 222.074L684.443 220.112ZM671.599 222.675L666.659 223.661L667.051 225.622L671.991 224.636L671.599 222.675ZM658.755 225.238L656.285 225.731L656.677 227.692L659.147 227.199L658.755 225.238Z" fill="#C3D0E4"/>
<path d="M646.921 385.856C646.883 386.129 647.074 386.382 647.347 386.42L651.805 387.039C652.078 387.077 652.331 386.886 652.369 386.613C652.407 386.339 652.216 386.087 651.942 386.049L647.98 385.498L648.531 381.536C648.569 381.263 648.378 381.01 648.105 380.972C647.831 380.934 647.579 381.125 647.541 381.398L646.921 385.856ZM736.065 318.288L734.165 319.724L734.768 320.522L736.668 319.085L736.065 318.288ZM728.082 324.322L724.281 327.195L724.884 327.993L728.685 325.12L728.082 324.322ZM718.199 331.793L714.398 334.666L715.001 335.464L718.802 332.59L718.199 331.793ZM708.316 339.264L704.514 342.137L705.117 342.935L708.919 340.061L708.316 339.264ZM698.432 346.734L694.631 349.608L695.234 350.406L699.035 347.532L698.432 346.734ZM688.549 354.205L684.748 357.079L685.351 357.876L689.152 355.003L688.549 354.205ZM678.666 361.676L674.864 364.55L675.467 365.347L679.269 362.474L678.666 361.676ZM668.782 369.147L664.981 372.021L665.584 372.818L669.385 369.945L668.782 369.147ZM658.899 376.618L655.098 379.491L655.701 380.289L659.502 377.416L658.899 376.618ZM649.015 384.089L647.115 385.526L647.718 386.323L649.618 384.887L649.015 384.089ZM646.426 385.787C646.35 386.334 646.732 386.839 647.279 386.915L656.193 388.154C656.74 388.23 657.245 387.848 657.321 387.301C657.397 386.754 657.015 386.249 656.468 386.173L648.544 385.072L649.646 377.148C649.722 376.601 649.34 376.096 648.793 376.02C648.246 375.944 647.741 376.325 647.665 376.872L646.426 385.787ZM735.764 317.889L733.863 319.325L735.069 320.921L736.97 319.484L735.764 317.889ZM727.781 323.923L723.98 326.796L725.186 328.392L728.987 325.518L727.781 323.923ZM717.898 331.394L714.096 334.267L715.302 335.863L719.104 332.989L717.898 331.394ZM708.014 338.865L704.213 341.738L705.419 343.334L709.22 340.46L708.014 338.865ZM698.131 346.336L694.33 349.209L695.536 350.804L699.337 347.931L698.131 346.336ZM688.247 353.806L684.446 356.68L685.652 358.275L689.453 355.402L688.247 353.806ZM678.364 361.277L674.563 364.151L675.769 365.746L679.57 362.873L678.364 361.277ZM668.481 368.748L664.679 371.622L665.885 373.217L669.687 370.344L668.481 368.748ZM658.597 376.219L654.796 379.093L656.002 380.688L659.803 377.815L658.597 376.219ZM648.714 383.69L646.813 385.127L648.019 386.722L649.92 385.285L648.714 383.69Z" fill="#C3D0E4"/>
<path d="M752.994 301.801C752.89 302.057 753.014 302.348 753.27 302.452L757.443 304.137C757.699 304.24 757.99 304.117 758.094 303.861C758.197 303.605 758.073 303.313 757.817 303.21L754.108 301.712L755.606 298.003C755.71 297.747 755.586 297.456 755.33 297.352C755.074 297.249 754.782 297.372 754.679 297.628L752.994 301.801ZM885.702 245.289L883.386 246.272L883.777 247.192L886.092 246.209L885.702 245.289ZM875.977 249.418L871.346 251.385L871.737 252.305L876.368 250.339L875.977 249.418ZM863.937 254.531L859.306 256.497L859.697 257.418L864.328 255.451L863.937 254.531ZM851.897 259.644L847.266 261.61L847.657 262.53L852.288 260.564L851.897 259.644ZM839.857 264.756L835.226 266.723L835.617 267.643L840.248 265.677L839.857 264.756ZM827.817 269.869L823.186 271.835L823.577 272.756L828.208 270.789L827.817 269.869ZM815.777 274.982L811.146 276.948L811.537 277.868L816.168 275.902L815.777 274.982ZM803.737 280.094L799.106 282.061L799.497 282.981L804.128 281.015L803.737 280.094ZM791.697 285.207L787.066 287.173L787.457 288.094L792.088 286.127L791.697 285.207ZM779.657 290.32L775.026 292.286L775.417 293.206L780.048 291.24L779.657 290.32ZM767.617 295.432L762.987 297.399L763.377 298.319L768.008 296.353L767.617 295.432ZM755.577 300.545L753.262 301.528L753.653 302.449L755.968 301.465L755.577 300.545ZM752.53 301.614C752.323 302.126 752.571 302.709 753.083 302.916L761.428 306.286C761.94 306.493 762.523 306.245 762.73 305.733C762.937 305.221 762.689 304.638 762.177 304.431L754.759 301.436L757.755 294.018C757.962 293.506 757.714 292.923 757.202 292.716C756.69 292.509 756.107 292.757 755.9 293.269L752.53 301.614ZM885.506 244.829L883.191 245.812L883.972 247.653L886.288 246.669L885.506 244.829ZM875.782 248.958L871.151 250.924L871.932 252.765L876.563 250.799L875.782 248.958ZM863.742 254.071L859.111 256.037L859.893 257.878L864.523 255.912L863.742 254.071ZM851.702 259.183L847.071 261.15L847.853 262.991L852.483 261.024L851.702 259.183ZM839.662 264.296L835.031 266.262L835.813 268.103L840.443 266.137L839.662 264.296ZM827.622 269.409L822.991 271.375L823.773 273.216L828.403 271.25L827.622 269.409ZM815.582 274.521L810.951 276.488L811.733 278.329L816.363 276.362L815.582 274.521ZM803.542 279.634L798.911 281.6L799.693 283.441L804.323 281.475L803.542 279.634ZM791.502 284.747L786.871 286.713L787.653 288.554L792.283 286.588L791.502 284.747ZM779.462 289.859L774.831 291.826L775.613 293.667L780.244 291.7L779.462 289.859ZM767.422 294.972L762.791 296.938L763.573 298.779L768.204 296.813L767.422 294.972ZM755.382 300.085L753.066 301.068L753.848 302.909L756.164 301.926L755.382 300.085Z" fill="#C3D0E4"/>
<path d="M410.434 251.894C410.382 252.165 410.559 252.427 410.83 252.479L415.25 253.328C415.521 253.38 415.783 253.203 415.835 252.932C415.887 252.66 415.71 252.398 415.438 252.346L411.51 251.592L412.265 247.663C412.317 247.392 412.139 247.13 411.868 247.078C411.597 247.026 411.335 247.204 411.283 247.475L410.434 251.894ZM505.94 186.995L503.904 188.375L504.465 189.203L506.501 187.823L505.94 186.995ZM497.388 192.791L493.316 195.551L493.877 196.378L497.949 193.619L497.388 192.791ZM486.8 199.966L482.727 202.726L483.288 203.554L487.361 200.794L486.8 199.966ZM476.211 207.142L472.139 209.902L472.7 210.729L476.772 207.97L476.211 207.142ZM465.623 214.317L461.55 217.077L462.111 217.905L466.184 215.145L465.623 214.317ZM455.034 221.493L450.962 224.252L451.523 225.08L455.595 222.32L455.034 221.493ZM444.446 228.668L440.373 231.428L440.934 232.256L445.007 229.496L444.446 228.668ZM433.857 235.844L429.785 238.603L430.346 239.431L434.418 236.671L433.857 235.844ZM423.269 243.019L419.197 245.779L419.757 246.607L423.83 243.847L423.269 243.019ZM412.681 250.194L410.644 251.574L411.205 252.402L413.242 251.022L412.681 250.194ZM409.943 251.8C409.839 252.342 410.194 252.866 410.736 252.97L419.574 254.668C420.117 254.773 420.641 254.417 420.745 253.875C420.849 253.333 420.494 252.809 419.952 252.704L412.096 251.195L413.605 243.339C413.709 242.796 413.354 242.272 412.812 242.168C412.269 242.064 411.745 242.419 411.641 242.961L409.943 251.8ZM505.66 186.581L503.623 187.961L504.745 189.617L506.782 188.237L505.66 186.581ZM497.108 192.377L493.035 195.137L494.157 196.792L498.229 194.033L497.108 192.377ZM486.519 199.552L482.447 202.312L483.569 203.968L487.641 201.208L486.519 199.552ZM475.931 206.728L471.858 209.488L472.98 211.143L477.053 208.383L475.931 206.728ZM465.342 213.903L461.27 216.663L462.392 218.319L466.464 215.559L465.342 213.903ZM454.754 221.079L450.681 223.839L451.803 225.494L455.876 222.734L454.754 221.079ZM444.165 228.254L440.093 231.014L441.215 232.67L445.287 229.91L444.165 228.254ZM433.577 235.43L429.504 238.189L430.626 239.845L434.699 237.085L433.577 235.43ZM422.988 242.605L418.916 245.365L420.038 247.021L424.11 244.261L422.988 242.605ZM412.4 249.781L410.364 251.16L411.486 252.816L413.522 251.436L412.4 249.781Z" fill="#C3D0E4"/>
<path d="M415.429 265.818C415.27 266.043 415.323 266.355 415.549 266.515L419.223 269.112C419.449 269.272 419.761 269.218 419.92 268.993C420.08 268.767 420.026 268.455 419.801 268.296L416.534 265.987L418.843 262.72C419.003 262.495 418.949 262.183 418.724 262.023C418.498 261.864 418.186 261.918 418.027 262.143L415.429 265.818ZM636.578 227.7L634.079 228.128L634.249 229.114L636.747 228.685L636.578 227.7ZM626.086 229.501L621.09 230.359L621.259 231.344L626.255 230.487L626.086 229.501ZM613.096 231.731L608.1 232.589L608.269 233.575L613.265 232.717L613.096 231.731ZM600.106 233.961L595.11 234.819L595.28 235.805L600.276 234.947L600.106 233.961ZM587.117 236.192L582.121 237.049L582.29 238.035L587.286 237.177L587.117 236.192ZM574.127 238.422L569.131 239.28L569.3 240.265L574.296 239.407L574.127 238.422ZM561.137 240.652L556.141 241.51L556.311 242.495L561.307 241.638L561.137 240.652ZM548.148 242.882L543.152 243.74L543.321 244.726L548.317 243.868L548.148 242.882ZM535.158 245.113L530.162 245.97L530.331 246.956L535.327 246.098L535.158 245.113ZM522.168 247.343L517.172 248.201L517.342 249.186L522.338 248.328L522.168 247.343ZM509.179 249.573L504.183 250.431L504.352 251.416L509.348 250.559L509.179 249.573ZM496.189 251.803L491.193 252.661L491.362 253.647L496.358 252.789L496.189 251.803ZM483.199 254.033L478.203 254.891L478.373 255.877L483.369 255.019L483.199 254.033ZM470.21 256.264L465.214 257.121L465.383 258.107L470.379 257.249L470.21 256.264ZM457.22 258.494L452.224 259.352L452.393 260.337L457.389 259.479L457.22 258.494ZM444.23 260.724L439.234 261.582L439.403 262.567L444.4 261.71L444.23 260.724ZM431.241 262.954L426.245 263.812L426.414 264.798L431.41 263.94L431.241 262.954ZM418.251 265.185L415.753 265.613L415.922 266.599L418.42 266.17L418.251 265.185ZM415.021 265.529C414.702 265.98 414.809 266.604 415.26 266.923L422.609 272.118C423.06 272.437 423.684 272.33 424.003 271.879C424.322 271.428 424.215 270.804 423.764 270.485L417.231 265.867L421.849 259.334C422.168 258.883 422.061 258.259 421.61 257.941C421.159 257.622 420.535 257.729 420.216 258.18L415.021 265.529ZM636.493 227.207L633.995 227.636L634.333 229.607L636.831 229.178L636.493 227.207ZM626.001 229.008L621.005 229.866L621.344 231.837L626.34 230.979L626.001 229.008ZM613.012 231.238L608.016 232.096L608.354 234.067L613.35 233.21L613.012 231.238ZM600.022 233.469L595.026 234.326L595.364 236.298L600.36 235.44L600.022 233.469ZM587.032 235.699L582.036 236.557L582.375 238.528L587.371 237.67L587.032 235.699ZM574.043 237.929L569.046 238.787L569.385 240.758L574.381 239.9L574.043 237.929ZM561.053 240.159L556.057 241.017L556.395 242.988L561.391 242.13L561.053 240.159ZM548.063 242.389L543.067 243.247L543.406 245.218L548.402 244.361L548.063 242.389ZM535.073 244.62L530.077 245.478L530.416 247.449L535.412 246.591L535.073 244.62ZM522.084 246.85L517.088 247.708L517.426 249.679L522.422 248.821L522.084 246.85ZM509.094 249.08L504.098 249.938L504.436 251.909L509.433 251.051L509.094 249.08ZM496.104 251.31L491.108 252.168L491.447 254.139L496.443 253.282L496.104 251.31ZM483.115 253.541L478.119 254.398L478.457 256.37L483.453 255.512L483.115 253.541ZM470.125 255.771L465.129 256.629L465.467 258.6L470.463 257.742L470.125 255.771ZM457.135 258.001L452.139 258.859L452.478 260.83L457.474 259.972L457.135 258.001ZM444.146 260.231L439.15 261.089L439.488 263.06L444.484 262.202L444.146 260.231ZM431.156 262.462L426.16 263.319L426.498 265.29L431.494 264.433L431.156 262.462ZM418.166 264.692L415.668 265.121L416.007 267.092L418.505 266.663L418.166 264.692Z" fill="#C3D0E4"/>
<path d="M503.526 345.346C503.475 345.618 503.653 345.879 503.925 345.93L508.348 346.76C508.619 346.811 508.88 346.633 508.931 346.361C508.982 346.09 508.803 345.828 508.532 345.778L504.601 345.039L505.339 341.108C505.39 340.837 505.211 340.575 504.94 340.524C504.668 340.474 504.407 340.652 504.356 340.924L503.526 345.346ZM576.176 295.486L574.186 296.847L574.75 297.672L576.74 296.311L576.176 295.486ZM567.817 301.202L563.837 303.924L564.401 304.749L568.382 302.027L567.817 301.202ZM557.468 308.279L553.488 311.001L554.053 311.826L558.033 309.104L557.468 308.279ZM547.12 315.356L543.14 318.078L543.704 318.904L547.684 316.182L547.12 315.356ZM536.771 322.433L532.791 325.155L533.355 325.981L537.336 323.259L536.771 322.433ZM526.422 329.511L522.442 332.233L523.007 333.058L526.987 330.336L526.422 329.511ZM516.074 336.588L512.093 339.31L512.658 340.135L516.638 337.413L516.074 336.588ZM505.725 343.665L503.735 345.026L504.299 345.851L506.289 344.49L505.725 343.665ZM503.034 345.254C502.932 345.797 503.29 346.32 503.833 346.421L512.678 348.082C513.221 348.184 513.743 347.827 513.845 347.284C513.947 346.741 513.59 346.218 513.047 346.116L505.184 344.64L506.661 336.778C506.762 336.235 506.405 335.712 505.862 335.61C505.319 335.508 504.797 335.866 504.695 336.409L503.034 345.254ZM575.894 295.073L573.903 296.434L575.032 298.085L577.023 296.724L575.894 295.073ZM567.535 300.789L563.555 303.511L564.684 305.162L568.664 302.44L567.535 300.789ZM557.186 307.866L553.206 310.588L554.335 312.239L558.315 309.517L557.186 307.866ZM546.838 314.944L542.857 317.665L543.986 319.316L547.967 316.594L546.838 314.944ZM536.489 322.021L532.509 324.743L533.638 326.394L537.618 323.672L536.489 322.021ZM526.14 329.098L522.16 331.82L523.289 333.471L527.269 330.749L526.14 329.098ZM515.791 336.175L511.811 338.897L512.94 340.548L516.92 337.826L515.791 336.175ZM505.443 343.252L503.453 344.613L504.582 346.264L506.572 344.903L505.443 343.252Z" fill="#C3D0E4"/>
<path d="M407.187 423.611C407.016 423.828 407.053 424.143 407.27 424.313L410.806 427.096C411.023 427.267 411.338 427.23 411.509 427.013C411.679 426.796 411.642 426.481 411.425 426.311L408.282 423.837L410.756 420.694C410.926 420.477 410.889 420.162 410.672 419.991C410.455 419.821 410.141 419.858 409.97 420.075L407.187 423.611ZM626.245 397.36L623.771 397.655L623.889 398.648L626.363 398.353L626.245 397.36ZM615.853 398.598L610.905 399.188L611.023 400.181L615.971 399.591L615.853 398.598ZM602.987 400.131L598.038 400.721L598.157 401.714L603.105 401.124L602.987 400.131ZM590.121 401.665L585.172 402.254L585.291 403.247L590.239 402.658L590.121 401.665ZM577.255 403.198L572.306 403.788L572.424 404.78L577.373 404.191L577.255 403.198ZM564.389 404.731L559.44 405.321L559.558 406.314L564.507 405.724L564.389 404.731ZM551.522 406.264L546.574 406.854L546.692 407.847L551.641 407.257L551.522 406.264ZM538.656 407.797L533.708 408.387L533.826 409.38L538.775 408.79L538.656 407.797ZM525.79 409.331L520.842 409.92L520.96 410.913L525.908 410.324L525.79 409.331ZM512.924 410.864L507.975 411.453L508.094 412.446L513.042 411.857L512.924 410.864ZM500.058 412.397L495.109 412.987L495.228 413.98L500.176 413.39L500.058 412.397ZM487.192 413.93L482.243 414.52L482.361 415.513L487.31 414.923L487.192 413.93ZM474.325 415.463L469.377 416.053L469.495 417.046L474.444 416.456L474.325 415.463ZM461.459 416.996L456.511 417.586L456.629 418.579L461.578 417.989L461.459 416.996ZM448.593 418.53L443.645 419.119L443.763 420.112L448.711 419.523L448.593 418.53ZM435.727 420.063L430.778 420.652L430.897 421.645L435.845 421.056L435.727 420.063ZM422.861 421.596L417.912 422.186L418.031 423.179L422.979 422.589L422.861 421.596ZM409.995 423.129L407.52 423.424L407.639 424.417L410.113 424.122L409.995 423.129ZM406.794 423.302C406.452 423.736 406.527 424.365 406.961 424.706L414.033 430.273C414.467 430.614 415.096 430.539 415.438 430.105C415.779 429.671 415.704 429.042 415.27 428.701L408.984 423.753L413.932 417.467C414.273 417.033 414.198 416.404 413.764 416.062C413.33 415.721 412.702 415.796 412.36 416.23L406.794 423.302ZM626.186 396.863L623.712 397.158L623.948 399.144L626.423 398.849L626.186 396.863ZM615.794 398.102L610.845 398.691L611.082 400.677L616.031 400.088L615.794 398.102ZM602.928 399.635L597.979 400.225L598.216 402.211L603.164 401.621L602.928 399.635ZM590.062 401.168L585.113 401.758L585.35 403.744L590.298 403.154L590.062 401.168ZM577.196 402.701L572.247 403.291L572.484 405.277L577.432 404.687L577.196 402.701ZM564.329 404.235L559.381 404.824L559.617 406.81L564.566 406.22L564.329 404.235ZM551.463 405.768L546.515 406.357L546.751 408.343L551.7 407.754L551.463 405.768ZM538.597 407.301L533.649 407.891L533.885 409.877L538.834 409.287L538.597 407.301ZM525.731 408.834L520.782 409.424L521.019 411.41L525.968 410.82L525.731 408.834ZM512.865 410.367L507.916 410.957L508.153 412.943L513.101 412.353L512.865 410.367ZM499.999 411.9L495.05 412.49L495.287 414.476L500.235 413.886L499.999 411.9ZM487.132 413.434L482.184 414.023L482.421 416.009L487.369 415.42L487.132 413.434ZM474.266 414.967L469.318 415.556L469.554 417.542L474.503 416.953L474.266 414.967ZM461.4 416.5L456.452 417.09L456.688 419.076L461.637 418.486L461.4 416.5ZM448.534 418.033L443.585 418.623L443.822 420.609L448.771 420.019L448.534 418.033ZM435.668 419.566L430.719 420.156L430.956 422.142L435.904 421.552L435.668 419.566ZM422.802 421.099L417.853 421.689L418.09 423.675L423.038 423.085L422.802 421.099ZM409.935 422.633L407.461 422.927L407.698 424.913L410.172 424.619L409.935 422.633Z" fill="#C3D0E4"/>
<path d="M402.218 409.419C402.159 409.689 402.329 409.956 402.599 410.015L406.994 410.982C407.263 411.042 407.53 410.871 407.589 410.601C407.649 410.332 407.478 410.065 407.209 410.006L403.302 409.146L404.162 405.239C404.221 404.97 404.051 404.703 403.781 404.643C403.511 404.584 403.245 404.755 403.185 405.024L402.218 409.419ZM484.974 356.346L482.99 357.615L483.529 358.457L485.513 357.189L484.974 356.346ZM476.641 361.673L472.673 364.209L473.212 365.052L477.18 362.515L476.641 361.673ZM466.324 368.268L462.356 370.804L462.895 371.647L466.863 369.11L466.324 368.268ZM456.007 374.863L452.039 377.399L452.577 378.242L456.546 375.705L456.007 374.863ZM445.69 381.458L441.722 383.994L442.26 384.837L446.228 382.3L445.69 381.458ZM435.373 388.052L431.404 390.589L431.943 391.431L435.911 388.895L435.373 388.052ZM425.055 394.647L421.087 397.184L421.626 398.026L425.594 395.49L425.055 394.647ZM414.738 401.242L410.77 403.779L411.309 404.621L415.277 402.085L414.738 401.242ZM404.421 407.837L402.437 409.105L402.976 409.948L404.96 408.68L404.421 407.837ZM401.73 409.312C401.611 409.851 401.952 410.384 402.491 410.503L411.281 412.438C411.82 412.556 412.354 412.215 412.473 411.676C412.591 411.137 412.25 410.603 411.711 410.485L403.898 408.765L405.617 400.952C405.736 400.413 405.395 399.879 404.856 399.76C404.316 399.642 403.783 399.983 403.664 400.522L401.73 409.312ZM484.705 355.925L482.721 357.193L483.798 358.878L485.782 357.61L484.705 355.925ZM476.372 361.252L472.404 363.788L473.481 365.473L477.449 362.937L476.372 361.252ZM466.055 367.847L462.087 370.383L463.164 372.068L467.132 369.532L466.055 367.847ZM455.738 374.441L451.769 376.978L452.847 378.663L456.815 376.127L455.738 374.441ZM445.42 381.036L441.452 383.573L442.529 385.258L446.498 382.721L445.42 381.036ZM435.103 387.631L431.135 390.168L432.212 391.853L436.18 389.316L435.103 387.631ZM424.786 394.226L420.818 396.762L421.895 398.448L425.863 395.911L424.786 394.226ZM414.469 400.821L410.501 403.357L411.578 405.043L415.546 402.506L414.469 400.821ZM404.152 407.416L402.168 408.684L403.245 410.369L405.229 409.101L404.152 407.416Z" fill="#C3D0E4"/>
<path d="M255.17 348.813C255.094 349.079 255.249 349.355 255.514 349.431L259.843 350.659C260.109 350.735 260.386 350.58 260.461 350.315C260.536 350.049 260.382 349.773 260.116 349.697L256.268 348.605L257.36 344.757C257.436 344.491 257.282 344.215 257.016 344.14C256.75 344.064 256.474 344.218 256.398 344.484L255.17 348.813ZM395.253 270.496L393.012 271.746L393.5 272.62L395.741 271.369L395.253 270.496ZM385.841 275.747L381.358 278.248L381.846 279.121L386.328 276.62L385.841 275.747ZM374.187 282.249L369.705 284.749L370.192 285.622L374.674 283.122L374.187 282.249ZM362.533 288.75L358.051 291.251L358.538 292.124L363.02 289.623L362.533 288.75ZM350.879 295.251L346.397 297.752L346.884 298.625L351.366 296.125L350.879 295.251ZM339.225 301.753L334.743 304.253L335.23 305.127L339.713 302.626L339.225 301.753ZM327.571 308.254L323.089 310.755L323.576 311.628L328.059 309.128L327.571 308.254ZM315.918 314.756L311.435 317.256L311.923 318.129L316.405 315.629L315.918 314.756ZM304.264 321.257L299.782 323.758L300.269 324.631L304.751 322.13L304.264 321.257ZM292.61 327.758L288.128 330.259L288.615 331.132L293.097 328.632L292.61 327.758ZM280.956 334.26L276.474 336.76L276.961 337.634L281.443 335.133L280.956 334.26ZM269.302 340.761L264.82 343.262L265.307 344.135L269.789 341.635L269.302 340.761ZM257.648 347.263L255.407 348.513L255.894 349.386L258.136 348.136L257.648 347.263ZM254.689 348.677C254.538 349.208 254.847 349.761 255.378 349.912L264.036 352.369C264.567 352.52 265.12 352.211 265.271 351.68C265.422 351.149 265.113 350.596 264.582 350.445L256.886 348.261L259.07 340.565C259.221 340.033 258.912 339.48 258.381 339.33C257.85 339.179 257.297 339.487 257.146 340.019L254.689 348.677ZM395.01 270.059L392.769 271.31L393.743 273.056L395.984 271.806L395.01 270.059ZM385.597 275.31L381.115 277.811L382.089 279.558L386.572 277.057L385.597 275.31ZM373.943 281.812L369.461 284.312L370.435 286.059L374.918 283.558L373.943 281.812ZM362.289 288.313L357.807 290.814L358.782 292.56L363.264 290.06L362.289 288.313ZM350.636 294.815L346.153 297.315L347.128 299.062L351.61 296.561L350.636 294.815ZM338.982 301.316L334.499 303.817L335.474 305.563L339.956 303.063L338.982 301.316ZM327.328 307.818L322.846 310.318L323.82 312.065L328.302 309.564L327.328 307.818ZM315.674 314.319L311.192 316.82L312.166 318.566L316.648 316.066L315.674 314.319ZM304.02 320.82L299.538 323.321L300.512 325.068L304.995 322.567L304.02 320.82ZM292.366 327.322L287.884 329.822L288.858 331.569L293.341 329.068L292.366 327.322ZM280.712 333.823L276.23 336.324L277.205 338.07L281.687 335.57L280.712 333.823ZM269.059 340.325L264.576 342.825L265.551 344.572L270.033 342.071L269.059 340.325ZM257.405 346.826L255.164 348.076L256.138 349.823L258.379 348.573L257.405 346.826Z" fill="#C3D0E4"/>
<path d="M160.598 411.61C160.389 411.791 160.366 412.107 160.547 412.315L163.491 415.718C163.672 415.927 163.988 415.95 164.196 415.769C164.405 415.589 164.428 415.273 164.247 415.064L161.63 412.039L164.655 409.422C164.864 409.241 164.887 408.926 164.706 408.717C164.525 408.508 164.209 408.485 164.001 408.666L160.598 411.61ZM385.62 427.721L383.079 427.537L383.007 428.535L385.548 428.718L385.62 427.721ZM374.946 426.95L369.863 426.583L369.791 427.58L374.874 427.947L374.946 426.95ZM361.731 425.995L356.648 425.628L356.576 426.625L361.659 426.992L361.731 425.995ZM348.516 425.04L343.433 424.673L343.361 425.67L348.444 426.038L348.516 425.04ZM335.3 424.085L330.218 423.718L330.146 424.716L335.228 425.083L335.3 424.085ZM322.085 423.131L317.002 422.763L316.93 423.761L322.013 424.128L322.085 423.131ZM308.87 422.176L303.787 421.809L303.715 422.806L308.798 423.173L308.87 422.176ZM295.655 421.221L290.572 420.854L290.5 421.851L295.583 422.219L295.655 421.221ZM282.439 420.266L277.357 419.899L277.285 420.896L282.367 421.264L282.439 420.266ZM269.224 419.312L264.141 418.944L264.069 419.942L269.152 420.309L269.224 419.312ZM256.009 418.357L250.926 417.99L250.854 418.987L255.937 419.354L256.009 418.357ZM242.794 417.402L237.711 417.035L237.639 418.032L242.722 418.399L242.794 417.402ZM229.578 416.447L224.496 416.08L224.424 417.077L229.506 417.445L229.578 416.447ZM216.363 415.492L211.28 415.125L211.208 416.123L216.291 416.49L216.363 415.492ZM203.148 414.538L198.065 414.17L197.993 415.168L203.076 415.535L203.148 414.538ZM189.933 413.583L184.85 413.216L184.778 414.213L189.861 414.58L189.933 413.583ZM176.717 412.628L171.635 412.261L171.563 413.258L176.645 413.625L176.717 412.628ZM163.502 411.673L160.961 411.49L160.889 412.487L163.43 412.671L163.502 411.673ZM160.27 411.232C159.853 411.593 159.807 412.225 160.169 412.643L166.057 419.449C166.419 419.866 167.05 419.912 167.468 419.551C167.886 419.189 167.931 418.558 167.57 418.14L162.335 412.09L168.385 406.856C168.803 406.494 168.848 405.863 168.487 405.445C168.126 405.027 167.494 404.982 167.076 405.343L160.27 411.232ZM385.656 427.222L383.115 427.039L382.971 429.034L385.512 429.217L385.656 427.222ZM374.982 426.451L369.899 426.084L369.755 428.079L374.838 428.446L374.982 426.451ZM361.767 425.496L356.684 425.129L356.54 427.124L361.623 427.491L361.767 425.496ZM348.552 424.542L343.469 424.174L343.325 426.169L348.408 426.536L348.552 424.542ZM335.336 423.587L330.254 423.22L330.11 425.214L335.192 425.582L335.336 423.587ZM322.121 422.632L317.038 422.265L316.894 424.26L321.977 424.627L322.121 422.632ZM308.906 421.677L303.823 421.31L303.679 423.305L308.762 423.672L308.906 421.677ZM295.691 420.722L290.608 420.355L290.464 422.35L295.547 422.717L295.691 420.722ZM282.475 419.768L277.393 419.4L277.249 421.395L282.331 421.762L282.475 419.768ZM269.26 418.813L264.177 418.446L264.033 420.44L269.116 420.808L269.26 418.813ZM256.045 417.858L250.962 417.491L250.818 419.486L255.901 419.853L256.045 417.858ZM242.83 416.903L237.747 416.536L237.603 418.531L242.686 418.898L242.83 416.903ZM229.614 415.948L224.532 415.581L224.388 417.576L229.47 417.943L229.614 415.948ZM216.399 414.994L211.316 414.626L211.172 416.621L216.255 416.988L216.399 414.994ZM203.184 414.039L198.101 413.672L197.957 415.666L203.04 416.034L203.184 414.039ZM189.969 413.084L184.886 412.717L184.742 414.712L189.825 415.079L189.969 413.084ZM176.753 412.129L171.671 411.762L171.527 413.757L176.609 414.124L176.753 412.129ZM163.538 411.174L160.997 410.991L160.853 412.986L163.394 413.169L163.538 411.174Z" fill="#C3D0E4"/>
<path d="M125.927 146.959C125.624 147.421 125.754 148.041 126.216 148.343L133.747 153.271C134.209 153.573 134.829 153.444 135.132 152.981C135.434 152.519 135.304 151.9 134.842 151.597L128.148 147.217L132.528 140.523C132.83 140.061 132.7 139.441 132.238 139.138C131.776 138.836 131.156 138.966 130.854 139.428L125.927 146.959ZM225.694 125.808L126.559 146.528L126.968 148.485L226.104 127.766L225.694 125.808Z" fill="#C3D0E4"/>
<path d="M126.281 162.825C125.738 162.925 125.378 163.446 125.478 163.989L127.104 172.841C127.204 173.384 127.725 173.744 128.268 173.644C128.811 173.544 129.171 173.023 129.071 172.48L127.626 164.611L135.494 163.166C136.037 163.066 136.397 162.545 136.297 162.002C136.197 161.459 135.676 161.099 135.133 161.199L126.281 162.825ZM237.362 239.077L127.029 162.985L125.894 164.632L236.226 240.724L237.362 239.077Z" fill="#C3D0E4"/>
<path d="M136.234 258.089C136.285 258.361 136.547 258.539 136.818 258.488L141.241 257.656C141.512 257.605 141.691 257.343 141.639 257.072C141.588 256.8 141.327 256.622 141.056 256.673L137.125 257.413L136.385 253.482C136.334 253.21 136.072 253.032 135.801 253.083C135.529 253.134 135.351 253.395 135.402 253.667L136.234 258.089ZM225.953 126.505L224.517 128.608L225.342 129.172L226.779 127.069L225.953 126.505ZM219.92 135.337L217.047 139.542L217.872 140.106L220.745 135.901L219.92 135.337ZM212.45 146.271L209.577 150.476L210.402 151.04L213.275 146.835L212.45 146.271ZM204.98 157.205L202.107 161.41L202.932 161.974L205.805 157.769L204.98 157.205ZM197.51 168.139L194.637 172.344L195.462 172.909L198.335 168.703L197.51 168.139ZM190.04 179.073L187.166 183.279L187.992 183.843L190.865 179.637L190.04 179.073ZM182.57 190.007L179.696 194.213L180.522 194.777L183.395 190.571L182.57 190.007ZM175.1 200.941L172.226 205.147L173.052 205.711L175.925 201.506L175.1 200.941ZM167.63 211.875L164.756 216.081L165.582 216.645L168.455 212.44L167.63 211.875ZM160.159 222.81L157.286 227.015L158.112 227.579L160.985 223.374L160.159 222.81ZM152.689 233.744L149.816 237.949L150.642 238.513L153.515 234.308L152.689 233.744ZM145.219 244.678L142.346 248.883L143.172 249.447L146.045 245.242L145.219 244.678ZM137.749 255.612L136.313 257.715L137.139 258.279L138.575 256.176L137.749 255.612ZM135.743 258.182C135.845 258.724 136.368 259.082 136.911 258.979L145.755 257.315C146.298 257.213 146.655 256.69 146.553 256.147C146.451 255.604 145.928 255.247 145.385 255.349L137.523 256.829L136.044 248.967C135.942 248.424 135.419 248.067 134.876 248.169C134.333 248.271 133.976 248.794 134.078 249.337L135.743 258.182ZM225.54 126.223L224.104 128.326L225.755 129.454L227.192 127.352L225.54 126.223ZM219.507 135.055L216.634 139.26L218.285 140.388L221.158 136.183L219.507 135.055ZM212.037 145.989L209.164 150.194L210.815 151.322L213.688 147.117L212.037 145.989ZM204.567 156.923L201.694 161.128L203.345 162.257L206.218 158.051L204.567 156.923ZM197.097 167.857L194.224 172.062L195.875 173.191L198.748 168.985L197.097 167.857ZM189.627 178.791L186.754 182.997L188.405 184.125L191.278 179.919L189.627 178.791ZM182.157 189.725L179.284 193.931L180.935 195.059L183.808 190.853L182.157 189.725ZM174.687 200.659L171.814 204.865L173.465 205.993L176.338 201.788L174.687 200.659ZM167.217 211.593L164.344 215.799L165.995 216.927L168.868 212.722L167.217 211.593ZM159.747 222.528L156.874 226.733L158.525 227.861L161.398 223.656L159.747 222.528ZM152.277 233.462L149.404 237.667L151.055 238.795L153.928 234.59L152.277 233.462ZM144.807 244.396L141.934 248.601L143.585 249.729L146.458 245.524L144.807 244.396ZM137.337 255.33L135.9 257.433L137.551 258.561L138.988 256.458L137.337 255.33Z" fill="#C3D0E4"/>
<path d="M146.855 275.06C146.745 275.313 146.861 275.608 147.114 275.718L151.24 277.516C151.493 277.626 151.787 277.51 151.898 277.257C152.008 277.004 151.892 276.709 151.639 276.599L147.972 275.001L149.569 271.334C149.68 271.081 149.564 270.786 149.311 270.676C149.057 270.566 148.763 270.682 148.653 270.935L146.855 275.06ZM237.078 239.435L234.607 240.406L234.973 241.337L237.444 240.366L237.078 239.435ZM226.699 243.515L221.757 245.458L222.123 246.389L227.065 244.446L226.699 243.515ZM213.85 248.566L208.908 250.509L209.273 251.44L214.216 249.497L213.85 248.566ZM201 253.618L196.058 255.561L196.424 256.491L201.366 254.548L201 253.618ZM188.151 258.669L183.208 260.612L183.574 261.543L188.516 259.6L188.151 258.669ZM175.301 263.72L170.359 265.663L170.725 266.594L175.667 264.651L175.301 263.72ZM162.451 268.772L157.509 270.715L157.875 271.645L162.817 269.703L162.451 268.772ZM149.602 273.823L147.131 274.795L147.497 275.725L149.968 274.754L149.602 273.823ZM146.397 274.861C146.176 275.367 146.408 275.956 146.914 276.177L155.165 279.771C155.672 279.992 156.261 279.76 156.482 279.254C156.702 278.747 156.47 278.158 155.964 277.938L148.63 274.743L151.825 267.408C152.045 266.902 151.814 266.313 151.308 266.092C150.801 265.872 150.212 266.103 149.991 266.61L146.397 274.861ZM236.895 238.97L234.424 239.941L235.156 241.802L237.627 240.831L236.895 238.97ZM226.516 243.05L221.574 244.993L222.306 246.854L227.248 244.911L226.516 243.05ZM213.667 248.101L208.725 250.044L209.456 251.905L214.399 249.962L213.667 248.101ZM200.817 253.152L195.875 255.095L196.607 256.957L201.549 255.014L200.817 253.152ZM187.968 258.204L183.026 260.147L183.757 262.008L188.699 260.065L187.968 258.204ZM175.118 263.255L170.176 265.198L170.908 267.059L175.85 265.116L175.118 263.255ZM162.268 268.307L157.326 270.249L158.058 272.111L163 270.168L162.268 268.307ZM149.419 273.358L146.948 274.329L147.68 276.191L150.151 275.219L149.419 273.358Z" fill="#C3D0E4"/>
<path d="M756.193 615.032C757.957 615.032 759.577 614.276 760.747 613.088L759.469 611.864C758.641 612.764 757.471 613.358 756.193 613.358C753.727 613.358 751.639 611.198 751.639 608.624C751.639 606.068 753.727 603.908 756.193 603.908C757.471 603.908 758.641 604.502 759.469 605.402L760.747 604.178C759.577 602.972 757.957 602.234 756.193 602.234C752.719 602.234 749.767 605.15 749.767 608.624C749.767 612.098 752.719 615.032 756.193 615.032ZM766.931 615.032C769.577 615.032 771.809 612.8 771.809 610.154C771.809 607.508 769.577 605.294 766.931 605.294C764.267 605.294 762.017 607.508 762.017 610.154C762.017 612.8 764.267 615.032 766.931 615.032ZM766.931 613.484C765.221 613.484 763.799 611.972 763.799 610.154C763.799 608.354 765.221 606.842 766.931 606.842C768.605 606.842 770.027 608.354 770.027 610.154C770.027 611.972 768.605 613.484 766.931 613.484ZM778.628 605.294C777.368 605.294 776.234 605.942 775.676 606.86V605.51H773.894V614.816H775.676V608.786C775.82 607.688 776.936 606.842 778.232 606.842C779.492 606.842 780.374 607.814 780.374 609.2V614.816H782.12V608.894C782.12 606.788 780.68 605.294 778.628 605.294ZM787.118 604.484C787.118 603.836 787.55 603.368 788.072 603.368C788.468 603.368 788.828 603.512 789.026 603.71L789.674 602.522C789.17 602.108 788.486 601.856 787.82 601.856C786.38 601.856 785.372 602.9 785.372 604.394V605.51H783.968V607.022H785.372V614.816H787.118V607.022H789.314V605.51H787.118V604.484ZM791.156 614.816H792.92V602.234H791.156V614.816ZM796.397 603.962C796.973 603.962 797.459 603.458 797.459 602.882C797.459 602.324 796.973 601.82 796.397 601.82C795.785 601.82 795.317 602.324 795.317 602.882C795.317 603.458 795.785 603.962 796.397 603.962ZM795.497 614.816H797.279V605.51H795.497V614.816ZM804.249 615.032C805.635 615.032 806.841 614.456 807.741 613.538L806.535 612.44C805.959 613.088 805.131 613.484 804.267 613.484C802.557 613.484 801.153 611.972 801.153 610.154C801.153 608.354 802.557 606.842 804.249 606.842C805.113 606.842 805.923 607.22 806.481 607.85L807.687 606.734C806.805 605.852 805.599 605.294 804.267 605.294C801.603 605.294 799.353 607.508 799.353 610.154C799.353 612.8 801.603 615.032 804.249 615.032ZM814.004 613.142C813.806 613.34 813.446 613.484 813.05 613.484C812.528 613.484 812.096 613.016 812.096 612.368V607.022H814.292V605.51H812.096V602.954H810.35V605.51H808.946V607.022H810.35V612.494C810.35 613.988 811.358 615.032 812.798 615.032C813.464 615.032 814.148 614.78 814.652 614.366L814.004 613.142ZM758.599 624.294C757.159 624.294 756.007 624.978 755.287 626.112V621.234H753.523V633.816H755.287V632.196C756.007 633.348 757.159 634.032 758.599 634.032C761.047 634.032 762.883 632.016 762.883 629.154C762.883 626.31 761.047 624.294 758.599 624.294ZM758.167 632.484C756.493 632.484 755.287 631.098 755.287 629.154C755.287 627.21 756.493 625.842 758.167 625.842C759.877 625.842 761.083 627.21 761.083 629.154C761.083 631.098 759.877 632.484 758.167 632.484ZM771.443 624.51V630.54C771.299 631.638 770.183 632.484 768.887 632.484C767.627 632.484 766.745 631.512 766.745 630.126V624.51H764.999V630.432C764.999 632.538 766.439 634.032 768.491 634.032C769.751 634.032 770.885 633.384 771.443 632.466V633.816H773.225V624.51H771.443ZM780.544 624.294C779.284 624.294 778.15 624.942 777.592 625.86V624.51H775.81V633.816H777.592V627.786C777.736 626.688 778.852 625.842 780.148 625.842C781.408 625.842 782.29 626.814 782.29 628.2V633.816H784.036V627.894C784.036 625.788 782.596 624.294 780.544 624.294ZM793.75 621.234V626.112C793.03 624.978 791.878 624.294 790.438 624.294C787.99 624.294 786.154 626.31 786.154 629.154C786.154 632.016 787.99 634.032 790.438 634.032C791.878 634.032 793.03 633.348 793.75 632.196V633.816H795.514V621.234H793.75ZM790.87 632.484C789.16 632.484 787.954 631.098 787.954 629.154C787.954 627.21 789.16 625.842 790.87 625.842C792.544 625.842 793.75 627.21 793.75 629.154C793.75 631.098 792.544 632.484 790.87 632.484ZM798.187 633.816H799.951V621.234H798.187V633.816ZM806.813 632.448C805.211 632.448 804.077 631.332 803.843 629.784H811.169C811.169 626.454 809.531 624.294 806.687 624.294C804.113 624.294 802.043 626.346 802.043 629.136C802.043 631.998 804.239 634.032 806.831 634.032C808.145 634.032 809.765 633.474 810.593 632.592L809.477 631.44C808.919 632.016 807.785 632.448 806.813 632.448ZM806.759 625.878C808.361 625.878 809.243 626.922 809.441 628.362H803.861C804.149 626.85 805.319 625.878 806.759 625.878Z" fill="#131F37"/>
<circle cx="782.038" cy="574" r="20" fill="#F67367"/>
<path d="M552.44 627.816H554.258V619.014L558.596 627.096L562.934 619.014V627.816H564.752V615.45H562.934L558.596 623.532L554.258 615.45H552.44V627.816ZM568.503 616.962C569.079 616.962 569.565 616.458 569.565 615.882C569.565 615.324 569.079 614.82 568.503 614.82C567.891 614.82 567.423 615.324 567.423 615.882C567.423 616.458 567.891 616.962 568.503 616.962ZM567.603 627.816H569.385V618.51H567.603V627.816ZM571.963 627.816H573.727V615.234H571.963V627.816ZM580.588 626.448C578.986 626.448 577.852 625.332 577.618 623.784H584.944C584.944 620.454 583.306 618.294 580.462 618.294C577.888 618.294 575.818 620.346 575.818 623.136C575.818 625.998 578.014 628.032 580.606 628.032C581.92 628.032 583.54 627.474 584.368 626.592L583.252 625.44C582.694 626.016 581.56 626.448 580.588 626.448ZM580.534 619.878C582.136 619.878 583.018 620.922 583.216 622.362H577.636C577.924 620.85 579.094 619.878 580.534 619.878ZM590.376 628.032C592.41 628.032 593.904 626.916 593.904 625.152C593.904 623.298 592.266 622.794 590.736 622.344C589.17 621.858 588.594 621.642 588.594 620.922C588.594 620.22 589.314 619.824 590.232 619.824C591.042 619.824 591.978 620.13 592.878 620.688L593.67 619.374C592.662 618.708 591.438 618.294 590.232 618.294C588.252 618.294 586.83 619.41 586.848 621.12C586.848 622.632 587.91 623.244 590.052 623.838C591.204 624.162 592.158 624.432 592.158 625.296C592.158 626.016 591.438 626.502 590.394 626.502C589.296 626.502 588.234 626.088 587.244 625.368L586.398 626.646C587.514 627.546 589.008 628.032 590.376 628.032ZM600.33 626.142C600.132 626.34 599.772 626.484 599.376 626.484C598.854 626.484 598.422 626.016 598.422 625.368V620.022H600.618V618.51H598.422V615.954H596.676V618.51H595.272V620.022H596.676V625.494C596.676 626.988 597.684 628.032 599.124 628.032C599.79 628.032 600.474 627.78 600.978 627.366L600.33 626.142ZM607.205 628.032C609.851 628.032 612.083 625.8 612.083 623.154C612.083 620.508 609.851 618.294 607.205 618.294C604.541 618.294 602.291 620.508 602.291 623.154C602.291 625.8 604.541 628.032 607.205 628.032ZM607.205 626.484C605.495 626.484 604.073 624.972 604.073 623.154C604.073 621.354 605.495 619.842 607.205 619.842C608.879 619.842 610.301 621.354 610.301 623.154C610.301 624.972 608.879 626.484 607.205 626.484ZM618.902 618.294C617.642 618.294 616.508 618.942 615.95 619.86V618.51H614.168V627.816H615.95V621.786C616.094 620.688 617.21 619.842 618.506 619.842C619.766 619.842 620.648 620.814 620.648 622.2V627.816H622.394V621.894C622.394 619.788 620.954 618.294 618.902 618.294ZM629.209 626.448C627.607 626.448 626.473 625.332 626.239 623.784H633.565C633.565 620.454 631.927 618.294 629.083 618.294C626.509 618.294 624.439 620.346 624.439 623.136C624.439 625.998 626.635 628.032 629.227 628.032C630.541 628.032 632.161 627.474 632.989 626.592L631.873 625.44C631.315 626.016 630.181 626.448 629.209 626.448ZM629.155 619.878C630.757 619.878 631.639 620.922 631.837 622.362H626.257C626.545 620.85 627.715 619.878 629.155 619.878Z" fill="#131F37"/>
<circle cx="591.104" cy="577" r="20" fill="#FFBF9F"/>
<path d="M389.783 624.184H391.601V613.51H395.669V611.818H385.733V613.51H389.783V624.184ZM399.554 616.66V614.878H397.772V624.184H399.554V618.892C399.716 617.272 401.084 616.21 403.01 616.21V614.662C401.408 614.662 400.148 615.436 399.554 616.66ZM411.156 614.878V620.908C411.012 622.006 409.896 622.852 408.6 622.852C407.34 622.852 406.458 621.88 406.458 620.494V614.878H404.712V620.8C404.712 622.906 406.152 624.4 408.204 624.4C409.464 624.4 410.598 623.752 411.156 622.834V624.184H412.938V614.878H411.156ZM420.257 614.662C418.997 614.662 417.863 615.31 417.305 616.228V614.878H415.523V624.184H417.305V618.154C417.449 617.056 418.565 616.21 419.861 616.21C421.121 616.21 422.003 617.182 422.003 618.568V624.184H423.749V618.262C423.749 616.156 422.309 614.662 420.257 614.662ZM434.759 614.878H432.599L428.045 619.63V611.602H426.281V624.184H428.045V621.79L429.539 620.278L432.455 624.184H434.579L430.745 619.09L434.759 614.878Z" fill="#131F37"/>
<path d="M359.258 575.476C358.868 575.867 358.868 576.5 359.258 576.891L365.622 583.255C366.013 583.645 366.646 583.645 367.036 583.255C367.427 582.864 367.427 582.231 367.036 581.84L361.38 576.184L367.036 570.527C367.427 570.136 367.427 569.503 367.036 569.113C366.646 568.722 366.013 568.722 365.622 569.113L359.258 575.476ZM459.965 575.184H359.965V577.184H459.965V575.184Z" fill="#C3D0E4"/>
<path d="M194.538 624.184H200.64C202.854 624.184 204.438 622.798 204.438 620.818C204.438 619.45 203.61 618.334 202.17 617.632C203.286 617.002 203.934 616.192 203.934 614.896C203.934 613.096 202.476 611.818 200.406 611.818H194.538V624.184ZM196.356 616.966V613.42H199.956C201.198 613.42 202.08 614.176 202.08 615.202C202.08 616.228 201.198 616.966 199.956 616.966H196.356ZM196.356 622.582V618.514H200.226C201.612 618.514 202.584 619.36 202.584 620.548C202.584 621.736 201.612 622.582 200.226 622.582H196.356ZM208.532 616.66V614.878H206.75V624.184H208.532V618.892C208.694 617.272 210.062 616.21 211.988 616.21V614.662C210.386 614.662 209.126 615.436 208.532 616.66ZM217.633 614.662C216.607 614.662 215.437 614.932 214.105 615.598L214.753 616.912C215.563 616.498 216.463 616.138 217.381 616.138C219.235 616.138 219.775 617.38 219.775 618.55V618.838C218.875 618.532 217.885 618.334 216.967 618.334C214.915 618.334 213.241 619.576 213.241 621.43C213.241 623.248 214.699 624.4 216.679 624.4C217.813 624.4 219.091 623.878 219.775 622.906V624.184H221.521V618.55C221.521 616.246 220.135 614.662 217.633 614.662ZM217.021 622.996C215.851 622.996 214.951 622.384 214.951 621.376C214.951 620.368 215.995 619.666 217.237 619.666C218.155 619.666 219.019 619.792 219.775 620.026V621.268C219.469 622.42 218.173 622.996 217.021 622.996ZM228.832 614.662C227.572 614.662 226.438 615.31 225.88 616.228V614.878H224.098V624.184H225.88V618.154C226.024 617.056 227.14 616.21 228.436 616.21C229.696 616.21 230.578 617.182 230.578 618.568V624.184H232.324V618.262C232.324 616.156 230.884 614.662 228.832 614.662ZM239.265 624.4C240.651 624.4 241.857 623.824 242.757 622.906L241.551 621.808C240.975 622.456 240.147 622.852 239.283 622.852C237.573 622.852 236.169 621.34 236.169 619.522C236.169 617.722 237.573 616.21 239.265 616.21C240.129 616.21 240.939 616.588 241.497 617.218L242.703 616.102C241.821 615.22 240.615 614.662 239.283 614.662C236.619 614.662 234.369 616.876 234.369 619.522C234.369 622.168 236.619 624.4 239.265 624.4ZM249.398 614.662C248.12 614.662 246.986 615.328 246.428 616.264V611.602H244.664V624.184H246.428V618.406C246.428 617.2 247.598 616.21 249.002 616.21C250.262 616.21 251.144 617.182 251.144 618.568V624.184H252.89V618.262C252.89 616.156 251.45 614.662 249.398 614.662Z" fill="#131F37"/>
<path d="M173.204 577.975C173.008 578.17 173.008 578.486 173.204 578.682L176.386 581.864C176.581 582.059 176.897 582.059 177.093 581.864C177.288 581.668 177.288 581.352 177.093 581.157L174.264 578.328L177.093 575.5C177.288 575.304 177.288 574.988 177.093 574.793C176.897 574.597 176.581 574.597 176.386 574.793L173.204 577.975ZM273.557 577.828H271.153V578.828H273.557V577.828ZM263.461 577.828H258.653V578.828H263.461V577.828ZM250.961 577.828H246.153V578.828H250.961V577.828ZM238.461 577.828H233.653V578.828H238.461V577.828ZM225.961 577.828H221.153V578.828H225.961V577.828ZM213.461 577.828H208.653V578.828H213.461V577.828ZM200.961 577.828H196.153V578.828H200.961V577.828ZM188.461 577.828H183.653V578.828H188.461V577.828ZM175.961 577.828H173.557V578.828H175.961V577.828ZM172.85 577.621C172.46 578.012 172.46 578.645 172.85 579.035L179.214 585.399C179.605 585.79 180.238 585.79 180.628 585.399C181.019 585.009 181.019 584.376 180.628 583.985L174.971 578.328L180.628 572.671C181.019 572.281 181.019 571.648 180.628 571.257C180.238 570.867 179.605 570.867 179.214 571.257L172.85 577.621ZM273.557 577.328H271.153V579.328H273.557V577.328ZM263.461 577.328H258.653V579.328H263.461V577.328ZM250.961 577.328H246.153V579.328H250.961V577.328ZM238.461 577.328H233.653V579.328H238.461V577.328ZM225.961 577.328H221.153V579.328H225.961V577.328ZM213.461 577.328H208.653V579.328H213.461V577.328ZM200.961 577.328H196.153V579.328H200.961V577.328ZM188.461 577.328H183.653V579.328H188.461V577.328ZM175.961 577.328H173.557V579.328H175.961V577.328Z" fill="#C3D0E4"/>
<circle cx="105.064" cy="155.117" r="15" fill="#4EC2BF"/>
<path d="M109.367 160.81H111.383L106.073 148.444H104.057L98.7466 160.81H100.763L101.843 158.29H108.287L109.367 160.81ZM102.545 156.652L105.065 150.784L107.585 156.652H102.545Z" fill="#131F37"/>
<circle cx="125.861" cy="276.988" r="15" fill="#4EC2BF"/>
<path d="M121.231 282.681H127.333C129.547 282.681 131.131 281.295 131.131 279.315C131.131 277.947 130.303 276.831 128.863 276.129C129.979 275.499 130.627 274.689 130.627 273.393C130.627 271.593 129.169 270.315 127.099 270.315H121.231V282.681ZM123.049 275.463V271.917H126.649C127.891 271.917 128.773 272.673 128.773 273.699C128.773 274.725 127.891 275.463 126.649 275.463H123.049ZM123.049 281.079V277.011H126.919C128.305 277.011 129.277 277.857 129.277 279.045C129.277 280.233 128.305 281.079 126.919 281.079H123.049Z" fill="#131F37"/>
<circle cx="135.989" cy="406.988" r="15" fill="#4EC2BF"/>
<path d="M137.117 412.897C138.881 412.897 140.501 412.141 141.671 410.953L140.393 409.729C139.565 410.629 138.395 411.223 137.117 411.223C134.651 411.223 132.563 409.063 132.563 406.489C132.563 403.933 134.651 401.773 137.117 401.773C138.395 401.773 139.565 402.367 140.393 403.267L141.671 402.043C140.501 400.837 138.881 400.099 137.117 400.099C133.643 400.099 130.691 403.015 130.691 406.489C130.691 409.963 133.643 412.897 137.117 412.897Z" fill="#131F37"/>
<circle cx="225.989" cy="126.988" r="15" fill="#70DDD5"/>
<path d="M220.699 132.681H224.965C228.961 132.681 231.805 130.107 231.805 126.489C231.805 122.871 228.961 120.315 224.965 120.315H220.699V132.681ZM222.517 131.025V121.971H225.073C227.935 121.971 229.933 123.843 229.933 126.489C229.933 129.153 227.935 131.025 225.073 131.025H222.517Z" fill="#131F37"/>
<circle cx="235.989" cy="236.988" r="15" fill="#4EC2BF"/>
<path d="M240.742 232.007V230.315H231.652V242.681H240.742V240.989H233.488V237.227H240.04V235.535H233.488V232.007H240.742Z" fill="#131F37"/>
<circle cx="235.989" cy="356.988" r="15" fill="#4EC2BF"/>
<path d="M240.874 352.007V350.315H231.784V362.681H233.62V357.299H240.172V355.607H233.62V352.007H240.874Z" fill="#131F37"/>
<circle cx="365.989" cy="166.988" r="15" fill="#F67367"/>
<path d="M366.347 167.605H369.659V170.197C368.813 170.845 367.643 171.223 366.599 171.223C364.115 171.223 362.027 169.063 362.027 166.489C362.027 163.933 364.115 161.773 366.599 161.773C367.877 161.773 369.335 162.349 370.181 163.267L371.459 162.043C370.289 160.837 368.345 160.099 366.599 160.099C363.125 160.099 360.155 163.015 360.155 166.489C360.155 169.963 363.125 172.897 366.599 172.897C368.345 172.897 370.289 172.141 371.459 170.953V166.021H366.347V167.605Z" fill="#131F37"/>
<circle cx="505.989" cy="186.988" r="15" fill="#70DDD5"/>
<path d="M505.413 192.897C507.771 192.897 509.427 191.133 509.427 188.649V180.315H507.609V188.577C507.609 190.143 506.655 191.241 505.323 191.241C504.279 191.241 503.217 190.557 502.767 189.603L501.489 190.845C502.281 192.051 503.901 192.897 505.413 192.897Z" fill="#131F37"/>
<circle cx="615.989" cy="116.988" r="15" fill="#70DDD5"/>
<path d="M613.941 120.989V110.315H612.105V122.681H620.493V120.989H613.941Z" fill="#131F37"/>
<circle cx="635.989" cy="226.988" r="15" fill="#70DDD5"/>
<path d="M629.829 232.681H631.647V223.879L635.985 231.961L640.323 223.879V232.681H642.141V220.315H640.323L635.985 228.397L631.647 220.315H629.829V232.681Z" fill="#131F37"/>
<circle cx="575.989" cy="296.988" r="15" fill="#70DDD5"/>
<path d="M570.611 302.681H572.429V293.303L579.539 302.681H581.357V290.315H579.539V299.693L572.429 290.315H570.611V302.681Z" fill="#131F37"/>
<circle cx="625.861" cy="396.988" r="15" fill="#F67367"/>
<path d="M625.874 402.897C629.348 402.897 632.264 399.963 632.264 396.489C632.264 393.015 629.348 390.099 625.874 390.099C622.4 390.099 619.448 393.015 619.448 396.489C619.448 399.963 622.4 402.897 625.874 402.897ZM625.874 401.223C623.408 401.223 621.32 399.063 621.32 396.489C621.32 393.933 623.408 391.773 625.874 391.773C628.34 391.773 630.41 393.933 630.41 396.489C630.41 399.063 628.34 401.223 625.874 401.223Z" fill="#131F37"/>
<circle cx="745.989" cy="206.988" r="15" fill="#70DDD5"/>
<path d="M751.198 204.347C751.198 201.989 749.218 200.315 746.608 200.315H741.406V212.681H743.224V208.379H746.068L749.092 212.681H751.18L748.03 208.199C749.902 207.713 751.198 206.255 751.198 204.347ZM743.224 202.007H746.356C748.138 202.007 749.344 202.889 749.344 204.347C749.344 205.805 748.138 206.687 746.356 206.687H743.224V202.007Z" fill="#131F37"/>
<circle cx="735.989" cy="316.988" r="15" fill="#70DDD5"/>
<path d="M736.186 322.879C739.102 322.879 740.686 321.295 740.686 319.207C740.686 316.993 738.976 316.165 736.51 315.589C734.476 315.103 733.414 314.707 733.414 313.555C733.414 312.565 734.386 311.683 735.772 311.683C737.032 311.683 738.274 312.241 739.318 313.195L740.362 311.827C739.174 310.783 737.752 310.081 735.844 310.081C733.36 310.081 731.56 311.647 731.56 313.717C731.56 315.949 733.234 316.705 735.754 317.299C737.824 317.767 738.85 318.217 738.85 319.387C738.85 320.377 737.968 321.277 736.258 321.277C734.584 321.277 733.288 320.593 732.19 319.549L731.092 320.899C732.406 322.159 734.116 322.879 736.186 322.879Z" fill="#131F37"/>
<circle cx="885.861" cy="246.988" r="15" fill="#FFBF9F"/>
<path d="M890.164 240.315L885.862 250.341L881.56 240.315H879.544L884.854 252.681H886.87L892.18 240.315H890.164Z" fill="#131F37"/>
<circle cx="485.989" cy="356.988" r="15" fill="#70DDD5"/>
<path d="M481.481 362.681H483.299V359.063L485.099 357.137L489.509 362.681H491.795L486.377 355.877L491.453 350.315H489.131L483.299 356.759V350.315H481.481V362.681Z" fill="#131F37"/>
<circle cx="395.861" cy="271.853" r="15" fill="#FFBF9F"/>
<path d="M399.24 265.179V270.399H392.49V265.179H390.672V277.545H392.49V272.091H399.24V277.545H401.058V265.179H399.24Z" fill="#131F37"/>
<circle cx="385.989" cy="426.988" r="15" fill="#70DDD5"/>
<path d="M385.08 432.681H386.898V420.315H385.08V432.681Z" fill="#131F37"/>
</svg>
