<svg width="990" height="681" viewBox="0 0 990 681" fill="none" xmlns="http://www.w3.org/2000/svg">
<circle cx="180" cy="340.602" r="20" fill="#42979F"/>
<path d="M687.414 184.127C687.155 184.224 687.024 184.512 687.12 184.771L688.695 188.986C688.792 189.245 689.08 189.376 689.338 189.28C689.597 189.183 689.728 188.895 689.632 188.636L688.232 184.889L691.979 183.49C692.238 183.393 692.369 183.105 692.273 182.846C692.176 182.588 691.888 182.456 691.629 182.553L687.414 184.127ZM920.207 290.147L917.973 289.127L917.558 290.037L919.793 291.056L920.207 290.147ZM910.822 285.866L906.352 283.827L905.937 284.737L910.407 286.775L910.822 285.866ZM899.201 280.565L894.732 278.527L894.317 279.437L898.786 281.475L899.201 280.565ZM887.581 275.265L883.111 273.227L882.696 274.136L887.166 276.175L887.581 275.265ZM875.96 269.965L871.491 267.926L871.076 268.836L875.545 270.875L875.96 269.965ZM864.339 264.665L859.87 262.626L859.455 263.536L863.924 265.574L864.339 264.665ZM852.719 259.364L848.249 257.326L847.834 258.235L852.304 260.274L852.719 259.364ZM841.098 254.064L836.629 252.025L836.214 252.935L840.683 254.974L841.098 254.064ZM829.478 248.764L825.008 246.725L824.593 247.635L829.063 249.673L829.478 248.764ZM817.857 243.463L813.388 241.425L812.973 242.335L817.442 244.373L817.857 243.463ZM806.237 238.163L801.767 236.125L801.352 237.034L805.822 239.073L806.237 238.163ZM794.616 232.863L790.147 230.824L789.732 231.734L794.201 233.773L794.616 232.863ZM782.995 227.563L778.526 225.524L778.111 226.434L782.58 228.472L782.995 227.563ZM771.375 222.262L766.905 220.224L766.49 221.133L770.96 223.172L771.375 222.262ZM759.754 216.962L755.285 214.923L754.87 215.833L759.339 217.872L759.754 216.962ZM748.134 211.662L743.664 209.623L743.249 210.533L747.719 212.572L748.134 211.662ZM736.513 206.361L732.044 204.323L731.629 205.233L736.098 207.271L736.513 206.361ZM724.893 201.061L720.423 199.023L720.008 199.932L724.478 201.971L724.893 201.061ZM713.272 195.761L708.803 193.722L708.388 194.632L712.857 196.671L713.272 195.761ZM701.652 190.461L697.182 188.422L696.767 189.332L701.237 191.37L701.652 190.461ZM690.031 185.16L687.796 184.141L687.381 185.051L689.616 186.07L690.031 185.16ZM687.239 183.659C686.721 183.852 686.459 184.428 686.652 184.946L689.801 193.377C689.994 193.894 690.57 194.157 691.088 193.964C691.605 193.77 691.868 193.194 691.675 192.677L688.875 185.183L696.37 182.383C696.887 182.19 697.15 181.614 696.957 181.097C696.763 180.579 696.187 180.317 695.67 180.51L687.239 183.659ZM920.415 289.692L918.18 288.672L917.35 290.492L919.585 291.511L920.415 289.692ZM911.029 285.411L906.56 283.372L905.73 285.192L910.199 287.23L911.029 285.411ZM899.409 280.11L894.939 278.072L894.109 279.892L898.579 281.93L899.409 280.11ZM887.788 274.81L883.319 272.772L882.489 274.591L886.958 276.63L887.788 274.81ZM876.167 269.51L871.698 267.471L870.868 269.291L875.337 271.33L876.167 269.51ZM864.547 264.21L860.077 262.171L859.247 263.991L863.717 266.029L864.547 264.21ZM852.926 258.909L848.457 256.871L847.627 258.69L852.096 260.729L852.926 258.909ZM841.306 253.609L836.836 251.57L836.006 253.39L840.476 255.429L841.306 253.609ZM829.685 248.309L825.216 246.27L824.386 248.09L828.855 250.128L829.685 248.309ZM818.065 243.008L813.595 240.97L812.765 242.79L817.235 244.828L818.065 243.008ZM806.444 237.708L801.975 235.67L801.145 237.489L805.614 239.528L806.444 237.708ZM794.824 232.408L790.354 230.369L789.524 232.189L793.994 234.228L794.824 232.408ZM783.203 227.108L778.734 225.069L777.904 226.889L782.373 228.927L783.203 227.108ZM771.582 221.807L767.113 219.769L766.283 221.588L770.752 223.627L771.582 221.807ZM759.962 216.507L755.492 214.468L754.662 216.288L759.132 218.327L759.962 216.507ZM748.341 211.207L743.872 209.168L743.042 210.988L747.511 213.026L748.341 211.207ZM736.721 205.906L732.251 203.868L731.421 205.688L735.891 207.726L736.721 205.906ZM725.1 200.606L720.631 198.568L719.801 200.387L724.27 202.426L725.1 200.606ZM713.48 195.306L709.01 193.267L708.18 195.087L712.65 197.126L713.48 195.306ZM701.859 190.006L697.39 187.967L696.56 189.787L701.029 191.825L701.859 190.006ZM690.239 184.705L688.004 183.686L687.174 185.506L689.409 186.525L690.239 184.705Z" fill="#C3D0E4"/>
<path d="M289.754 97.9957C289.525 98.1499 289.464 98.4606 289.619 98.6897L292.132 102.422C292.287 102.651 292.597 102.712 292.826 102.558C293.055 102.403 293.116 102.093 292.962 101.864L290.727 98.5458L294.045 96.3114C294.274 96.1572 294.335 95.8465 294.181 95.6174C294.026 95.3884 293.716 95.3277 293.487 95.482L289.754 97.9957ZM660.096 170.111L657.642 169.632L657.451 170.614L659.904 171.092L660.096 170.111ZM649.792 168.1L644.885 167.143L644.693 168.124L649.6 169.082L649.792 168.1ZM637.034 165.611L632.127 164.653L631.936 165.635L636.843 166.592L637.034 165.611ZM624.277 163.121L619.37 162.164L619.178 163.146L624.085 164.103L624.277 163.121ZM611.519 160.632L606.613 159.675L606.421 160.656L611.328 161.614L611.519 160.632ZM598.762 158.143L593.855 157.185L593.664 158.167L598.57 159.124L598.762 158.143ZM586.004 155.653L581.098 154.696L580.906 155.677L585.813 156.635L586.004 155.653ZM573.247 153.164L568.34 152.207L568.149 153.188L573.055 154.146L573.247 153.164ZM560.489 150.675L555.583 149.717L555.391 150.699L560.298 151.656L560.489 150.675ZM547.732 148.185L542.825 147.228L542.634 148.209L547.54 149.167L547.732 148.185ZM534.974 145.696L530.068 144.739L529.876 145.72L534.783 146.678L534.974 145.696ZM522.217 143.207L517.31 142.249L517.119 143.231L522.025 144.188L522.217 143.207ZM509.459 140.717L504.553 139.76L504.361 140.741L509.268 141.699L509.459 140.717ZM496.702 138.228L491.795 137.271L491.604 138.252L496.511 139.209L496.702 138.228ZM483.945 135.739L479.038 134.781L478.846 135.763L483.753 136.72L483.945 135.739ZM471.187 133.249L466.28 132.292L466.089 133.273L470.996 134.231L471.187 133.249ZM458.43 130.76L453.523 129.802L453.331 130.784L458.238 131.741L458.43 130.76ZM445.672 128.271L440.765 127.313L440.574 128.295L445.481 129.252L445.672 128.271ZM432.915 125.781L428.008 124.824L427.817 125.805L432.723 126.763L432.915 125.781ZM420.157 123.292L415.251 122.334L415.059 123.316L419.966 124.273L420.157 123.292ZM407.4 120.803L402.493 119.845L402.302 120.827L407.208 121.784L407.4 120.803ZM394.642 118.313L389.736 117.356L389.544 118.337L394.451 119.295L394.642 118.313ZM381.885 115.824L376.978 114.866L376.787 115.848L381.693 116.805L381.885 115.824ZM369.127 113.334L364.221 112.377L364.029 113.359L368.936 114.316L369.127 113.334ZM356.37 110.845L351.463 109.888L351.272 110.869L356.178 111.827L356.37 110.845ZM343.612 108.356L338.706 107.398L338.514 108.38L343.421 109.337L343.612 108.356ZM330.855 105.866L325.948 104.909L325.757 105.89L330.663 106.848L330.855 105.866ZM318.097 103.377L313.191 102.42L312.999 103.401L317.906 104.359L318.097 103.377ZM305.34 100.888L300.433 99.9303L300.242 100.912L305.149 101.869L305.34 100.888ZM292.583 98.3984L290.129 97.9196L289.938 98.9011L292.391 99.3799L292.583 98.3984ZM289.475 97.5809C289.017 97.8894 288.895 98.5109 289.204 98.969L294.231 106.434C294.54 106.892 295.161 107.013 295.619 106.705C296.077 106.396 296.199 105.775 295.89 105.317L291.421 98.6812L298.057 94.2125C298.515 93.904 298.636 93.2825 298.328 92.8244C298.019 92.3663 297.398 92.2451 296.94 92.5536L289.475 97.5809ZM660.192 169.62L657.738 169.141L657.355 171.104L659.808 171.583L660.192 169.62ZM649.887 167.609L644.981 166.652L644.598 168.615L649.504 169.572L649.887 167.609ZM637.13 165.12L632.223 164.163L631.84 166.126L636.747 167.083L637.13 165.12ZM624.372 162.631L619.466 161.673L619.083 163.636L623.989 164.594L624.372 162.631ZM611.615 160.141L606.708 159.184L606.325 161.147L611.232 162.104L611.615 160.141ZM598.858 157.652L593.951 156.695L593.568 158.658L598.474 159.615L598.858 157.652ZM586.1 155.163L581.193 154.205L580.81 156.168L585.717 157.126L586.1 155.163ZM573.343 152.673L568.436 151.716L568.053 153.679L572.96 154.636L573.343 152.673ZM560.585 150.184L555.678 149.227L555.295 151.19L560.202 152.147L560.585 150.184ZM547.828 147.695L542.921 146.737L542.538 148.7L547.445 149.658L547.828 147.695ZM535.07 145.205L530.163 144.248L529.78 146.211L534.687 147.168L535.07 145.205ZM522.313 142.716L517.406 141.758L517.023 143.721L521.93 144.679L522.313 142.716ZM509.555 140.227L504.649 139.269L504.266 141.232L509.172 142.19L509.555 140.227ZM496.798 137.737L491.891 136.78L491.508 138.743L496.415 139.7L496.798 137.737ZM484.04 135.248L479.134 134.29L478.751 136.253L483.657 137.211L484.04 135.248ZM471.283 132.759L466.376 131.801L465.993 133.764L470.9 134.722L471.283 132.759ZM458.525 130.269L453.619 129.312L453.236 131.275L458.142 132.232L458.525 130.269ZM445.768 127.78L440.861 126.822L440.478 128.785L445.385 129.743L445.768 127.78ZM433.01 125.29L428.104 124.333L427.721 126.296L432.627 127.253L433.01 125.29ZM420.253 122.801L415.346 121.844L414.963 123.807L419.87 124.764L420.253 122.801ZM407.496 120.312L402.589 119.354L402.206 121.317L407.113 122.275L407.496 120.312ZM394.738 117.822L389.831 116.865L389.448 118.828L394.355 119.785L394.738 117.822ZM381.981 115.333L377.074 114.376L376.691 116.339L381.598 117.296L381.981 115.333ZM369.223 112.844L364.316 111.886L363.933 113.849L368.84 114.807L369.223 112.844ZM356.466 110.354L351.559 109.397L351.176 111.36L356.083 112.317L356.466 110.354ZM343.708 107.865L338.801 106.908L338.418 108.871L343.325 109.828L343.708 107.865ZM330.951 105.376L326.044 104.418L325.661 106.381L330.568 107.339L330.951 105.376ZM318.193 102.886L313.287 101.929L312.903 103.892L317.81 104.849L318.193 102.886ZM305.436 100.397L300.529 99.4395L300.146 101.403L305.053 102.36L305.436 100.397ZM292.678 97.9076L290.225 97.4289L289.842 99.3919L292.295 99.8706L292.678 97.9076Z" fill="#C3D0E4"/>
<path d="M463.82 303.989C463.718 304.532 464.076 305.055 464.619 305.156L473.465 306.814C474.008 306.916 474.53 306.559 474.632 306.016C474.734 305.473 474.376 304.95 473.833 304.849L465.97 303.375L467.444 295.512C467.546 294.969 467.188 294.446 466.645 294.345C466.103 294.243 465.58 294.6 465.478 295.143L463.82 303.989ZM659.435 169.776L464.238 303.348L465.368 304.999L660.565 171.427L659.435 169.776Z" fill="#C3D0E4"/>
<path d="M469.698 325.567C469.478 325.734 469.435 326.047 469.601 326.267L472.316 329.856C472.483 330.076 472.797 330.12 473.017 329.953C473.237 329.786 473.281 329.473 473.114 329.253L470.7 326.063L473.89 323.649C474.11 323.483 474.154 323.169 473.987 322.949C473.821 322.729 473.507 322.685 473.287 322.852L469.698 325.567ZM720.069 360.106L717.538 359.756L717.401 360.746L719.931 361.097L720.069 360.106ZM709.441 358.634L704.38 357.933L704.243 358.923L709.304 359.624L709.441 358.634ZM696.283 356.811L691.222 356.11L691.085 357.1L696.146 357.802L696.283 356.811ZM683.125 354.988L678.065 354.287L677.927 355.277L682.988 355.979L683.125 354.988ZM669.967 353.165L664.907 352.464L664.769 353.455L669.83 354.156L669.967 353.165ZM656.81 351.342L651.749 350.641L651.612 351.632L656.672 352.333L656.81 351.342ZM643.652 349.519L638.591 348.818L638.454 349.809L643.514 350.51L643.652 349.519ZM630.494 347.696L625.433 346.995L625.296 347.986L630.356 348.687L630.494 347.696ZM617.336 345.873L612.275 345.172L612.138 346.163L617.199 346.864L617.336 345.873ZM604.178 344.05L599.117 343.349L598.98 344.34L604.041 345.041L604.178 344.05ZM591.02 342.227L585.959 341.526L585.822 342.517L590.883 343.218L591.02 342.227ZM577.862 340.405L572.801 339.703L572.664 340.694L577.725 341.395L577.862 340.405ZM564.704 338.582L559.644 337.88L559.506 338.871L564.567 339.572L564.704 338.582ZM551.546 336.759L546.486 336.058L546.348 337.048L551.409 337.749L551.546 336.759ZM538.388 334.936L533.328 334.235L533.19 335.225L538.251 335.926L538.388 334.936ZM525.231 333.113L520.17 332.412L520.033 333.402L525.093 334.103L525.231 333.113ZM512.073 331.29L507.012 330.589L506.875 331.579L511.935 332.28L512.073 331.29ZM498.915 329.467L493.854 328.766L493.717 329.756L498.778 330.457L498.915 329.467ZM485.757 327.644L480.696 326.943L480.559 327.933L485.62 328.635L485.757 327.644ZM472.599 325.821L470.069 325.47L469.931 326.461L472.462 326.812L472.599 325.821ZM469.397 325.168C468.956 325.502 468.869 326.129 469.203 326.569L474.633 333.746C474.966 334.187 475.593 334.274 476.034 333.94C476.474 333.607 476.561 332.98 476.228 332.539L471.401 326.16L477.78 321.333C478.221 321 478.308 320.372 477.975 319.932C477.641 319.492 477.014 319.405 476.574 319.738L469.397 325.168ZM720.137 359.611L717.607 359.26L717.332 361.242L719.863 361.592L720.137 359.611ZM709.51 358.139L704.449 357.438L704.175 359.419L709.235 360.12L709.51 358.139ZM696.352 356.316L691.291 355.615L691.017 357.596L696.077 358.297L696.352 356.316ZM683.194 354.493L678.133 353.792L677.859 355.773L682.919 356.474L683.194 354.493ZM670.036 352.67L664.975 351.969L664.701 353.95L669.762 354.651L670.036 352.67ZM656.878 350.847L651.817 350.146L651.543 352.127L656.604 352.828L656.878 350.847ZM643.72 349.024L638.659 348.323L638.385 350.304L643.446 351.005L643.72 349.024ZM630.562 347.201L625.502 346.5L625.227 348.481L630.288 349.182L630.562 347.201ZM617.404 345.378L612.344 344.677L612.069 346.658L617.13 347.359L617.404 345.378ZM604.247 343.555L599.186 342.854L598.911 344.835L603.972 345.536L604.247 343.555ZM591.089 341.732L586.028 341.031L585.753 343.012L590.814 343.713L591.089 341.732ZM577.931 339.909L572.87 339.208L572.596 341.189L577.656 341.89L577.931 339.909ZM564.773 338.086L559.712 337.385L559.438 339.366L564.498 340.067L564.773 338.086ZM551.615 336.263L546.554 335.562L546.28 337.543L551.34 338.244L551.615 336.263ZM538.457 334.44L533.396 333.739L533.122 335.72L538.183 336.422L538.457 334.44ZM525.299 332.618L520.238 331.916L519.964 333.897L525.025 334.599L525.299 332.618ZM512.141 330.795L507.081 330.093L506.806 332.075L511.867 332.776L512.141 330.795ZM498.983 328.972L493.923 328.271L493.648 330.252L498.709 330.953L498.983 328.972ZM485.826 327.149L480.765 326.448L480.49 328.429L485.551 329.13L485.826 327.149ZM472.668 325.326L470.137 324.975L469.863 326.956L472.393 327.307L472.668 325.326Z" fill="#C3D0E4"/>
<path d="M287.338 490.668C287.077 491.155 287.26 491.761 287.747 492.021L295.68 496.271C296.167 496.532 296.773 496.349 297.034 495.862C297.295 495.375 297.111 494.769 296.625 494.509L289.573 490.731L293.35 483.679C293.611 483.192 293.428 482.586 292.941 482.325C292.454 482.064 291.848 482.248 291.588 482.734L287.338 490.668ZM719.711 359.644L287.93 490.183L288.508 492.097L720.289 361.559L719.711 359.644Z" fill="#C3D0E4"/>
<path d="M107.877 219.51C107.633 219.64 107.542 219.943 107.672 220.186L109.793 224.155C109.924 224.398 110.227 224.49 110.47 224.36C110.714 224.23 110.805 223.927 110.675 223.683L108.789 220.156L112.317 218.27C112.561 218.14 112.652 217.837 112.522 217.593C112.392 217.35 112.089 217.258 111.846 217.388L107.877 219.51ZM440.145 320.123L437.781 319.406L437.491 320.363L439.855 321.08L440.145 320.123ZM430.217 317.112L425.489 315.678L425.199 316.635L429.927 318.069L430.217 317.112ZM417.925 313.384L413.197 311.951L412.907 312.908L417.635 314.341L417.925 313.384ZM405.633 309.657L400.905 308.223L400.615 309.18L405.342 310.613L405.633 309.657ZM393.34 305.929L388.613 304.495L388.323 305.452L393.05 306.886L393.34 305.929ZM381.048 302.201L376.321 300.767L376.03 301.724L380.758 303.158L381.048 302.201ZM368.756 298.473L364.029 297.039L363.738 297.996L368.466 299.43L368.756 298.473ZM356.464 294.745L351.736 293.311L351.446 294.268L356.174 295.702L356.464 294.745ZM344.172 291.017L339.444 289.584L339.154 290.541L343.882 291.974L344.172 291.017ZM331.88 287.29L327.152 285.856L326.862 286.813L331.59 288.247L331.88 287.29ZM319.588 283.562L314.86 282.128L314.57 283.085L319.298 284.519L319.588 283.562ZM307.296 279.834L302.568 278.4L302.278 279.357L307.005 280.791L307.296 279.834ZM295.004 276.106L290.276 274.672L289.986 275.629L294.713 277.063L295.004 276.106ZM282.711 272.378L277.984 270.945L277.693 271.902L282.421 273.335L282.711 272.378ZM270.419 268.651L265.692 267.217L265.401 268.174L270.129 269.608L270.419 268.651ZM258.127 264.923L253.399 263.489L253.109 264.446L257.837 265.88L258.127 264.923ZM245.835 261.195L241.107 259.761L240.817 260.718L245.545 262.152L245.835 261.195ZM233.543 257.467L228.815 256.033L228.525 256.99L233.253 258.424L233.543 257.467ZM221.251 253.739L216.523 252.306L216.233 253.262L220.961 254.696L221.251 253.739ZM208.959 250.011L204.231 248.578L203.941 249.535L208.668 250.968L208.959 250.011ZM196.667 246.284L191.939 244.85L191.649 245.807L196.376 247.241L196.667 246.284ZM184.374 242.556L179.647 241.122L179.356 242.079L184.084 243.513L184.374 242.556ZM172.082 238.828L167.355 237.394L167.064 238.351L171.792 239.785L172.082 238.828ZM159.79 235.1L155.062 233.666L154.772 234.623L159.5 236.057L159.79 235.1ZM147.498 231.372L142.77 229.939L142.48 230.896L147.208 232.329L147.498 231.372ZM135.206 227.645L130.478 226.211L130.188 227.168L134.916 228.602L135.206 227.645ZM122.914 223.917L118.186 222.483L117.896 223.44L122.624 224.874L122.914 223.917ZM110.622 220.189L108.258 219.472L107.968 220.429L110.331 221.146L110.622 220.189ZM107.641 219.069C107.154 219.329 106.971 219.935 107.231 220.422L111.474 228.359C111.734 228.846 112.34 229.03 112.827 228.769C113.314 228.509 113.498 227.903 113.238 227.416L109.466 220.361L116.521 216.589C117.008 216.329 117.192 215.723 116.932 215.236C116.671 214.749 116.065 214.565 115.578 214.826L107.641 219.069ZM440.29 319.645L437.926 318.928L437.346 320.842L439.71 321.559L440.29 319.645ZM430.362 316.634L425.634 315.2L425.054 317.114L429.782 318.548L430.362 316.634ZM418.07 312.906L413.342 311.472L412.762 313.386L417.489 314.82L418.07 312.906ZM405.778 309.178L401.05 307.744L400.47 309.658L405.197 311.092L405.778 309.178ZM393.486 305.45L388.758 304.016L388.177 305.93L392.905 307.364L393.486 305.45ZM381.193 301.722L376.466 300.289L375.885 302.203L380.613 303.636L381.193 301.722ZM368.901 297.995L364.174 296.561L363.593 298.475L368.321 299.909L368.901 297.995ZM356.609 294.267L351.882 292.833L351.301 294.747L356.029 296.181L356.609 294.267ZM344.317 290.539L339.589 289.105L339.009 291.019L343.737 292.453L344.317 290.539ZM332.025 286.811L327.297 285.377L326.717 287.291L331.445 288.725L332.025 286.811ZM319.733 283.083L315.005 281.65L314.425 283.563L319.152 284.997L319.733 283.083ZM307.441 279.356L302.713 277.922L302.133 279.836L306.86 281.269L307.441 279.356ZM295.149 275.628L290.421 274.194L289.84 276.108L294.568 277.542L295.149 275.628ZM282.857 271.9L278.129 270.466L277.548 272.38L282.276 273.814L282.857 271.9ZM270.564 268.172L265.837 266.738L265.256 268.652L269.984 270.086L270.564 268.172ZM258.272 264.444L253.545 263.01L252.964 264.924L257.692 266.358L258.272 264.444ZM245.98 260.716L241.252 259.283L240.672 261.197L245.4 262.63L245.98 260.716ZM233.688 256.989L228.96 255.555L228.38 257.469L233.108 258.903L233.688 256.989ZM221.396 253.261L216.668 251.827L216.088 253.741L220.815 255.175L221.396 253.261ZM209.104 249.533L204.376 248.099L203.796 250.013L208.523 251.447L209.104 249.533ZM196.812 245.805L192.084 244.371L191.504 246.285L196.231 247.719L196.812 245.805ZM184.52 242.077L179.792 240.644L179.211 242.558L183.939 243.991L184.52 242.077ZM172.227 238.35L167.5 236.916L166.919 238.83L171.647 240.263L172.227 238.35ZM159.935 234.622L155.208 233.188L154.627 235.102L159.355 236.536L159.935 234.622ZM147.643 230.894L142.915 229.46L142.335 231.374L147.063 232.808L147.643 230.894ZM135.351 227.166L130.623 225.732L130.043 227.646L134.771 229.08L135.351 227.166ZM123.059 223.438L118.331 222.004L117.751 223.918L122.478 225.352L123.059 223.438ZM110.767 219.71L108.403 218.994L107.823 220.908L110.186 221.624L110.767 219.71Z" fill="#C3D0E4"/>
<path d="M208.866 337.514C208.507 337.933 208.555 338.565 208.974 338.924L215.803 344.786C216.222 345.146 216.853 345.098 217.213 344.679C217.573 344.26 217.525 343.628 217.106 343.269L211.035 338.058L216.246 331.988C216.605 331.568 216.557 330.937 216.138 330.577C215.719 330.218 215.088 330.266 214.728 330.685L208.866 337.514ZM439.924 319.604L209.549 337.168L209.701 339.163L440.076 321.599L439.924 319.604Z" fill="#C3D0E4"/>
<path d="M747.764 351.873C747.528 352.372 747.743 352.968 748.243 353.203L756.386 357.035C756.886 357.27 757.482 357.055 757.717 356.555C757.952 356.056 757.738 355.46 757.238 355.225L749.999 351.819L753.405 344.58C753.64 344.081 753.425 343.485 752.926 343.25C752.426 343.015 751.83 343.229 751.595 343.729L747.764 351.873ZM919.661 289.661L748.33 351.357L749.007 353.239L920.339 291.542L919.661 289.661Z" fill="#C3D0E4"/>
<circle cx="920" cy="290.602" r="20" fill="#70DDD5"/>
<circle cx="660" cy="170.602" r="20" fill="#70DDD5"/>
<circle cx="720" cy="360.602" r="20" fill="#70DDD5"/>
<circle cx="440.187" cy="320.602" r="20" fill="#978DF2"/>
<circle cx="260" cy="90.6016" r="20" fill="#42979F"/>
<circle cx="80" cy="210.602" r="20" fill="#42979F"/>
<circle cx="260" cy="500.602" r="20" fill="#42979F"/>
<path d="M93.9779 633.585H100.08C102.294 633.585 103.878 632.199 103.878 630.219C103.878 628.851 103.05 627.735 101.61 627.033C102.726 626.403 103.374 625.593 103.374 624.297C103.374 622.497 101.916 621.219 99.8459 621.219H93.9779V633.585ZM95.7959 626.367V622.821H99.3959C100.638 622.821 101.52 623.577 101.52 624.603C101.52 625.629 100.638 626.367 99.3959 626.367H95.7959ZM95.7959 631.983V627.915H99.6659C101.052 627.915 102.024 628.761 102.024 629.949C102.024 631.137 101.052 631.983 99.6659 631.983H95.7959ZM107.972 626.061V624.279H106.19V633.585H107.972V628.293C108.134 626.673 109.502 625.611 111.428 625.611V624.063C109.826 624.063 108.566 624.837 107.972 626.061ZM117.073 624.063C116.047 624.063 114.877 624.333 113.545 624.999L114.193 626.313C115.003 625.899 115.903 625.539 116.821 625.539C118.675 625.539 119.215 626.781 119.215 627.951V628.239C118.315 627.933 117.325 627.735 116.407 627.735C114.355 627.735 112.681 628.977 112.681 630.831C112.681 632.649 114.139 633.801 116.119 633.801C117.253 633.801 118.531 633.279 119.215 632.307V633.585H120.961V627.951C120.961 625.647 119.575 624.063 117.073 624.063ZM116.461 632.397C115.291 632.397 114.391 631.785 114.391 630.777C114.391 629.769 115.435 629.067 116.677 629.067C117.595 629.067 118.459 629.193 119.215 629.427V630.669C118.909 631.821 117.613 632.397 116.461 632.397ZM128.272 624.063C127.012 624.063 125.878 624.711 125.32 625.629V624.279H123.538V633.585H125.32V627.555C125.464 626.457 126.58 625.611 127.876 625.611C129.136 625.611 130.018 626.583 130.018 627.969V633.585H131.764V627.663C131.764 625.557 130.324 624.063 128.272 624.063ZM138.705 633.801C140.091 633.801 141.297 633.225 142.197 632.307L140.991 631.209C140.415 631.857 139.587 632.253 138.723 632.253C137.013 632.253 135.609 630.741 135.609 628.923C135.609 627.123 137.013 625.611 138.705 625.611C139.569 625.611 140.379 625.989 140.937 626.619L142.143 625.503C141.261 624.621 140.055 624.063 138.723 624.063C136.059 624.063 133.809 626.277 133.809 628.923C133.809 631.569 136.059 633.801 138.705 633.801ZM148.838 624.063C147.56 624.063 146.426 624.729 145.868 625.665V621.003H144.104V633.585H145.868V627.807C145.868 626.601 147.038 625.611 148.442 625.611C149.702 625.611 150.584 626.583 150.584 627.969V633.585H152.33V627.663C152.33 625.557 150.89 624.063 148.838 624.063Z" fill="#131F37"/>
<path d="M352.369 633.585H354.187V622.911H358.255V621.219H348.319V622.911H352.369V633.585ZM362.14 626.061V624.279H360.358V633.585H362.14V628.293C362.302 626.673 363.67 625.611 365.596 625.611V624.063C363.994 624.063 362.734 624.837 362.14 626.061ZM373.742 624.279V630.309C373.598 631.407 372.482 632.253 371.186 632.253C369.926 632.253 369.044 631.281 369.044 629.895V624.279H367.298V630.201C367.298 632.307 368.738 633.801 370.79 633.801C372.05 633.801 373.184 633.153 373.742 632.235V633.585H375.524V624.279H373.742ZM382.844 624.063C381.584 624.063 380.45 624.711 379.892 625.629V624.279H378.11V633.585H379.892V627.555C380.036 626.457 381.152 625.611 382.448 625.611C383.708 625.611 384.59 626.583 384.59 627.969V633.585H386.336V627.663C386.336 625.557 384.896 624.063 382.844 624.063ZM397.345 624.279H395.185L390.631 629.031V621.003H388.867V633.585H390.631V631.191L392.125 629.679L395.041 633.585H397.165L393.331 628.491L397.345 624.279Z" fill="#131F37"/>
<path d="M605.59 633.801C607.354 633.801 608.974 633.045 610.144 631.857L608.866 630.633C608.038 631.533 606.868 632.127 605.59 632.127C603.124 632.127 601.036 629.967 601.036 627.393C601.036 624.837 603.124 622.677 605.59 622.677C606.868 622.677 608.038 623.271 608.866 624.171L610.144 622.947C608.974 621.741 607.354 621.003 605.59 621.003C602.116 621.003 599.164 623.919 599.164 627.393C599.164 630.867 602.116 633.801 605.59 633.801ZM616.652 624.063C615.374 624.063 614.24 624.729 613.682 625.665V621.003H611.918V633.585H613.682V627.807C613.682 626.601 614.852 625.611 616.256 625.611C617.516 625.611 618.398 626.583 618.398 627.969V633.585H620.144V627.663C620.144 625.557 618.704 624.063 616.652 624.063ZM623.575 622.731C624.151 622.731 624.637 622.227 624.637 621.651C624.637 621.093 624.151 620.589 623.575 620.589C622.963 620.589 622.495 621.093 622.495 621.651C622.495 622.227 622.963 622.731 623.575 622.731ZM622.675 633.585H624.457V624.279H622.675V633.585ZM627.035 633.585H628.799V621.003H627.035V633.585ZM638.559 621.003V625.881C637.839 624.747 636.687 624.063 635.247 624.063C632.799 624.063 630.963 626.079 630.963 628.923C630.963 631.785 632.799 633.801 635.247 633.801C636.687 633.801 637.839 633.117 638.559 631.965V633.585H640.323V621.003H638.559ZM635.679 632.253C633.969 632.253 632.763 630.867 632.763 628.923C632.763 626.979 633.969 625.611 635.679 625.611C637.353 625.611 638.559 626.979 638.559 628.923C638.559 630.867 637.353 632.253 635.679 632.253Z" fill="#131F37"/>
<path d="M824.169 622.911V621.219H815.079V633.585H816.915V628.203H823.467V626.511H816.915V622.911H824.169ZM832.542 624.279V630.309C832.398 631.407 831.282 632.253 829.986 632.253C828.726 632.253 827.844 631.281 827.844 629.895V624.279H826.098V630.201C826.098 632.307 827.538 633.801 829.59 633.801C830.85 633.801 831.984 633.153 832.542 632.235V633.585H834.324V624.279H832.542ZM841.265 631.911C841.067 632.109 840.707 632.253 840.311 632.253C839.789 632.253 839.357 631.785 839.357 631.137V625.791H841.553V624.279H839.357V621.723H837.611V624.279H836.207V625.791H837.611V631.263C837.611 632.757 838.619 633.801 840.059 633.801C840.725 633.801 841.409 633.549 841.913 633.135L841.265 631.911ZM850.138 624.279V630.309C849.994 631.407 848.878 632.253 847.582 632.253C846.322 632.253 845.44 631.281 845.44 629.895V624.279H843.694V630.201C843.694 632.307 845.134 633.801 847.186 633.801C848.446 633.801 849.58 633.153 850.138 632.235V633.585H851.92V624.279H850.138ZM856.377 626.061V624.279H854.595V633.585H856.377V628.293C856.539 626.673 857.907 625.611 859.833 625.611V624.063C858.231 624.063 856.971 624.837 856.377 626.061ZM865.837 632.217C864.235 632.217 863.101 631.101 862.867 629.553H870.193C870.193 626.223 868.555 624.063 865.711 624.063C863.137 624.063 861.067 626.115 861.067 628.905C861.067 631.767 863.263 633.801 865.855 633.801C867.169 633.801 868.789 633.243 869.617 632.361L868.501 631.209C867.943 631.785 866.809 632.217 865.837 632.217ZM865.783 625.647C867.385 625.647 868.267 626.691 868.465 628.131H862.885C863.173 626.619 864.343 625.647 865.783 625.647ZM883.403 633.801C885.167 633.801 886.787 633.045 887.957 631.857L886.679 630.633C885.851 631.533 884.681 632.127 883.403 632.127C880.937 632.127 878.849 629.967 878.849 627.393C878.849 624.837 880.937 622.677 883.403 622.677C884.681 622.677 885.851 623.271 886.679 624.171L887.957 622.947C886.787 621.741 885.167 621.003 883.403 621.003C879.929 621.003 876.977 623.919 876.977 627.393C876.977 630.867 879.929 633.801 883.403 633.801ZM894.142 633.801C896.788 633.801 899.02 631.569 899.02 628.923C899.02 626.277 896.788 624.063 894.142 624.063C891.478 624.063 889.228 626.277 889.228 628.923C889.228 631.569 891.478 633.801 894.142 633.801ZM894.142 632.253C892.432 632.253 891.01 630.741 891.01 628.923C891.01 627.123 892.432 625.611 894.142 625.611C895.816 625.611 897.238 627.123 897.238 628.923C897.238 630.741 895.816 632.253 894.142 632.253ZM905.839 624.063C904.579 624.063 903.445 624.711 902.887 625.629V624.279H901.105V633.585H902.887V627.555C903.031 626.457 904.147 625.611 905.443 625.611C906.703 625.611 907.585 626.583 907.585 627.969V633.585H909.331V627.663C909.331 625.557 907.891 624.063 905.839 624.063ZM916.146 632.217C914.544 632.217 913.41 631.101 913.176 629.553H920.502C920.502 626.223 918.864 624.063 916.02 624.063C913.446 624.063 911.376 626.115 911.376 628.905C911.376 631.767 913.572 633.801 916.164 633.801C917.478 633.801 919.098 633.243 919.926 632.361L918.81 631.209C918.252 631.785 917.118 632.217 916.146 632.217ZM916.092 625.647C917.694 625.647 918.576 626.691 918.774 628.131H913.194C913.482 626.619 914.652 625.647 916.092 625.647Z" fill="#131F37"/>
<path d="M72.6443 587.376C72.449 587.571 72.449 587.888 72.6443 588.083L75.8262 591.265C76.0215 591.46 76.3381 591.46 76.5333 591.265C76.7286 591.07 76.7286 590.753 76.5333 590.558L73.7049 587.729L76.5333 584.901C76.7286 584.706 76.7286 584.389 76.5333 584.194C76.3381 583.999 76.0215 583.999 75.8262 584.194L72.6443 587.376ZM172.998 587.229H170.594V588.229H172.998V587.229ZM162.902 587.229H158.094V588.229H162.902V587.229ZM150.402 587.229H145.594V588.229H150.402V587.229ZM137.902 587.229H133.094V588.229H137.902V587.229ZM125.402 587.229H120.594V588.229H125.402V587.229ZM112.902 587.229H108.094V588.229H112.902V587.229ZM100.402 587.229H95.594V588.229H100.402V587.229ZM87.9017 587.229H83.094V588.229H87.9017V587.229ZM75.4017 587.229H72.9978V588.229H75.4017V587.229ZM72.2907 587.022C71.9002 587.413 71.9002 588.046 72.2907 588.437L78.6547 594.801C79.0452 595.191 79.6784 595.191 80.0689 594.801C80.4594 594.41 80.4594 593.777 80.0689 593.386L74.412 587.729L80.0689 582.073C80.4594 581.682 80.4594 581.049 80.0689 580.658C79.6784 580.268 79.0452 580.268 78.6547 580.658L72.2907 587.022ZM172.998 586.729H170.594V588.729H172.998V586.729ZM162.902 586.729H158.094V588.729H162.902V586.729ZM150.402 586.729H145.594V588.729H150.402V586.729ZM137.902 586.729H133.094V588.729H137.902V586.729ZM125.402 586.729H120.594V588.729H125.402V586.729ZM112.902 586.729H108.094V588.729H112.902V586.729ZM100.402 586.729H95.594V588.729H100.402V586.729ZM87.9017 586.729H83.094V588.729H87.9017V586.729ZM75.4017 586.729H72.9978V588.729H75.4017V586.729Z" fill="#C3D0E4"/>
<path d="M321.844 584.878C321.454 585.268 321.454 585.902 321.844 586.292L328.208 592.656C328.599 593.047 329.232 593.047 329.622 592.656C330.013 592.266 330.013 591.632 329.622 591.242L323.965 585.585L329.622 579.928C330.013 579.538 330.013 578.904 329.622 578.514C329.232 578.123 328.599 578.123 328.208 578.514L321.844 584.878ZM422.551 584.585H322.551V586.585H422.551V584.585Z" fill="#C3D0E4"/>
<circle cx="867.5" cy="585.585" r="20" fill="#70DDD5"/>
<circle cx="618.5" cy="585.585" r="20" fill="#978DF2"/>
</svg>
