<svg width="990" height="681" viewBox="0 0 990 681" fill="none" xmlns="http://www.w3.org/2000/svg">
<path d="M92.9779 630.384H99.0799C101.294 630.384 102.878 628.998 102.878 627.018C102.878 625.65 102.05 624.534 100.61 623.832C101.726 623.202 102.374 622.392 102.374 621.096C102.374 619.296 100.916 618.018 98.8459 618.018H92.9779V630.384ZM94.7959 623.166V619.62H98.3959C99.6379 619.62 100.52 620.376 100.52 621.402C100.52 622.428 99.6379 623.166 98.3959 623.166H94.7959ZM94.7959 628.782V624.714H98.6659C100.052 624.714 101.024 625.56 101.024 626.748C101.024 627.936 100.052 628.782 98.6659 628.782H94.7959ZM106.972 622.86V621.078H105.19V630.384H106.972V625.092C107.134 623.472 108.502 622.41 110.428 622.41V620.862C108.826 620.862 107.566 621.636 106.972 622.86ZM116.073 620.862C115.047 620.862 113.877 621.132 112.545 621.798L113.193 623.112C114.003 622.698 114.903 622.338 115.821 622.338C117.675 622.338 118.215 623.58 118.215 624.75V625.038C117.315 624.732 116.325 624.534 115.407 624.534C113.355 624.534 111.681 625.776 111.681 627.63C111.681 629.448 113.139 630.6 115.119 630.6C116.253 630.6 117.531 630.078 118.215 629.106V630.384H119.961V624.75C119.961 622.446 118.575 620.862 116.073 620.862ZM115.461 629.196C114.291 629.196 113.391 628.584 113.391 627.576C113.391 626.568 114.435 625.866 115.677 625.866C116.595 625.866 117.459 625.992 118.215 626.226V627.468C117.909 628.62 116.613 629.196 115.461 629.196ZM127.272 620.862C126.012 620.862 124.878 621.51 124.32 622.428V621.078H122.538V630.384H124.32V624.354C124.464 623.256 125.58 622.41 126.876 622.41C128.136 622.41 129.018 623.382 129.018 624.768V630.384H130.764V624.462C130.764 622.356 129.324 620.862 127.272 620.862ZM137.705 630.6C139.091 630.6 140.297 630.024 141.197 629.106L139.991 628.008C139.415 628.656 138.587 629.052 137.723 629.052C136.013 629.052 134.609 627.54 134.609 625.722C134.609 623.922 136.013 622.41 137.705 622.41C138.569 622.41 139.379 622.788 139.937 623.418L141.143 622.302C140.261 621.42 139.055 620.862 137.723 620.862C135.059 620.862 132.809 623.076 132.809 625.722C132.809 628.368 135.059 630.6 137.705 630.6ZM147.838 620.862C146.56 620.862 145.426 621.528 144.868 622.464V617.802H143.104V630.384H144.868V624.606C144.868 623.4 146.038 622.41 147.442 622.41C148.702 622.41 149.584 623.382 149.584 624.768V630.384H151.33V624.462C151.33 622.356 149.89 620.862 147.838 620.862Z" fill="#131F37"/>
<path d="M351.369 630.384H353.187V619.71H357.255V618.018H347.319V619.71H351.369V630.384ZM361.14 622.86V621.078H359.358V630.384H361.14V625.092C361.302 623.472 362.67 622.41 364.596 622.41V620.862C362.994 620.862 361.734 621.636 361.14 622.86ZM372.742 621.078V627.108C372.598 628.206 371.482 629.052 370.186 629.052C368.926 629.052 368.044 628.08 368.044 626.694V621.078H366.298V627C366.298 629.106 367.738 630.6 369.79 630.6C371.05 630.6 372.184 629.952 372.742 629.034V630.384H374.524V621.078H372.742ZM381.844 620.862C380.584 620.862 379.45 621.51 378.892 622.428V621.078H377.11V630.384H378.892V624.354C379.036 623.256 380.152 622.41 381.448 622.41C382.708 622.41 383.59 623.382 383.59 624.768V630.384H385.336V624.462C385.336 622.356 383.896 620.862 381.844 620.862ZM396.345 621.078H394.185L389.631 625.83V617.802H387.867V630.384H389.631V627.99L391.125 626.478L394.041 630.384H396.165L392.331 625.29L396.345 621.078Z" fill="#131F37"/>
<path d="M604.59 630.6C606.354 630.6 607.974 629.844 609.144 628.656L607.866 627.432C607.038 628.332 605.868 628.926 604.59 628.926C602.124 628.926 600.036 626.766 600.036 624.192C600.036 621.636 602.124 619.476 604.59 619.476C605.868 619.476 607.038 620.07 607.866 620.97L609.144 619.746C607.974 618.54 606.354 617.802 604.59 617.802C601.116 617.802 598.164 620.718 598.164 624.192C598.164 627.666 601.116 630.6 604.59 630.6ZM615.652 620.862C614.374 620.862 613.24 621.528 612.682 622.464V617.802H610.918V630.384H612.682V624.606C612.682 623.4 613.852 622.41 615.256 622.41C616.516 622.41 617.398 623.382 617.398 624.768V630.384H619.144V624.462C619.144 622.356 617.704 620.862 615.652 620.862ZM622.575 619.53C623.151 619.53 623.637 619.026 623.637 618.45C623.637 617.892 623.151 617.388 622.575 617.388C621.963 617.388 621.495 617.892 621.495 618.45C621.495 619.026 621.963 619.53 622.575 619.53ZM621.675 630.384H623.457V621.078H621.675V630.384ZM626.035 630.384H627.799V617.802H626.035V630.384ZM637.559 617.802V622.68C636.839 621.546 635.687 620.862 634.247 620.862C631.799 620.862 629.963 622.878 629.963 625.722C629.963 628.584 631.799 630.6 634.247 630.6C635.687 630.6 636.839 629.916 637.559 628.764V630.384H639.323V617.802H637.559ZM634.679 629.052C632.969 629.052 631.763 627.666 631.763 625.722C631.763 623.778 632.969 622.41 634.679 622.41C636.353 622.41 637.559 623.778 637.559 625.722C637.559 627.666 636.353 629.052 634.679 629.052Z" fill="#131F37"/>
<path d="M839.145 630.384H840.963V626.082H844.347C846.957 626.082 848.937 624.408 848.937 622.05C848.937 619.692 846.957 618.018 844.347 618.018H839.145V630.384ZM840.963 624.39V619.71H844.095C845.877 619.71 847.083 620.592 847.083 622.05C847.083 623.508 845.877 624.39 844.095 624.39H840.963ZM854.686 620.862C853.66 620.862 852.49 621.132 851.158 621.798L851.806 623.112C852.616 622.698 853.516 622.338 854.434 622.338C856.288 622.338 856.828 623.58 856.828 624.75V625.038C855.928 624.732 854.938 624.534 854.02 624.534C851.968 624.534 850.294 625.776 850.294 627.63C850.294 629.448 851.752 630.6 853.732 630.6C854.866 630.6 856.144 630.078 856.828 629.106V630.384H858.574V624.75C858.574 622.446 857.188 620.862 854.686 620.862ZM854.074 629.196C852.904 629.196 852.004 628.584 852.004 627.576C852.004 626.568 853.048 625.866 854.29 625.866C855.208 625.866 856.072 625.992 856.828 626.226V627.468C856.522 628.62 855.226 629.196 854.074 629.196ZM863.023 622.86V621.078H861.241V630.384H863.023V625.092C863.185 623.472 864.553 622.41 866.479 622.41V620.862C864.877 620.862 863.617 621.636 863.023 622.86ZM872.484 629.016C870.882 629.016 869.748 627.9 869.514 626.352H876.84C876.84 623.022 875.202 620.862 872.358 620.862C869.784 620.862 867.714 622.914 867.714 625.704C867.714 628.566 869.91 630.6 872.502 630.6C873.816 630.6 875.436 630.042 876.264 629.16L875.148 628.008C874.59 628.584 873.456 629.016 872.484 629.016ZM872.43 622.446C874.032 622.446 874.914 623.49 875.112 624.93H869.532C869.82 623.418 870.99 622.446 872.43 622.446ZM883.639 620.862C882.379 620.862 881.245 621.51 880.687 622.428V621.078H878.905V630.384H880.687V624.354C880.831 623.256 881.947 622.41 883.243 622.41C884.503 622.41 885.385 623.382 885.385 624.768V630.384H887.131V624.462C887.131 622.356 885.691 620.862 883.639 620.862ZM894.037 628.71C893.839 628.908 893.479 629.052 893.083 629.052C892.561 629.052 892.129 628.584 892.129 627.936V622.59H894.325V621.078H892.129V618.522H890.383V621.078H888.979V622.59H890.383V628.062C890.383 629.556 891.391 630.6 892.831 630.6C893.497 630.6 894.181 630.348 894.685 629.934L894.037 628.71Z" fill="#131F37"/>
<path d="M71.6443 584.175C71.449 584.37 71.449 584.687 71.6443 584.882L74.8262 588.064C75.0215 588.259 75.3381 588.259 75.5333 588.064C75.7286 587.869 75.7286 587.552 75.5333 587.357L72.7049 584.528L75.5333 581.7C75.7286 581.505 75.7286 581.188 75.5333 580.993C75.3381 580.798 75.0215 580.798 74.8262 580.993L71.6443 584.175ZM171.998 584.028H169.594V585.028H171.998V584.028ZM161.902 584.028H157.094V585.028H161.902V584.028ZM149.402 584.028H144.594V585.028H149.402V584.028ZM136.902 584.028H132.094V585.028H136.902V584.028ZM124.402 584.028H119.594V585.028H124.402V584.028ZM111.902 584.028H107.094V585.028H111.902V584.028ZM99.4017 584.028H94.594V585.028H99.4017V584.028ZM86.9017 584.028H82.094V585.028H86.9017V584.028ZM74.4017 584.028H71.9978V585.028H74.4017V584.028ZM71.2907 583.821C70.9002 584.212 70.9002 584.845 71.2907 585.235L77.6547 591.599C78.0452 591.99 78.6784 591.99 79.0689 591.599C79.4594 591.209 79.4594 590.576 79.0689 590.185L73.412 584.528L79.0689 578.871C79.4594 578.481 79.4594 577.848 79.0689 577.457C78.6784 577.067 78.0452 577.067 77.6547 577.457L71.2907 583.821ZM171.998 583.528H169.594V585.528H171.998V583.528ZM161.902 583.528H157.094V585.528H161.902V583.528ZM149.402 583.528H144.594V585.528H149.402V583.528ZM136.902 583.528H132.094V585.528H136.902V583.528ZM124.402 583.528H119.594V585.528H124.402V583.528ZM111.902 583.528H107.094V585.528H111.902V583.528ZM99.4017 583.528H94.594V585.528H99.4017V583.528ZM86.9017 583.528H82.094V585.528H86.9017V583.528ZM74.4017 583.528H71.9978V585.528H74.4017V583.528Z" fill="#C3D0E4"/>
<path d="M320.844 581.677C320.454 582.067 320.454 582.7 320.844 583.091L327.208 589.455C327.599 589.845 328.232 589.845 328.622 589.455C329.013 589.064 329.013 588.431 328.622 588.041L322.965 582.384L328.622 576.727C329.013 576.336 329.013 575.703 328.622 575.313C328.232 574.922 327.599 574.922 327.208 575.313L320.844 581.677ZM421.551 581.384H321.551V583.384H421.551V581.384Z" fill="#C3D0E4"/>
<circle cx="866.5" cy="582.384" r="20" fill="#42979F"/>
<circle cx="617.5" cy="582.384" r="20" fill="#70DDD5"/>
<path d="M337.116 249.447C336.874 249.58 336.786 249.884 336.92 250.126L339.091 254.068C339.224 254.31 339.528 254.398 339.77 254.264C340.012 254.131 340.1 253.827 339.967 253.585L338.037 250.082L341.54 248.152C341.782 248.018 341.87 247.714 341.737 247.472C341.604 247.231 341.3 247.143 341.058 247.276L337.116 249.447ZM718.621 359.787L716.257 359.103L715.979 360.063L718.343 360.748L718.621 359.787ZM708.691 356.911L703.962 355.542L703.684 356.502L708.413 357.872L708.691 356.911ZM696.397 353.351L691.668 351.981L691.39 352.942L696.118 354.311L696.397 353.351ZM684.102 349.79L679.374 348.42L679.096 349.381L683.824 350.75L684.102 349.79ZM671.808 346.229L667.079 344.86L666.801 345.82L671.53 347.19L671.808 346.229ZM659.514 342.668L654.785 341.299L654.507 342.259L659.235 343.629L659.514 342.668ZM647.219 339.108L642.491 337.738L642.213 338.699L646.941 340.068L647.219 339.108ZM634.925 335.547L630.196 334.177L629.918 335.138L634.647 336.507L634.925 335.547ZM622.631 331.986L617.902 330.617L617.624 331.577L622.352 332.947L622.631 331.986ZM610.336 328.425L605.608 327.056L605.33 328.016L610.058 329.386L610.336 328.425ZM598.042 324.865L593.313 323.495L593.035 324.456L597.764 325.825L598.042 324.865ZM585.748 321.304L581.019 319.935L580.741 320.895L585.469 322.265L585.748 321.304ZM573.453 317.743L568.725 316.374L568.447 317.334L573.175 318.704L573.453 317.743ZM561.159 314.183L556.43 312.813L556.152 313.774L560.881 315.143L561.159 314.183ZM548.865 310.622L544.136 309.252L543.858 310.213L548.586 311.582L548.865 310.622ZM536.57 307.061L531.842 305.692L531.564 306.652L536.292 308.022L536.57 307.061ZM524.276 303.5L519.547 302.131L519.269 303.091L523.998 304.461L524.276 303.5ZM511.982 299.94L507.253 298.57L506.975 299.531L511.703 300.9L511.982 299.94ZM499.687 296.379L494.959 295.009L494.681 295.97L499.409 297.339L499.687 296.379ZM487.393 292.818L482.664 291.449L482.386 292.409L487.115 293.779L487.393 292.818ZM475.099 289.257L470.37 287.888L470.092 288.848L474.82 290.218L475.099 289.257ZM462.804 285.697L458.076 284.327L457.797 285.288L462.526 286.657L462.804 285.697ZM450.51 282.136L445.781 280.766L445.503 281.727L450.232 283.096L450.51 282.136ZM438.216 278.575L433.487 277.206L433.209 278.166L437.937 279.536L438.216 278.575ZM425.921 275.015L421.193 273.645L420.915 274.606L425.643 275.975L425.921 275.015ZM413.627 271.454L408.898 270.084L408.62 271.045L413.349 272.414L413.627 271.454ZM401.333 267.893L396.604 266.524L396.326 267.484L401.054 268.854L401.333 267.893ZM389.038 264.332L384.31 262.963L384.031 263.923L388.76 265.293L389.038 264.332ZM376.744 260.772L372.015 259.402L371.737 260.363L376.466 261.732L376.744 260.772ZM364.45 257.211L359.721 255.841L359.443 256.802L364.171 258.171L364.45 257.211ZM352.155 253.65L347.427 252.281L347.148 253.241L351.877 254.611L352.155 253.65ZM339.861 250.089L337.497 249.405L337.218 250.365L339.583 251.05L339.861 250.089ZM336.875 249.009C336.391 249.275 336.215 249.884 336.482 250.367L340.824 258.251C341.09 258.734 341.699 258.91 342.182 258.644C342.666 258.377 342.842 257.769 342.576 257.286L338.716 250.278L345.723 246.418C346.207 246.152 346.383 245.544 346.117 245.06C345.85 244.576 345.242 244.4 344.758 244.667L336.875 249.009ZM718.76 359.307L716.396 358.622L715.839 360.543L718.204 361.228L718.76 359.307ZM708.83 356.431L704.101 355.062L703.545 356.983L708.274 358.352L708.83 356.431ZM696.536 352.87L691.807 351.501L691.251 353.422L695.979 354.791L696.536 352.87ZM684.241 349.31L679.513 347.94L678.956 349.861L683.685 351.231L684.241 349.31ZM671.947 345.749L667.218 344.379L666.662 346.3L671.391 347.67L671.947 345.749ZM659.653 342.188L654.924 340.819L654.368 342.74L659.096 344.109L659.653 342.188ZM647.358 338.627L642.63 337.258L642.073 339.179L646.802 340.548L647.358 338.627ZM635.064 335.067L630.335 333.697L629.779 335.618L634.508 336.988L635.064 335.067ZM622.77 331.506L618.041 330.136L617.485 332.057L622.213 333.427L622.77 331.506ZM610.475 327.945L605.747 326.576L605.19 328.497L609.919 329.866L610.475 327.945ZM598.181 324.384L593.452 323.015L592.896 324.936L597.625 326.306L598.181 324.384ZM585.887 320.824L581.158 319.454L580.602 321.375L585.33 322.745L585.887 320.824ZM573.592 317.263L568.864 315.894L568.307 317.815L573.036 319.184L573.592 317.263ZM561.298 313.702L556.569 312.333L556.013 314.254L560.742 315.623L561.298 313.702ZM549.004 310.142L544.275 308.772L543.719 310.693L548.447 312.063L549.004 310.142ZM536.709 306.581L531.981 305.211L531.424 307.132L536.153 308.502L536.709 306.581ZM524.415 303.02L519.686 301.651L519.13 303.572L523.859 304.941L524.415 303.02ZM512.121 299.459L507.392 298.09L506.836 300.011L511.564 301.38L512.121 299.459ZM499.826 295.899L495.098 294.529L494.541 296.45L499.27 297.82L499.826 295.899ZM487.532 292.338L482.803 290.968L482.247 292.889L486.976 294.259L487.532 292.338ZM475.238 288.777L470.509 287.408L469.953 289.329L474.681 290.698L475.238 288.777ZM462.943 285.216L458.215 283.847L457.658 285.768L462.387 287.137L462.943 285.216ZM450.649 281.656L445.92 280.286L445.364 282.207L450.093 283.577L450.649 281.656ZM438.355 278.095L433.626 276.725L433.07 278.647L437.798 280.016L438.355 278.095ZM426.06 274.534L421.332 273.165L420.775 275.086L425.504 276.455L426.06 274.534ZM413.766 270.974L409.037 269.604L408.481 271.525L413.21 272.895L413.766 270.974ZM401.472 267.413L396.743 266.043L396.187 267.964L400.915 269.334L401.472 267.413ZM389.177 263.852L384.449 262.483L383.892 264.404L388.621 265.773L389.177 263.852ZM376.883 260.291L372.154 258.922L371.598 260.843L376.327 262.212L376.883 260.291ZM364.589 256.731L359.86 255.361L359.304 257.282L364.032 258.652L364.589 256.731ZM352.294 253.17L347.566 251.8L347.009 253.721L351.738 255.091L352.294 253.17ZM340 249.609L337.636 248.924L337.079 250.845L339.444 251.53L340 249.609Z" fill="#C3D0E4"/>
<path d="M279.197 419.201C278.863 419.641 278.949 420.268 279.39 420.602L286.562 426.038C287.002 426.372 287.629 426.286 287.963 425.845C288.296 425.405 288.21 424.778 287.77 424.444L281.395 419.612L286.227 413.236C286.561 412.796 286.474 412.169 286.034 411.835C285.594 411.502 284.967 411.588 284.633 412.028L279.197 419.201ZM719.215 358.334L279.857 418.814L280.13 420.795L719.488 360.315L719.215 358.334Z" fill="#C3D0E4"/>
<circle cx="720" cy="359.324" r="20" fill="#70DDD5"/>
<circle cx="309.672" cy="239.324" r="20" fill="#42979F"/>
<circle cx="250" cy="419.324" r="20" fill="#42979F"/>
</svg>
