<svg width="990" height="992" viewBox="0 0 990 992" fill="none" xmlns="http://www.w3.org/2000/svg">
<rect width="990" height="992" fill="white"/>
<g clip-path="url(#clip0)">
<rect x="40" y="40" width="210" height="210" rx="6" fill="white"/>
<path d="M116.446 218.749C118.726 218.749 120.838 217.765 122.374 216.229L121.102 214.933C119.902 216.205 118.246 217.021 116.446 217.021C112.894 217.021 109.894 213.901 109.894 210.205C109.894 206.533 112.894 203.413 116.446 203.413C118.246 203.413 119.902 204.229 121.102 205.501L122.374 204.205C120.838 202.645 118.726 201.685 116.446 201.685C111.886 201.685 107.998 205.573 107.998 210.205C107.998 214.837 111.886 218.749 116.446 218.749ZM124.887 218.461H126.687V201.685H124.887V218.461ZM131.212 203.797C131.86 203.797 132.388 203.245 132.388 202.597C132.388 201.973 131.86 201.421 131.212 201.421C130.54 201.421 130.012 201.973 130.012 202.597C130.012 203.245 130.54 203.797 131.212 203.797ZM130.3 218.461H132.1V206.053H130.3V218.461ZM141.307 217.141C138.859 217.141 137.155 215.365 136.891 212.941H147.043C147.043 208.597 144.907 205.765 141.163 205.765C137.827 205.765 135.043 208.525 135.043 212.221C135.043 216.037 138.019 218.749 141.331 218.749C143.059 218.749 145.243 218.005 146.323 216.829L145.219 215.653C144.451 216.493 142.771 217.141 141.307 217.141ZM141.235 207.373C143.707 207.373 145.027 209.101 145.267 211.333H136.915C137.251 208.933 139.027 207.373 141.235 207.373ZM155.892 205.765C154.14 205.765 152.532 206.725 151.812 208.045V206.053H150.012V218.461H151.812V210.565C151.812 208.837 153.564 207.373 155.652 207.373C157.476 207.373 158.748 208.789 158.748 210.805V218.461H160.548V210.565C160.548 207.757 158.628 205.765 155.892 205.765ZM169.639 216.637C169.375 216.925 168.895 217.141 168.343 217.141C167.623 217.141 166.999 216.493 166.999 215.581V207.661H170.047V206.053H166.999V202.645H165.199V206.053H163.255V207.661H165.199V215.581C165.199 217.429 166.447 218.749 168.223 218.749C169.063 218.749 169.879 218.461 170.527 217.957L169.639 216.637ZM177.466 218.749C180.034 218.749 182.002 217.285 182.002 215.005C182.002 212.653 179.938 211.981 177.946 211.357C175.642 210.613 174.73 210.277 174.73 209.197C174.73 207.997 175.882 207.373 177.274 207.373C178.378 207.373 179.602 207.757 180.85 208.549L181.714 207.157C180.394 206.293 178.81 205.765 177.274 205.765C174.802 205.765 172.93 207.157 172.93 209.413C172.93 211.189 174.082 212.077 177.082 212.941C178.762 213.421 180.202 213.853 180.202 215.197C180.202 216.373 179.098 217.141 177.466 217.141C176.098 217.141 174.682 216.613 173.266 215.581L172.33 216.901C173.818 218.101 175.738 218.749 177.466 218.749Z" fill="#131F37"/>
<circle cx="145" cy="125.271" r="50" fill="#8493AD"/>
<path d="M112.907 105.586C111.588 106.113 110.95 107.89 110.977 109.555L110.977 143.171L153.172 126.35L153.244 92.51C153.216 90.8444 151.731 89.9283 150.412 90.4557L112.907 105.586Z" fill="#2A3A54"/>
<path d="M150.288 124.947L114.059 139.549C113.601 139.744 113.102 139.397 113.102 138.911V108.846C113.102 108.318 113.435 107.832 113.921 107.638L150.149 93.0217C150.607 92.8274 151.107 93.1744 151.107 93.6602V123.739C151.107 124.267 150.787 124.753 150.288 124.947Z" fill="white"/>
<path d="M179.052 141.625C174.37 138.858 153.176 126.344 153.176 126.344L110.976 143.172L137.078 158.573C138.355 159.337 140.451 159.517 141.755 158.99L179.011 143.943C180.316 143.429 180.329 142.388 179.052 141.625Z" fill="#485776"/>
<path fill-rule="evenodd" clip-rule="evenodd" d="M150.412 90.4554C150.898 90.261 151.308 90.2813 151.752 90.3866L150.781 90.0999C150.331 89.9667 149.936 89.9418 149.449 90.1277L112.082 105.202C110.763 105.729 110.014 107.576 110.028 109.241L110 142.837C110 142.84 110 142.844 110.001 142.847V143.133C110.001 143.607 110.24 144.049 110.92 144.451L136.914 159.834C138.191 160.583 140.287 160.777 141.591 160.25L178.978 145.123C179.589 144.874 179.964 144.524 179.964 144.124L179.995 142.965C179.996 142.958 179.996 142.95 179.996 142.942L179.995 142.965C179.978 143.286 179.607 143.711 179.011 143.941L141.813 158.95C140.509 159.478 138.413 159.297 137.136 158.534L110.978 143.17C110.978 143.168 110.978 143.166 110.978 143.164L111.005 109.569C110.908 107.695 111.741 106.057 113.06 105.53L150.412 90.4554Z" fill="#C3D0E4"/>
</g>
<rect x="40" y="40" width="210" height="210" rx="6" stroke="#C3D0E4" stroke-width="4"/>
<rect x="390" y="740" width="210" height="210" rx="6" fill="white"/>
<path d="M451.282 918.793C453.562 918.793 455.674 917.809 457.21 916.273L455.938 914.977C454.738 916.249 453.082 917.065 451.282 917.065C447.73 917.065 444.73 913.945 444.73 910.249C444.73 906.577 447.73 903.457 451.282 903.457C453.082 903.457 454.738 904.273 455.938 905.545L457.21 904.249C455.674 902.689 453.562 901.729 451.282 901.729C446.722 901.729 442.834 905.617 442.834 910.249C442.834 914.881 446.722 918.793 451.282 918.793ZM465.626 905.809C463.874 905.809 462.266 906.769 461.546 908.089V901.729H459.746V918.505H461.546V910.609C461.546 908.881 463.298 907.417 465.386 907.417C467.21 907.417 468.482 908.833 468.482 910.849V918.505H470.282V910.609C470.282 907.801 468.362 905.809 465.626 905.809ZM475.893 908.521V906.097H474.093V918.505H475.893V911.569C475.893 909.145 477.885 907.417 480.693 907.417V905.809C478.413 905.809 476.637 906.865 475.893 908.521ZM488.545 918.793C492.025 918.793 494.953 915.817 494.953 912.289C494.953 908.761 492.025 905.809 488.545 905.809C485.065 905.809 482.113 908.761 482.113 912.289C482.113 915.817 485.065 918.793 488.545 918.793ZM488.545 917.185C486.073 917.185 484.009 914.953 484.009 912.289C484.009 909.649 486.073 907.417 488.545 907.417C490.993 907.417 493.057 909.649 493.057 912.289C493.057 914.953 490.993 917.185 488.545 917.185ZM503.829 905.809C502.077 905.809 500.469 906.769 499.749 908.089V906.097H497.949V918.505H499.749V910.609C499.749 908.881 501.501 907.417 503.589 907.417C505.413 907.417 506.685 908.833 506.685 910.849V918.505H508.485V910.609C508.485 907.801 506.565 905.809 503.829 905.809ZM513.016 903.841C513.664 903.841 514.192 903.289 514.192 902.641C514.192 902.017 513.664 901.465 513.016 901.465C512.344 901.465 511.816 902.017 511.816 902.641C511.816 903.289 512.344 903.841 513.016 903.841ZM512.104 918.505H513.904V906.097H512.104V918.505ZM523.279 918.793C525.007 918.793 526.591 918.073 527.767 916.897L526.519 915.673C525.679 916.609 524.527 917.185 523.279 917.185C520.807 917.185 518.743 914.953 518.743 912.289C518.743 909.649 520.807 907.417 523.279 907.417C524.503 907.417 525.631 907.969 526.447 908.857L527.695 907.633C526.519 906.505 524.959 905.809 523.279 905.809C519.799 905.809 516.847 908.761 516.847 912.289C516.847 915.817 519.799 918.793 523.279 918.793ZM530.527 918.505H532.327V901.729H530.527V918.505ZM541.556 917.185C539.108 917.185 537.404 915.409 537.14 912.985H547.292C547.292 908.641 545.156 905.809 541.412 905.809C538.076 905.809 535.292 908.569 535.292 912.265C535.292 916.081 538.268 918.793 541.58 918.793C543.308 918.793 545.492 918.049 546.572 916.873L545.468 915.697C544.7 916.537 543.02 917.185 541.556 917.185ZM541.484 907.417C543.956 907.417 545.276 909.145 545.516 911.377H537.164C537.5 908.977 539.276 907.417 541.484 907.417Z" fill="#131F37"/>
<circle cx="495" cy="819.955" r="50" fill="#8493AD"/>
<path d="M517.482 826.373C520.307 827.965 520.307 830.653 517.482 832.245L499.849 842.414C497.042 844.006 492.368 844.006 489.56 842.414L471.927 832.245C469.102 830.653 469.102 827.965 471.927 826.373L489.56 816.204C492.368 814.612 497.042 814.612 499.849 816.204L517.482 826.373Z" fill="#D9E1EF"/>
<path d="M517.512 832.261L499.868 842.43C497.059 844.022 492.382 844.022 489.573 842.43L471.929 832.261C470.456 831.405 469.839 830.309 469.839 829.316V836.661C469.839 837.756 470.576 838.869 471.929 839.605L489.573 849.774C492.382 851.366 497.059 851.366 499.868 849.774L517.512 839.605C518.865 838.749 519.602 837.773 519.602 836.661V829.316C519.602 830.429 518.865 831.405 517.512 832.261Z" fill="#485776"/>
<path d="M517.482 813.019C520.307 814.611 520.307 817.299 517.482 818.891L499.849 829.06C497.042 830.653 492.368 830.653 489.56 829.06L471.927 818.891C469.102 817.299 469.102 814.611 471.927 813.019L489.56 802.85C492.368 801.258 497.042 801.258 499.849 802.85L517.482 813.019Z" fill="#D9E1EF"/>
<path d="M517.483 818.909L499.85 829.078C497.042 830.671 492.369 830.671 489.561 829.078L471.928 818.909C470.456 818.053 469.839 816.958 469.839 815.965V823.309C469.839 824.405 470.575 825.518 471.928 826.254L489.561 836.423C492.369 838.015 497.042 838.015 499.85 836.423L517.483 826.254C518.836 825.398 519.572 824.422 519.572 823.309V815.965C519.572 817.078 518.836 818.173 517.483 818.909Z" fill="#485776"/>
<path d="M517.482 799.666C520.307 801.258 520.307 803.946 517.482 805.538L499.849 815.707C497.042 817.299 492.368 817.299 489.56 815.707L471.927 805.538C469.102 803.946 469.102 801.258 471.927 799.666L489.56 789.497C492.368 787.905 497.042 787.905 499.849 789.497L517.482 799.666Z" fill="white"/>
<path d="M517.483 799.688C520.308 801.28 520.308 803.968 517.483 805.56L499.85 815.729C497.042 817.321 492.368 817.321 489.561 815.729L471.928 805.56C469.103 803.968 469.103 801.28 471.928 799.688L489.561 789.519C492.368 787.927 497.042 787.927 499.85 789.519L517.483 799.688Z" fill="#D9E1EF"/>
<path d="M517.482 805.555L499.839 815.724C497.03 817.316 492.354 817.316 489.545 815.724L471.903 805.555C470.43 804.699 469.813 803.603 469.813 802.61V809.955C469.813 811.05 470.55 812.163 471.903 812.899L489.545 823.068C492.354 824.66 497.03 824.66 499.839 823.068L517.482 812.899C518.835 812.043 519.572 811.067 519.572 809.955V802.61C519.572 803.723 518.835 804.819 517.482 805.555Z" fill="#485776"/>
<path d="M515.932 809.205C516.251 809.023 516.506 809.171 516.51 809.532C516.51 809.689 516.459 809.872 516.37 810.046C516.281 810.216 516.158 810.365 516.022 810.467C515.992 810.488 515.962 810.509 515.937 810.522C515.907 810.539 515.877 810.552 515.852 810.564C515.716 810.62 515.593 810.611 515.503 810.543C515.414 810.475 515.363 810.352 515.363 810.191C515.359 809.834 515.614 809.388 515.932 809.205Z" fill="white"/>
<path d="M517.532 808.276C517.85 808.094 518.105 808.242 518.109 808.603C518.109 808.761 518.058 808.943 517.969 809.117C517.88 809.287 517.757 809.436 517.621 809.538C517.591 809.559 517.561 809.58 517.536 809.593C517.506 809.61 517.476 809.623 517.451 809.636C517.315 809.691 517.192 809.682 517.103 809.614C517.013 809.546 516.962 809.423 516.962 809.262C516.958 808.905 517.213 808.459 517.532 808.276Z" fill="white"/>
<path d="M514.286 810.177C514.63 809.978 514.91 810.139 514.91 810.534C514.91 810.929 514.634 811.409 514.29 811.609L511.546 813.193C511.202 813.393 510.922 813.231 510.922 812.836C510.922 812.441 511.198 811.957 511.542 811.762L514.286 810.177Z" fill="white"/>
<g filter="url(#filter0_f)">
<path d="M515.932 809.205C516.251 809.023 516.506 809.171 516.51 809.532C516.51 809.689 516.459 809.872 516.37 810.046C516.281 810.216 516.158 810.365 516.022 810.467C515.992 810.488 515.962 810.509 515.937 810.522C515.907 810.539 515.877 810.552 515.852 810.564C515.716 810.62 515.593 810.611 515.503 810.543C515.414 810.475 515.363 810.352 515.363 810.191C515.359 809.834 515.614 809.388 515.932 809.205Z" fill="white"/>
<path d="M517.532 808.276C517.85 808.094 518.105 808.242 518.109 808.603C518.109 808.761 518.058 808.943 517.969 809.117C517.88 809.287 517.757 809.436 517.621 809.538C517.591 809.559 517.561 809.58 517.536 809.593C517.506 809.61 517.476 809.623 517.451 809.636C517.315 809.691 517.192 809.682 517.103 809.614C517.013 809.546 516.962 809.423 516.962 809.262C516.958 808.905 517.213 808.459 517.532 808.276Z" fill="white"/>
<path d="M514.286 810.177C514.63 809.978 514.91 810.139 514.91 810.534C514.91 810.929 514.634 811.409 514.29 811.609L511.546 813.193C511.202 813.393 510.922 813.231 510.922 812.836C510.922 812.441 511.198 811.957 511.542 811.762L514.286 810.177Z" fill="white"/>
</g>
<path d="M515.932 822.61C516.251 822.428 516.506 822.576 516.51 822.937C516.51 823.095 516.459 823.277 516.37 823.451C516.281 823.621 516.158 823.77 516.022 823.872C515.992 823.893 515.962 823.914 515.937 823.927C515.907 823.944 515.877 823.957 515.852 823.97C515.716 824.025 515.593 824.016 515.503 823.948C515.414 823.88 515.363 823.757 515.363 823.596C515.359 823.239 515.614 822.793 515.932 822.61Z" fill="white"/>
<path d="M517.532 821.682C517.85 821.499 518.105 821.648 518.109 822.009C518.109 822.166 518.058 822.349 517.969 822.523C517.88 822.693 517.757 822.841 517.621 822.943C517.591 822.964 517.561 822.986 517.536 822.998C517.506 823.015 517.476 823.028 517.451 823.041C517.315 823.096 517.192 823.088 517.103 823.02C517.013 822.952 516.962 822.828 516.962 822.667C516.958 822.31 517.213 821.864 517.532 821.682Z" fill="white"/>
<path d="M514.286 823.583C514.63 823.383 514.91 823.545 514.91 823.94C514.91 824.335 514.634 824.814 514.29 825.014L511.546 826.598C511.202 826.798 510.922 826.637 510.922 826.242C510.922 825.847 511.198 825.362 511.542 825.167L514.286 823.583Z" fill="white"/>
<g filter="url(#filter1_f)">
<path d="M515.932 822.61C516.251 822.428 516.506 822.576 516.51 822.937C516.51 823.095 516.459 823.277 516.37 823.451C516.281 823.621 516.158 823.77 516.022 823.872C515.992 823.893 515.962 823.914 515.937 823.927C515.907 823.944 515.877 823.957 515.852 823.97C515.716 824.025 515.593 824.016 515.503 823.948C515.414 823.88 515.363 823.757 515.363 823.596C515.359 823.239 515.614 822.793 515.932 822.61Z" fill="white"/>
<path d="M517.532 821.682C517.85 821.499 518.105 821.648 518.109 822.009C518.109 822.166 518.058 822.349 517.969 822.523C517.88 822.693 517.757 822.841 517.621 822.943C517.591 822.964 517.561 822.986 517.536 822.998C517.506 823.015 517.476 823.028 517.451 823.041C517.315 823.096 517.192 823.088 517.103 823.02C517.013 822.952 516.962 822.828 516.962 822.667C516.958 822.31 517.213 821.864 517.532 821.682Z" fill="white"/>
<path d="M514.286 823.583C514.63 823.383 514.91 823.545 514.91 823.94C514.91 824.335 514.634 824.814 514.29 825.014L511.546 826.598C511.202 826.798 510.922 826.637 510.922 826.242C510.922 825.847 511.198 825.362 511.542 825.167L514.286 823.583Z" fill="white"/>
</g>
<path d="M515.932 836.018C516.251 835.835 516.506 835.984 516.51 836.345C516.51 836.502 516.459 836.684 516.37 836.859C516.281 837.029 516.158 837.177 516.022 837.279C515.992 837.3 515.962 837.322 515.937 837.334C515.907 837.351 515.877 837.364 515.852 837.377C515.716 837.432 515.593 837.424 515.503 837.356C515.414 837.288 515.363 837.164 515.363 837.003C515.359 836.646 515.614 836.2 515.932 836.018Z" fill="white"/>
<path d="M517.532 835.089C517.85 834.906 518.105 835.055 518.109 835.416C518.109 835.573 518.058 835.756 517.969 835.93C517.88 836.1 517.757 836.248 517.621 836.35C517.591 836.372 517.561 836.393 517.536 836.406C517.506 836.423 517.476 836.435 517.451 836.448C517.315 836.503 517.192 836.495 517.103 836.427C517.013 836.359 516.962 836.236 516.962 836.074C516.958 835.718 517.213 835.272 517.532 835.089Z" fill="white"/>
<path d="M514.286 836.99C514.63 836.79 514.91 836.952 514.91 837.347C514.91 837.742 514.634 838.222 514.29 838.421L511.546 840.006C511.202 840.205 510.922 840.044 510.922 839.649C510.922 839.254 511.198 838.77 511.542 838.574L514.286 836.99Z" fill="white"/>
<g filter="url(#filter2_f)">
<path d="M515.932 836.018C516.251 835.835 516.506 835.984 516.51 836.345C516.51 836.502 516.459 836.684 516.37 836.859C516.281 837.029 516.158 837.177 516.022 837.279C515.992 837.3 515.962 837.322 515.937 837.334C515.907 837.351 515.877 837.364 515.852 837.377C515.716 837.432 515.593 837.424 515.503 837.356C515.414 837.288 515.363 837.164 515.363 837.003C515.359 836.646 515.614 836.2 515.932 836.018Z" fill="white"/>
<path d="M517.532 835.089C517.85 834.906 518.105 835.055 518.109 835.416C518.109 835.573 518.058 835.756 517.969 835.93C517.88 836.1 517.757 836.248 517.621 836.35C517.591 836.372 517.561 836.393 517.536 836.406C517.506 836.423 517.476 836.435 517.451 836.448C517.315 836.503 517.192 836.495 517.103 836.427C517.013 836.359 516.962 836.236 516.962 836.074C516.958 835.718 517.213 835.272 517.532 835.089Z" fill="white"/>
<path d="M514.286 836.99C514.63 836.79 514.91 836.952 514.91 837.347C514.91 837.742 514.634 838.222 514.29 838.421L511.546 840.006C511.202 840.205 510.922 840.044 510.922 839.649C510.922 839.254 511.198 838.77 511.542 838.574L514.286 836.99Z" fill="white"/>
</g>
<rect x="390" y="740" width="210" height="210" rx="6" stroke="#C3D0E4" stroke-width="4"/>
<path d="M432.124 122.226C431.86 122.514 431.38 122.73 430.828 122.73C430.108 122.73 429.484 122.082 429.484 121.17V113.25H432.532V111.642H429.484V108.234H427.684V111.642H425.74V113.25H427.684V121.17C427.684 123.018 428.932 124.338 430.708 124.338C431.548 124.338 432.364 124.05 433.012 123.546L432.124 122.226ZM437.526 114.066V111.642H435.726V124.05H437.526V117.114C437.526 114.69 439.518 112.962 442.326 112.962V111.354C440.046 111.354 438.27 112.41 437.526 114.066ZM449.856 111.354C448.656 111.354 447.168 111.666 445.392 112.554L446.112 114.018C447.24 113.442 448.488 112.89 449.736 112.89C452.424 112.89 453.096 114.81 453.096 116.49V116.946C451.824 116.538 450.408 116.25 449.064 116.25C446.4 116.25 444.192 117.906 444.192 120.378C444.192 122.826 446.112 124.338 448.728 124.338C450.36 124.338 452.208 123.57 453.096 122.106V124.05H454.896V116.49C454.896 113.49 453.24 111.354 449.856 111.354ZM449.04 122.754C447.288 122.754 445.944 121.842 445.944 120.306C445.944 118.818 447.504 117.762 449.352 117.762C450.696 117.762 451.968 117.954 453.096 118.266V120.162C452.616 121.914 450.672 122.754 449.04 122.754ZM464.478 111.354C462.726 111.354 461.118 112.314 460.398 113.634V111.642H458.598V124.05H460.398V116.154C460.398 114.426 462.15 112.962 464.238 112.962C466.062 112.962 467.334 114.378 467.334 116.394V124.05H469.134V116.154C469.134 113.346 467.214 111.354 464.478 111.354ZM477.169 124.338C479.737 124.338 481.705 122.874 481.705 120.594C481.705 118.242 479.641 117.57 477.649 116.946C475.345 116.202 474.433 115.866 474.433 114.786C474.433 113.586 475.585 112.962 476.977 112.962C478.081 112.962 479.305 113.346 480.553 114.138L481.417 112.746C480.097 111.882 478.513 111.354 476.977 111.354C474.505 111.354 472.633 112.746 472.633 115.002C472.633 116.778 473.785 117.666 476.785 118.53C478.465 119.01 479.905 119.442 479.905 120.786C479.905 121.962 478.801 122.73 477.169 122.73C475.801 122.73 474.385 122.202 472.969 121.17L472.033 122.49C473.521 123.69 475.441 124.338 477.169 124.338ZM489.723 111.354C488.523 111.354 487.035 111.666 485.259 112.554L485.979 114.018C487.107 113.442 488.355 112.89 489.603 112.89C492.291 112.89 492.963 114.81 492.963 116.49V116.946C491.691 116.538 490.275 116.25 488.931 116.25C486.267 116.25 484.059 117.906 484.059 120.378C484.059 122.826 485.979 124.338 488.595 124.338C490.227 124.338 492.075 123.57 492.963 122.106V124.05H494.763V116.49C494.763 113.49 493.107 111.354 489.723 111.354ZM488.907 122.754C487.155 122.754 485.811 121.842 485.811 120.306C485.811 118.818 487.371 117.762 489.219 117.762C490.563 117.762 491.835 117.954 492.963 118.266V120.162C492.483 121.914 490.539 122.754 488.907 122.754ZM504.201 124.338C505.929 124.338 507.513 123.618 508.689 122.442L507.441 121.218C506.601 122.154 505.449 122.73 504.201 122.73C501.729 122.73 499.665 120.498 499.665 117.834C499.665 115.194 501.729 112.962 504.201 112.962C505.425 112.962 506.553 113.514 507.369 114.402L508.617 113.178C507.441 112.05 505.881 111.354 504.201 111.354C500.721 111.354 497.769 114.306 497.769 117.834C497.769 121.362 500.721 124.338 504.201 124.338ZM516.897 122.226C516.633 122.514 516.153 122.73 515.601 122.73C514.881 122.73 514.257 122.082 514.257 121.17V113.25H517.305V111.642H514.257V108.234H512.457V111.642H510.513V113.25H512.457V121.17C512.457 123.018 513.705 124.338 515.481 124.338C516.321 124.338 517.137 124.05 517.785 123.546L516.897 122.226ZM521.22 109.386C521.868 109.386 522.396 108.834 522.396 108.186C522.396 107.562 521.868 107.01 521.22 107.01C520.548 107.01 520.02 107.562 520.02 108.186C520.02 108.834 520.548 109.386 521.22 109.386ZM520.308 124.05H522.108V111.642H520.308V124.05ZM531.482 124.338C534.962 124.338 537.89 121.362 537.89 117.834C537.89 114.306 534.962 111.354 531.482 111.354C528.002 111.354 525.05 114.306 525.05 117.834C525.05 121.362 528.002 124.338 531.482 124.338ZM531.482 122.73C529.01 122.73 526.946 120.498 526.946 117.834C526.946 115.194 529.01 112.962 531.482 112.962C533.93 112.962 535.994 115.194 535.994 117.834C535.994 120.498 533.93 122.73 531.482 122.73ZM546.767 111.354C545.015 111.354 543.407 112.314 542.687 113.634V111.642H540.887V124.05H542.687V116.154C542.687 114.426 544.439 112.962 546.527 112.962C548.351 112.962 549.623 114.378 549.623 116.394V124.05H551.423V116.154C551.423 113.346 549.503 111.354 546.767 111.354ZM559.458 124.338C562.026 124.338 563.994 122.874 563.994 120.594C563.994 118.242 561.93 117.57 559.938 116.946C557.634 116.202 556.722 115.866 556.722 114.786C556.722 113.586 557.874 112.962 559.266 112.962C560.37 112.962 561.594 113.346 562.842 114.138L563.706 112.746C562.386 111.882 560.802 111.354 559.266 111.354C556.794 111.354 554.922 112.746 554.922 115.002C554.922 116.778 556.074 117.666 559.074 118.53C560.754 119.01 562.194 119.442 562.194 120.786C562.194 121.962 561.09 122.73 559.458 122.73C558.09 122.73 556.674 122.202 555.258 121.17L554.322 122.49C555.81 123.69 557.73 124.338 559.458 124.338Z" fill="black"/>
<path d="M392.178 652.448H394.05V639.992L400.17 651.488L406.29 639.992V652.448H408.162V635.96H406.29L400.17 647.456L394.05 635.96H392.178V652.448ZM428.526 644.192C428.526 639.56 424.686 635.672 420.102 635.672C415.542 635.672 411.654 639.56 411.654 644.192C411.654 648.824 415.542 652.736 420.102 652.736C422.094 652.736 423.942 651.992 425.406 650.768L427.326 652.448L428.526 651.056L426.678 649.448C427.83 647.984 428.526 646.16 428.526 644.192ZM420.102 651.008C416.55 651.008 413.55 647.888 413.55 644.192C413.55 640.52 416.55 637.4 420.102 637.4C423.654 637.4 426.63 640.52 426.63 644.192C426.63 645.704 426.126 647.12 425.31 648.248L422.67 645.968L421.47 647.36L424.038 649.592C422.934 650.48 421.566 651.008 420.102 651.008ZM436.39 652.448H438.262V637.736H443.806V635.96H430.846V637.736H436.39V652.448ZM451.507 652.448H453.379V637.736H458.923V635.96H445.963V637.736H451.507V652.448Z" fill="black"/>
<path d="M537.272 650.176C537.008 650.464 536.528 650.68 535.976 650.68C535.256 650.68 534.632 650.032 534.632 649.12V641.2H537.68V639.592H534.632V636.184H532.832V639.592H530.888V641.2H532.832V649.12C532.832 650.968 534.08 652.288 535.856 652.288C536.696 652.288 537.512 652 538.16 651.496L537.272 650.176ZM542.675 642.016V639.592H540.875V652H542.675V645.064C542.675 642.64 544.667 640.912 547.475 640.912V639.304C545.195 639.304 543.419 640.36 542.675 642.016ZM555.005 639.304C553.805 639.304 552.317 639.616 550.541 640.504L551.261 641.968C552.389 641.392 553.637 640.84 554.885 640.84C557.573 640.84 558.245 642.76 558.245 644.44V644.896C556.973 644.488 555.557 644.2 554.213 644.2C551.549 644.2 549.341 645.856 549.341 648.328C549.341 650.776 551.261 652.288 553.877 652.288C555.509 652.288 557.357 651.52 558.245 650.056V652H560.045V644.44C560.045 641.44 558.389 639.304 555.005 639.304ZM554.189 650.704C552.437 650.704 551.093 649.792 551.093 648.256C551.093 646.768 552.653 645.712 554.501 645.712C555.845 645.712 557.117 645.904 558.245 646.216V648.112C557.765 649.864 555.821 650.704 554.189 650.704ZM569.626 639.304C567.874 639.304 566.266 640.264 565.546 641.584V639.592H563.746V652H565.546V644.104C565.546 642.376 567.298 640.912 569.386 640.912C571.21 640.912 572.482 642.328 572.482 644.344V652H574.282V644.104C574.282 641.296 572.362 639.304 569.626 639.304ZM582.318 652.288C584.886 652.288 586.854 650.824 586.854 648.544C586.854 646.192 584.79 645.52 582.798 644.896C580.494 644.152 579.582 643.816 579.582 642.736C579.582 641.536 580.734 640.912 582.126 640.912C583.23 640.912 584.454 641.296 585.702 642.088L586.566 640.696C585.246 639.832 583.662 639.304 582.126 639.304C579.654 639.304 577.782 640.696 577.782 642.952C577.782 644.728 578.934 645.616 581.934 646.48C583.614 646.96 585.054 647.392 585.054 648.736C585.054 649.912 583.95 650.68 582.318 650.68C580.95 650.68 579.534 650.152 578.118 649.12L577.182 650.44C578.67 651.64 580.59 652.288 582.318 652.288ZM594.872 639.304C593.672 639.304 592.184 639.616 590.408 640.504L591.128 641.968C592.256 641.392 593.504 640.84 594.752 640.84C597.44 640.84 598.112 642.76 598.112 644.44V644.896C596.84 644.488 595.424 644.2 594.08 644.2C591.416 644.2 589.208 645.856 589.208 648.328C589.208 650.776 591.128 652.288 593.744 652.288C595.376 652.288 597.224 651.52 598.112 650.056V652H599.912V644.44C599.912 641.44 598.256 639.304 594.872 639.304ZM594.056 650.704C592.304 650.704 590.96 649.792 590.96 648.256C590.96 646.768 592.52 645.712 594.368 645.712C595.712 645.712 596.984 645.904 598.112 646.216V648.112C597.632 649.864 595.688 650.704 594.056 650.704ZM609.35 652.288C611.078 652.288 612.662 651.568 613.838 650.392L612.59 649.168C611.75 650.104 610.598 650.68 609.35 650.68C606.878 650.68 604.814 648.448 604.814 645.784C604.814 643.144 606.878 640.912 609.35 640.912C610.574 640.912 611.702 641.464 612.518 642.352L613.766 641.128C612.59 640 611.03 639.304 609.35 639.304C605.87 639.304 602.918 642.256 602.918 645.784C602.918 649.312 605.87 652.288 609.35 652.288ZM622.045 650.176C621.781 650.464 621.301 650.68 620.749 650.68C620.029 650.68 619.405 650.032 619.405 649.12V641.2H622.453V639.592H619.405V636.184H617.605V639.592H615.661V641.2H617.605V649.12C617.605 650.968 618.853 652.288 620.629 652.288C621.469 652.288 622.285 652 622.933 651.496L622.045 650.176ZM626.368 637.336C627.016 637.336 627.544 636.784 627.544 636.136C627.544 635.512 627.016 634.96 626.368 634.96C625.696 634.96 625.168 635.512 625.168 636.136C625.168 636.784 625.696 637.336 626.368 637.336ZM625.456 652H627.256V639.592H625.456V652ZM636.631 652.288C640.111 652.288 643.039 649.312 643.039 645.784C643.039 642.256 640.111 639.304 636.631 639.304C633.151 639.304 630.199 642.256 630.199 645.784C630.199 649.312 633.151 652.288 636.631 652.288ZM636.631 650.68C634.159 650.68 632.095 648.448 632.095 645.784C632.095 643.144 634.159 640.912 636.631 640.912C639.079 640.912 641.143 643.144 641.143 645.784C641.143 648.448 639.079 650.68 636.631 650.68ZM651.916 639.304C650.164 639.304 648.556 640.264 647.836 641.584V639.592H646.036V652H647.836V644.104C647.836 642.376 649.588 640.912 651.676 640.912C653.5 640.912 654.772 642.328 654.772 644.344V652H656.572V644.104C656.572 641.296 654.652 639.304 651.916 639.304ZM664.607 652.288C667.175 652.288 669.143 650.824 669.143 648.544C669.143 646.192 667.079 645.52 665.087 644.896C662.783 644.152 661.871 643.816 661.871 642.736C661.871 641.536 663.023 640.912 664.415 640.912C665.519 640.912 666.743 641.296 667.991 642.088L668.855 640.696C667.535 639.832 665.951 639.304 664.415 639.304C661.943 639.304 660.071 640.696 660.071 642.952C660.071 644.728 661.223 645.616 664.223 646.48C665.903 646.96 667.343 647.392 667.343 648.736C667.343 649.912 666.239 650.68 664.607 650.68C663.239 650.68 661.823 650.152 660.407 649.12L659.471 650.44C660.959 651.64 662.879 652.288 664.607 652.288Z" fill="black"/>
<g clip-path="url(#clip1)">
<rect x="390" y="340" width="210" height="210" rx="6" fill="white"/>
<path d="M434.078 523.722H437.63V507.234H434.078V523.722ZM449.033 524.01C453.809 524.01 457.793 520.098 457.793 515.466C457.793 510.834 453.809 506.946 449.033 506.946C444.305 506.946 440.273 510.834 440.273 515.466C440.273 520.098 444.305 524.01 449.033 524.01ZM449.033 520.794C446.273 520.794 443.921 518.346 443.921 515.466C443.921 512.61 446.273 510.162 449.033 510.162C451.817 510.162 454.169 512.61 454.169 515.466C454.169 518.346 451.817 520.794 449.033 520.794ZM464.67 523.722H468.222V510.426H473.358V507.234H459.534V510.426H464.67V523.722ZM486.58 523.722H490.564L483.844 507.234H479.884L473.164 523.722H477.124L478.18 521.13H485.524L486.58 523.722ZM479.404 518.13L481.852 512.106L484.3 518.13H479.404ZM506.29 511.026C504.682 511.026 503.29 511.746 502.546 512.874V511.314H499.042V523.722H502.546V516.306L502.57 516.378C502.57 515.034 503.698 513.978 505.162 513.978C506.554 513.978 507.514 515.034 507.514 516.57V523.722H510.898V515.826C510.898 513.018 508.978 511.026 506.29 511.026ZM519.952 524.01C523.624 524.01 526.696 521.034 526.696 517.506C526.696 513.978 523.624 511.026 519.952 511.026C516.256 511.026 513.16 513.978 513.16 517.506C513.16 521.034 516.256 524.01 519.952 524.01ZM519.952 521.058C518.08 521.058 516.52 519.426 516.52 517.506C516.52 515.586 518.08 513.978 519.952 513.978C521.8 513.978 523.36 515.586 523.36 517.506C523.36 519.426 521.8 521.058 519.952 521.058ZM538.331 506.946V513.09C537.347 511.794 535.907 511.026 534.155 511.026C530.843 511.026 528.443 513.714 528.443 517.506C528.443 521.322 530.843 524.01 534.155 524.01C535.907 524.01 537.347 523.242 538.331 521.946V523.722H541.835V506.946H538.331ZM535.163 521.058C533.219 521.058 531.851 519.594 531.851 517.506C531.851 515.442 533.219 513.978 535.163 513.978C537.011 513.978 538.331 515.442 538.331 517.506C538.331 519.594 537.011 521.058 535.163 521.058ZM550.767 520.914C549.303 520.914 548.223 520.002 547.815 518.658H556.767C556.767 513.978 554.487 511.026 550.599 511.026C546.975 511.026 544.215 513.738 544.215 517.482C544.215 521.298 547.095 524.01 550.791 524.01C552.615 524.01 554.751 523.242 555.855 522.09L553.623 519.81C552.951 520.458 551.751 520.914 550.767 520.914ZM550.743 514.122C552.159 514.122 553.071 514.914 553.407 516.138H547.863C548.319 514.89 549.423 514.122 550.743 514.122Z" fill="#131F37"/>
<circle cx="495" cy="425.271" r="50" fill="#8493AD"/>
<path d="M464.199 440.69V409.931C464.199 408.433 464.983 407.013 466.318 406.225L492.842 390.766C494.176 389.978 495.745 389.978 497.079 390.766L523.682 406.225C525.016 406.934 525.801 408.354 525.801 409.931V440.69C525.801 442.188 525.016 443.608 523.682 444.397L497.079 459.776C495.745 460.565 494.176 460.565 492.842 459.776L466.239 444.397C464.983 443.687 464.199 442.267 464.199 440.69Z" fill="#EEF2FA"/>
<path d="M479.501 433.04V417.582C479.501 416.793 479.894 416.083 480.6 415.689L493.941 407.96C494.568 407.565 495.432 407.565 496.059 407.96L509.4 415.689C510.028 416.083 510.499 416.793 510.499 417.582V433.119C510.499 433.908 510.106 434.617 509.4 435.012L496.059 442.741C495.432 443.135 494.568 443.135 493.941 442.741L480.6 435.012C479.894 434.538 479.501 433.829 479.501 433.04Z" fill="#C3D0E4"/>
<path fill-rule="evenodd" clip-rule="evenodd" d="M494.961 420.264C492.214 420.264 489.938 422.551 489.938 425.311C489.938 428.072 492.214 430.359 494.961 430.359C497.707 430.359 499.983 428.072 499.983 425.311C499.983 422.551 497.707 420.264 494.961 420.264Z" fill="#485776"/>
</g>
<rect x="390" y="340" width="210" height="210" rx="6" stroke="#0FC1B7" stroke-width="4"/>
<path d="M740 145.072L540.069 145.072C523.5 145.072 510.069 158.503 510.069 175.072L510.069 311.416" stroke="#C3D0E4" stroke-width="4"/>
<path d="M510.068 320L502.559 310.056L517.576 310.056L510.068 320Z" fill="#C3D0E4"/>
<g clip-path="url(#clip2)">
<rect width="210" height="210" rx="6" transform="matrix(-1 0 0 1 950 40)" fill="white"/>
<path d="M787.701 218.469H789.573V205.053L799.797 218.469H801.669V201.981H799.797V215.397L789.573 201.981H787.701V218.469ZM811.33 217.149C808.882 217.149 807.178 215.373 806.914 212.949H817.066C817.066 208.605 814.93 205.773 811.186 205.773C807.85 205.773 805.066 208.533 805.066 212.229C805.066 216.045 808.042 218.757 811.354 218.757C813.082 218.757 815.266 218.013 816.346 216.837L815.242 215.661C814.474 216.501 812.794 217.149 811.33 217.149ZM811.258 207.381C813.73 207.381 815.05 209.109 815.29 211.341H806.938C807.274 208.941 809.05 207.381 811.258 207.381ZM820.899 203.805C821.547 203.805 822.075 203.253 822.075 202.605C822.075 201.981 821.547 201.429 820.899 201.429C820.227 201.429 819.699 201.981 819.699 202.605C819.699 203.253 820.227 203.805 820.899 203.805ZM819.987 218.469H821.787V206.061H819.987V218.469ZM835.05 206.061V208.197C834.09 206.685 832.506 205.773 830.538 205.773C827.202 205.773 824.826 208.197 824.826 211.653C824.826 215.109 827.202 217.557 830.538 217.557C832.506 217.557 834.09 216.645 835.05 215.133V217.149C835.05 219.573 833.37 220.989 830.514 220.989C828.978 220.989 827.49 220.437 826.53 219.525L825.738 220.941C826.866 221.901 828.738 222.597 830.754 222.597C834.33 222.597 836.85 220.341 836.85 217.149V206.061H835.05ZM830.874 215.949C828.45 215.949 826.722 214.173 826.722 211.653C826.722 209.157 828.45 207.381 830.874 207.381C833.322 207.381 835.05 209.157 835.05 211.653C835.05 214.173 833.322 215.949 830.874 215.949ZM846.564 205.773C844.812 205.773 843.204 206.733 842.484 208.053V201.693H840.684V218.469H842.484V210.573C842.484 208.845 844.236 207.381 846.324 207.381C848.148 207.381 849.42 208.797 849.42 210.813V218.469H851.22V210.573C851.22 207.765 849.3 205.773 846.564 205.773ZM861.343 205.773C859.351 205.773 857.767 206.757 856.831 208.389V201.693H855.031V218.469H856.831V216.141C857.767 217.773 859.351 218.757 861.343 218.757C864.607 218.757 867.055 216.069 867.055 212.253C867.055 208.461 864.607 205.773 861.343 205.773ZM861.007 217.149C858.559 217.149 856.831 215.109 856.831 212.253C856.831 209.397 858.559 207.381 861.007 207.381C863.431 207.381 865.159 209.397 865.159 212.253C865.159 215.109 863.431 217.149 861.007 217.149ZM875.928 218.757C879.408 218.757 882.336 215.781 882.336 212.253C882.336 208.725 879.408 205.773 875.928 205.773C872.448 205.773 869.496 208.725 869.496 212.253C869.496 215.781 872.448 218.757 875.928 218.757ZM875.928 217.149C873.456 217.149 871.392 214.917 871.392 212.253C871.392 209.613 873.456 207.381 875.928 207.381C878.376 207.381 880.44 209.613 880.44 212.253C880.44 214.917 878.376 217.149 875.928 217.149ZM887.276 208.485V206.061H885.476V218.469H887.276V211.533C887.276 209.109 889.268 207.381 892.076 207.381V205.773C889.796 205.773 888.02 206.829 887.276 208.485ZM898.958 218.757C901.526 218.757 903.494 217.293 903.494 215.013C903.494 212.661 901.43 211.989 899.438 211.365C897.134 210.621 896.222 210.285 896.222 209.205C896.222 208.005 897.374 207.381 898.766 207.381C899.87 207.381 901.094 207.765 902.342 208.557L903.206 207.165C901.886 206.301 900.302 205.773 898.766 205.773C896.294 205.773 894.422 207.165 894.422 209.421C894.422 211.197 895.574 212.085 898.574 212.949C900.254 213.429 901.694 213.861 901.694 215.205C901.694 216.381 900.59 217.149 898.958 217.149C897.59 217.149 896.174 216.621 894.758 215.589L893.822 216.909C895.31 218.109 897.23 218.757 898.958 218.757Z" fill="#131F37"/>
<circle cx="845" cy="125.271" r="50" fill="#8493AD"/>
<path d="M820.217 104.848L829.271 97.7187C829.984 97.1484 830.911 97.1484 831.623 97.7187L840.677 104.848C841.105 105.204 841.39 105.774 841.39 106.345V120.816C841.39 121.886 840.535 122.67 839.537 122.67H821.5C820.431 122.67 819.647 121.814 819.647 120.816V106.345C819.504 105.774 819.79 105.204 820.217 104.848Z" fill="#EEF2FA"/>
<path d="M829.627 114.258H831.053C832.123 114.258 832.907 115.113 832.907 116.111V122.599H827.703V116.111C827.774 115.113 828.629 114.258 829.627 114.258Z" fill="#485776"/>
<path d="M820.139 135.428L829.192 128.299C829.905 127.729 830.832 127.729 831.545 128.299L840.599 135.428C841.026 135.784 841.311 136.354 841.311 136.925V151.396C841.311 152.466 840.456 153.25 839.458 153.25H821.422C820.353 153.25 819.568 152.394 819.568 151.396V136.925C819.426 136.354 819.711 135.784 820.139 135.428Z" fill="#EEF2FA"/>
<path d="M829.549 144.838H830.975C832.044 144.838 832.828 145.693 832.828 146.691V153.179H827.624V146.691C827.695 145.693 828.551 144.838 829.549 144.838Z" fill="#485776"/>
<path d="M849.296 104.848L858.35 97.7187C859.062 97.1484 859.989 97.1484 860.702 97.7187L869.756 104.848C870.184 105.204 870.469 105.774 870.469 106.345V120.816C870.469 121.886 869.613 122.67 868.615 122.67H850.579C849.51 122.67 848.726 121.814 848.726 120.816V106.345C848.583 105.774 848.868 105.204 849.296 104.848Z" fill="#EEF2FA"/>
<path d="M858.706 114.258H860.132C861.201 114.258 861.985 115.113 861.985 116.111V122.599H856.781V116.111C856.853 115.113 857.708 114.258 858.706 114.258Z" fill="#485776"/>
<path d="M849.296 135.428L858.35 128.299C859.062 127.729 859.989 127.729 860.702 128.299L869.756 135.428C870.184 135.784 870.469 136.354 870.469 136.925V151.396C870.469 152.466 869.613 153.25 868.615 153.25H850.579C849.51 153.25 848.726 152.394 848.726 151.396V136.925C848.583 136.354 848.868 135.784 849.296 135.428Z" fill="#EEF2FA"/>
<path d="M858.706 144.838H860.132C861.201 144.838 861.985 145.693 861.985 146.691V153.179H856.781V146.691C856.853 145.693 857.708 144.838 858.706 144.838Z" fill="#485776"/>
</g>
<rect width="210" height="210" rx="6" transform="matrix(-1 0 0 1 950 40)" stroke="#C3D0E4" stroke-width="4"/>
<path d="M510.011 550L510.011 716.717" stroke="#0FC1B7" stroke-width="4"/>
<path d="M510.01 724.949L502.502 715.006L517.519 715.006L510.01 724.949Z" fill="#0FC1B7"/>
<path d="M479.999 740L479.999 573.283" stroke="#C3D0E4" stroke-width="4"/>
<path d="M480 565.051L487.509 574.994L472.492 574.994L480 565.051Z" fill="#C3D0E4"/>
<path d="M250 145.073L450.14 145.073C466.708 145.073 480.139 158.505 480.139 175.073L480.139 311.417" stroke="#C3D0E4" stroke-width="4"/>
<path d="M480.14 320L487.648 310.056L472.631 310.056L480.14 320Z" fill="#C3D0E4"/>
<defs>
<filter id="filter0_f" x="497.378" y="794.654" width="34.2756" height="32.1688" filterUnits="userSpaceOnUse" color-interpolation-filters="sRGB">
<feFlood flood-opacity="0" result="BackgroundImageFix"/>
<feBlend mode="normal" in="SourceGraphic" in2="BackgroundImageFix" result="shape"/>
<feGaussianBlur stdDeviation="6.77207" result="effect1_foregroundBlur"/>
</filter>
<filter id="filter1_f" x="497.378" y="808.059" width="34.2756" height="32.1688" filterUnits="userSpaceOnUse" color-interpolation-filters="sRGB">
<feFlood flood-opacity="0" result="BackgroundImageFix"/>
<feBlend mode="normal" in="SourceGraphic" in2="BackgroundImageFix" result="shape"/>
<feGaussianBlur stdDeviation="6.77207" result="effect1_foregroundBlur"/>
</filter>
<filter id="filter2_f" x="497.378" y="821.467" width="34.2756" height="32.1688" filterUnits="userSpaceOnUse" color-interpolation-filters="sRGB">
<feFlood flood-opacity="0" result="BackgroundImageFix"/>
<feBlend mode="normal" in="SourceGraphic" in2="BackgroundImageFix" result="shape"/>
<feGaussianBlur stdDeviation="6.77207" result="effect1_foregroundBlur"/>
</filter>
<clipPath id="clip0">
<rect x="40" y="40" width="210" height="210" rx="6" fill="white"/>
</clipPath>
<clipPath id="clip1">
<rect x="390" y="340" width="210" height="210" rx="6" fill="white"/>
</clipPath>
<clipPath id="clip2">
<rect width="210" height="210" rx="6" transform="matrix(-1 0 0 1 950 40)" fill="white"/>
</clipPath>
</defs>
</svg>
