<svg width="990" height="681" viewBox="0 0 990 681" fill="none" xmlns="http://www.w3.org/2000/svg">
<path d="M337.06 229.213C336.684 229.617 336.707 230.25 337.111 230.626L343.699 236.758C344.104 237.134 344.736 237.111 345.113 236.707C345.489 236.302 345.466 235.67 345.062 235.294L339.205 229.844L344.655 223.987C345.032 223.583 345.009 222.95 344.605 222.574C344.2 222.198 343.568 222.22 343.191 222.625L337.06 229.213ZM909.964 208.325L337.756 228.895L337.828 230.894L910.036 210.324L909.964 208.325Z" fill="#C3D0E4"/>
<path d="M337.116 249.447C336.874 249.58 336.786 249.884 336.92 250.126L339.091 254.068C339.224 254.31 339.528 254.398 339.77 254.264C340.012 254.131 340.1 253.827 339.967 253.585L338.037 250.082L341.54 248.152C341.782 248.018 341.87 247.714 341.737 247.472C341.604 247.231 341.3 247.143 341.058 247.276L337.116 249.447ZM718.621 359.787L716.257 359.103L715.979 360.063L718.343 360.748L718.621 359.787ZM708.691 356.911L703.962 355.542L703.684 356.502L708.413 357.872L708.691 356.911ZM696.397 353.351L691.668 351.981L691.39 352.942L696.118 354.311L696.397 353.351ZM684.102 349.79L679.374 348.42L679.096 349.381L683.824 350.75L684.102 349.79ZM671.808 346.229L667.079 344.86L666.801 345.82L671.53 347.19L671.808 346.229ZM659.514 342.668L654.785 341.299L654.507 342.259L659.235 343.629L659.514 342.668ZM647.219 339.108L642.491 337.738L642.213 338.699L646.941 340.068L647.219 339.108ZM634.925 335.547L630.196 334.177L629.918 335.138L634.647 336.507L634.925 335.547ZM622.631 331.986L617.902 330.617L617.624 331.577L622.352 332.947L622.631 331.986ZM610.336 328.425L605.608 327.056L605.33 328.016L610.058 329.386L610.336 328.425ZM598.042 324.865L593.313 323.495L593.035 324.456L597.764 325.825L598.042 324.865ZM585.748 321.304L581.019 319.935L580.741 320.895L585.469 322.265L585.748 321.304ZM573.453 317.743L568.725 316.374L568.447 317.334L573.175 318.704L573.453 317.743ZM561.159 314.183L556.43 312.813L556.152 313.774L560.881 315.143L561.159 314.183ZM548.865 310.622L544.136 309.252L543.858 310.213L548.586 311.582L548.865 310.622ZM536.57 307.061L531.842 305.692L531.564 306.652L536.292 308.022L536.57 307.061ZM524.276 303.5L519.547 302.131L519.269 303.091L523.998 304.461L524.276 303.5ZM511.982 299.94L507.253 298.57L506.975 299.531L511.703 300.9L511.982 299.94ZM499.687 296.379L494.959 295.009L494.681 295.97L499.409 297.339L499.687 296.379ZM487.393 292.818L482.664 291.449L482.386 292.409L487.115 293.779L487.393 292.818ZM475.099 289.257L470.37 287.888L470.092 288.848L474.82 290.218L475.099 289.257ZM462.804 285.697L458.076 284.327L457.797 285.288L462.526 286.657L462.804 285.697ZM450.51 282.136L445.781 280.766L445.503 281.727L450.232 283.096L450.51 282.136ZM438.216 278.575L433.487 277.206L433.209 278.166L437.937 279.536L438.216 278.575ZM425.921 275.015L421.193 273.645L420.915 274.606L425.643 275.975L425.921 275.015ZM413.627 271.454L408.898 270.084L408.62 271.045L413.349 272.414L413.627 271.454ZM401.333 267.893L396.604 266.524L396.326 267.484L401.054 268.854L401.333 267.893ZM389.038 264.332L384.31 262.963L384.031 263.923L388.76 265.293L389.038 264.332ZM376.744 260.772L372.015 259.402L371.737 260.363L376.466 261.732L376.744 260.772ZM364.45 257.211L359.721 255.841L359.443 256.802L364.171 258.171L364.45 257.211ZM352.155 253.65L347.427 252.281L347.148 253.241L351.877 254.611L352.155 253.65ZM339.861 250.089L337.497 249.405L337.218 250.365L339.583 251.05L339.861 250.089ZM336.875 249.009C336.391 249.275 336.215 249.884 336.482 250.367L340.824 258.251C341.09 258.734 341.699 258.91 342.182 258.644C342.666 258.377 342.842 257.769 342.576 257.286L338.716 250.278L345.723 246.418C346.207 246.152 346.383 245.544 346.117 245.06C345.85 244.576 345.242 244.4 344.758 244.667L336.875 249.009ZM718.76 359.307L716.396 358.622L715.839 360.543L718.204 361.228L718.76 359.307ZM708.83 356.431L704.101 355.062L703.545 356.983L708.274 358.352L708.83 356.431ZM696.536 352.87L691.807 351.501L691.251 353.422L695.979 354.791L696.536 352.87ZM684.241 349.31L679.513 347.94L678.956 349.861L683.685 351.231L684.241 349.31ZM671.947 345.749L667.218 344.379L666.662 346.3L671.391 347.67L671.947 345.749ZM659.653 342.188L654.924 340.819L654.368 342.74L659.096 344.109L659.653 342.188ZM647.358 338.627L642.63 337.258L642.073 339.179L646.802 340.548L647.358 338.627ZM635.064 335.067L630.335 333.697L629.779 335.618L634.508 336.988L635.064 335.067ZM622.77 331.506L618.041 330.136L617.485 332.057L622.213 333.427L622.77 331.506ZM610.475 327.945L605.747 326.576L605.19 328.497L609.919 329.866L610.475 327.945ZM598.181 324.384L593.452 323.015L592.896 324.936L597.625 326.306L598.181 324.384ZM585.887 320.824L581.158 319.454L580.602 321.375L585.33 322.745L585.887 320.824ZM573.592 317.263L568.864 315.894L568.307 317.815L573.036 319.184L573.592 317.263ZM561.298 313.702L556.569 312.333L556.013 314.254L560.742 315.623L561.298 313.702ZM549.004 310.142L544.275 308.772L543.719 310.693L548.447 312.063L549.004 310.142ZM536.709 306.581L531.981 305.211L531.424 307.132L536.153 308.502L536.709 306.581ZM524.415 303.02L519.686 301.651L519.13 303.572L523.859 304.941L524.415 303.02ZM512.121 299.459L507.392 298.09L506.836 300.011L511.564 301.38L512.121 299.459ZM499.826 295.899L495.098 294.529L494.541 296.45L499.27 297.82L499.826 295.899ZM487.532 292.338L482.803 290.968L482.247 292.889L486.976 294.259L487.532 292.338ZM475.238 288.777L470.509 287.408L469.953 289.329L474.681 290.698L475.238 288.777ZM462.943 285.216L458.215 283.847L457.658 285.768L462.387 287.137L462.943 285.216ZM450.649 281.656L445.92 280.286L445.364 282.207L450.093 283.577L450.649 281.656ZM438.355 278.095L433.626 276.725L433.07 278.647L437.798 280.016L438.355 278.095ZM426.06 274.534L421.332 273.165L420.775 275.086L425.504 276.455L426.06 274.534ZM413.766 270.974L409.037 269.604L408.481 271.525L413.21 272.895L413.766 270.974ZM401.472 267.413L396.743 266.043L396.187 267.964L400.915 269.334L401.472 267.413ZM389.177 263.852L384.449 262.483L383.892 264.404L388.621 265.773L389.177 263.852ZM376.883 260.291L372.154 258.922L371.598 260.843L376.327 262.212L376.883 260.291ZM364.589 256.731L359.86 255.361L359.304 257.282L364.032 258.652L364.589 256.731ZM352.294 253.17L347.566 251.8L347.009 253.721L351.738 255.091L352.294 253.17ZM340 249.609L337.636 248.924L337.079 250.845L339.444 251.53L340 249.609Z" fill="#C3D0E4"/>
<path d="M59.7724 158.613C59.5265 158.739 59.4291 159.04 59.5548 159.286L61.6035 163.292C61.7292 163.538 62.0304 163.636 62.2763 163.51C62.5221 163.384 62.6195 163.083 62.4938 162.837L60.6728 159.276L64.2343 157.455C64.4801 157.329 64.5775 157.028 64.4518 156.782C64.3261 156.536 64.0249 156.439 63.779 156.564L59.7724 158.613ZM310.133 239.414L307.729 238.637L307.422 239.588L309.825 240.365L310.133 239.414ZM300.038 236.15L295.23 234.595L294.923 235.547L299.73 237.101L300.038 236.15ZM287.539 232.108L282.732 230.554L282.424 231.505L287.231 233.059L287.539 232.108ZM275.04 228.066L270.233 226.512L269.925 227.463L274.732 229.018L275.04 228.066ZM262.541 224.025L257.734 222.47L257.426 223.422L262.233 224.976L262.541 224.025ZM250.042 219.983L245.235 218.429L244.927 219.38L249.734 220.935L250.042 219.983ZM237.543 215.942L232.736 214.387L232.428 215.339L237.235 216.893L237.543 215.942ZM225.044 211.9L220.237 210.346L219.929 211.297L224.736 212.852L225.044 211.9ZM212.545 207.859L207.738 206.304L207.43 207.256L212.237 208.81L212.545 207.859ZM200.046 203.817L195.239 202.263L194.931 203.214L199.738 204.768L200.046 203.817ZM187.547 199.775L182.74 198.221L182.432 199.172L187.239 200.727L187.547 199.775ZM175.048 195.734L170.241 194.179L169.933 195.131L174.74 196.685L175.048 195.734ZM162.549 191.692L157.742 190.138L157.434 191.089L162.241 192.644L162.549 191.692ZM150.05 187.651L145.243 186.096L144.935 187.048L149.743 188.602L150.05 187.651ZM137.551 183.609L132.744 182.055L132.436 183.006L137.244 184.561L137.551 183.609ZM125.052 179.568L120.245 178.013L119.937 178.965L124.745 180.519L125.052 179.568ZM112.553 175.526L107.746 173.971L107.438 174.923L112.246 176.477L112.553 175.526ZM100.054 171.484L95.247 169.93L94.9393 170.881L99.7467 172.436L100.054 171.484ZM87.5554 167.443L82.7481 165.888L82.4404 166.84L87.2477 168.394L87.5554 167.443ZM75.0564 163.401L70.2491 161.847L69.9414 162.798L74.7487 164.353L75.0564 163.401ZM62.5575 159.36L60.1538 158.582L59.8462 159.534L62.2498 160.311L62.5575 159.36ZM59.5448 158.168C59.053 158.419 58.8582 159.022 59.1097 159.513L63.2069 167.527C63.4584 168.018 64.0608 168.213 64.5525 167.962C65.0443 167.71 65.2391 167.108 64.9877 166.616L61.3456 159.493L68.4685 155.851C68.9603 155.6 69.1551 154.997 68.9036 154.506C68.6522 154.014 68.0497 153.819 67.558 154.071L59.5448 158.168ZM310.287 238.938L307.883 238.161L307.268 240.064L309.672 240.841L310.287 238.938ZM300.192 235.674L295.384 234.119L294.769 236.022L299.576 237.577L300.192 235.674ZM287.693 231.632L282.885 230.078L282.27 231.981L287.077 233.535L287.693 231.632ZM275.194 227.591L270.386 226.036L269.771 227.939L274.578 229.494L275.194 227.591ZM262.695 223.549L257.887 221.995L257.272 223.898L262.079 225.452L262.695 223.549ZM250.196 219.508L245.388 217.953L244.773 219.856L249.58 221.411L250.196 219.508ZM237.697 215.466L232.89 213.911L232.274 215.814L237.081 217.369L237.697 215.466ZM225.198 211.424L220.391 209.87L219.775 211.773L224.582 213.327L225.198 211.424ZM212.699 207.383L207.892 205.828L207.276 207.731L212.084 209.286L212.699 207.383ZM200.2 203.341L195.393 201.787L194.777 203.69L199.585 205.244L200.2 203.341ZM187.701 199.3L182.894 197.745L182.278 199.648L187.086 201.203L187.701 199.3ZM175.202 195.258L170.395 193.704L169.779 195.607L174.587 197.161L175.202 195.258ZM162.703 191.216L157.896 189.662L157.28 191.565L162.088 193.119L162.703 191.216ZM150.204 187.175L145.397 185.62L144.781 187.523L149.589 189.078L150.204 187.175ZM137.705 183.133L132.898 181.579L132.282 183.482L137.09 185.036L137.705 183.133ZM125.206 179.092L120.399 177.537L119.783 179.44L124.591 180.995L125.206 179.092ZM112.707 175.05L107.9 173.496L107.284 175.399L112.092 176.953L112.707 175.05ZM100.208 171.009L95.4009 169.454L94.7855 171.357L99.5928 172.912L100.208 171.009ZM87.7092 166.967L82.9019 165.413L82.2866 167.316L87.0938 168.87L87.7092 166.967ZM75.2102 162.925L70.4029 161.371L69.7876 163.274L74.5949 164.828L75.2102 162.925ZM62.7113 158.884L60.3077 158.107L59.6923 160.01L62.0959 160.787L62.7113 158.884Z" fill="#C3D0E4"/>
<path d="M59.8121 338.861C59.5562 338.964 59.4328 339.256 59.5366 339.512L61.2277 343.682C61.3314 343.938 61.623 344.061 61.8789 343.957C62.1348 343.854 62.2581 343.562 62.1544 343.306L60.6512 339.599L64.358 338.096C64.6139 337.992 64.7373 337.701 64.6335 337.445C64.5297 337.189 64.2382 337.066 63.9823 337.169L59.8121 338.861ZM249.333 418.864L247.06 417.902L246.67 418.823L248.943 419.785L249.333 418.864ZM239.785 414.825L235.239 412.902L234.849 413.823L239.396 415.746L239.785 414.825ZM227.964 409.825L223.417 407.902L223.028 408.823L227.574 410.746L227.964 409.825ZM216.143 404.825L211.596 402.902L211.207 403.823L215.753 405.746L216.143 404.825ZM204.322 399.825L199.775 397.902L199.386 398.823L203.932 400.746L204.322 399.825ZM192.501 394.825L187.954 392.902L187.564 393.823L192.111 395.746L192.501 394.825ZM180.679 389.825L176.133 387.902L175.743 388.823L180.29 390.746L180.679 389.825ZM168.858 384.825L164.312 382.902L163.922 383.823L168.469 385.746L168.858 384.825ZM157.037 379.825L152.491 377.902L152.101 378.823L156.648 380.746L157.037 379.825ZM145.216 374.825L140.669 372.902L140.28 373.823L144.826 375.746L145.216 374.825ZM133.395 369.825L128.848 367.902L128.459 368.823L133.005 370.746L133.395 369.825ZM121.574 364.825L117.027 362.902L116.638 363.823L121.184 365.746L121.574 364.825ZM109.753 359.825L105.206 357.902L104.816 358.823L109.363 360.746L109.753 359.825ZM97.9315 354.825L93.3849 352.902L92.9953 353.823L97.5419 355.746L97.9315 354.825ZM86.1103 349.825L81.5637 347.902L81.1742 348.823L85.7208 350.746L86.1103 349.825ZM74.2892 344.825L69.7426 342.902L69.353 343.823L73.8996 345.746L74.2892 344.825ZM62.4681 339.825L60.1947 338.863L59.8052 339.784L62.0785 340.746L62.4681 339.825ZM59.6242 338.397C59.1124 338.605 58.8657 339.188 59.0733 339.7L62.4553 348.04C62.6629 348.552 63.246 348.798 63.7578 348.591C64.2696 348.383 64.5163 347.8 64.3088 347.288L61.3025 339.875L68.7161 336.868C69.2279 336.661 69.4746 336.078 69.267 335.566C69.0595 335.054 68.4763 334.808 67.9645 335.015L59.6242 338.397ZM249.528 418.403L247.254 417.442L246.475 419.284L248.749 420.245L249.528 418.403ZM239.98 414.365L235.433 412.442L234.654 414.284L239.201 416.207L239.98 414.365ZM228.159 409.365L223.612 407.442L222.833 409.284L227.38 411.207L228.159 409.365ZM216.338 404.365L211.791 402.442L211.012 404.284L215.559 406.207L216.338 404.365ZM204.516 399.365L199.97 397.442L199.191 399.284L203.737 401.207L204.516 399.365ZM192.695 394.365L188.149 392.442L187.37 394.284L191.916 396.207L192.695 394.365ZM180.874 389.365L176.328 387.442L175.548 389.284L180.095 391.207L180.874 389.365ZM169.053 384.365L164.506 382.442L163.727 384.284L168.274 386.207L169.053 384.365ZM157.232 379.365L152.685 377.441L151.906 379.283L156.453 381.207L157.232 379.365ZM145.411 374.365L140.864 372.441L140.085 374.283L144.632 376.207L145.411 374.365ZM133.59 369.365L129.043 367.441L128.264 369.283L132.811 371.207L133.59 369.365ZM121.768 364.365L117.222 362.441L116.443 364.283L120.989 366.207L121.768 364.365ZM109.947 359.364L105.401 357.441L104.622 359.283L109.168 361.206L109.947 359.364ZM98.1262 354.364L93.5796 352.441L92.8005 354.283L97.3471 356.206L98.1262 354.364ZM86.3051 349.364L81.7585 347.441L80.9794 349.283L85.526 351.206L86.3051 349.364ZM74.484 344.364L69.9374 342.441L69.1583 344.283L73.7048 346.206L74.484 344.364ZM62.6628 339.364L60.3895 338.403L59.6104 340.245L61.8837 341.206L62.6628 339.364Z" fill="#C3D0E4"/>
<path d="M279.196 419.201C278.863 419.641 278.949 420.268 279.389 420.602L286.562 426.038C287.002 426.372 287.629 426.286 287.963 425.845C288.296 425.405 288.21 424.778 287.77 424.444L281.394 419.612L286.227 413.236C286.561 412.796 286.474 412.169 286.034 411.835C285.594 411.502 284.967 411.588 284.633 412.028L279.196 419.201ZM719.215 358.334L279.857 418.814L280.13 420.795L719.488 360.315L719.215 358.334Z" fill="#C3D0E4"/>
<path d="M59.1097 319.614C58.8581 320.106 59.0528 320.708 59.5444 320.96L67.5564 325.059C68.048 325.311 68.6506 325.116 68.9021 324.625C69.1537 324.133 68.9591 323.531 68.4674 323.279L61.3457 319.635L64.99 312.513C65.2415 312.021 65.0469 311.419 64.5553 311.167C64.0636 310.916 63.4611 311.11 63.2095 311.602L59.1097 319.614ZM309.672 238.373L59.6926 319.118L60.3073 321.021L310.287 240.276L309.672 238.373Z" fill="#C3D0E4"/>
<path d="M59.0715 499.831C58.8664 500.343 59.1158 500.925 59.6286 501.13L67.9849 504.473C68.4977 504.678 69.0797 504.428 69.2848 503.916C69.4899 503.403 69.2405 502.821 68.7277 502.616L61.2998 499.645L64.2708 492.217C64.4759 491.704 64.2265 491.122 63.7137 490.917C63.2009 490.712 62.6189 490.961 62.4138 491.474L59.0715 499.831ZM248.31 418.405L59.606 499.283L60.3939 501.121L249.098 420.244L248.31 418.405Z" fill="#C3D0E4"/>
<path d="M628.755 101.237C628.503 101.349 628.39 101.645 628.502 101.897L630.336 106.006C630.448 106.259 630.744 106.372 630.996 106.259C631.248 106.147 631.362 105.851 631.249 105.599L629.619 101.946L633.272 100.316C633.524 100.204 633.638 99.9081 633.525 99.6559C633.413 99.4037 633.117 99.2905 632.865 99.403L628.755 101.237ZM910.179 208.857L907.829 207.957L907.471 208.891L909.821 209.791L910.179 208.857ZM900.309 205.077L895.61 203.277L895.252 204.211L899.952 206.011L900.309 205.077ZM888.09 200.398L883.39 198.598L883.033 199.532L887.733 201.332L888.09 200.398ZM875.871 195.718L871.171 193.918L870.814 194.852L875.513 196.652L875.871 195.718ZM863.652 191.038L858.952 189.239L858.595 190.172L863.294 191.972L863.652 191.038ZM851.433 186.359L846.733 184.559L846.375 185.493L851.075 187.293L851.433 186.359ZM839.213 181.679L834.514 179.879L834.156 180.813L838.856 182.613L839.213 181.679ZM826.994 177L822.295 175.2L821.937 176.134L826.637 177.934L826.994 177ZM814.775 172.32L810.075 170.52L809.718 171.454L814.418 173.254L814.775 172.32ZM802.556 167.64L797.856 165.841L797.499 166.775L802.198 168.574L802.556 167.64ZM790.337 162.961L785.637 161.161L785.28 162.095L789.979 163.895L790.337 162.961ZM778.118 158.281L773.418 156.481L773.06 157.415L777.76 159.215L778.118 158.281ZM765.899 153.602L761.199 151.802L760.841 152.736L765.541 154.536L765.899 153.602ZM753.679 148.922L748.98 147.122L748.622 148.056L753.322 149.856L753.679 148.922ZM741.46 144.243L736.761 142.443L736.403 143.377L741.103 145.176L741.46 144.243ZM729.241 139.563L724.541 137.763L724.184 138.697L728.883 140.497L729.241 139.563ZM717.022 134.883L712.322 133.083L711.965 134.017L716.664 135.817L717.022 134.883ZM704.803 130.204L700.103 128.404L699.745 129.338L704.445 131.138L704.803 130.204ZM692.584 125.524L687.884 123.724L687.526 124.658L692.226 126.458L692.584 125.524ZM680.364 120.845L675.665 119.045L675.307 119.979L680.007 121.778L680.364 120.845ZM668.145 116.165L663.446 114.365L663.088 115.299L667.788 117.099L668.145 116.165ZM655.926 111.485L651.226 109.685L650.869 110.619L655.568 112.419L655.926 111.485ZM643.707 106.806L639.007 105.006L638.65 105.94L643.349 107.74L643.707 106.806ZM631.488 102.126L629.138 101.226L628.78 102.16L631.13 103.06L631.488 102.126ZM628.552 100.78C628.047 101.005 627.821 101.596 628.046 102.101L631.713 110.32C631.938 110.824 632.529 111.05 633.034 110.825C633.538 110.6 633.764 110.009 633.539 109.505L630.28 102.199L637.586 98.9394C638.09 98.7143 638.316 98.123 638.091 97.6187C637.866 97.1143 637.275 96.8879 636.771 97.1129L628.552 100.78ZM910.357 208.39L908.008 207.49L907.292 209.358L909.642 210.258L910.357 208.39ZM900.488 204.61L895.788 202.81L895.073 204.678L899.773 206.478L900.488 204.61ZM888.269 199.931L883.569 198.131L882.854 199.999L887.554 201.798L888.269 199.931ZM876.05 195.251L871.35 193.451L870.635 195.319L875.335 197.119L876.05 195.251ZM863.831 190.572L859.131 188.772L858.416 190.639L863.115 192.439L863.831 190.572ZM851.611 185.892L846.912 184.092L846.197 185.96L850.896 187.76L851.611 185.892ZM839.392 181.212L834.693 179.413L833.977 181.28L838.677 183.08L839.392 181.212ZM827.173 176.533L822.473 174.733L821.758 176.601L826.458 178.4L827.173 176.533ZM814.954 171.853L810.254 170.053L809.539 171.921L814.239 173.721L814.954 171.853ZM802.735 167.174L798.035 165.374L797.32 167.241L802.02 169.041L802.735 167.174ZM790.516 162.494L785.816 160.694L785.101 162.562L789.8 164.362L790.516 162.494ZM778.296 157.814L773.597 156.015L772.882 157.882L777.581 159.682L778.296 157.814ZM766.077 153.135L761.378 151.335L760.662 153.203L765.362 155.002L766.077 153.135ZM753.858 148.455L749.158 146.655L748.443 148.523L753.143 150.323L753.858 148.455ZM741.639 143.776L736.939 141.976L736.224 143.843L740.924 145.643L741.639 143.776ZM729.42 139.096L724.72 137.296L724.005 139.164L728.705 140.964L729.42 139.096ZM717.201 134.416L712.501 132.617L711.786 134.484L716.485 136.284L717.201 134.416ZM704.982 129.737L700.282 127.937L699.567 129.805L704.266 131.605L704.982 129.737ZM692.762 125.057L688.063 123.257L687.347 125.125L692.047 126.925L692.762 125.057ZM680.543 120.378L675.844 118.578L675.128 120.445L679.828 122.245L680.543 120.378ZM668.324 115.698L663.624 113.898L662.909 115.766L667.609 117.566L668.324 115.698ZM656.105 111.018L651.405 109.219L650.69 111.086L655.39 112.886L656.105 111.018ZM643.886 106.339L639.186 104.539L638.471 106.407L643.17 108.207L643.886 106.339ZM631.667 101.659L629.317 100.759L628.601 102.627L630.951 103.527L631.667 101.659Z" fill="#C3D0E4"/>
<circle cx="910" cy="209.324" r="20" fill="#FFBF9F"/>
<circle cx="720" cy="359.324" r="20" fill="#FFBF9F"/>
<circle cx="600" cy="89.3242" r="20" fill="#42979F"/>
<path d="M92.9779 630.185H99.0799C101.294 630.185 102.878 628.799 102.878 626.819C102.878 625.451 102.05 624.335 100.61 623.633C101.726 623.003 102.374 622.193 102.374 620.897C102.374 619.097 100.916 617.819 98.8459 617.819H92.9779V630.185ZM94.7959 622.967V619.421H98.3959C99.6379 619.421 100.52 620.177 100.52 621.203C100.52 622.229 99.6379 622.967 98.3959 622.967H94.7959ZM94.7959 628.583V624.515H98.6659C100.052 624.515 101.024 625.361 101.024 626.549C101.024 627.737 100.052 628.583 98.6659 628.583H94.7959ZM106.972 622.661V620.879H105.19V630.185H106.972V624.893C107.134 623.273 108.502 622.211 110.428 622.211V620.663C108.826 620.663 107.566 621.437 106.972 622.661ZM116.073 620.663C115.047 620.663 113.877 620.933 112.545 621.599L113.193 622.913C114.003 622.499 114.903 622.139 115.821 622.139C117.675 622.139 118.215 623.381 118.215 624.551V624.839C117.315 624.533 116.325 624.335 115.407 624.335C113.355 624.335 111.681 625.577 111.681 627.431C111.681 629.249 113.139 630.401 115.119 630.401C116.253 630.401 117.531 629.879 118.215 628.907V630.185H119.961V624.551C119.961 622.247 118.575 620.663 116.073 620.663ZM115.461 628.997C114.291 628.997 113.391 628.385 113.391 627.377C113.391 626.369 114.435 625.667 115.677 625.667C116.595 625.667 117.459 625.793 118.215 626.027V627.269C117.909 628.421 116.613 628.997 115.461 628.997ZM127.272 620.663C126.012 620.663 124.878 621.311 124.32 622.229V620.879H122.538V630.185H124.32V624.155C124.464 623.057 125.58 622.211 126.876 622.211C128.136 622.211 129.018 623.183 129.018 624.569V630.185H130.764V624.263C130.764 622.157 129.324 620.663 127.272 620.663ZM137.705 630.401C139.091 630.401 140.297 629.825 141.197 628.907L139.991 627.809C139.415 628.457 138.587 628.853 137.723 628.853C136.013 628.853 134.609 627.341 134.609 625.523C134.609 623.723 136.013 622.211 137.705 622.211C138.569 622.211 139.379 622.589 139.937 623.219L141.143 622.103C140.261 621.221 139.055 620.663 137.723 620.663C135.059 620.663 132.809 622.877 132.809 625.523C132.809 628.169 135.059 630.401 137.705 630.401ZM147.838 620.663C146.56 620.663 145.426 621.329 144.868 622.265V617.603H143.104V630.185H144.868V624.407C144.868 623.201 146.038 622.211 147.442 622.211C148.702 622.211 149.584 623.183 149.584 624.569V630.185H151.33V624.263C151.33 622.157 149.89 620.663 147.838 620.663Z" fill="#131F37"/>
<path d="M351.369 630.185H353.187V619.511H357.255V617.819H347.319V619.511H351.369V630.185ZM361.14 622.661V620.879H359.358V630.185H361.14V624.893C361.302 623.273 362.67 622.211 364.596 622.211V620.663C362.994 620.663 361.734 621.437 361.14 622.661ZM372.742 620.879V626.909C372.598 628.007 371.482 628.853 370.186 628.853C368.926 628.853 368.044 627.881 368.044 626.495V620.879H366.298V626.801C366.298 628.907 367.738 630.401 369.79 630.401C371.05 630.401 372.184 629.753 372.742 628.835V630.185H374.524V620.879H372.742ZM381.844 620.663C380.584 620.663 379.45 621.311 378.892 622.229V620.879H377.11V630.185H378.892V624.155C379.036 623.057 380.152 622.211 381.448 622.211C382.708 622.211 383.59 623.183 383.59 624.569V630.185H385.336V624.263C385.336 622.157 383.896 620.663 381.844 620.663ZM396.345 620.879H394.185L389.631 625.631V617.603H387.867V630.185H389.631V627.791L391.125 626.279L394.041 630.185H396.165L392.331 625.091L396.345 620.879Z" fill="#131F37"/>
<path d="M556.525 630.185H558.343V619.511H562.411V617.819H552.475V619.511H556.525V630.185ZM565.306 619.331C565.882 619.331 566.368 618.827 566.368 618.251C566.368 617.693 565.882 617.189 565.306 617.189C564.694 617.189 564.226 617.693 564.226 618.251C564.226 618.827 564.694 619.331 565.306 619.331ZM564.406 630.185H566.188V620.879H564.406V630.185ZM573.932 620.663C572.492 620.663 571.34 621.347 570.62 622.481V620.879H568.856V633.281H570.62V628.565C571.34 629.717 572.492 630.401 573.932 630.401C576.38 630.401 578.216 628.385 578.216 625.523C578.216 622.679 576.38 620.663 573.932 620.663ZM573.5 628.853C571.826 628.853 570.62 627.467 570.62 625.523C570.62 623.579 571.826 622.211 573.5 622.211C575.21 622.211 576.416 623.579 576.416 625.523C576.416 627.467 575.21 628.853 573.5 628.853ZM589.01 630.185H590.828V619.511H594.896V617.819H584.96V619.511H589.01V630.185ZM598.78 622.661V620.879H596.998V630.185H598.78V624.893C598.942 623.273 600.31 622.211 602.236 622.211V620.663C600.634 620.663 599.374 621.437 598.78 622.661ZM607.881 620.663C606.855 620.663 605.685 620.933 604.353 621.599L605.001 622.913C605.811 622.499 606.711 622.139 607.629 622.139C609.483 622.139 610.023 623.381 610.023 624.551V624.839C609.123 624.533 608.133 624.335 607.215 624.335C605.163 624.335 603.489 625.577 603.489 627.431C603.489 629.249 604.947 630.401 606.927 630.401C608.061 630.401 609.339 629.879 610.023 628.907V630.185H611.769V624.551C611.769 622.247 610.383 620.663 607.881 620.663ZM607.269 628.997C606.099 628.997 605.199 628.385 605.199 627.377C605.199 626.369 606.243 625.667 607.485 625.667C608.403 625.667 609.267 625.793 610.023 626.027V627.269C609.717 628.421 608.421 628.997 607.269 628.997ZM619.08 620.663C617.82 620.663 616.686 621.311 616.128 622.229V620.879H614.346V630.185H616.128V624.155C616.272 623.057 617.388 622.211 618.684 622.211C619.944 622.211 620.826 623.183 620.826 624.569V630.185H622.572V624.263C622.572 622.157 621.132 620.663 619.08 620.663ZM628.487 630.401C630.521 630.401 632.015 629.285 632.015 627.521C632.015 625.667 630.377 625.163 628.847 624.713C627.281 624.227 626.705 624.011 626.705 623.291C626.705 622.589 627.425 622.193 628.343 622.193C629.153 622.193 630.089 622.499 630.989 623.057L631.781 621.743C630.773 621.077 629.549 620.663 628.343 620.663C626.363 620.663 624.941 621.779 624.959 623.489C624.959 625.001 626.021 625.613 628.163 626.207C629.315 626.531 630.269 626.801 630.269 627.665C630.269 628.385 629.549 628.871 628.505 628.871C627.407 628.871 626.345 628.457 625.355 627.737L624.509 629.015C625.625 629.915 627.119 630.401 628.487 630.401ZM637.992 620.663C636.966 620.663 635.796 620.933 634.464 621.599L635.112 622.913C635.922 622.499 636.822 622.139 637.74 622.139C639.594 622.139 640.134 623.381 640.134 624.551V624.839C639.234 624.533 638.244 624.335 637.326 624.335C635.274 624.335 633.6 625.577 633.6 627.431C633.6 629.249 635.058 630.401 637.038 630.401C638.172 630.401 639.45 629.879 640.134 628.907V630.185H641.88V624.551C641.88 622.247 640.494 620.663 637.992 620.663ZM637.38 628.997C636.21 628.997 635.31 628.385 635.31 627.377C635.31 626.369 636.354 625.667 637.596 625.667C638.514 625.667 639.378 625.793 640.134 626.027V627.269C639.828 628.421 638.532 628.997 637.38 628.997ZM648.849 630.401C650.235 630.401 651.441 629.825 652.341 628.907L651.135 627.809C650.559 628.457 649.731 628.853 648.867 628.853C647.157 628.853 645.753 627.341 645.753 625.523C645.753 623.723 647.157 622.211 648.849 622.211C649.713 622.211 650.523 622.589 651.081 623.219L652.287 622.103C651.405 621.221 650.199 620.663 648.867 620.663C646.203 620.663 643.953 622.877 643.953 625.523C643.953 628.169 646.203 630.401 648.849 630.401ZM658.604 628.511C658.406 628.709 658.046 628.853 657.65 628.853C657.128 628.853 656.696 628.385 656.696 627.737V622.391H658.892V620.879H656.696V618.323H654.95V620.879H653.546V622.391H654.95V627.863C654.95 629.357 655.958 630.401 657.398 630.401C658.064 630.401 658.748 630.149 659.252 629.735L658.604 628.511ZM661.95 619.331C662.526 619.331 663.012 618.827 663.012 618.251C663.012 617.693 662.526 617.189 661.95 617.189C661.338 617.189 660.87 617.693 660.87 618.251C660.87 618.827 661.338 619.331 661.95 619.331ZM661.05 630.185H662.832V620.879H661.05V630.185ZM669.82 630.401C672.466 630.401 674.698 628.169 674.698 625.523C674.698 622.877 672.466 620.663 669.82 620.663C667.156 620.663 664.906 622.877 664.906 625.523C664.906 628.169 667.156 630.401 669.82 630.401ZM669.82 628.853C668.11 628.853 666.688 627.341 666.688 625.523C666.688 623.723 668.11 622.211 669.82 622.211C671.494 622.211 672.916 623.723 672.916 625.523C672.916 627.341 671.494 628.853 669.82 628.853ZM681.517 620.663C680.257 620.663 679.123 621.311 678.565 622.229V620.879H676.783V630.185H678.565V624.155C678.709 623.057 679.825 622.211 681.121 622.211C682.381 622.211 683.263 623.183 683.263 624.569V630.185H685.009V624.263C685.009 622.157 683.569 620.663 681.517 620.663Z" fill="#131F37"/>
<path d="M71.6443 583.976C71.449 584.171 71.449 584.487 71.6443 584.683L74.8262 587.865C75.0215 588.06 75.3381 588.06 75.5333 587.865C75.7286 587.669 75.7286 587.353 75.5333 587.158L72.7049 584.329L75.5333 581.501C75.7286 581.305 75.7286 580.989 75.5333 580.794C75.3381 580.598 75.0215 580.598 74.8262 580.794L71.6443 583.976ZM171.998 583.829H169.594V584.829H171.998V583.829ZM161.902 583.829H157.094V584.829H161.902V583.829ZM149.402 583.829H144.594V584.829H149.402V583.829ZM136.902 583.829H132.094V584.829H136.902V583.829ZM124.402 583.829H119.594V584.829H124.402V583.829ZM111.902 583.829H107.094V584.829H111.902V583.829ZM99.4017 583.829H94.594V584.829H99.4017V583.829ZM86.9017 583.829H82.094V584.829H86.9017V583.829ZM74.4017 583.829H71.9978V584.829H74.4017V583.829ZM71.2907 583.622C70.9002 584.013 70.9002 584.646 71.2907 585.036L77.6547 591.4C78.0452 591.791 78.6784 591.791 79.0689 591.4C79.4594 591.01 79.4594 590.376 79.0689 589.986L73.412 584.329L79.0689 578.672C79.4594 578.282 79.4594 577.649 79.0689 577.258C78.6784 576.868 78.0452 576.868 77.6547 577.258L71.2907 583.622ZM171.998 583.329H169.594V585.329H171.998V583.329ZM161.902 583.329H157.094V585.329H161.902V583.329ZM149.402 583.329H144.594V585.329H149.402V583.329ZM136.902 583.329H132.094V585.329H136.902V583.329ZM124.402 583.329H119.594V585.329H124.402V583.329ZM111.902 583.329H107.094V585.329H111.902V583.329ZM99.4017 583.329H94.594V585.329H99.4017V583.329ZM86.9017 583.329H82.094V585.329H86.9017V583.329ZM74.4017 583.329H71.9978V585.329H74.4017V583.329Z" fill="#C3D0E4"/>
<path d="M320.844 581.477C320.454 581.868 320.454 582.501 320.844 582.892L327.208 589.256C327.599 589.646 328.232 589.646 328.622 589.256C329.013 588.865 329.013 588.232 328.622 587.841L322.965 582.185L328.622 576.528C329.013 576.137 329.013 575.504 328.622 575.114C328.232 574.723 327.599 574.723 327.208 575.114L320.844 581.477ZM421.551 581.185H321.551V583.185H421.551V581.185Z" fill="#C3D0E4"/>
<circle cx="617.5" cy="582.185" r="20" fill="#FFBF9F"/>
<circle cx="309.672" cy="239.324" r="20" fill="#42979F"/>
<circle cx="250" cy="419.324" r="20" fill="#42979F"/>
</svg>
